<svg width="86" height="74" viewBox="0 0 86 74" fill="none" xmlns="http://www.w3.org/2000/svg">
<path fill-rule="evenodd" clip-rule="evenodd" d="M44.2764 1.62338C51.8071 1.61577 59.4287 -1.13557 66.4107 1.52606C73.9973 4.41819 80.9765 9.72148 84.1648 16.8294C87.3265 23.8777 85.4707 31.9214 83.3597 39.311C81.4321 46.0587 77.5904 51.9924 72.6354 57.1881C67.7534 62.3073 61.8623 66.2208 55.1387 68.9028C47.7417 71.8534 39.9345 74.6621 32.0171 73.3904C23.6562 72.0475 15.9595 67.7384 10.3801 61.7136C4.78906 55.6762 1.71686 47.8681 0.98562 39.8816C0.278747 32.1612 2.54824 24.5443 6.3479 17.6736C10.0107 11.0504 14.9466 4.6286 22.1726 1.57075C29.0339 -1.33277 36.7562 1.63098 44.2764 1.62338Z" fill="#FBFAFC"/>
<path d="M60.5845 20.2587C56.1329 15.8525 50.1207 13.3834 43.8572 13.3892H43.6228C37.3232 13.451 31.3026 15.9969 26.8698 20.4735C22.4371 24.9501 19.9506 30.9955 19.9509 37.2955C19.9509 47.1603 26.0611 55.4454 35.8884 58.9189C36.6492 59.1889 37.4506 59.3268 38.258 59.3267C40.1171 59.3162 41.8968 58.5712 43.2091 57.2541C44.5213 55.9371 45.2597 54.1547 45.2634 52.2955C45.2634 51.1766 45.7079 50.1035 46.4991 49.3123C47.2902 48.5212 48.3633 48.0767 49.4822 48.0767H60.3126C61.9071 48.0847 63.4564 47.5472 64.7034 46.5535C65.9504 45.5597 66.82 44.1695 67.1681 42.6134C67.5793 40.8004 67.7791 38.9459 67.7634 37.0869C67.7399 33.9464 67.0932 30.8418 65.8609 27.9531C64.6286 25.0645 62.8351 22.4491 60.5845 20.2587ZM64.4259 41.983C64.2178 42.9172 63.6963 43.7522 62.948 44.3491C62.1998 44.946 61.2698 45.2689 60.3126 45.2642H49.4822C47.6174 45.2642 45.8289 46.005 44.5103 47.3236C43.1917 48.6422 42.4509 50.4306 42.4509 52.2955C42.452 52.971 42.2909 53.6368 41.9811 54.2371C41.6713 54.8374 41.2219 55.3545 40.6707 55.745C40.1195 56.1354 39.4825 56.3878 38.8135 56.4809C38.1444 56.5739 37.4628 56.505 36.8259 56.2798C28.1541 53.2001 22.7634 45.9322 22.7634 37.2955C22.7631 31.7386 24.9556 26.4061 28.8644 22.4565C32.7732 18.5068 38.0827 16.2591 43.6392 16.2017H43.8572C49.4137 16.2222 54.7395 18.4261 58.6857 22.3381C62.6319 26.2501 64.8821 31.5565 64.9509 37.1126C64.9647 38.7509 64.7885 40.3853 64.4259 41.983ZM46.2009 25.108C46.2009 25.5715 46.0635 26.0246 45.8059 26.4101C45.5484 26.7955 45.1824 27.0959 44.7541 27.2733C44.3258 27.4507 43.8546 27.4971 43.3999 27.4067C42.9453 27.3162 42.5277 27.093 42.1999 26.7652C41.8721 26.4375 41.6489 26.0198 41.5585 25.5652C41.468 25.1106 41.5144 24.6393 41.6918 24.211C41.8692 23.7828 42.1696 23.4167 42.5551 23.1592C42.9405 22.9017 43.3936 22.7642 43.8572 22.7642C44.4788 22.7642 45.0749 23.0111 45.5145 23.4507C45.954 23.8902 46.2009 24.4863 46.2009 25.108ZM35.8884 30.733C35.8884 31.1965 35.751 31.6496 35.4934 32.0351C35.2359 32.4205 34.8699 32.7209 34.4416 32.8983C34.0133 33.0757 33.5421 33.1221 33.0874 33.0317C32.6328 32.9412 32.2152 32.718 31.8874 32.3902C31.5596 32.0625 31.3364 31.6448 31.246 31.1902C31.1555 30.7356 31.2019 30.2643 31.3793 29.836C31.5567 29.4078 31.8571 29.0417 32.2426 28.7842C32.628 28.5267 33.0811 28.3892 33.5447 28.3892C34.1663 28.3892 34.7624 28.6361 35.202 29.0757C35.6415 29.5152 35.8884 30.1114 35.8884 30.733ZM35.8884 43.858C35.8884 44.3215 35.751 44.7746 35.4934 45.1601C35.2359 45.5455 34.8699 45.8459 34.4416 46.0233C34.0133 46.2007 33.5421 46.2471 33.0874 46.1567C32.6328 46.0662 32.2152 45.843 31.8874 45.5152C31.5596 45.1875 31.3364 44.7698 31.246 44.3152C31.1555 43.8605 31.2019 43.3893 31.3793 42.961C31.5567 42.5328 31.8571 42.1667 32.2426 41.9092C32.628 41.6517 33.0811 41.5142 33.5447 41.5142C34.1663 41.5142 34.7624 41.7611 35.202 42.2007C35.6415 42.6402 35.8884 43.2364 35.8884 43.858ZM56.5134 30.733C56.5134 31.1965 56.376 31.6496 56.1184 32.0351C55.8609 32.4205 55.4949 32.7209 55.0666 32.8983C54.6383 33.0757 54.1671 33.1221 53.7124 33.0317C53.2578 32.9412 52.8402 32.718 52.5124 32.3902C52.1846 32.0625 51.9614 31.6448 51.871 31.1902C51.7805 30.7356 51.8269 30.2643 52.0043 29.836C52.1817 29.4078 52.4821 29.0417 52.8676 28.7842C53.253 28.5267 53.7061 28.3892 54.1697 28.3892C54.7913 28.3892 55.3874 28.6361 55.827 29.0757C56.2665 29.5152 56.5134 30.1114 56.5134 30.733Z" fill="#7431B8"/>
</svg>
