<svg width="86" height="74" viewBox="0 0 86 74" fill="none" xmlns="http://www.w3.org/2000/svg">
<path fill-rule="evenodd" clip-rule="evenodd" d="M43.9907 1.62338C51.5214 1.61577 59.143 -1.13557 66.125 1.52606C73.7116 4.41819 80.6908 9.72148 83.8791 16.8294C87.0407 23.8777 85.185 31.9214 83.074 39.311C81.1464 46.0587 77.3047 51.9924 72.3497 57.1881C67.4677 62.3073 61.5766 66.2208 54.853 68.9028C47.456 71.8534 39.6488 74.6621 31.7314 73.3904C23.3705 72.0475 15.6738 67.7384 10.0944 61.7136C4.50336 55.6762 1.43115 47.8681 0.699914 39.8816C-0.00695872 32.1612 2.26253 24.5443 6.06219 17.6736C9.72501 11.0504 14.6609 4.6286 21.8869 1.57075C28.7482 -1.33277 36.4705 1.63098 43.9907 1.62338Z" fill="#FBFAFC"/>
<path d="M37.4152 33.5455C37.4152 33.1725 37.5634 32.8148 37.8271 32.5511C38.0908 32.2874 38.4485 32.1392 38.8215 32.1392H46.3215C46.6944 32.1392 47.0521 32.2874 47.3158 32.5511C47.5796 32.8148 47.7277 33.1725 47.7277 33.5455C47.7277 33.9184 47.5796 34.2761 47.3158 34.5398C47.0521 34.8035 46.6944 34.9517 46.3215 34.9517H38.8215C38.4485 34.9517 38.0908 34.8035 37.8271 34.5398C37.5634 34.2761 37.4152 33.9184 37.4152 33.5455ZM66.4777 24.1705V54.1705C66.4777 55.0407 66.132 55.8753 65.5167 56.4907C64.9013 57.106 64.0667 57.4517 63.1965 57.4517H21.9465C21.0762 57.4517 20.2416 57.106 19.6263 56.4907C19.0109 55.8753 18.6652 55.0407 18.6652 54.1705V24.1705C18.6652 23.3002 19.0109 22.4656 19.6263 21.8503C20.2416 21.2349 21.0762 20.8892 21.9465 20.8892H31.7902V18.5455C31.7902 17.1779 32.3335 15.8664 33.3005 14.8994C34.2674 13.9325 35.5789 13.3892 36.9465 13.3892H48.1965C49.564 13.3892 50.8755 13.9325 51.8425 14.8994C52.8095 15.8664 53.3527 17.1779 53.3527 18.5455V20.8892H63.1965C64.0667 20.8892 64.9013 21.2349 65.5167 21.8503C66.132 22.4656 66.4777 23.3002 66.4777 24.1705ZM34.6027 20.8892H50.5402V18.5455C50.5402 17.9239 50.2933 17.3277 49.8538 16.8882C49.4142 16.4486 48.8181 16.2017 48.1965 16.2017H36.9465C36.3249 16.2017 35.7287 16.4486 35.2892 16.8882C34.8497 17.3277 34.6027 17.9239 34.6027 18.5455V20.8892ZM21.4777 24.1705V34.1994C27.9353 37.7685 35.1932 39.6402 42.5715 39.6392C49.9501 39.6404 57.2082 37.7678 63.6652 34.197V24.1705C63.6652 24.0461 63.6158 23.9269 63.5279 23.839C63.44 23.7511 63.3208 23.7017 63.1965 23.7017H21.9465C21.8222 23.7017 21.7029 23.7511 21.615 23.839C21.5271 23.9269 21.4777 24.0461 21.4777 24.1705ZM63.6652 54.1705V37.3822C57.1329 40.7139 49.9044 42.4511 42.5715 42.4517C35.2387 42.4525 28.01 40.716 21.4777 37.3845V54.1705C21.4777 54.2948 21.5271 54.414 21.615 54.5019C21.7029 54.5898 21.8222 54.6392 21.9465 54.6392H63.1965C63.3208 54.6392 63.44 54.5898 63.5279 54.5019C63.6158 54.414 63.6652 54.2948 63.6652 54.1705Z" fill="#7431B8"/>
</svg>
