<svg width="181" height="180" viewBox="0 0 181 180" fill="none" xmlns="http://www.w3.org/2000/svg">
<path d="M54.9277 36.8712C54.9277 36.8712 46.4071 35.2074 45.8806 46.8542C45.8806 55.4853 59.2952 52.4696 59.1912 59.7488C62.7269 54.5494 59.3992 47.5821 54.0957 45.0864C55.9675 43.7345 56.7421 39.8574 56.7421 39.8574" fill="#A8542A"/>
<path d="M54.8535 37.1391C54.8323 37.1349 54.811 37.1316 54.7897 37.1281C54.7634 37.1239 54.7369 37.1206 54.7106 37.1165C54.6813 37.1119 54.799 37.1266 54.7299 37.1192C54.7105 37.1171 54.6911 37.1144 54.6717 37.1121C54.4441 37.0857 54.2149 37.0721 53.9858 37.0681C53.6525 37.0623 53.3192 37.0772 52.9878 37.1128C52.9433 37.1175 52.8989 37.1228 52.8544 37.1282C52.8313 37.131 52.7701 37.1393 52.8268 37.1315C52.8 37.1352 52.7732 37.139 52.7465 37.143C52.6483 37.1577 52.5504 37.1738 52.4529 37.1921C52.2378 37.2323 52.0246 37.2817 51.8134 37.3403C50.8641 37.5994 49.985 38.0682 49.241 38.7122C48.2475 39.6143 47.4943 40.7497 47.0493 42.0157C46.7352 42.8791 46.5079 43.7717 46.3707 44.6803C46.2187 45.641 46.0987 46.6436 46.1967 47.6155C46.3134 48.8625 46.8647 50.0287 47.7544 50.9103C48.6366 51.7807 49.7616 52.3647 50.8902 52.8503C52.0764 53.3606 53.3061 53.7609 54.5068 54.2343C55.6366 54.6796 56.768 55.1807 57.716 55.9538C58.6076 56.6568 59.2074 57.6649 59.3998 58.7838C59.4502 59.1026 59.4738 59.4251 59.4701 59.7478L58.9505 59.6071C60.1978 57.7475 60.6517 55.4671 60.2114 53.2716C59.4692 49.797 57.1586 46.8626 53.9551 45.3262C53.747 45.2275 53.8032 44.9561 53.9551 44.8446C54.71 44.2904 55.197 43.4033 55.5742 42.567C55.9029 41.8234 56.1661 41.0525 56.3609 40.2632C56.4015 40.1038 56.4409 39.9435 56.4732 39.7822C56.5438 39.4306 57.0815 39.5794 57.011 39.9305C56.9095 40.4142 56.7807 40.8919 56.6253 41.3611C56.3386 42.319 55.9222 43.2332 55.3879 44.0783C55.0808 44.559 54.691 44.9814 54.2366 45.3262V44.8446C56.3732 45.8785 58.1576 47.5194 59.3664 49.5622C60.5417 51.5341 61.1601 53.8748 60.8534 56.1686C60.6731 57.5017 60.1866 58.7749 59.4321 59.8886C59.3664 59.9937 59.2397 60.0435 59.12 60.0111C59.0004 59.9787 58.9161 59.8717 58.9124 59.7478C58.9535 58.62 58.5278 57.5251 57.7355 56.7213C56.9289 55.913 55.849 55.3846 54.7899 54.9461C53.5667 54.4398 52.306 54.0306 51.0807 53.5298C49.8835 53.0405 48.7009 52.4712 47.7103 51.6258C46.7195 50.7927 46.0327 49.6547 45.7571 48.3899C45.5953 47.5183 45.569 46.627 45.6791 45.7474C45.7677 44.7395 45.948 43.7417 46.2176 42.7665C46.628 41.3277 47.2919 39.9397 48.3152 38.8345C49.0727 38.0204 50.0089 37.3936 51.0502 37.0034C51.8484 36.708 52.689 36.5431 53.5396 36.5151C54.0071 36.4869 54.4763 36.5121 54.9381 36.5904C54.9592 36.5945 54.9807 36.5972 55.0019 36.6013C55.3539 36.6697 55.2048 37.2074 54.8536 37.1391L54.8535 37.1391Z" fill="black"/>
<path d="M64.9216 54.7197L66.5277 79.7068C67.0518 83.1957 71.8589 85.8126 76.7967 83.7365C78.3187 83.2963 79.7667 82.6319 81.0929 81.765L93.7637 73.5324C93.1347 72.6766 89.6407 69.31 89.0167 68.1499C88.0407 66.3355 87.3477 64.606 87.0347 63.3225L76.6631 68.9707L73.9145 55.169C73.2441 51.8023 70.4415 49.2761 67.0236 48.9575L63.4794 48.627" fill="#FFC41F"/>
<path d="M65.2005 54.7208L65.3468 56.9973L65.7028 62.5361L66.1441 69.4014L66.5462 75.6573L66.7846 79.3677C66.7911 79.4687 66.7955 79.5699 66.8041 79.6708C66.8101 79.7411 66.7986 79.6572 66.8126 79.7332C66.87 80.057 66.9628 80.3736 67.0893 80.6771C67.6641 82.0268 68.8749 83.0261 70.2017 83.5924C71.8252 84.2578 73.6207 84.3788 75.3188 83.9374C75.8023 83.8165 76.2544 83.6337 76.7225 83.4686C77.1877 83.3045 77.6614 83.1734 78.1217 82.9927C79.112 82.5997 80.0603 82.1081 80.9521 81.5253C81.9109 80.9034 82.8692 80.2808 83.8269 79.6574L89.4732 75.9889L93.4234 73.4222L93.6228 73.2926L93.5227 73.6742C93.5127 73.6606 93.4707 73.6218 93.5169 73.6657C93.5015 73.6485 93.4871 73.6305 93.4738 73.6117C93.4404 73.5712 93.407 73.5307 93.3729 73.4907C93.2895 73.3928 93.2039 73.2967 93.1177 73.2013C92.8993 72.9595 92.6761 72.7219 92.4524 72.4849C91.8926 71.8918 91.3276 71.3036 90.7722 70.7064C90.2635 70.1594 89.7547 69.6085 89.2902 69.023C88.7561 68.3498 88.3923 67.584 88.0299 66.8071C87.4992 65.7142 87.0757 64.5724 86.7655 63.3977L87.1751 63.5643L83.6654 65.4756L78.0777 68.5187L76.8035 69.2126C76.7285 69.2551 76.6382 69.261 76.5583 69.2285C76.4784 69.196 76.4178 69.1287 76.3939 69.0459L75.7659 65.8924L74.5358 59.7156L73.6856 55.4462C73.527 54.5808 73.2285 53.7471 72.8019 52.9776C72.0648 51.6926 70.9655 50.653 69.6413 49.9887C68.6488 49.4906 67.5951 49.2906 66.5015 49.1886L63.7035 48.9277L63.4793 48.9068C63.125 48.8738 63.1215 48.3157 63.4793 48.3491L65.882 48.5731C66.8631 48.6646 67.8417 48.7307 68.7862 49.0389C71.544 49.9518 73.6037 52.269 74.187 55.1148C74.4288 56.3132 74.6646 57.5129 74.9034 58.7118L76.1509 64.9762L76.6583 67.524C76.7444 67.9566 76.8679 68.3984 76.9197 68.8368C76.9221 68.8571 76.9278 68.8775 76.9318 68.8977L76.5221 68.731L80.0318 66.8197L85.6195 63.7767L86.8937 63.0828C86.9687 63.0403 87.059 63.0345 87.1389 63.067C87.2187 63.0995 87.2793 63.1667 87.3034 63.2494C87.5705 64.2761 87.9306 65.2763 88.3793 66.2375C88.7398 67.035 89.0966 67.8725 89.6368 68.568C90.5757 69.7769 91.6831 70.8604 92.7335 71.9706C93.1849 72.4191 93.6093 72.8939 94.0044 73.3928C94.08 73.526 94.0356 73.6953 93.9043 73.7743L90.9676 75.6824L85.281 79.3771L81.3862 81.9077C80.3076 82.6172 79.1526 83.2032 77.943 83.6547C77.4706 83.8283 76.9892 83.9696 76.5184 84.1467C76.0524 84.3226 75.5732 84.4614 75.0853 84.5619C74.1938 84.7487 73.2789 84.7982 72.3724 84.7087C70.7394 84.5637 69.1953 83.9012 67.965 82.8176C67.0966 82.0243 66.3585 80.8885 66.2478 79.6913C66.1668 78.8152 66.1347 77.9318 66.0783 77.0539L65.7047 71.242L65.2591 64.3087L64.8643 58.1672L64.6527 54.8744L64.6428 54.7208C64.6197 54.3624 65.1776 54.3638 65.2005 54.7208L65.2005 54.7208Z" fill="black"/>
<path d="M93.76 73.5557C93.2353 73.837 92.1351 72.8871 90.9243 71.2346L93.3111 69.6797C94.0873 71.7169 94.3054 73.2634 93.76 73.5557Z" fill="black"/>
<path d="M93.9007 73.7963C93.3974 74.0479 92.861 73.6837 92.4754 73.3768C91.7755 72.82 91.2101 72.091 90.6834 71.3751C90.6078 71.2419 90.6522 71.0727 90.7834 70.9936L93.1702 69.4387C93.2453 69.3964 93.3355 69.3907 93.4152 69.4232C93.495 69.4556 93.5556 69.5227 93.5799 69.6053C93.9408 70.4829 94.1889 71.4027 94.3181 72.3428C94.3699 72.8222 94.3854 73.5188 93.9007 73.7963C93.7683 73.8677 93.6032 73.8213 93.5273 73.6915C93.4514 73.5617 93.492 73.395 93.6192 73.3147C93.6228 73.3126 93.673 73.276 93.6455 73.3004C93.6161 73.3266 93.6621 73.2838 93.6669 73.2779C93.7128 73.2211 93.6489 73.3073 93.6736 73.2707C93.6851 73.2538 93.6956 73.2363 93.705 73.2181C93.7277 73.1732 93.7023 73.231 93.7144 73.2008C93.723 73.1791 93.7301 73.1566 93.7367 73.1341C93.7513 73.0848 93.7625 73.0346 93.7701 72.9837C93.7948 72.7305 93.7867 72.4752 93.7457 72.2241C93.6032 71.3771 93.3672 70.5485 93.0421 69.7536L93.4517 69.9202L91.0649 71.4751L91.165 71.0936C91.6169 71.7383 92.1392 72.3307 92.7222 72.8597C92.8998 73.0227 93.1 73.159 93.3166 73.2645C93.3521 73.2805 93.3888 73.2937 93.4263 73.3041C93.451 73.3092 93.4754 73.3154 93.4995 73.323C93.52 73.3249 93.6219 73.3244 93.5584 73.3293C93.5735 73.3273 93.5885 73.3241 93.603 73.3196C93.6712 73.302 93.557 73.3458 93.6194 73.3147C93.9394 73.1547 94.2221 73.6356 93.9007 73.7963Z" fill="black"/>
<path d="M89.0169 68.1702C88.0436 66.3544 87.3532 64.6238 87.042 63.3398L88.9677 62.2994L92.1354 60.5879L95.9655 67.949L93.311 69.6783L90.9243 71.2332C90.2189 70.2573 89.5816 69.2338 89.0169 68.1702Z" fill="#F5EDFC"/>
<path d="M88.7762 68.3112C87.9491 66.7631 87.1928 65.1252 86.7731 63.4142C86.7416 63.2925 86.7937 63.1644 86.9013 63.0993L91.0711 60.8463L91.9946 60.3473C92.1279 60.2718 92.2971 60.3162 92.3762 60.4474L93.6749 62.9435L95.7328 66.8985L96.2062 67.8085C96.28 67.942 96.236 68.1099 96.1062 68.19L92.132 70.7791L91.065 71.4743C90.9316 71.5484 90.7634 71.5043 90.6835 71.3742C89.9784 70.398 89.3412 69.3746 88.7761 68.3112C88.6061 67.9951 89.0875 67.7131 89.2577 68.0297C89.8227 69.0931 90.46 70.1165 91.1651 71.0927L90.7835 70.9927C92.134 70.1129 93.4845 69.2331 94.8349 68.3533L95.8247 67.7085L95.7246 68.09L94.4259 65.5939L92.368 61.6389L91.8945 60.7289L92.276 60.8289L88.3871 62.9302L87.1827 63.5809L87.3108 63.266C87.7196 64.9327 88.452 66.5216 89.2576 68.0297C89.4268 68.3462 88.9455 68.6282 88.7762 68.3112Z" fill="black"/>
<path d="M90.2196 61.6236L92.127 60.5971L93.8342 56.5148C94.3439 55.2047 95.5441 54.2902 96.9425 54.1465L102.731 54.8019C102.731 54.8019 107.032 55.1005 104.413 57.6798C104.413 57.6798 105.486 58.856 103.711 60.1294C104.151 61.0475 101.706 62.4883 101.006 62.5731C101.267 63.5664 100.598 64.3082 99.2841 64.2643L98.1068 64.4089L97.1569 66.465C96.8384 67.1545 96.3291 67.7383 95.6893 68.1476L94.1639 69.1232" fill="#F5EDFC"/>
<path d="M90.0788 61.3839L91.9863 60.3574L91.8581 60.5241L93.3524 56.9508C93.6307 56.2852 93.9004 55.6377 94.407 55.1024C94.8337 54.6558 95.3566 54.3122 95.9358 54.0976C96.2764 53.9491 96.6445 53.8739 97.016 53.877C98.3929 53.993 99.7676 54.1886 101.141 54.3441C101.939 54.4345 102.768 54.4803 103.557 54.6451C104.126 54.764 104.76 54.9581 105.178 55.3844C105.713 55.9303 105.564 56.6704 105.155 57.2454C104.992 57.4714 104.809 57.6831 104.61 57.8781V57.4837C104.842 57.7537 104.982 58.091 105.008 58.4462C105.079 59.2693 104.467 59.9211 103.852 60.3713L103.952 59.9898C104.28 60.7272 103.571 61.4041 103.041 61.8176C102.708 62.0785 102.351 62.3075 101.975 62.5017C101.698 62.664 101.395 62.7794 101.08 62.8432L101.275 62.5001C101.402 62.9309 101.343 63.3952 101.113 63.781C100.851 64.1522 100.454 64.4048 100.007 64.4839C99.6567 64.5572 99.2953 64.5429 98.9408 64.5865L98.1067 64.6889L98.3475 64.5508L97.4394 66.5164C97.1956 67.0597 96.8436 67.5477 96.405 67.9506C96.0695 68.2315 95.7115 68.4843 95.3345 68.7064L94.3046 69.3652C94.0014 69.5592 93.7213 69.0766 94.0231 68.8836L95.4354 67.9803C96.1106 67.5534 96.6447 66.9365 96.9707 66.2072L97.7763 64.4636C97.8013 64.3982 97.8307 64.3346 97.8642 64.2732C97.9422 64.171 98.0656 64.1139 98.194 64.1205L99.1586 64.002C99.5867 63.9495 100.005 63.9922 100.384 63.7396C100.758 63.4907 100.84 63.0632 100.737 62.6484C100.697 62.5001 100.784 62.3472 100.932 62.3054C101.171 62.2605 101.402 62.1775 101.616 62.0595C101.941 61.898 102.252 61.7098 102.547 61.4969C102.823 61.3077 103.07 61.0795 103.28 60.8195C103.357 60.7245 103.417 60.6177 103.46 60.5033C103.49 60.4297 103.494 60.3476 103.471 60.2714C103.399 60.1376 103.443 59.9714 103.571 59.8899C104.03 59.5539 104.528 59.0439 104.449 58.4302C104.431 58.2835 104.382 58.1423 104.306 58.0154C104.28 57.9686 104.249 57.9248 104.219 57.8804C104.209 57.8656 104.261 57.9282 104.216 57.8782C104.11 57.7681 104.11 57.5939 104.216 57.4838C104.531 57.1698 104.892 56.7887 104.972 56.3322C104.976 56.3085 104.979 56.2844 104.979 56.2603C104.98 56.2279 104.98 56.1958 104.978 56.1634C104.976 56.1301 104.983 56.1642 104.969 56.1066C104.959 56.0649 104.947 56.024 104.931 55.9842C104.951 56.0319 104.918 55.9611 104.91 55.9477C104.893 55.9182 104.876 55.8894 104.856 55.8615C104.831 55.8254 104.881 55.8911 104.853 55.8565C104.842 55.843 104.831 55.8299 104.819 55.8171C104.792 55.7879 104.765 55.7596 104.736 55.7327C104.519 55.5565 104.27 55.4239 104.003 55.3422C103.717 55.2478 103.424 55.1771 103.127 55.1308C103.075 55.1221 103.022 55.1144 102.969 55.1069C102.97 55.1071 103.017 55.1125 102.953 55.1049C102.929 55.1022 102.906 55.0992 102.882 55.0966C102.834 55.0912 102.786 55.0873 102.737 55.0824C102.631 55.0718 102.526 55.0588 102.42 55.0468L100.199 54.7953L97.6697 54.5089C97.4489 54.4839 97.2273 54.4506 97.0057 54.4337C96.6065 54.4033 96.1381 54.5904 95.7872 54.766C95.2086 55.0538 94.7213 55.4966 94.3796 56.0451C94.2342 56.2952 94.1087 56.5563 94.0043 56.8261L93.076 59.0462C92.8502 59.5862 92.6432 60.1394 92.3967 60.6704C92.2843 60.9125 91.9215 61.0254 91.6992 61.1451L90.5783 61.7481L90.3603 61.8655C90.0442 62.0355 89.7623 61.5542 90.0788 61.3839L90.0788 61.3839Z" fill="black"/>
<path d="M45.7243 75.3115L45.381 76.87C44.9331 78.9038 45.9007 80.9859 47.7441 81.9549L52.9944 84.7148L54.4082 74.1055" fill="black"/>
<path d="M45.9931 75.3852C45.8234 76.156 45.5721 76.9568 45.5528 77.7497C45.5194 79.1799 46.1882 80.5358 47.3432 81.3798C47.8516 81.7098 48.3818 82.0049 48.9301 82.2633L51.447 83.5862L53.1351 84.4736L52.7155 84.7144L53.1925 81.1353L53.9535 75.4243L54.1293 74.105C54.1343 73.9532 54.2563 73.8312 54.4081 73.8262C54.5618 73.8269 54.6863 73.9513 54.687 74.105L54.2101 77.6841L53.4491 83.3952L53.2733 84.7144C53.2706 84.8132 53.2167 84.9034 53.131 84.9526C53.0453 85.0017 52.9403 85.0027 52.8537 84.9552L48.8088 82.829C48.2797 82.5509 47.7189 82.2973 47.2181 81.9686C45.9687 81.1441 45.159 79.7989 45.0151 78.3089C44.9146 77.2721 45.2344 76.2403 45.4553 75.2369C45.5325 74.8865 46.0703 75.0348 45.9931 75.3851V75.3852Z" fill="black"/>
<path d="M62.6699 134.664L64.0192 148.933L83.6101 147.145C83.6101 147.145 83.4366 141.563 76.0915 141.632C74.7085 141.649 73.5476 140.594 73.4328 139.216C73.2917 137.48 73.1629 135.799 73.1629 135.799" fill="#F5EDFC"/>
<path d="M62.9488 134.663L63.4074 139.514L64.1325 147.181L64.2982 148.933L64.0193 148.654L65.9669 148.476L70.6442 148.049L76.3035 147.532L81.1969 147.086L82.8148 146.938C83.0671 146.9 83.3215 146.877 83.5765 146.868C83.5878 146.868 83.599 146.867 83.6102 146.865L83.3313 147.144C83.3311 147.119 83.3296 147.094 83.3266 147.069C83.3224 147.039 83.3214 147.009 83.3182 146.979C83.3165 146.962 83.3142 146.945 83.3124 146.928C83.3044 146.85 83.3133 146.93 83.3118 146.92C83.2751 146.667 83.2217 146.417 83.1521 146.17C82.9382 145.401 82.5577 144.688 82.0377 144.082C81.2478 143.203 80.2186 142.574 79.0764 142.271C78.278 142.052 77.4553 141.932 76.6275 141.916C76.1631 141.902 75.7058 141.927 75.2537 141.797C74.8391 141.675 74.4559 141.465 74.1306 141.181C73.7634 140.857 73.4835 140.446 73.3169 139.985C73.1194 139.449 73.1245 138.854 73.0795 138.291C73.0131 137.46 72.948 136.629 72.8841 135.798C72.8567 135.44 73.4146 135.442 73.4418 135.798C73.4933 136.469 73.5457 137.141 73.5991 137.812C73.6756 138.778 73.617 139.83 74.3206 140.589C74.5999 140.892 74.9534 141.117 75.3462 141.242C75.7877 141.38 76.2366 141.344 76.6925 141.36C77.5401 141.381 78.3821 141.504 79.2004 141.726C80.3944 142.04 81.4779 142.68 82.3299 143.573C82.9212 144.223 83.3651 144.992 83.6314 145.829C83.7769 146.253 83.8636 146.696 83.889 147.144C83.8857 147.297 83.7627 147.42 83.6101 147.423L81.6626 147.601L76.9852 148.028L71.3259 148.545L66.4325 148.991L64.8146 149.139C64.5629 149.162 64.3058 149.203 64.0529 149.209C64.0417 149.209 64.0304 149.211 64.0192 149.212C63.8592 149.226 63.7535 149.071 63.7404 148.933L63.2817 144.083L62.5566 136.415L62.391 134.663C62.3572 134.306 62.9152 134.309 62.9487 134.663L62.9488 134.663Z" fill="black"/>
<path d="M74.3847 140.789C74.9069 141.379 75.6596 141.713 76.4474 141.704C83.9862 141.634 84.1643 147.362 84.1643 147.362L69.359 147.385L69.591 146.536C70.28 144.016 72.0291 141.919 74.3847 140.789V140.789Z" fill="white"/>
<path d="M74.5818 140.59C74.8401 140.883 75.1634 141.111 75.5258 141.257C75.9098 141.386 76.3144 141.443 76.7191 141.424C77.4524 141.428 78.1837 141.498 78.9042 141.634C79.9877 141.826 81.0164 142.252 81.9185 142.882C83.1102 143.75 83.9545 145.013 84.3006 146.446C84.3789 146.745 84.4266 147.052 84.4431 147.361C84.4413 147.514 84.3175 147.638 84.1643 147.64L82.6929 147.642L79.1589 147.647L74.8827 147.654L71.1845 147.66C70.5869 147.66 69.9818 147.689 69.3847 147.662C69.3761 147.662 69.3674 147.662 69.3589 147.662C69.2723 147.661 69.191 147.62 69.1385 147.551C69.086 147.482 69.0681 147.393 69.09 147.309C69.337 146.406 69.5864 145.517 70.0145 144.678C70.9378 142.877 72.4226 141.427 74.244 140.547C74.5661 140.392 74.8493 140.873 74.5255 141.028C72.2793 142.109 70.5966 144.091 69.8952 146.483C69.8016 146.807 69.7167 147.133 69.6279 147.458L69.359 147.105L70.8304 147.102L74.3643 147.097L78.6406 147.09L82.3386 147.085L83.5538 147.083C83.7484 147.069 83.9437 147.069 84.1384 147.082C84.147 147.083 84.1556 147.083 84.1642 147.082L83.8854 147.361C83.8833 147.299 83.8769 147.237 83.8701 147.175C83.8667 147.144 83.8626 147.112 83.8586 147.081C83.8714 147.183 83.855 147.059 83.8492 147.023C83.8341 146.929 83.8165 146.835 83.7964 146.742C83.6848 146.203 83.4949 145.685 83.2327 145.201C82.3491 143.564 80.7205 142.586 78.9155 142.204C78.1482 142.049 77.3668 141.974 76.584 141.981C75.6785 142.012 74.8041 141.649 74.1874 140.985C73.9469 140.719 74.3401 140.324 74.5818 140.59Z" fill="black"/>
<path d="M68.4696 76.2119L74.5321 135.419L58.9073 136.801C58.9073 136.801 55.0644 93.5962 54.9478 87.0698C54.8312 80.5435 55.4499 71.7773 55.4499 71.7773" fill="#389B48"/>
<path d="M68.7484 76.2104L68.9104 77.7922L69.3512 82.0973L70.0032 88.4651L70.7988 96.2352L71.6704 104.747L72.5503 113.34L73.3709 121.354L74.0646 128.129L74.5637 133.003C74.6426 133.773 74.7514 134.547 74.8009 135.32C74.803 135.353 74.8076 135.385 74.811 135.418C74.8273 135.577 74.6694 135.685 74.5321 135.697L69.2673 136.162L60.8371 136.908L58.9073 137.078C58.7545 137.075 58.6312 136.952 58.6285 136.799C58.5793 136.247 58.5305 135.695 58.4819 135.143C58.3509 133.658 58.2206 132.174 58.091 130.689C57.9025 128.531 57.7153 126.373 57.5294 124.215C57.3077 121.641 57.0881 119.067 56.8704 116.494C56.6397 113.763 56.4121 111.033 56.1875 108.302C55.9718 105.673 55.7607 103.044 55.5542 100.414C55.3763 98.1366 55.2056 95.8586 55.0421 93.5801C54.9264 91.9383 54.8135 90.2959 54.7301 88.652C54.6057 86.1987 54.6475 83.7391 54.7147 81.2846C54.7972 78.2756 54.9384 75.2687 55.1383 72.2639C55.1489 72.1012 55.1599 71.9385 55.1711 71.7758C55.1962 71.4199 55.7541 71.4171 55.7288 71.7758C55.5722 73.9988 55.46 76.2258 55.3696 78.4524C55.2431 81.5626 55.1264 84.6919 55.2491 87.8041C55.3067 89.2642 55.4046 90.723 55.5031 92.1808C55.6478 94.3224 55.804 96.4633 55.9717 98.6034C56.1685 101.168 56.3718 103.733 56.5815 106.297C56.8034 109.027 57.0291 111.756 57.2589 114.486C57.4812 117.133 57.706 119.78 57.9333 122.427C58.1284 124.701 58.325 126.975 58.5231 129.249C58.6694 130.929 58.8165 132.61 58.9644 134.29C59.0343 135.085 59.1631 135.898 59.1769 136.696C59.1775 136.73 59.183 136.765 59.1861 136.799L58.9072 136.52L64.1722 136.055L72.6024 135.31L74.5322 135.139L74.2533 135.418L74.0913 133.836L73.6505 129.531L72.9985 123.163L72.2029 115.393L71.3312 106.881L70.4513 98.288L69.6307 90.2739L68.937 83.4995L68.4379 78.6252C68.3591 77.8549 68.2502 77.0812 68.2007 76.3084C68.1986 76.2757 68.194 76.243 68.1907 76.2104C68.1542 75.8537 68.7121 75.8562 68.7484 76.2104V76.2104Z" fill="black"/>
<path d="M23.6314 113.465L10.2116 118.499L17.0617 136.94C17.0617 136.94 22.4034 135.313 20.4159 128.242C20.0376 126.911 20.7523 125.515 22.0526 125.044C23.6918 124.453 25.2805 123.889 25.2805 123.889" fill="#F5EDFC"/>
<path d="M23.7055 113.735L19.1441 115.446L11.933 118.151L10.2857 118.769L10.4805 118.426L11.1614 120.259L12.7969 124.662L14.7757 129.989L16.4868 134.595L17.0525 136.118C17.1551 136.352 17.2441 136.591 17.3188 136.835C17.3221 136.846 17.3261 136.857 17.3306 136.867L16.9876 136.672C17.0134 136.664 17.0398 136.656 17.0647 136.646C17.0915 136.635 17.1193 136.626 17.1463 136.615C17.1632 136.609 17.1799 136.602 17.1968 136.595C17.2656 136.569 17.2025 136.593 17.211 136.59C17.4464 136.487 17.6747 136.369 17.8945 136.237C18.5888 135.821 19.182 135.257 19.6313 134.584C20.2773 133.563 20.6074 132.374 20.5802 131.166C20.5693 130.296 20.4486 129.43 20.2208 128.589C20.0877 128.17 20.029 127.73 20.0475 127.291C20.0825 126.874 20.2044 126.469 20.4054 126.103C20.638 125.686 20.9693 125.332 21.3701 125.072C21.8599 124.754 22.4595 124.602 23.0048 124.407C23.7383 124.144 24.4722 123.882 25.2064 123.621C25.5453 123.501 25.6911 124.04 25.3547 124.159C24.7445 124.376 24.1347 124.593 23.5252 124.812C22.6476 125.126 21.6122 125.334 21.0403 126.139C20.7968 126.478 20.6468 126.875 20.6053 127.291C20.5643 127.742 20.6852 128.143 20.7928 128.575C21.0067 129.405 21.1225 130.257 21.1377 131.113C21.1714 132.377 20.8497 133.625 20.2091 134.715C19.7375 135.474 19.1046 136.119 18.3552 136.606C17.9788 136.863 17.5684 137.066 17.1359 137.21C16.9878 137.247 16.8366 137.162 16.7929 137.015L16.1119 135.182L14.4764 130.779L12.4976 125.452L10.7865 120.846L10.2208 119.323C10.1328 119.086 10.0262 118.848 9.95451 118.606C9.95134 118.595 9.94663 118.585 9.94274 118.574C9.9048 118.426 9.99087 118.274 10.1375 118.231L14.6989 116.52L21.9101 113.815L23.5573 113.197C23.8937 113.071 24.0391 113.609 23.7055 113.735L23.7055 113.735Z" fill="black"/>
<path d="M20.7837 126.374C20.3508 127.032 20.2253 127.846 20.4396 128.604C22.4795 135.862 16.997 137.532 16.997 137.532L13.1031 123.248L13.9828 123.25C16.5954 123.256 19.0769 124.396 20.7837 126.374Z" fill="white"/>
<path d="M21.0245 126.514C20.8009 126.854 20.6636 127.243 20.6248 127.648C20.614 128.074 20.676 128.499 20.8082 128.904C20.986 129.596 21.1013 130.302 21.1526 131.015C21.2439 132.11 21.0938 133.212 20.7129 134.243C20.1807 135.601 19.1879 136.729 17.9082 137.428C17.6424 137.58 17.3619 137.705 17.0711 137.801C16.9229 137.839 16.7707 137.753 16.7281 137.606L16.341 136.186L15.4116 132.777L14.2869 128.651L13.3143 125.083C13.157 124.506 12.9717 123.93 12.8409 123.347C12.839 123.338 12.8364 123.33 12.8341 123.322C12.8122 123.238 12.8301 123.149 12.8826 123.08C12.9351 123.011 13.0164 122.97 13.103 122.969C14.0115 122.942 14.9204 123.006 15.8163 123.158C17.8233 123.568 19.6388 124.629 20.9808 126.176C21.2143 126.447 20.8214 126.843 20.5865 126.571C18.934 124.662 16.5417 123.554 14.0171 123.529C13.7124 123.526 13.4077 123.527 13.103 123.526L13.3719 123.173L13.759 124.593L14.6884 128.003L15.8131 132.128L16.7857 135.696L17.1053 136.869C17.1694 137.053 17.2208 137.241 17.2591 137.433C17.2608 137.441 17.2631 137.449 17.2659 137.458L16.9229 137.263C16.9818 137.245 17.0397 137.222 17.0971 137.2C17.1258 137.189 17.1543 137.177 17.1829 137.165C17.093 137.202 17.2056 137.155 17.2368 137.141C17.3245 137.102 17.4112 137.06 17.4967 137.016C17.9851 136.768 18.4348 136.451 18.8315 136.074C20.1629 134.814 20.6896 133.022 20.606 131.211C20.5627 130.424 20.4356 129.643 20.2268 128.883C20.0888 128.437 20.0398 127.969 20.0825 127.504C20.139 127.051 20.2963 126.617 20.5429 126.233C20.7356 125.931 21.2185 126.211 21.0245 126.514Z" fill="black"/>
<path d="M51.4249 70.2812L47.181 79.5339C45.8844 82.3607 44.9943 85.3567 44.5371 88.4328L42.5345 101.907C36.2658 103.727 20.5856 110.392 20.5856 110.392L26.0052 125.112L43.0902 119.077C49.4555 116.829 54.5017 111.882 56.8765 105.563L62.4342 90.7035L62.9288 76.9057" fill="#389B48"/>
<path d="M51.6657 70.422L49.4183 75.3219C48.595 77.1168 47.7202 78.8981 46.9633 80.7227C46.0189 83 45.3328 85.376 44.9178 87.8062C44.8166 88.3997 44.7332 88.9965 44.6447 89.5919L43.6164 96.511L43.0997 99.9868C43.0056 100.62 42.933 101.261 42.8168 101.89C42.8112 101.921 42.8078 101.951 42.8033 101.982C42.7781 102.077 42.7037 102.151 42.6085 102.176C39.1652 103.178 35.8107 104.52 32.4762 105.83C29.1952 107.119 25.9294 108.447 22.6787 109.812C21.9834 110.102 21.3548 110.366 20.7262 110.633L20.8544 110.318L22.6898 115.303L25.6103 123.235L26.274 125.038L25.931 124.843L29.7391 123.498L37.2686 120.838L42.6692 118.931C45.5982 117.924 48.2974 116.344 50.6093 114.283C53.2983 111.847 55.3655 108.804 56.6384 105.406C57.2566 103.756 57.874 102.105 58.4905 100.454L61.2202 93.1562L62.0454 90.9498C62.0749 90.8709 62.1009 90.7894 62.1344 90.712C62.1543 90.666 62.1704 90.5596 62.1553 90.7034C62.1691 90.5717 62.1649 90.4356 62.1696 90.3034L62.4046 83.75L62.6367 77.2766L62.65 76.9059C62.6628 76.548 63.2206 76.5463 63.2077 76.9059L63.0312 81.8312L62.7613 89.3586L62.725 90.3707C62.7303 90.5071 62.7229 90.6437 62.7028 90.7788C62.572 91.2085 62.4145 91.6297 62.2311 92.0398L59.685 98.8472L57.3687 105.04C57.0656 105.851 56.7528 106.656 56.3822 107.439C53.7388 113.011 48.9805 117.297 43.1635 119.346C41.851 119.812 40.5378 120.276 39.2239 120.738L31.6309 123.42L26.3504 125.285L26.0794 125.381C25.9313 125.419 25.7797 125.333 25.7363 125.186L23.9009 120.201L20.9805 112.269L20.3167 110.466C20.283 110.345 20.3356 110.215 20.4449 110.152C22.3476 109.343 24.2562 108.548 26.1709 107.768C29.8288 106.269 33.4996 104.796 37.2083 103.426C38.9421 102.786 40.685 102.155 42.4604 101.639L42.2656 101.833L42.942 97.2819L44.0204 90.026C44.1018 89.4779 44.1833 88.9299 44.2647 88.3818C44.5785 86.2699 45.0953 84.1933 45.8078 82.1806C46.5676 80.0395 47.5846 77.988 48.5309 75.9249L51.1333 70.2511L51.184 70.1405C51.3335 69.8147 51.8143 70.0977 51.6656 70.422L51.6657 70.422Z" fill="black"/>
<path d="M11.4584 122.907C11.5888 123.299 11.3771 123.722 10.9854 123.852L10.314 124.076L15.601 138.249C15.601 138.249 17.2487 137.749 18.1995 136.91L11.2994 118.08L8.42 119.03L9.78832 122.676L10.513 122.434C10.9047 122.304 11.3279 122.515 11.4584 122.907Z" fill="white"/>
<path d="M11.7273 122.833C11.8839 123.351 11.6173 123.902 11.1143 124.101C10.8773 124.194 10.6297 124.265 10.3881 124.345L10.5829 124.002L11.107 125.407L12.3733 128.802L13.8982 132.89L15.2171 136.425L15.6541 137.597C15.7342 137.777 15.8031 137.961 15.8604 138.15C15.863 138.158 15.8662 138.167 15.8699 138.175L15.5268 137.98C16.3975 137.715 17.3115 137.313 18.0023 136.713L17.9305 136.985L17.245 135.114L15.5983 130.62L13.6056 125.182L11.882 120.478L11.3134 118.926C11.2099 118.685 11.1195 118.439 11.0427 118.188C11.0392 118.176 11.0352 118.165 11.0306 118.155L11.3736 118.349L8.49415 119.299L8.68891 118.956L9.88686 122.148L10.0572 122.602L9.7142 122.407C9.95538 122.327 10.1952 122.238 10.4389 122.166C10.978 122.005 11.5474 122.3 11.7273 122.833C11.8539 123.17 11.315 123.315 11.1895 122.982C10.9768 122.417 10.2411 122.819 9.86247 122.945C9.71439 122.982 9.56304 122.896 9.51944 122.75L8.32149 119.558L8.15112 119.105C8.1125 118.956 8.19882 118.804 8.34589 118.762L11.2253 117.812C11.3734 117.774 11.5249 117.86 11.5684 118.006L12.254 119.877L13.9007 124.371L15.8934 129.809L17.617 134.513L18.1856 136.065C18.2752 136.309 18.3823 136.554 18.4563 136.803C18.4596 136.815 18.4644 136.825 18.4684 136.836C18.4967 136.933 18.4691 137.038 18.3967 137.108C17.6306 137.772 16.641 138.224 15.6751 138.518C15.527 138.555 15.3758 138.47 15.332 138.323L14.8079 136.918L13.5416 133.524L12.0167 129.436L10.6978 125.9C10.4856 125.331 10.2237 124.76 10.0546 124.176C10.052 124.167 10.0482 124.159 10.045 124.15C10.0065 124.002 10.0928 123.85 10.2398 123.807C10.6393 123.674 11.3607 123.571 11.1894 122.981C11.089 122.636 11.6271 122.489 11.7273 122.833Z" fill="black"/>
<path d="M15.9341 131.538C15.9273 131.518 15.9187 131.498 15.9114 131.477C15.886 131.407 15.9342 131.525 15.9083 131.47C15.8928 131.437 15.8784 131.404 15.8625 131.372C15.771 131.186 15.6617 131.009 15.5362 130.844C15.5615 130.877 15.5118 130.813 15.5037 130.803C15.4825 130.778 15.4613 130.752 15.4394 130.727C15.3902 130.67 15.3392 130.615 15.2862 130.561C15.1831 130.456 15.0725 130.359 14.9551 130.271C14.6643 130.056 14.3377 129.894 13.9905 129.793C13.4586 129.649 12.9037 129.61 12.3568 129.678C12.2033 129.676 12.0791 129.552 12.078 129.399C12.0811 129.246 12.2041 129.123 12.3568 129.12C13.3105 129.023 14.3103 129.167 15.1202 129.708C15.6197 130.04 16.0284 130.491 16.3092 131.022C16.3732 131.14 16.4276 131.263 16.4719 131.39C16.5851 131.732 16.0467 131.878 15.9341 131.538Z" fill="black"/>
<path d="M13.8224 123.64L14.023 115.304C14.0479 114.952 14.2356 114.631 14.5308 114.437C14.8259 114.242 15.1946 114.197 15.5281 114.314C15.782 114.32 16.0231 114.426 16.1984 114.61C16.3736 114.794 16.4686 115.04 16.4625 115.294L16.2619 123.63L13.8224 123.64Z" fill="white"/>
<path d="M13.5435 123.639L13.6273 120.159L13.7373 115.586C13.7396 115.492 13.7391 115.397 13.7441 115.304C13.7788 114.753 14.1283 114.271 14.6413 114.068C14.9277 113.972 15.2354 113.96 15.5281 114.034C15.8642 114.097 16.146 114.151 16.3955 114.413C16.6348 114.673 16.7588 115.019 16.7394 115.372C16.7128 116.735 16.6737 118.098 16.6409 119.462C16.6081 120.826 16.5958 122.192 16.5424 123.556C16.5415 123.581 16.5412 123.605 16.5407 123.629C16.5382 123.782 16.4148 123.906 16.2618 123.908L13.8224 123.918C13.6722 123.913 13.5531 123.79 13.5531 123.639C13.5531 123.489 13.6722 123.366 13.8224 123.361L16.2618 123.351L15.983 123.629L16.0616 120.361L16.1724 115.757C16.1759 115.613 16.1808 115.47 16.1828 115.326C16.202 114.943 15.9103 114.616 15.5281 114.592C15.2371 114.55 14.9891 114.486 14.7186 114.647C14.5284 114.761 14.3885 114.943 14.3269 115.157C14.3026 115.269 14.2925 115.385 14.2971 115.5L14.1958 119.709C14.1648 120.995 14.1545 122.284 14.1029 123.57C14.1019 123.593 14.1018 123.616 14.1011 123.639C14.0926 123.998 13.5349 123.999 13.5435 123.639Z" fill="black"/>
<circle cx="1.85921" cy="1.85921" r="1.85921" transform="matrix(-1 0 0 1 16.8573 121.514)" fill="black"/>
<path d="M15.1955 125.501C14.3 125.584 13.4484 125.098 13.0651 124.284C12.6818 123.47 12.8489 122.504 13.4831 121.866C14.1173 121.229 15.0829 121.056 15.8985 121.435C16.7141 121.814 17.2053 122.663 17.1271 123.559C17.032 124.586 16.2216 125.4 15.1955 125.501C15.0418 125.5 14.9175 125.376 14.9166 125.222C14.9202 125.07 15.043 124.947 15.1955 124.943C15.8569 124.861 16.3959 124.374 16.5438 123.724C16.6916 123.074 16.4167 122.401 15.856 122.041C15.2953 121.68 14.569 121.71 14.0393 122.114C13.5096 122.519 13.29 123.212 13.4899 123.847C13.724 124.573 14.4382 125.032 15.1955 124.943C15.5527 124.91 15.5504 125.468 15.1955 125.501Z" fill="black"/>
<path d="M68.6005 148.883C69.0126 148.86 69.3658 149.175 69.3893 149.587L69.4295 150.294L84.4918 148.897C84.4918 148.897 84.4405 147.176 83.8793 146.039L63.8999 147.774L64.0637 150.802L67.9403 150.435L67.8968 149.672C67.8733 149.26 68.1884 148.907 68.6005 148.883Z" fill="white"/>
<path d="M68.6005 148.604C69.1412 148.589 69.6032 148.991 69.6625 149.528C69.6903 149.782 69.6939 150.039 69.7084 150.293L69.4295 150.014L70.9225 149.876L74.5302 149.541L78.8747 149.139L82.632 148.79L83.8771 148.675C84.0716 148.645 84.2678 148.626 84.4646 148.62C84.4737 148.62 84.4828 148.619 84.4918 148.618L84.2129 148.897C84.1844 147.988 84.0355 147.002 83.6385 146.179L83.8793 146.318L81.8941 146.49L77.1261 146.904L71.3561 147.405L66.3654 147.839L64.7188 147.982C64.459 148.018 64.1973 148.041 63.935 148.05C63.9233 148.05 63.9115 148.051 63.8999 148.053L64.1788 147.774L64.3426 150.802L64.0637 150.523L67.4575 150.201L67.9402 150.155L67.6613 150.434C67.6469 150.181 67.6239 149.926 67.6178 149.672C67.6047 149.109 68.0389 148.638 68.6004 148.604C68.9575 148.57 68.9551 149.128 68.6004 149.162C68.0008 149.219 68.1964 150.037 68.219 150.434C68.216 150.587 68.0929 150.71 67.9402 150.713L64.5464 151.035L64.0637 151.08C63.9106 151.078 63.787 150.955 63.7849 150.802L63.621 147.774C63.6241 147.621 63.7472 147.498 63.8999 147.495L65.8851 147.323L70.6531 146.909L76.4231 146.407L81.4138 145.974L83.0604 145.831C83.3197 145.808 83.5838 145.769 83.8442 145.763C83.8559 145.763 83.8677 145.761 83.8793 145.76C83.9789 145.758 84.0714 145.811 84.1201 145.898C84.5617 146.813 84.7389 147.886 84.7706 148.897C84.7673 149.049 84.6444 149.172 84.4918 149.176L82.9988 149.314L79.3911 149.649L75.0466 150.051L71.2893 150.4C70.6848 150.456 70.0642 150.559 69.4566 150.57C69.4476 150.57 69.4385 150.571 69.4295 150.572C69.2764 150.57 69.1528 150.446 69.1506 150.293C69.1266 149.872 69.2152 149.15 68.6005 149.162C68.2415 149.168 68.2414 148.611 68.6005 148.604Z" fill="black"/>
<path d="M78.1003 146.82C78.0782 146.821 78.0564 146.824 78.0344 146.826C77.9515 146.833 78.1131 146.812 78.0257 146.827C77.9907 146.834 77.9556 146.839 77.9208 146.846C77.7138 146.887 77.5111 146.948 77.3155 147.027C77.2677 147.047 77.312 147.029 77.3207 147.025C77.3069 147.031 77.2929 147.037 77.2792 147.043C77.2475 147.058 77.2157 147.072 77.1843 147.087C77.1144 147.121 77.0457 147.157 76.9783 147.196C76.918 147.231 76.8589 147.267 76.801 147.305C76.7427 147.344 76.641 147.418 76.6232 147.432C76.3376 147.658 76.0945 147.933 75.9053 148.245C75.629 148.72 75.4471 149.244 75.3697 149.787C75.3278 149.935 75.175 150.022 75.0266 149.982C74.8804 149.938 74.7947 149.787 74.8319 149.639C74.9874 148.691 75.3911 147.76 76.129 147.121C76.5816 146.726 77.1255 146.451 77.7113 146.321C77.8392 146.291 77.9692 146.271 78.1001 146.262C78.4588 146.242 78.4577 146.8 78.1001 146.82H78.1003Z" fill="black"/>
<path d="M69.9243 146.792L61.9312 144.418C61.5976 144.302 61.3372 144.037 61.227 143.701C61.1167 143.366 61.1692 142.998 61.369 142.707C61.4413 142.463 61.6073 142.258 61.8306 142.137C62.0539 142.016 62.3162 141.989 62.5596 142.061L70.5527 144.435L69.9243 146.792Z" fill="white"/>
<path d="M69.8502 147.061L66.5533 146.082L62.1696 144.78C62.0665 144.749 61.962 144.721 61.8597 144.688C61.3159 144.504 60.9355 144.011 60.894 143.439C60.8701 143.077 61.0251 142.765 61.1695 142.453C61.3079 142.16 61.5554 141.933 61.859 141.82C62.1421 141.724 62.4494 141.724 62.7323 141.821L66.6924 142.997C67.9799 143.38 69.2751 143.743 70.5566 144.145C70.5799 144.152 70.6035 144.159 70.6269 144.166C70.7737 144.209 70.8598 144.361 70.8215 144.509L70.1931 146.866C70.1481 147.01 69.9976 147.092 69.8526 147.052C69.7077 147.012 69.6205 146.864 69.6553 146.718L70.2837 144.361L70.4785 144.704L67.3845 143.785L62.9816 142.477C62.5397 142.346 61.9798 142.116 61.6906 142.655C61.5462 142.925 61.3944 143.231 61.4707 143.544C61.5324 143.799 61.705 144.012 61.941 144.126C62.0351 144.162 62.1313 144.192 62.2291 144.216L66.291 145.422C67.5052 145.783 68.7301 146.118 69.9364 146.505C69.9569 146.511 69.9777 146.517 69.9984 146.523C70.3417 146.625 70.1956 147.163 69.8502 147.061Z" fill="black"/>
<circle cx="1.85921" cy="1.85921" r="1.85921" transform="matrix(-1 0 0 1 71.834 143.729)" fill="black"/>
<path d="M72.0797 145.956C71.9251 146.842 71.2323 147.536 70.3467 147.693C69.4611 147.849 68.5723 147.435 68.1232 146.655C67.6741 145.876 67.7608 144.899 68.3403 144.211C68.9197 143.524 69.8677 143.272 70.7118 143.582C71.6779 143.943 72.2519 144.939 72.0797 145.956C72.038 146.104 71.8851 146.19 71.7367 146.15C71.5908 146.106 71.5051 145.955 71.5419 145.807C71.6349 145.148 71.3047 144.5 70.716 144.188C70.1272 143.876 69.406 143.966 68.912 144.413C68.418 144.86 68.257 145.569 68.5093 146.186C68.7616 146.803 69.3732 147.195 70.039 147.168C70.8006 147.132 71.4301 146.562 71.5419 145.807C71.6032 145.455 72.1408 145.604 72.0797 145.956Z" fill="black"/>
<path d="M58.5618 132.688L60.114 132.547L63.8426 132.207L68.3554 131.796L72.2604 131.44L73.5545 131.323C73.7569 131.293 73.9609 131.274 74.1655 131.267C74.1749 131.267 74.1843 131.266 74.1937 131.264C74.3723 131.248 74.3712 131.527 74.1937 131.543L72.6415 131.685L68.9129 132.024L64.4001 132.435L60.4951 132.791L59.201 132.909C58.9986 132.939 58.7946 132.957 58.5901 132.964C58.5806 132.965 58.5712 132.965 58.5618 132.967C58.3832 132.983 58.3843 132.704 58.5618 132.688Z" fill="black"/>
<path d="M24.1015 109.042L24.6409 110.508L25.9288 114.009L27.4944 118.266L28.8484 121.947L29.293 123.155C29.3752 123.344 29.4464 123.537 29.506 123.734C29.5086 123.743 29.5116 123.751 29.5151 123.759C29.5772 123.928 29.3077 124 29.2462 123.833L28.7068 122.367L27.4189 118.866L25.8534 114.609L24.4993 110.929L24.0548 109.72C23.9725 109.531 23.9014 109.338 23.8417 109.141C23.8392 109.132 23.8362 109.124 23.8326 109.116C23.7706 108.947 24.04 108.875 24.1015 109.042H24.1015Z" fill="black"/>
<path d="M64.5362 77.0194L64.4736 82.0536L64.4312 85.465C64.424 86.0462 64.446 86.6372 64.3991 87.2172C64.3071 88.1059 63.9917 88.9568 63.4823 89.6907L62.6235 91.0221C62.4296 91.3228 61.9466 91.0434 62.1419 90.7406L62.891 89.5794C63.2592 89.0085 63.5996 88.4488 63.7539 87.7744C63.906 87.1099 63.862 86.3878 63.8704 85.7092L63.9546 78.9361L63.9784 77.0193C63.9829 76.6607 64.5406 76.6597 64.5362 77.0193L64.5362 77.0194Z" fill="black"/>
<path d="M65.8533 54.4495L66.1536 57.3654C66.2751 57.3817 67.5562 57.7655 67.678 57.792C69.7278 58.2376 71.2082 60.0256 71.2635 62.1226C71.3188 64.2195 69.9348 66.083 67.9113 66.6361L68.549 80.2909C68.549 80.2909 47.8664 75.1521 45.3022 77.3967C46.7706 70.0142 51.1191 51.6486 51.1191 51.6486C52.0099 49.4715 52.8752 48.922 54.4054 49.0815L64.645 48.7793" fill="#FFC41F"/>
<path d="M66.1322 54.4511L66.4325 57.367L66.2278 57.0981C66.5159 57.1599 66.8002 57.2385 67.0792 57.3334C67.3732 57.4185 67.6677 57.497 67.9632 57.5759C68.9509 57.84 69.8288 58.4119 70.4696 59.2086C71.4951 60.477 71.8113 62.1774 71.3104 63.7297C70.8094 65.2821 69.5589 66.4768 67.9854 66.9066L68.1901 66.6377L68.4069 71.2792L68.7496 78.6154L68.8279 80.2925C68.8268 80.3792 68.7859 80.4605 68.7169 80.513C68.648 80.5656 68.5587 80.5834 68.4749 80.5615C67.7887 80.391 67.1001 80.2297 66.4113 80.0699C64.7403 79.6825 63.0648 79.3154 61.3846 78.9688C59.2956 78.5387 57.1993 78.1408 55.0928 77.8058C53.1604 77.4757 51.2113 77.2522 49.2544 77.1364C48.5158 77.092 47.775 77.099 47.0373 77.1572C46.7695 77.1768 46.5037 77.2184 46.2427 77.2816C46.13 77.308 46.0187 77.3402 45.9094 77.3782C45.8835 77.3873 45.8581 77.3972 45.8324 77.4067C45.7595 77.4337 45.8364 77.4032 45.8097 77.4153C45.7644 77.4359 45.7194 77.4568 45.6756 77.4806C45.6348 77.5027 45.5962 77.5278 45.5567 77.5521C45.4648 77.6086 45.5788 77.5269 45.4994 77.5955C45.4087 77.6807 45.2727 77.6962 45.1652 77.6336C45.0576 77.571 45.004 77.4452 45.0333 77.3242C45.328 75.8437 45.6444 74.3676 45.9655 72.8925C46.3605 71.0782 46.7634 69.2657 47.1743 67.4549C47.5977 65.58 48.0254 63.7062 48.4574 61.8333C48.8464 60.1448 49.2377 58.4568 49.6314 56.7694C49.9179 55.5414 50.2054 54.3136 50.4941 53.0861C50.6112 52.5886 50.6976 52.0693 50.8491 51.5808C51.0021 51.139 51.2059 50.7164 51.4563 50.3216C51.6822 49.9237 51.9808 49.5717 52.3368 49.2842C52.6386 49.0512 52.9925 48.8949 53.3681 48.8287C53.7137 48.7853 54.0629 48.7771 54.4103 48.8041C55.2179 48.8251 56.0382 48.7561 56.8454 48.7323L61.3443 48.5995L64.4831 48.5069L64.645 48.5021C65.004 48.4915 65.0036 49.0492 64.645 49.0598L62.4078 49.1258L57.9518 49.2573L54.6677 49.3542C54.2904 49.3654 53.9114 49.3046 53.5367 49.363C52.7056 49.4926 52.1876 50.132 51.8063 50.834C51.6049 51.1716 51.4493 51.5344 51.3434 51.913C51.2776 52.1914 51.2119 52.4698 51.1464 52.7482C50.89 53.8366 50.6346 54.9252 50.3802 56.014C50.0069 57.6115 49.6355 59.2095 49.2661 60.8078C48.8398 62.6525 48.4169 64.498 47.9972 66.3442C47.5809 68.1776 47.17 70.0122 46.7645 71.8481C46.4217 73.4054 46.0837 74.9639 45.7627 76.5259C45.6979 76.8413 45.634 77.1568 45.5711 77.4725L45.105 77.2012C45.4718 76.8846 45.964 76.754 46.4322 76.6762C47.1238 76.5728 47.8233 76.5321 48.5221 76.5548C50.4399 76.5865 52.3556 76.8354 54.2504 77.1159C56.4012 77.4342 58.5406 77.8278 60.672 78.2559C62.4623 78.6156 64.2474 79.0001 66.0274 79.4095C66.6075 79.5425 67.1871 79.678 67.7661 79.816C68.0437 79.8647 68.3179 79.9311 68.587 80.0147C68.5989 80.0184 68.611 80.0214 68.6232 80.0237L68.2702 80.2926L68.0533 75.6511L67.7106 68.3149L67.6323 66.6378C67.6335 66.5127 67.7168 66.4033 67.837 66.3689C69.6735 65.8678 70.9575 64.213 70.9866 62.3096C71.0158 60.4062 69.783 58.7129 67.9627 58.1558C67.6441 58.0592 67.3175 57.9832 66.9972 57.8905C66.6965 57.7879 66.3901 57.7029 66.0795 57.636C65.9594 57.6013 65.8762 57.4921 65.8747 57.3671L65.5744 54.4512C65.5377 54.0945 66.0957 54.0971 66.1321 54.4512L66.1322 54.4511Z" fill="black"/>
<path d="M55.4423 59.0982L53.5306 73.6428L65.7119 75.0629C65.1463 76.2704 64.6074 78.1674 64.2661 80.3358C64.0775 81.5341 64.8569 86.525 64.8282 87.5269L47.8031 84.7658C42.6314 84.1011 41.0055 78.8197 40.7552 74.4289L40.7901 71.5771L43.8455 53.2806C44.4588 49.6083 47.8339 47.0546 51.5346 47.4627L57.5804 48.1295" fill="#FFC41F"/>
<path d="M55.7213 59.0973L55.0752 64.0125L54.0456 71.8456L53.8095 73.6418L53.5306 73.363L57.6381 73.8418L64.209 74.6079L65.7119 74.7831C65.8105 74.7859 65.9006 74.8399 65.9498 74.9255C65.9989 75.0111 66 75.1161 65.9526 75.2027C65.5222 76.1779 65.1904 77.1938 64.9622 78.235C64.8103 78.8718 64.6813 79.5134 64.5753 80.16C64.5465 80.2965 64.5287 80.4351 64.5219 80.5744C64.5145 80.71 64.5145 80.8459 64.5167 80.9816C64.542 82.543 64.7798 84.1056 64.9515 85.6555C65.0446 86.2749 65.0966 86.8997 65.1071 87.526C65.1052 87.6123 65.0641 87.6931 64.9954 87.7455C64.9267 87.7978 64.8379 87.816 64.7541 87.7949L60.4785 87.1015L52.4233 85.7951C50.8644 85.5423 49.3071 85.2755 47.746 85.0365C47.0221 84.9333 46.315 84.7354 45.6427 84.4479C44.8636 84.0944 44.1572 83.5989 43.5595 82.9867C42.3471 81.7537 41.5911 80.1366 41.1254 78.4888C40.8893 77.6357 40.717 76.7663 40.6099 75.8878C40.5254 75.2967 40.4821 74.7006 40.4803 74.1036L40.5038 72.1923C40.4944 71.9487 40.5025 71.7048 40.528 71.4625C40.7719 69.9176 41.0433 68.3767 41.3009 66.8341L42.649 58.7616L43.543 53.408C43.7249 52.2018 44.1971 51.0578 44.9189 50.0744C46.069 48.5406 47.7735 47.5176 49.668 47.2243C50.7785 47.0607 51.8615 47.2191 52.9646 47.3407L56.806 47.7644L57.5805 47.8498C57.9334 47.8887 57.9374 48.4469 57.5805 48.4075L51.6581 47.7544C50.0826 47.5592 48.4881 47.9126 47.1427 48.7552C45.547 49.78 44.4528 51.4256 44.1249 53.2935C43.8927 54.6109 43.6839 55.933 43.4635 57.2525L42.1415 65.1692L41.146 71.1305C41.1191 71.2912 41.0953 71.4528 41.0654 71.613C41.0462 71.7159 41.0626 71.5068 41.0685 71.6282C41.0792 71.8515 41.063 72.0796 41.0602 72.303L41.0374 74.1583C41.0408 74.7549 41.0866 75.3505 41.1745 75.9405C41.5983 79.1697 42.9434 82.8692 46.2589 84.1026C46.9787 84.3704 47.7329 84.4726 48.4857 84.5947L51.0411 85.0091L58.8523 86.2759L64.6045 87.2088L64.9025 87.2572L64.5495 87.5261C64.5418 86.9767 64.4982 86.4285 64.419 85.8848C64.3283 85.0504 64.2289 84.2171 64.1415 83.3823C64.0619 82.6205 63.9821 81.8554 63.9614 81.0893C63.9371 80.1892 64.1502 79.2976 64.3464 78.4242C64.5955 77.2199 64.9726 76.0456 65.4712 74.9214L65.712 75.341L61.6045 74.8621L55.0336 74.0961L53.5307 73.9209C53.3967 73.9052 53.2305 73.8049 53.2519 73.642L53.8978 68.7267L54.9275 60.8937L55.1636 59.0974C55.1685 58.9455 55.2905 58.8235 55.4424 58.8185C55.5961 58.8193 55.7205 58.9437 55.7213 59.0974V59.0973Z" fill="black"/>
<path d="M64.7967 87.4913C64.1845 87.3949 63.8804 85.8586 63.9431 83.6738L66.8783 83.7786C66.2518 86.0686 65.4416 87.5928 64.7967 87.4913Z" fill="black"/>
<path d="M64.7226 87.7598C64.18 87.6596 63.9681 86.9619 63.8627 86.5053C63.6778 85.5735 63.6111 84.622 63.6642 83.6734C63.6661 83.5202 63.7898 83.3965 63.943 83.3945L66.8782 83.4994C66.9648 83.5007 67.046 83.5416 67.0985 83.6105C67.1509 83.6794 67.1689 83.7685 67.1472 83.8523C66.8763 84.836 66.5585 85.8414 66.0513 86.7325C65.8117 87.1535 65.376 87.8455 64.7968 87.7697C64.6449 87.7648 64.5229 87.6428 64.5179 87.4909C64.5187 87.3372 64.6431 87.2127 64.7968 87.212C64.8279 87.2161 64.9357 87.2037 64.8662 87.2186C64.8878 87.2153 64.9089 87.2096 64.9292 87.2017C64.9772 87.1793 64.9051 87.2146 64.9369 87.1987C65.02 87.1607 65.0937 87.105 65.1529 87.0355C65.3475 86.8242 65.5107 86.586 65.6375 86.3282C66.058 85.4924 66.3839 84.6122 66.6093 83.7041L66.8783 84.0571L63.9431 83.9523L64.2219 83.6734C64.1757 84.5263 64.2259 85.3816 64.3716 86.2233C64.414 86.4813 64.4933 86.7318 64.6073 86.9671C64.6404 87.0417 64.6883 87.1087 64.7481 87.1641C64.7956 87.2109 64.7447 87.172 64.8003 87.2018C64.8634 87.2357 64.7455 87.1822 64.8107 87.2075C64.8302 87.2142 64.8504 87.219 64.8709 87.2219C65.2234 87.287 65.0741 87.8246 64.7226 87.7598Z" fill="black"/>
<path d="M64.266 80.3354C64.6073 78.1669 65.1462 76.27 65.7118 75.0625L67.7333 75.3012L70.7126 75.6531L69.5958 83.8755L66.8783 83.7784L63.9431 83.6736C63.9807 82.5552 64.0885 81.4403 64.266 80.3354Z" fill="#F5EDFC"/>
<path d="M63.9972 80.2609C64.2853 78.4468 64.6932 76.5954 65.4711 74.9214C65.5195 74.8342 65.6122 74.7811 65.7118 74.7833L69.7849 75.2643L70.7126 75.3738C70.7987 75.3765 70.8789 75.4178 70.9311 75.4863C70.9833 75.5548 71.0018 75.6432 70.9815 75.7268L70.6028 78.515L70.0028 82.9327L69.8647 83.9492C69.8314 84.0703 69.7213 84.1541 69.5958 84.1539C68.0936 84.1003 66.5914 84.0467 65.0893 83.993L63.943 83.9521C63.7899 83.95 63.6663 83.8264 63.6642 83.6732C63.7043 82.53 63.8155 81.3903 63.9972 80.2609C64.0523 79.9073 64.5899 80.0574 64.535 80.4091C64.363 81.4896 64.2585 82.5798 64.2219 83.6733L63.943 83.3944L68.4082 83.5539L69.5957 83.5963L69.3268 83.801L69.7056 81.0128L70.3056 76.5951L70.4437 75.5786L70.7126 75.9316L66.8716 75.478L65.7118 75.3411L65.9526 75.2029C65.1971 76.8287 64.8146 78.6486 64.535 80.4092C64.4789 80.7627 63.9413 80.6126 63.9972 80.2609Z" fill="black"/>
<path d="M55.5821 73.8821L49.4685 73.1875L55.5821 73.8821Z" fill="white"/>
<path d="M55.5821 74.1607L50.2236 73.5519L49.4685 73.4661C49.116 73.426 49.1119 72.8678 49.4685 72.9084L54.8269 73.5172L55.582 73.603C55.9345 73.643 55.9387 74.2012 55.582 74.1607H55.5821Z" fill="black"/>
<path d="M67.2668 83.9297L73.8215 83.6888C74.4338 83.8223 75.0628 83.8621 75.687 83.8067C77.1088 83.6806 78.4146 83.8139 79.5953 84.6159L80.7507 84.1921C80.7507 84.1921 80.952 77.3325 80.3703 76.953L75.5369 76.9042L78.2848 75.5035C78.527 75.38 78.6924 75.1446 78.7264 74.8749C78.7605 74.6051 78.6588 74.336 78.4548 74.1563C78.2425 73.9691 77.9487 73.9045 77.6774 73.9854L72.476 75.536L69.6387 75.5265" fill="#F5EDFC"/>
<path d="M67.2668 83.6502L70.8671 83.5178L73.1287 83.4347L73.7292 83.4126C73.7595 83.4115 73.791 83.4079 73.8213 83.4092C74.0076 83.4177 74.1987 83.4814 74.3846 83.505C74.5869 83.5302 74.7903 83.5451 74.9941 83.5495C75.412 83.5593 75.8253 83.507 76.2422 83.4918C76.6473 83.4751 77.053 83.4915 77.4554 83.5409C78.2702 83.6374 79.0511 83.9228 79.7361 84.3744L79.5212 84.3463L80.6766 83.9225L80.4719 84.1914C80.5214 82.4962 80.5369 80.793 80.4538 79.0989C80.4321 78.6563 80.3993 78.1401 80.3402 77.7495C80.3199 77.5985 80.2891 77.4491 80.248 77.3023C80.2394 77.2731 80.2291 77.2445 80.2196 77.2155C80.1949 77.141 80.2408 77.2633 80.2111 77.1969C80.2035 77.1798 80.1879 77.1645 80.1818 77.1473C80.1754 77.129 80.2307 77.1781 80.2016 77.1738L80.1947 77.1667C80.1387 77.1175 80.1971 77.139 80.3699 77.2312C80.3042 77.2395 80.2376 77.2389 80.172 77.2292L79.6789 77.2242L78.1478 77.2086L75.537 77.1822C75.2721 77.1796 75.1422 76.7921 75.3963 76.6626L77.7972 75.4387C78.1371 75.2654 78.6042 75.0586 78.4195 74.5768C78.3107 74.3101 78.0158 74.171 77.7408 74.2568C77.6543 74.2792 77.569 74.308 77.4833 74.3335L74.5167 75.2179L73.0701 75.6491C72.8743 75.7266 72.6705 75.7819 72.4625 75.8141C71.9694 75.8427 71.4652 75.8107 70.9714 75.8091L69.6387 75.8046C69.4886 75.7993 69.3695 75.676 69.3695 75.5257C69.3695 75.3754 69.4886 75.2522 69.6387 75.2469L72.3787 75.2561C72.4041 75.2534 72.4297 75.2535 72.455 75.2563C72.4924 75.2658 72.5 75.211 72.4023 75.2662C72.4217 75.2586 72.4417 75.2526 72.4621 75.2484C72.5879 75.2048 72.7187 75.1719 72.8463 75.1339L74.3284 74.692L77.391 73.7791C77.4615 73.758 77.5317 73.7345 77.6029 73.7159C78.1557 73.5551 78.739 73.8477 78.9406 74.3869C79.1423 74.9261 78.8941 75.5297 78.3715 75.7711C77.4768 76.2349 76.5756 76.6865 75.6777 77.1442L75.537 76.6246L77.8242 76.6477C78.6634 76.6562 79.5144 76.6235 80.3523 76.6733C80.6569 76.6913 80.7588 77.0254 80.8176 77.276C80.9047 77.696 80.9587 78.1223 80.9788 78.5507C81.0603 79.6843 81.0666 80.824 81.0628 81.96C81.0602 82.7037 81.0513 83.4478 81.0296 84.1913C81.0262 84.3156 80.9438 84.4239 80.8249 84.4602L79.7874 84.8408C79.749 84.8578 79.7097 84.8722 79.6695 84.884C79.4587 84.9305 79.2522 84.7209 79.0776 84.6244C78.7271 84.4326 78.3526 84.2885 77.964 84.196C77.1712 84.0037 76.3711 84.0388 75.5649 84.0943C75.1056 84.1238 74.6444 84.1044 74.1892 84.0364C74.0478 84.0048 73.9044 83.9823 73.76 83.969C73.1449 83.9604 72.5223 84.0145 71.9076 84.0371L69.0239 84.1431L67.2667 84.2077C66.9078 84.2209 66.9083 83.6632 67.2667 83.65L67.2668 83.6502Z" fill="black"/>
<path d="M78.0628 79.289C81.6062 79.2741 83.5368 79.2514 85.5999 79.3842C87.663 79.5171 88.0642 78.0359 86.0502 77.4068C82.7808 76.719 75.7919 76.8694 75.7919 76.8694" fill="#F5EDFC"/>
<path d="M78.0628 79.0098C79.9555 79.0018 81.8497 78.975 83.7421 79.0233C84.1128 79.0328 84.4834 79.0461 84.8539 79.0634C85.2424 79.0818 85.6361 79.1285 86.0249 79.1091C86.3441 79.1136 86.657 79.0205 86.9218 78.8423C87.0671 78.7515 87.1278 78.5706 87.0667 78.4105C86.9521 78.1252 86.6297 77.9452 86.3674 77.823C86.0369 77.6866 85.6888 77.5973 85.3335 77.5578C84.6014 77.4409 83.8619 77.3709 83.1229 77.3152C81.5786 77.1989 80.0287 77.1545 78.4804 77.1391C77.5844 77.1302 76.6877 77.1288 75.7919 77.1478C75.4329 77.1555 75.4329 76.5977 75.7919 76.5901C78.2147 76.5382 80.6513 76.5742 83.0681 76.7533C83.86 76.8121 84.6516 76.8896 85.4362 77.0127C86.1765 77.1288 87.0378 77.3332 87.4782 78.0045C87.8419 78.5591 87.5586 79.1792 86.9942 79.4467C86.2395 79.8044 85.3581 79.6407 84.5546 79.6077C82.3927 79.519 80.2258 79.5582 78.0628 79.5674C77.9126 79.5621 77.7936 79.4388 77.7936 79.2885C77.7936 79.1382 77.9126 79.0149 78.0628 79.0096V79.0098Z" fill="black"/>
<path d="M66.0681 29.332L69.47 29.489C70.9699 29.5582 72.2197 30.6613 72.4747 32.141L72.6381 33.0888C72.7405 33.6831 73.1958 34.1543 73.7862 34.277C75.5114 34.6356 76.763 36.1342 76.8085 37.8956C76.835 38.9202 76.4461 39.9119 75.7302 40.6453C75.0143 41.3787 74.0323 41.7915 73.0074 41.7899L67.2563 41.7805" fill="#A8542A"/>
<path d="M66.0681 29.0531L68.0042 29.1425C68.6832 29.1738 69.4111 29.1446 70.079 29.29C71.357 29.5811 72.3658 30.5612 72.6937 31.8303C72.7848 32.1924 72.8294 32.569 72.8935 32.9365C72.955 33.463 73.3429 33.893 73.8604 34.0081C75.7877 34.4164 77.1466 36.1456 77.0878 38.1148C77.029 40.0841 75.5693 41.7291 73.621 42.0216C73.0631 42.077 72.5019 42.0922 71.9418 42.067L67.3608 42.0595L67.2563 42.0594C67.1061 42.0541 66.9871 41.9308 66.9871 41.7805C66.9871 41.6302 67.1061 41.5069 67.2563 41.5016L71.1674 41.508C71.7575 41.509 72.3476 41.5099 72.9376 41.5109C73.9015 41.5245 74.8302 41.1486 75.5132 40.4682C76.3653 39.6077 76.7148 38.3692 76.4383 37.1902C76.1617 36.0111 75.298 35.0572 74.1521 34.6653C73.8659 34.5964 73.5843 34.5092 73.3092 34.4041C73.023 34.2618 72.781 34.0441 72.6094 33.7744C72.3759 33.4115 72.3377 32.9795 72.2662 32.5648C72.2122 32.1173 72.0823 31.6822 71.8821 31.2782C71.5956 30.761 71.1605 30.3415 70.6331 30.0742C69.9704 29.7371 69.2393 29.7572 68.5174 29.7238L66.2264 29.6181L66.0682 29.6108C65.7108 29.5943 65.7088 29.0365 66.0682 29.0531L66.0681 29.0531Z" fill="black"/>
<path d="M57.5954 49.0978L58.2892 42.8066L63.4504 45.3458L63.2453 49.4985" fill="#F5EDFC"/>
<path d="M57.3165 49.0981L57.9241 43.5895L58.0104 42.807C58.0131 42.7082 58.067 42.618 58.1527 42.5688C58.2383 42.5197 58.3434 42.5187 58.43 42.5662L62.9516 44.7906L63.5911 45.1052C63.6776 45.1543 63.7305 45.2466 63.7292 45.346L63.5497 48.9813L63.5241 49.4988C63.5065 49.856 62.9487 49.8582 62.9664 49.4988L63.1459 45.8635L63.1715 45.346L63.3096 45.5868L58.788 43.3624L58.1485 43.0478L58.5682 42.807L57.9606 48.3156L57.8742 49.0981C57.8353 49.451 57.2771 49.455 57.3165 49.0981L57.3165 49.0981Z" fill="black"/>
<path d="M58.0476 44.9788C55.1826 42.3226 56.342 40.0059 56.3298 38.2488C56.3228 37.2286 57.8532 35.1523 57.8532 35.1523L66.331 33.5645L68.0825 36.4422C68.0825 36.4422 71.2202 48.2826 61.4697 45.7176" fill="#F5EDFC"/>
<path d="M57.8504 45.1759C57.0003 44.3802 56.2849 43.4144 55.9924 42.2718C55.7769 41.4298 55.8124 40.5675 55.9161 39.7127C55.9617 39.3373 56.0173 38.9624 56.0408 38.5847C56.0413 38.2264 56.0926 37.8701 56.1933 37.5262C56.4903 36.7532 56.887 36.0222 57.3733 35.3518C57.4714 35.2078 57.6037 34.9419 57.7792 34.8832C57.8406 34.8674 57.9029 34.8557 57.9659 34.8482L59.2167 34.6139L63.3943 33.8315C64.3327 33.6558 65.2699 33.4681 66.2105 33.3041C66.2261 33.3014 66.2414 33.2983 66.2569 33.2955C66.3785 33.2657 66.5055 33.3173 66.5718 33.4236L67.5818 35.0831L68.1808 36.0672C68.251 36.1652 68.3096 36.2712 68.3553 36.3829C68.5344 37.0324 68.6545 37.6967 68.7142 38.3678C68.8891 39.6063 68.8856 40.8634 68.7039 42.101C68.501 43.347 67.9987 44.6159 66.9845 45.4209C65.6458 46.4834 63.8436 46.4867 62.2392 46.1791C61.9559 46.1248 61.6748 46.0593 61.3956 45.9864C61.0486 45.8958 61.1957 45.3577 61.5438 45.4486C63.0921 45.8526 64.9444 46.0834 66.3458 45.1958C67.3472 44.5616 67.8674 43.4467 68.1065 42.2778C68.3169 41.0909 68.3462 39.879 68.1933 38.6833C68.1619 38.391 68.1431 38.2491 68.1028 37.9836C68.0705 37.7713 68.0345 37.5596 67.9947 37.3485C67.9466 37.0937 67.8864 36.8422 67.8319 36.5888C67.8245 36.5685 67.8192 36.5476 67.8162 36.5263C67.8167 36.5011 67.8748 36.6203 67.8209 36.5487C67.6565 36.3305 67.5295 36.0699 67.3876 35.8368L66.1744 33.8434L66.0902 33.7051L66.4051 33.8333L63.5425 34.3694L58.9778 35.2243L57.9274 35.421L58.094 35.2929C57.8385 35.6402 57.6024 36.0037 57.3806 36.3732C57.0626 36.9027 56.6516 37.5452 56.6105 38.1792C56.5712 38.7847 56.5071 39.3806 56.4426 39.9844C56.3467 40.6791 56.3719 41.3851 56.5171 42.0712C56.7792 43.1468 57.4479 44.0357 58.2448 44.7816C58.5075 45.0273 58.1125 45.4211 57.8505 45.1759L57.8504 45.1759Z" fill="black"/>
<path d="M64.7041 38.6102C64.812 38.6949 64.7436 38.6407 64.7162 38.6219C64.681 38.5979 64.6446 38.5756 64.6076 38.5544C64.5532 38.5233 64.4973 38.4956 64.4405 38.4691C64.4086 38.4542 64.3971 38.4513 64.4364 38.4667C64.4174 38.4592 64.3985 38.4515 64.3794 38.4442C64.3386 38.4289 64.2973 38.4148 64.2555 38.4021C64.1666 38.3753 64.076 38.3544 63.9843 38.3396C63.9642 38.3366 63.9674 38.3369 63.9942 38.3405C63.981 38.3388 63.9679 38.3374 63.9547 38.3361C63.9323 38.334 63.9099 38.3319 63.8875 38.3304C63.8317 38.3267 63.7757 38.3254 63.7196 38.3267C63.6605 38.3278 63.6015 38.332 63.5429 38.3391C63.5837 38.3339 63.4929 38.348 63.4947 38.3477C63.4633 38.3534 63.432 38.36 63.4008 38.3674C63.2772 38.3962 63.157 38.4379 63.0422 38.4919C62.9086 38.5652 62.741 38.5213 62.6607 38.3918C62.5843 38.2586 62.6288 38.0888 62.7607 38.0103C63.2636 37.7604 63.8413 37.706 64.3819 37.8577C64.6413 37.9306 64.8844 38.0521 65.0984 38.2158C65.2065 38.3251 65.2065 38.5009 65.0984 38.6102C64.988 38.7154 64.8145 38.7154 64.704 38.6102H64.7041Z" fill="black"/>
<path d="M68.1294 38.7963C67.8674 38.6303 67.5383 38.6114 67.259 38.7463C66.9328 38.8892 66.4635 39.0774 66.3108 39.4304C66.175 39.7446 66.3321 40.1876 66.461 40.479C66.5706 40.7216 66.7077 40.9508 66.8697 41.162C66.9775 41.265 67.05 41.3995 67.0768 41.5461C67.0853 41.6341 67.0785 41.7229 67.0568 41.8085C66.9168 42.3298 66.3023 42.2902 65.8843 42.2178C65.7366 42.1758 65.6499 42.0231 65.6896 41.8747C65.7334 41.7285 65.8846 41.6426 66.0326 41.68C66.1814 41.7116 66.3348 41.7157 66.4851 41.6921C66.5119 41.6822 66.5188 41.67 66.5111 41.6866C66.5297 41.6293 66.5309 41.5677 66.5146 41.5097L66.5962 41.7069C66.0229 41.0171 65.2874 39.7535 65.989 38.9116C66.1435 38.7382 66.3278 38.5939 66.5333 38.4855C66.7639 38.3458 67.0101 38.2334 67.2668 38.1507C67.654 38.0392 68.0704 38.0989 68.4107 38.3147C68.7019 38.5198 68.4235 39.0036 68.1292 38.7963L68.1294 38.7963Z" fill="black"/>
<circle cx="0.360789" cy="0.360789" r="0.360789" transform="matrix(-1 0 0 1 68.0645 39.9336)" fill="black"/>
<path d="M67.9245 40.3155C67.9252 40.2988 67.9243 40.2823 67.9239 40.2656C67.923 40.2324 67.9317 40.2959 67.9236 40.2639C67.922 40.2577 67.921 40.2513 67.9195 40.245C67.9174 40.2366 67.9128 40.2053 67.9049 40.1995L67.9115 40.2154C67.9088 40.2096 67.9061 40.204 67.9031 40.1984C67.8988 40.1901 67.8941 40.1819 67.889 40.1739C67.885 40.1674 67.8795 40.1612 67.8759 40.1544C67.8669 40.1378 67.8985 40.1785 67.8773 40.1569C67.8663 40.1456 67.8561 40.134 67.8442 40.1235C67.84 40.1189 67.8351 40.1149 67.8298 40.1114L67.843 40.1219C67.8378 40.1182 67.8327 40.1147 67.8274 40.1113C67.8221 40.1079 67.8166 40.1046 67.8112 40.1015C67.8073 40.0994 67.7749 40.0793 67.7937 40.0917C67.8114 40.1034 67.7881 40.0897 67.7835 40.0882C67.7758 40.0856 67.7681 40.0833 67.7603 40.0812C67.7524 40.0791 67.7443 40.0777 67.7364 40.0756C67.7051 40.0676 67.7598 40.0766 67.7391 40.0756C67.7223 40.0748 67.7058 40.0735 67.689 40.0742C67.6839 40.0744 67.668 40.0728 67.6644 40.0759C67.6836 40.0731 67.6879 40.0726 67.6773 40.0744C67.6725 40.0752 67.6678 40.0761 67.663 40.0772C67.6473 40.0807 67.6324 40.0858 67.6171 40.0906C67.5863 40.1002 67.6434 40.0756 67.6155 40.0915C67.61 40.0945 67.6042 40.0972 67.5987 40.1002C67.5898 40.1052 67.5642 40.1166 67.5592 40.1257L67.5727 40.1155C67.569 40.1185 67.5655 40.1216 67.562 40.1247C67.5542 40.1325 67.546 40.1396 67.5385 40.1477C67.5342 40.1523 67.5303 40.1571 67.526 40.1617C67.5045 40.1852 67.5413 40.1361 67.5251 40.1636C67.5171 40.1772 67.5091 40.1908 67.5012 40.2045C67.495 40.2152 67.489 40.2145 67.5035 40.1973C67.4989 40.2059 67.4956 40.215 67.4938 40.2246C67.4918 40.2307 67.4901 40.237 67.4885 40.2433C67.4875 40.2472 67.4784 40.2867 67.4835 40.2635C67.4887 40.2402 67.4832 40.2716 67.483 40.2749C67.4826 40.2816 67.4824 40.2883 67.4824 40.295C67.4824 40.305 67.4832 40.3148 67.4836 40.3248C67.4846 40.3534 67.4824 40.3165 67.4822 40.3168C67.4776 40.3226 67.4908 40.356 67.4931 40.3637C67.4947 40.3688 67.4983 40.3877 67.5026 40.3907L67.496 40.3749C67.4986 40.3806 67.5014 40.3863 67.5043 40.3919C67.5117 40.4059 67.5203 40.4187 67.5288 40.432C67.545 40.4573 67.5127 40.4182 67.5271 40.4298C67.5327 40.4353 67.5379 40.4411 67.5428 40.4472C67.5525 40.4597 67.5643 40.4703 67.5776 40.4788C67.5573 40.4715 67.5613 40.4674 67.5721 40.4738C67.5829 40.4802 67.5934 40.4874 67.6046 40.4933C67.6099 40.4968 67.6157 40.4996 67.6216 40.5019L67.6059 40.4954C67.6118 40.4978 67.6178 40.5 67.6239 40.5021C67.6378 40.5068 67.6519 40.5107 67.6662 40.5137C67.682 40.517 67.685 40.5263 67.6634 40.5142C67.6715 40.5163 67.68 40.517 67.6885 40.5161C67.6987 40.5166 67.7353 40.5217 67.7431 40.5144L67.7254 40.5168C67.7318 40.5157 67.7381 40.5145 67.7444 40.5131C67.7538 40.511 67.7631 40.5086 67.7722 40.5058C67.7797 40.5035 67.7873 40.4997 67.7947 40.498C67.8045 40.4942 67.8007 40.4959 67.7833 40.5029C67.7891 40.5003 67.7947 40.4975 67.8003 40.4946C67.8124 40.4883 67.8424 40.4765 67.8481 40.4646C67.8477 40.4654 67.8228 40.487 67.8418 40.4687C67.8486 40.4622 67.8557 40.4561 67.8623 40.4494C67.8689 40.4427 67.875 40.4356 67.8814 40.4286C67.9022 40.4053 67.8662 40.4535 67.8823 40.4267C67.8864 40.4198 67.9131 40.3859 67.9103 40.3772C67.9138 40.388 67.901 40.402 67.909 40.3795C67.9128 40.3688 67.9161 40.358 67.9189 40.347C67.9205 40.3407 67.9217 40.3343 67.9232 40.3279C67.9258 40.3124 67.9257 40.3149 67.9227 40.3355C67.9235 40.3288 67.924 40.3222 67.9245 40.3155C67.9239 40.2653 67.9503 40.2187 67.9937 40.1934C68.0371 40.1682 68.0907 40.1682 68.134 40.1934C68.1774 40.2187 68.2039 40.2653 68.2033 40.3155C68.1949 40.5292 68.0512 40.7139 67.8461 40.7747C67.6409 40.8355 67.4198 40.7588 67.2963 40.5842C67.1776 40.4172 67.1728 40.1947 67.2842 40.0229C67.4068 39.8338 67.6407 39.7502 67.8554 39.8185C68.0701 39.8869 68.2125 40.0903 68.2033 40.3155C68.2038 40.3656 68.1774 40.4122 68.134 40.4375C68.0907 40.4628 68.0371 40.4628 67.9937 40.4375C67.9503 40.4122 67.9239 40.3656 67.9244 40.3155L67.9245 40.3155Z" fill="black"/>
<circle cx="0.360789" cy="0.360789" r="0.360789" transform="matrix(-1 0 0 1 64.6767 39.6055)" fill="black"/>
<path d="M64.5366 39.9874C64.5373 39.9706 64.5365 39.9542 64.536 39.9375C64.5352 39.9043 64.5438 39.9678 64.5358 39.9358C64.5342 39.9295 64.5331 39.9232 64.5316 39.9169C64.5295 39.9085 64.5249 39.8772 64.517 39.8714L64.5236 39.8873C64.521 39.8815 64.5182 39.8759 64.5153 39.8703C64.5109 39.862 64.5062 39.8538 64.5012 39.8458C64.4971 39.8393 64.4917 39.833 64.488 39.8263C64.4791 39.8097 64.5106 39.8504 64.4894 39.8288C64.4784 39.8175 64.4682 39.8059 64.4564 39.7954C64.4521 39.7908 64.4473 39.7867 64.442 39.7833L64.4552 39.7938C64.45 39.7901 64.4448 39.7866 64.4395 39.7832C64.4342 39.7798 64.4288 39.7765 64.4233 39.7734C64.4195 39.7712 64.387 39.7511 64.4058 39.7635C64.4236 39.7753 64.4002 39.7616 64.3956 39.7601C64.388 39.7575 64.3802 39.7551 64.3724 39.753C64.3646 39.751 64.3565 39.7496 64.3486 39.7475C64.3172 39.7394 64.3719 39.7484 64.3512 39.7475C64.3344 39.7467 64.3179 39.7454 64.3011 39.746C64.296 39.7463 64.2801 39.7447 64.2765 39.7478C64.2958 39.745 64.3001 39.7445 64.2894 39.7463C64.2846 39.7471 64.2799 39.748 64.2752 39.7491C64.2594 39.7525 64.2445 39.7577 64.2292 39.7625C64.1984 39.7721 64.2555 39.7475 64.2276 39.7633C64.2221 39.7664 64.2164 39.769 64.2109 39.7721C64.202 39.777 64.1763 39.7885 64.1714 39.7976L64.1848 39.7874C64.1812 39.7904 64.1776 39.7934 64.1741 39.7966C64.1664 39.8044 64.1581 39.8115 64.1506 39.8195C64.1463 39.8241 64.1424 39.829 64.1381 39.8336C64.1167 39.8571 64.1534 39.808 64.1372 39.8355C64.1292 39.8491 64.1212 39.8627 64.1133 39.8764C64.1071 39.8871 64.1011 39.8863 64.1156 39.8692C64.111 39.8777 64.1077 39.8869 64.1059 39.8964C64.104 39.9026 64.1022 39.9089 64.1006 39.9152C64.0996 39.9191 64.0906 39.9586 64.0957 39.9354C64.1008 39.9121 64.0953 39.9434 64.0951 39.9467C64.0947 39.9534 64.0945 39.9602 64.0945 39.9669C64.0945 39.9768 64.0953 39.9867 64.0957 39.9966C64.0968 40.0252 64.0946 39.9883 64.0943 39.9887C64.0897 39.9944 64.1029 40.0279 64.1053 40.0356C64.1068 40.0407 64.1104 40.0595 64.1147 40.0626L64.1081 40.0468C64.1108 40.0525 64.1135 40.0582 64.1165 40.0637C64.1238 40.0778 64.1324 40.0906 64.141 40.1039C64.1571 40.1292 64.1249 40.0901 64.1392 40.1017C64.1448 40.1072 64.1501 40.113 64.155 40.1191C64.1647 40.1315 64.1764 40.1422 64.1897 40.1507C64.1695 40.1434 64.1735 40.1393 64.1843 40.1457C64.1951 40.152 64.2055 40.1592 64.2167 40.1652C64.2221 40.1686 64.2278 40.1715 64.2338 40.1737L64.218 40.1673C64.224 40.1697 64.23 40.1719 64.2361 40.174C64.2499 40.1787 64.264 40.1826 64.2783 40.1856C64.2942 40.1889 64.2971 40.1982 64.2755 40.1861C64.2837 40.1882 64.2922 40.1888 64.3006 40.188C64.3108 40.1885 64.3474 40.1936 64.3552 40.1863L64.3375 40.1886C64.3439 40.1876 64.3502 40.1864 64.3565 40.185C64.3659 40.1829 64.3752 40.1805 64.3844 40.1777C64.3918 40.1754 64.3994 40.1715 64.4069 40.1699C64.4166 40.1661 64.4128 40.1677 64.3955 40.1748C64.4012 40.1722 64.4069 40.1694 64.4124 40.1665C64.4245 40.1601 64.4545 40.1483 64.4602 40.1365C64.4599 40.1372 64.435 40.1589 64.454 40.1406C64.4607 40.1341 64.4678 40.128 64.4745 40.1213C64.4812 40.1146 64.4872 40.1075 64.4935 40.1004C64.5142 40.0772 64.4783 40.1254 64.4944 40.0986C64.4985 40.0917 64.5252 40.0578 64.5225 40.0491C64.5259 40.0599 64.5131 40.0739 64.5211 40.0514C64.5249 40.0407 64.5282 40.0299 64.531 40.0189C64.5326 40.0125 64.5338 40.0061 64.5353 39.9998C64.538 39.9843 64.5378 39.9868 64.5349 40.0074C64.5356 40.0007 64.5362 39.994 64.5366 39.9873C64.5366 39.9103 64.599 39.8479 64.676 39.8479C64.753 39.8479 64.8155 39.9103 64.8155 39.9873C64.807 40.2011 64.6633 40.3858 64.4582 40.4466C64.2531 40.5073 64.032 40.4307 63.9085 40.256C63.7897 40.0891 63.7849 39.8666 63.8964 39.6947C64.019 39.5057 64.2528 39.4221 64.4675 39.4904C64.6822 39.5588 64.8247 39.7622 64.8154 39.9873C64.8154 40.0643 64.753 40.1268 64.676 40.1268C64.599 40.1268 64.5366 40.0643 64.5366 39.9873L64.5366 39.9874Z" fill="black"/>
<path d="M65.2465 42.7862C65.1811 42.9852 65.0144 43.1341 64.8092 43.1766C64.6041 43.2192 64.3919 43.1488 64.2528 42.9923C64.1136 42.8357 64.0688 42.6167 64.1352 42.418L65.2465 42.7862Z" fill="black"/>
<path d="M65.381 42.8218C65.2874 43.1148 65.019 43.3167 64.7116 43.3253C64.4041 43.3339 64.1248 43.1474 64.015 42.8601C63.9554 42.7062 63.9504 42.5366 64.0007 42.3794C64.022 42.3058 64.0981 42.2626 64.1722 42.282L65.1458 42.6046L65.2836 42.6503C65.3567 42.6722 65.3997 42.7478 65.381 42.8218C65.3599 42.8956 65.2836 42.9389 65.2095 42.9192L64.2359 42.5966L64.0981 42.5509L64.2696 42.4536C64.1892 42.686 64.3121 42.9396 64.5442 43.0206C64.7764 43.1017 65.0304 42.9796 65.1121 42.7477C65.1341 42.6746 65.2096 42.6317 65.2836 42.6503C65.3574 42.6714 65.4007 42.7476 65.381 42.8218Z" fill="black"/>
<path d="M58.5273 38.2206C58.6849 38.1803 58.8506 38.1848 59.0057 38.2336C59.3529 38.3574 59.6323 38.6209 59.7762 38.9602C59.9191 39.272 60.0149 39.6032 60.0606 39.9431C60.0973 40.091 60.0117 40.2418 59.8658 40.2861C59.7175 40.3252 59.5651 40.2387 59.5228 40.0913C59.4999 39.936 59.4688 39.7819 59.4294 39.6299C59.4132 39.5686 59.3951 39.5078 59.3753 39.4475C59.365 39.4166 59.3542 39.3859 59.3429 39.3554C59.3385 39.3437 59.334 39.332 59.3295 39.3204C59.3262 39.3118 59.3228 39.3033 59.3193 39.2948C59.3112 39.2751 59.3149 39.2835 59.3302 39.32C59.3038 39.2769 59.2821 39.231 59.2656 39.1833C59.2423 39.1387 59.2172 39.0951 59.19 39.053C59.1787 39.0355 59.167 39.0183 59.1549 39.0014C59.1478 38.9928 59.1412 38.9838 59.1352 38.9745C59.1356 38.9752 59.182 39.0315 59.155 39.0003C59.1287 38.9697 59.1033 38.9389 59.0748 38.9104C59.0515 38.8871 59.0266 38.8662 59.002 38.8445C58.9717 38.8177 59.0664 38.8892 59.0182 38.8571C59.0034 38.8473 58.9892 38.8369 58.9742 38.8274C58.9501 38.8122 58.9252 38.7984 58.8995 38.7859C58.8894 38.781 58.8787 38.7772 58.8688 38.7718C58.9579 38.82 58.9149 38.7908 58.8867 38.781C58.8445 38.7683 58.8017 38.7578 58.7585 38.7495C58.8696 38.7759 58.805 38.7551 58.7688 38.7533C58.752 38.7525 58.7351 38.7523 58.7183 38.7527C58.702 38.7532 58.6858 38.7554 58.6695 38.7561C58.6289 38.7578 58.7635 38.7375 58.7069 38.7514C58.6965 38.754 58.6859 38.7554 58.6756 38.7585C58.5273 38.7979 58.3748 38.7113 58.3326 38.5637C58.2949 38.4157 58.3809 38.2643 58.5273 38.2207V38.2206Z" fill="black"/>
<path d="M70.1316 36.4468L62.1264 36.5136L60.6198 40.9895C60.6198 40.9895 60.8993 39.0147 60.3019 38.1016C60.0428 37.7358 59.7336 37.4842 59.4152 37.4533C58.5407 37.3687 57.84 37.5982 57.7188 38.8502C57.6385 39.679 58.1933 41.1907 58.6405 41.6157L58.0476 44.9779L58.0459 44.9762C56.5636 43.5092 53.9868 41.0025 53.7643 35.687C53.7167 34.5276 53.9941 33.3779 54.5651 32.3678C55.7034 30.3513 57.8653 29.1315 60.1799 29.2L68.5166 29.4367" fill="#A8542A"/>
<path d="M70.1316 36.7259L67.4253 36.7484L63.1136 36.7844L62.1265 36.7926L62.3954 36.5879L61.0747 40.5115L60.8888 41.0638C60.8436 41.2071 60.6932 41.2888 60.5484 41.2489C60.4036 41.209 60.3164 41.0617 60.351 40.9156C60.3447 40.9602 60.3426 40.9878 60.3498 40.9207C60.3565 40.8573 60.3638 40.794 60.3697 40.7305C60.388 40.5321 60.3995 40.3332 60.4041 40.1338C60.434 39.6198 60.3765 39.1045 60.2343 38.6097C60.1485 38.3491 59.9943 38.1164 59.7877 37.9358C59.5862 37.7662 59.3236 37.6872 59.062 37.7172C58.6527 37.726 58.3083 37.8779 58.1363 38.2677C57.9157 38.7676 57.9801 39.3324 58.1109 39.8449C58.2214 40.3707 58.4354 40.8693 58.7405 41.3116C58.8493 41.4518 58.9346 41.5331 58.9035 41.7235C58.8888 41.8132 58.8719 41.9026 58.8561 41.9922L58.6724 43.0341L58.3165 45.0521C58.289 45.147 58.2138 45.2204 58.1183 45.2456C58.0229 45.2708 57.9212 45.2441 57.8504 45.1752C56.5414 43.8901 55.3753 42.4943 54.6238 40.8038C54.0876 39.577 53.7381 38.277 53.5868 36.9467C53.4692 36.1489 53.4549 35.3393 53.5442 34.5379C54.003 31.2152 56.9112 28.7849 60.2626 28.9236C61.6317 28.9619 63.0008 29.0008 64.3699 29.0403C65.7272 29.0789 67.0867 29.0978 68.4434 29.1561C68.4678 29.1571 68.4923 29.1575 68.5167 29.1582C68.8748 29.1684 68.8763 29.7261 68.5167 29.7159L65.2053 29.6218L60.6121 29.4914C59.982 29.4537 59.3497 29.4942 58.7295 29.6119C55.8689 30.2336 53.8839 32.8416 54.0466 35.7644C54.0995 37.1528 54.3633 38.5251 54.8288 39.8342C55.4783 41.6174 56.5849 43.1206 57.915 44.4534C58.0244 44.563 58.1344 44.6722 58.2447 44.7809L57.7787 44.9039L58.3715 41.5417L58.4432 41.813C58.2156 41.566 58.0359 41.2788 57.9131 40.9661C57.7397 40.5793 57.6077 40.1754 57.5192 39.7609C57.3705 39.0426 57.3815 38.1435 57.9307 37.5842C58.3783 37.1284 59.2676 37.0109 59.8332 37.2945C60.6119 37.6849 60.8674 38.5636 60.9392 39.3634C60.9868 39.9303 60.9699 40.5008 60.8886 41.0639L60.3507 40.9156L61.6714 36.992L61.8574 36.4396C61.8932 36.3204 62.0018 36.2377 62.1263 36.2349L64.8326 36.2124L69.1443 36.1764L70.1314 36.1682C70.2816 36.1735 70.4006 36.2968 70.4006 36.447C70.4006 36.5973 70.2816 36.7206 70.1314 36.7259L70.1316 36.7259Z" fill="black"/>
<rect width="76.1446" height="54.9858" rx="27.4929" transform="matrix(-1 0 0 1 172.58 58.9434)" fill="white"/>
<path d="M103.221 113.65H163.679C164.357 113.65 165.035 113.651 165.713 113.65C168.68 113.644 171.345 111.673 172.095 108.774C172.361 107.747 172.301 106.674 172.301 105.621V66.4415C172.301 66.2087 172.302 65.9759 172.301 65.7431C172.305 64.0148 171.622 62.3558 170.401 61.1323C169.18 59.9088 167.523 59.2214 165.794 59.2218C165.665 59.221 165.535 59.2218 165.406 59.2218H103.958C102.634 59.2218 101.357 59.3425 100.155 59.988C98.4914 60.8848 97.2952 62.4548 96.8721 64.2966C96.7548 64.8671 96.7019 65.449 96.7142 66.0313V104.852C96.7142 105.613 96.7098 106.374 96.7142 107.134C96.7471 110.716 99.6395 113.612 103.221 113.65C103.371 113.655 103.49 113.778 103.49 113.929C103.49 114.079 103.371 114.202 103.221 114.208C99.337 114.165 96.1991 111.027 96.1565 107.144C96.1519 106.447 96.1565 105.75 96.1565 105.053V66.0169C96.1459 65.3894 96.2055 64.7626 96.3343 64.1483C96.7523 62.3516 97.8516 60.7874 99.4004 59.7854C100.747 58.9148 102.255 58.6641 103.819 58.6641H165.452C167.521 58.6641 169.482 59.3421 170.928 60.8756C172.162 62.1913 172.851 63.9253 172.859 65.7289C172.86 65.9246 172.859 66.1204 172.859 66.3161V105.637C172.859 106.738 172.911 107.846 172.633 108.923C171.827 112.035 168.949 114.193 165.757 114.208C165.142 114.21 164.527 114.208 163.912 114.208H103.221C103.07 114.202 102.951 114.079 102.951 113.929C102.951 113.778 103.07 113.655 103.221 113.65Z" fill="black"/>
<path d="M172.58 66.614V62.5933C172.58 60.5775 170.946 58.9434 168.93 58.9434H100.085C98.0695 58.9434 96.4354 60.5775 96.4354 62.5933V66.614H172.58Z" fill="black"/>
<path d="M172.301 66.6137C172.301 65.2745 172.318 63.934 172.301 62.5948C172.277 60.7112 170.733 59.2024 168.849 59.2219C167.713 59.2178 166.577 59.2219 165.44 59.2219H100.551C99.9109 59.2219 99.2949 59.2455 98.6917 59.5214C97.492 60.0784 96.7217 61.2778 96.7143 62.6004C96.7058 63.3054 96.7143 64.0112 96.7143 64.7163V66.6137L96.4354 66.3348H169.489C170.476 66.3348 171.464 66.3166 172.451 66.3348C172.494 66.3356 172.537 66.3348 172.58 66.3348C172.73 66.3401 172.849 66.4634 172.849 66.6137C172.849 66.764 172.73 66.8872 172.58 66.8925H99.5263C98.5398 66.8925 97.5512 66.9107 96.5649 66.8925C96.5217 66.8917 96.4785 66.8925 96.4354 66.8925C96.2823 66.8904 96.1587 66.7668 96.1565 66.6137C96.1565 65.2565 96.1318 63.8971 96.1573 62.5401C96.2118 60.3882 97.9687 58.6703 100.121 58.6642C101.19 58.6551 102.259 58.6642 103.328 58.6642H168.588C169.503 58.6642 170.391 58.8207 171.162 59.3606C172.217 60.1012 172.849 61.306 172.859 62.595C172.867 63.2893 172.859 63.9843 172.859 64.6788V66.6137C172.854 66.7639 172.73 66.8829 172.58 66.8829C172.43 66.8829 172.306 66.7639 172.301 66.6137Z" fill="black"/>
<rect width="24.3259" height="24.3259" rx="12.1629" transform="matrix(-1 0 0 1 129.319 75.1836)" fill="#EA2F2F"/>
<path d="M109.148 99.2304H124.951C125.535 99.2469 126.116 99.1458 126.661 98.9332C127.8 98.4497 128.644 97.4559 128.936 96.2532C129.02 95.8426 129.055 95.4233 129.04 95.0044V79.7608C129.054 79.4057 129.036 79.0501 128.989 78.6979C128.776 77.4742 127.996 76.4236 126.887 75.8647C125.927 75.3818 124.877 75.4624 123.839 75.4624H109.834C109.607 75.4624 109.379 75.4611 109.152 75.4624C108.115 75.4606 107.12 75.875 106.391 76.6129C105.661 77.3507 105.258 78.3502 105.272 79.3875C105.272 79.6878 105.272 79.9882 105.272 80.2885V94.3381C105.272 94.6557 105.272 94.9733 105.272 95.2909C105.264 96.1602 105.541 97.0082 106.063 97.7039C106.8 98.6619 107.939 99.2254 109.148 99.2305C109.298 99.2358 109.417 99.3591 109.417 99.5094C109.417 99.6596 109.298 99.7829 109.148 99.7882C107.968 99.7876 106.837 99.3167 106.005 98.4798C105.172 97.6429 104.708 96.5088 104.714 95.3287C104.712 94.4403 104.714 93.5518 104.714 92.6634V82.1297C104.714 81.2123 104.713 80.2947 104.714 79.3773C104.696 76.9854 106.577 75.0092 108.966 74.9085C109.751 74.8751 110.542 74.9046 111.327 74.9046H125.012C125.739 74.8924 126.459 75.0475 127.117 75.3578C128.27 75.9266 129.121 76.9649 129.452 78.2065C129.689 79.1093 129.598 80.1229 129.598 81.0484V95.018C129.612 95.4922 129.568 95.9664 129.467 96.4298C129.151 97.6759 128.314 98.7255 127.169 99.3097C126.501 99.6363 125.765 99.8003 125.021 99.7882H109.148C108.998 99.783 108.879 99.6597 108.879 99.5093C108.879 99.3589 108.998 99.2356 109.148 99.2304Z" fill="black"/>
<rect width="24.3259" height="24.3259" rx="12.1629" transform="matrix(-1 0 0 1 164.014 75.3945)" fill="#FFC41F"/>
<path d="M143.843 99.4414H159.645C160.23 99.4578 160.811 99.3567 161.355 99.1441C162.495 98.6605 163.338 97.6668 163.63 96.4641C163.715 96.0534 163.75 95.6342 163.735 95.2152V79.9717C163.748 79.6166 163.731 79.261 163.684 78.9088C163.47 77.6852 162.691 76.6345 161.582 76.0756C160.621 75.5927 159.571 75.6732 158.533 75.6732H144.529C144.301 75.6732 144.074 75.6719 143.847 75.6732C142.809 75.6715 141.814 76.0859 141.085 76.8237C140.356 77.5616 139.953 78.5611 139.967 79.5985C139.966 79.8988 139.967 80.1991 139.967 80.4994V94.549C139.967 94.8666 139.967 95.1842 139.967 95.5018C139.958 96.3711 140.236 97.2191 140.757 97.9148C141.495 98.8728 142.634 99.4363 143.843 99.4414C143.993 99.4467 144.112 99.57 144.112 99.7203C144.112 99.8706 143.993 99.9939 143.843 99.9991C142.663 99.9985 141.531 99.5277 140.699 98.6907C139.867 97.8538 139.403 96.7198 139.409 95.5396C139.407 94.6512 139.409 93.7627 139.409 92.8743V82.3407C139.409 81.4232 139.407 80.5057 139.409 79.5882C139.391 77.1963 141.271 75.2201 143.661 75.1194C144.446 75.0861 145.237 75.1155 146.022 75.1155H159.706C160.434 75.1033 161.154 75.2584 161.812 75.5688C162.964 76.1376 163.815 77.1759 164.147 78.4174C164.383 79.3203 164.293 80.3338 164.293 81.2594V95.229C164.307 95.7032 164.263 96.1773 164.161 96.6408C163.846 97.8869 163.008 98.9364 161.863 99.5206C161.195 99.8472 160.459 100.011 159.715 99.9991H143.843C143.693 99.9938 143.574 99.8705 143.574 99.7202C143.574 99.5699 143.693 99.4466 143.843 99.4414Z" fill="black"/>
<path d="M152.508 94.5355L160.016 88.4965C160.489 88.1206 160.724 87.5201 160.633 86.9228C160.542 86.3255 160.137 85.8229 159.574 85.6056C159.01 85.3883 158.373 85.4896 157.904 85.8711L153.013 89.805L146.051 81.2047C145.672 80.737 145.073 80.5068 144.479 80.6008C143.884 80.6949 143.385 81.0989 143.169 81.6608C142.953 82.2226 143.054 82.8569 143.432 83.3247L152.508 94.5355Z" fill="black"/>
<path d="M152.311 94.3376L154.604 92.4931L158.523 89.3403L159.68 88.41C159.792 88.3252 159.898 88.2324 159.997 88.1324C160.397 87.6949 160.48 87.054 160.205 86.5292C159.93 86.0044 159.355 85.7081 158.768 85.7881C158.486 85.8341 158.223 85.9571 158.007 86.1437L156.624 87.2556C155.508 88.1531 154.393 89.0507 153.277 89.9482C153.255 89.966 153.233 89.9837 153.21 90.0015C153.101 90.1083 152.926 90.1083 152.816 90.0015L149.43 85.8187C148.241 84.3503 147.07 82.8654 145.863 81.4123C145.557 81.0097 145.058 80.8023 144.557 80.869C144.055 80.9356 143.628 81.2661 143.438 81.7347C143.248 82.2033 143.324 82.738 143.637 83.1353C143.947 83.5428 144.283 83.9335 144.605 84.3317L149.232 90.0471L152.649 94.269L152.705 94.3377C152.929 94.6142 152.537 95.0112 152.311 94.7321L149.308 91.0228L144.45 85.0221C144.058 84.5376 143.664 84.0543 143.273 83.5684C142.859 83.0856 142.696 82.4367 142.83 81.8152C143.07 80.83 144.016 80.1857 145.021 80.3231C145.912 80.4486 146.371 81.1582 146.888 81.7968L149.095 84.5236L153.133 89.5112L153.21 89.6073H152.816L155.894 87.1311L157.515 85.8278C157.671 85.6909 157.839 85.5682 158.016 85.461C158.898 84.9781 160.002 85.2395 160.574 86.0666C161.146 86.8936 161 88.0189 160.237 88.6732C159.998 88.8748 159.749 89.0658 159.506 89.2617L155.658 92.357C154.69 93.1353 153.725 93.9169 152.755 94.692C152.738 94.7053 152.722 94.7186 152.705 94.732C152.428 94.9549 152.031 94.5627 152.311 94.3376Z" fill="black"/>
<path d="M110.283 95.9048C110.73 95.9054 111.159 95.7278 111.474 95.4114L125.221 81.6649C125.877 81.0067 125.876 79.9416 125.219 79.2844C124.562 78.6273 123.496 78.6264 122.838 79.2825L109.092 93.029C108.61 93.5108 108.466 94.2353 108.727 94.8648C108.987 95.4943 109.602 95.9048 110.283 95.9048Z" fill="black"/>
<path d="M110.283 95.6249C110.847 95.6136 111.191 95.2988 111.554 94.9365L112.616 93.8741L116.31 90.1804L120.688 85.8019L124.099 82.3908L124.923 81.5675C125.001 81.4944 125.074 81.4165 125.143 81.3342C125.596 80.747 125.516 79.9085 124.959 79.4182C124.402 78.9279 123.56 78.9544 123.035 79.4787C122.996 79.5167 122.958 79.556 122.919 79.5946L122.07 80.4439L118.614 83.8998L114.233 88.2807L110.581 91.9332L109.547 92.9669C109.201 93.3129 108.887 93.6553 108.878 94.1898C108.87 94.9739 109.499 95.6161 110.283 95.6249C110.641 95.6321 110.643 96.1899 110.283 96.1826C109.488 96.1828 108.772 95.704 108.468 94.9697C108.164 94.2354 108.333 93.3905 108.896 92.8293C109.066 92.6543 109.241 92.484 109.414 92.3114L112.586 89.1397L117.072 84.653L121.035 80.6899L122.241 79.4847C122.464 79.2329 122.715 79.006 122.987 78.8083C123.658 78.3891 124.515 78.4131 125.161 78.8694C125.807 79.3257 126.117 80.1251 125.946 80.8975C125.834 81.4275 125.494 81.7849 125.132 82.1473L122.301 84.9776L117.89 89.3893L113.74 93.5392C113.057 94.2219 112.379 94.9096 111.691 95.5876C111.317 95.9617 110.812 96.1752 110.283 96.1827C109.924 96.1899 109.924 95.6321 110.283 95.6249Z" fill="black"/>
<path d="M124.029 95.9048C124.711 95.9048 125.325 95.4943 125.586 94.8648C125.847 94.2353 125.702 93.5108 125.221 93.029L111.474 79.2825C110.816 78.6264 109.751 78.6273 109.094 79.2844C108.437 79.9416 108.436 81.0067 109.092 81.6649L122.838 95.4114C123.154 95.7278 123.582 95.9054 124.029 95.9048Z" fill="black"/>
<path d="M124.029 95.6255C124.421 95.6206 124.794 95.4545 125.059 95.1662C125.324 94.8779 125.459 94.493 125.431 94.1023C125.398 93.7565 125.242 93.4341 124.991 93.1938C124.769 92.9695 124.545 92.7473 124.322 92.524L121.084 89.2859L116.726 84.9281L112.903 81.1053C112.348 80.5498 111.808 79.9695 111.232 79.4355C110.681 78.9326 109.833 78.9471 109.3 79.4685C108.767 79.9898 108.734 80.8367 109.224 81.3985C109.378 81.5728 109.553 81.7317 109.718 81.8961L112.656 84.834L116.954 89.132L120.956 93.1341C121.638 93.816 122.316 94.5014 123.002 95.18C123.272 95.4584 123.641 95.6186 124.029 95.6254C124.388 95.6326 124.389 96.1904 124.029 96.1832C123.499 96.1754 122.993 95.9609 122.618 95.5853C122.542 95.5103 122.467 95.4343 122.392 95.3589L121.33 94.2973L117.52 90.4866L113.003 85.9696L109.618 82.585C109.387 82.3545 109.156 82.125 108.926 81.8935C108.185 81.1858 108.112 80.0265 108.76 79.2321C109.409 78.4377 110.559 78.2757 111.401 78.8602C111.529 78.9546 111.65 79.0597 111.761 79.1742L112.612 80.0252L116.164 83.5779L120.693 88.1065L124.351 91.7646L125.279 92.6927C125.325 92.7387 125.372 92.7841 125.417 92.8308C125.979 93.3922 126.147 94.2369 125.844 94.9708C125.54 95.7048 124.824 96.1833 124.029 96.1832C123.67 96.1905 123.67 95.6327 124.029 95.6255Z" fill="black"/>
<path d="M151.41 104.928H118.632C118.19 104.928 117.746 104.939 117.304 104.928C117.285 104.927 117.265 104.928 117.246 104.928C117.096 104.923 116.977 104.799 116.977 104.649C116.977 104.499 117.096 104.376 117.246 104.37H150.024C150.466 104.37 150.91 104.359 151.352 104.37C151.371 104.371 151.391 104.37 151.41 104.37C151.56 104.376 151.679 104.499 151.679 104.649C151.679 104.799 151.56 104.923 151.41 104.928Z" fill="black"/>
<path d="M154.88 107.758H115.439C114.908 107.758 114.376 107.768 113.844 107.758C113.822 107.757 113.799 107.758 113.776 107.758C113.625 107.752 113.506 107.629 113.506 107.479C113.506 107.329 113.625 107.205 113.776 107.2H153.217C153.748 107.2 154.28 107.189 154.812 107.2C154.834 107.2 154.857 107.2 154.88 107.2C155.031 107.205 155.15 107.329 155.15 107.479C155.15 107.629 155.031 107.752 154.88 107.758H154.88Z" fill="black"/>
<path d="M154.904 110.588H115.666C115.135 110.588 114.603 110.599 114.073 110.588C114.05 110.588 114.027 110.588 114.004 110.588C113.854 110.583 113.735 110.46 113.735 110.309C113.735 110.159 113.854 110.036 114.004 110.03H153.242C153.772 110.03 154.304 110.019 154.835 110.03C154.858 110.031 154.881 110.03 154.904 110.03C155.054 110.036 155.173 110.159 155.173 110.309C155.173 110.46 155.054 110.583 154.904 110.588H154.904Z" fill="black"/>
<circle cx="1.38133" cy="1.38133" r="1.38133" transform="matrix(-1 0 0 1 169.312 61.2363)" fill="#EA2F2F"/>
<circle cx="1.38133" cy="1.38133" r="1.38133" transform="matrix(-1 0 0 1 163.954 61.2363)" fill="#FFC41F"/>
<circle cx="1.38133" cy="1.38133" r="1.38133" transform="matrix(-1 0 0 1 158.596 61.2363)" fill="#389B48"/>
<path d="M95.3635 58.9809L98.5021 57.7412C98.7178 57.656 98.959 57.6624 99.1699 57.7589C99.3809 57.8555 99.5434 58.0338 99.62 58.2527C99.749 58.6218 99.6105 59.0314 99.2839 59.2463L96.508 61.0729C97.1181 62.8138 96.5668 64.7503 95.1312 65.9088" fill="#F5EDFC"/>
<path d="M95.2894 58.7122C96.3294 58.3015 97.363 57.8674 98.4115 57.4791C98.9084 57.289 99.4705 57.4709 99.7618 57.9161C100.053 58.3612 99.9946 58.9492 99.6214 59.3283C99.4665 59.466 99.2975 59.5871 99.1173 59.6896L98.2335 60.2711L96.6487 61.3139L96.7769 60.999C97.2279 62.1287 97.0809 63.539 96.5411 64.6029C96.2392 65.1786 95.8272 65.6894 95.3284 66.1063C95.0572 66.3387 94.6609 65.9459 94.934 65.7119C95.8464 64.9301 96.4395 63.8762 96.4717 62.6615C96.497 62.1462 96.4179 61.6312 96.2391 61.1473C96.2064 61.0255 96.2587 60.8968 96.3672 60.8324L99.0602 59.0604C99.325 58.9214 99.4486 58.6099 99.351 58.3271C99.2204 57.9862 98.8576 57.9031 98.5444 58.023C98.0299 58.22 97.5193 58.4279 97.0069 58.6303L95.4377 59.2501C95.1038 59.382 94.9589 58.8428 95.2894 58.7123V58.7122Z" fill="black"/>
<path d="M82.48 78.9581L82.8333 79.7169C83.031 80.1414 83.019 80.6338 82.8009 81.0482L82.4873 81.644L82.8156 82.1354C83.0542 82.4926 83.0636 82.9557 82.8398 83.3223L82.4917 83.8925C82.4725 84.5706 83.0911 84.8559 83.0407 85.7841C82.9904 86.7123 81.6727 86.7703 80.8292 86.7887L78.2738 86.8445C77.5336 86.854 76.8199 86.569 76.29 86.0521C75.8694 85.6419 75.3301 85.3749 74.7489 85.2892L63.903 83.6898C63.903 83.6898 64.2481 79.8602 64.5563 78.7656" fill="#F5EDFC"/>
<path d="M82.7208 78.8174C82.9209 79.2472 83.1894 79.6935 83.2412 80.1707C83.3071 80.7782 82.998 81.272 82.728 81.7849V81.5034C82.92 81.7907 83.1624 82.082 83.2418 82.4251C83.3547 82.9128 83.1742 83.3098 82.9282 83.7127L82.7869 83.9443C82.7758 83.967 82.7626 83.9886 82.7474 84.0089C82.6993 84.0582 82.7391 83.9174 82.7714 83.969C82.7978 84.0572 82.8185 84.147 82.8331 84.2379C82.8707 84.3281 82.914 84.4159 82.9627 84.5006C83.0842 84.7079 83.1819 84.9283 83.2537 85.1575C83.3142 85.378 83.4084 85.7948 83.238 85.9815L83.3197 85.7843C83.2296 86.9139 81.9053 87.0347 81.0166 87.0629C80.4011 87.0824 79.785 87.0905 79.1693 87.104C78.351 87.1219 77.5725 87.1648 76.8147 86.7734C76.2323 86.4726 75.8456 85.9232 75.2174 85.695C75.0119 85.6237 74.7997 85.5734 74.584 85.5449L71.5156 85.0924L66.7362 84.3876L64.8445 84.1086C64.5234 84.0613 64.1926 84.0324 63.8749 83.9656C63.8598 83.9624 63.8441 83.9611 63.8289 83.9588C63.7077 83.9258 63.6237 83.8155 63.6242 83.6899C63.7425 82.3789 63.8793 81.0657 64.0792 79.7644C64.1276 79.4031 64.1971 79.0449 64.2875 78.6917C64.3325 78.5482 64.483 78.4662 64.628 78.5062C64.7729 78.5461 64.8601 78.6937 64.8253 78.8399C64.6581 79.5312 64.5413 80.2337 64.4758 80.942C64.3822 81.6944 64.3016 82.4484 64.228 83.2031C64.2122 83.3653 64.1968 83.5276 64.1819 83.6899L63.9771 83.421L66.2913 83.7623L70.9396 84.4478L74.4734 84.9689C74.963 85.0182 75.4385 85.1613 75.8741 85.3904C76.1308 85.5518 76.3702 85.739 76.5887 85.9492C76.8273 86.1592 77.1046 86.3206 77.4049 86.4244C77.752 86.5343 78.116 86.5807 78.4796 86.5614L80.5852 86.5154C80.8549 86.5095 81.1248 86.5059 81.3939 86.4864C81.7876 86.4579 82.3397 86.4158 82.6255 86.1032C82.7648 85.9509 82.7145 85.7286 82.8437 85.5871L82.762 85.7843C82.7794 85.3098 82.5674 84.9898 82.3764 84.578C82.2763 84.3812 82.2204 84.1648 82.2127 83.9441C82.2257 83.8014 82.281 83.6657 82.3715 83.5545C82.5635 83.24 82.7989 82.934 82.6957 82.5418C82.6237 82.2677 82.4018 82.0174 82.2465 81.7849C82.1959 81.6979 82.1959 81.5904 82.2465 81.5034C82.4662 81.086 82.756 80.6678 82.6824 80.1722C82.6269 79.7992 82.3964 79.4365 82.2392 79.0989C82.0886 78.7756 82.5692 78.492 82.7208 78.8174L82.7208 78.8174Z" fill="black"/>
<path d="M64.6759 48.7385L64.645 47.2924L56.465 46.5488L56.0931 49.3375L58.9747 52.0332L63.9012 51.1035L64.6759 48.7385Z" fill="#FFC41F"/>
<path d="M64.397 48.7391L64.3661 47.2931L64.6449 47.5719L61.8845 47.321L57.4808 46.9206L56.4649 46.8283L56.7438 46.5494L56.372 49.338C56.367 49.4899 56.245 49.6119 56.0931 49.6169C55.9394 49.6162 55.815 49.4918 55.8143 49.338L56.1861 46.5494C56.2046 46.4109 56.2992 46.2555 56.4649 46.2705L59.2254 46.5215L63.6291 46.9218L64.645 47.0142C64.7974 47.0178 64.9202 47.1406 64.9238 47.2931L64.9548 48.7391C64.9625 49.0981 64.4047 49.0981 64.3971 48.7391H64.397Z" fill="black"/>
<path d="M45.8806 46.8537C45.8806 55.4848 59.2952 52.4691 59.1912 59.7484C62.7269 54.5489 59.3992 47.5816 54.0957 45.0859C54.0957 45.0859 51.912 44.462 50.4561 45.0859" fill="#A8542A"/>
<path d="M46.1595 46.8548C46.1634 48.2334 46.5529 49.5771 47.4768 50.6195C48.3408 51.5942 49.5038 52.2385 50.6811 52.7606C51.9369 53.3176 53.2474 53.7386 54.5242 54.2428C55.7044 54.7089 56.8978 55.2374 57.8632 56.0797C58.791 56.879 59.3632 58.0142 59.454 59.2355C59.4675 59.4066 59.472 59.578 59.4701 59.7496L58.9504 59.6088C59.7465 58.4435 60.228 57.0922 60.3483 55.686C60.4461 54.3094 60.242 52.928 59.75 51.6386C58.7467 48.9894 56.8037 46.8021 54.2913 45.4935C53.8783 45.3059 53.4363 45.1901 52.9843 45.1511C52.1697 45.045 51.3004 45.0362 50.5302 45.356C50.3819 45.3958 50.229 45.3091 50.1872 45.1612C50.1501 45.0132 50.2358 44.8622 50.382 44.8182C51.1093 44.5162 51.9352 44.491 52.7099 44.5631C53.1988 44.5931 53.683 44.6772 54.1534 44.8137C54.4325 44.9226 54.7005 45.0578 54.9538 45.2177C55.2728 45.3982 55.5823 45.5941 55.8823 45.8055C56.4962 46.2369 57.069 46.7238 57.5935 47.2603C59.6327 49.3492 60.997 52.2274 60.9317 55.1817C60.8936 56.8626 60.3731 58.4971 59.432 59.8903C59.3663 59.9955 59.2396 60.0452 59.1199 60.0128C59.0003 59.9804 58.9159 59.8735 58.9123 59.7496C58.9542 58.578 58.493 57.4444 57.6451 56.6347C56.7765 55.8065 55.6164 55.2765 54.4974 54.829C53.2018 54.3108 51.8731 53.8789 50.5911 53.326C49.3827 52.8049 48.1856 52.1612 47.2611 51.2067C46.2934 50.1904 45.7142 48.8659 45.6253 47.4654C45.6092 47.2622 45.6023 47.0586 45.6017 46.8549C45.607 46.7047 45.7303 46.5857 45.8806 46.5857C46.0309 46.5857 46.1542 46.7047 46.1594 46.8549L46.1595 46.8548Z" fill="black"/>
<path d="M55.0656 85.9518L54.355 88.0949L52.7013 93.0818L50.822 98.7491L49.4346 102.933C49.3394 103.22 49.246 103.508 49.1491 103.794C48.7798 104.868 48.178 105.848 47.3865 106.662C46.6852 107.381 45.8538 107.96 44.9366 108.368C44.6441 108.5 44.3517 108.631 44.0591 108.763L40.0953 110.547L34.658 112.995L29.6568 115.246L26.8744 116.498L26.7442 116.557C26.5818 116.63 26.4399 116.39 26.6034 116.316L28.5482 115.441L33.1677 113.361L38.6402 110.898L43.1312 108.876C43.8746 108.542 44.6467 108.237 45.3646 107.849C46.73 107.107 47.8335 105.962 48.5243 104.571C48.7087 104.184 48.8656 103.786 48.9938 103.377L50.1649 99.8457L51.9879 94.3481L53.753 89.025L54.7504 86.0172L54.7967 85.8777C54.8529 85.7081 55.1223 85.7808 55.0656 85.9518H55.0656Z" fill="black"/>
<path d="M61.8507 92.6372L61.962 93.6979L62.2637 96.5707L62.7095 100.816L63.2555 106.016L63.8536 111.713L64.455 117.441L65.0158 122.783L65.4915 127.313L65.8322 130.558C65.8859 131.069 65.9583 131.583 65.9937 132.096C65.9953 132.119 65.9984 132.141 66.0007 132.163C66.0195 132.341 65.7405 132.34 65.7219 132.163L65.6105 131.102L65.3089 128.23L64.863 123.984L64.3171 118.784L63.719 113.087L63.1175 107.359L62.5567 102.018L62.0811 97.4875L61.7404 94.2427C61.6866 93.731 61.6142 93.2173 61.5788 92.7039C61.5773 92.6816 61.5741 92.6593 61.5718 92.6371C61.5531 92.4588 61.8321 92.4602 61.8507 92.6371L61.8507 92.6372Z" fill="black"/>
</svg>
