<svg width="64" height="64" viewBox="0 0 64 64" fill="none" xmlns="http://www.w3.org/2000/svg">
<mask id="mask0_3785_9531" style="mask-type:alpha" maskUnits="userSpaceOnUse" x="0" y="0" width="64" height="64">
<rect width="64" height="64" fill="#D9D9D9"/>
</mask>
<g mask="url(#mask0_3785_9531)">
<path d="M26.2207 30.3584C25.3727 30.3584 24.6718 30.0491 24.118 29.4304C23.5643 28.8117 23.3472 28.0784 23.4667 27.2304L24.282 20.8511C24.5349 18.9671 25.3998 17.414 26.8767 16.1917C28.3536 14.9695 30.0614 14.3584 32 14.3584C33.9387 14.3584 35.6465 14.9695 37.1234 16.1917C38.6003 17.414 39.4652 18.9671 39.718 20.8511L40.5334 27.2304C40.6529 28.0784 40.4358 28.8117 39.882 29.4304C39.3283 30.0491 38.6274 30.3584 37.7794 30.3584H26.2207ZM26.0667 27.6917H37.9334L37.0667 21.2917C36.8889 20.0473 36.3223 19.0251 35.3667 18.2251C34.4111 17.4251 33.2889 17.0251 32 17.0251C30.7112 17.0251 29.5889 17.4251 28.6334 18.2251C27.6778 19.0251 27.1112 20.0473 26.9334 21.2917L26.0667 27.6917ZM13.3334 46.8717V45.2511C13.3334 44.1502 13.6538 43.1202 14.2947 42.1611C14.936 41.2024 15.7985 40.458 16.882 39.9277C19.3985 38.7211 21.9165 37.816 24.436 37.2124C26.9556 36.6093 29.4769 36.3077 32 36.3077C34.5232 36.3077 37.0445 36.6093 39.564 37.2124C42.0836 37.816 44.6016 38.7211 47.118 39.9277C48.2016 40.458 49.064 41.2024 49.7054 42.1611C50.3463 43.1202 50.6667 44.1502 50.6667 45.2511V46.8717C50.6667 47.6544 50.4009 48.3115 49.8694 48.8431C49.3378 49.3751 48.6805 49.6411 47.8974 49.6411H16.1027C15.3196 49.6411 14.6623 49.3751 14.1307 48.8431C13.5992 48.3115 13.3334 47.6544 13.3334 46.8717ZM16 46.9744H48V45.2511C48 44.6595 47.8094 44.104 47.428 43.5844C47.0471 43.0648 46.5198 42.6255 45.846 42.2664C43.6514 41.2033 41.3916 40.3888 39.0667 39.8231C36.7418 39.2573 34.3863 38.9744 32 38.9744C29.6138 38.9744 27.2583 39.2573 24.9334 39.8231C22.6085 40.3888 20.3487 41.2033 18.154 42.2664C17.4803 42.6255 16.9529 43.0648 16.572 43.5844C16.1907 44.104 16 44.6595 16 45.2511V46.9744Z" fill="#312F33"/>
</g>
</svg>
