<svg width="18" height="19" viewBox="0 0 18 19" fill="none" xmlns="http://www.w3.org/2000/svg">
<mask id="mask0_3810_6259" style="mask-type:alpha" maskUnits="userSpaceOnUse" x="0" y="0" width="18" height="19">
<rect y="0.5" width="18" height="18" fill="#D9D9D9"/>
</mask>
<g mask="url(#mask0_3810_6259)">
<path d="M7.95 10.85L6.3375 9.2375C6.2 9.1 6.025 9.03125 5.8125 9.03125C5.6 9.03125 5.425 9.1 5.2875 9.2375C5.15 9.375 5.08125 9.55 5.08125 9.7625C5.08125 9.975 5.15 10.15 5.2875 10.2875L7.425 12.425C7.575 12.575 7.75 12.65 7.95 12.65C8.15 12.65 8.325 12.575 8.475 12.425L12.7125 8.1875C12.85 8.05 12.9188 7.875 12.9188 7.6625C12.9188 7.45 12.85 7.275 12.7125 7.1375C12.575 7 12.4 6.93125 12.1875 6.93125C11.975 6.93125 11.8 7 11.6625 7.1375L7.95 10.85ZM9 17C7.9625 17 6.9875 16.8031 6.075 16.4094C5.1625 16.0156 4.36875 15.4813 3.69375 14.8063C3.01875 14.1313 2.48438 13.3375 2.09063 12.425C1.69687 11.5125 1.5 10.5375 1.5 9.5C1.5 8.4625 1.69687 7.4875 2.09063 6.575C2.48438 5.6625 3.01875 4.86875 3.69375 4.19375C4.36875 3.51875 5.1625 2.98438 6.075 2.59063C6.9875 2.19687 7.9625 2 9 2C10.0375 2 11.0125 2.19687 11.925 2.59063C12.8375 2.98438 13.6313 3.51875 14.3063 4.19375C14.9813 4.86875 15.5156 5.6625 15.9094 6.575C16.3031 7.4875 16.5 8.4625 16.5 9.5C16.5 10.5375 16.3031 11.5125 15.9094 12.425C15.5156 13.3375 14.9813 14.1313 14.3063 14.8063C13.6313 15.4813 12.8375 16.0156 11.925 16.4094C11.0125 16.8031 10.0375 17 9 17Z" fill="#039855"/>
</g>
</svg>
