<svg width="152" height="32" viewBox="0 0 152 32" fill="none" xmlns="http://www.w3.org/2000/svg">
<g clip-path="url(#clip0_1357_1183)">
<path d="M28.4417 26.0673L24.4872 23.8028C24.4872 23.8028 25.8561 25.4514 27.4536 27.1762C25.6085 29.0702 23.3215 30.4758 20.7983 31.2666V6.82183H16.9287C15.5589 6.82048 14.2028 7.09473 12.9411 7.62827C11.6794 8.16181 10.5379 8.94373 9.58465 9.92748C9.15195 10.3675 8.76174 10.8473 8.41921 11.3606C8.06386 11.8935 7.7579 12.4577 7.50514 13.0462L7.46923 13.143L2.60508 24.7528C0.664744 21.7824 -0.233414 18.2513 0.0518091 14.7148C0.337033 11.1782 1.78946 7.83677 4.18076 5.21568L7.41156 7.06558C7.34736 6.99049 6.32338 5.75977 5.0426 4.34514C7.9936 1.54796 11.899 -0.0204594 15.965 -0.0412937C20.031 -0.0621279 23.9523 1.46619 26.9318 4.23298C29.9113 6.99976 31.7254 10.7973 32.0052 14.8537C32.2851 18.9101 31.0097 22.9208 28.4384 26.0706L28.4417 26.0673Z" fill="#B051C6"/>
<path d="M21.522 7.49756C23.0714 7.49871 24.5571 8.11474 25.6527 9.21036C26.7483 10.306 27.3643 11.7916 27.3655 13.3411H22.4807C22.2271 13.3414 21.9837 13.241 21.804 13.0621C21.6243 12.8832 21.5228 12.6403 21.522 12.3867V7.49756Z" fill="#B051C6"/>
<path d="M21.522 15.6906V13.6895L24.6342 15.7668L22.9845 16.5894C22.8308 16.6668 22.66 16.7036 22.4881 16.6964C22.3162 16.6891 22.1491 16.638 22.0025 16.5479C21.856 16.4579 21.7349 16.3318 21.6508 16.1818C21.5667 16.0317 21.5223 15.8626 21.522 15.6906Z" fill="#B051C6"/>
<path d="M27.3665 13.3431H22.4816C22.3561 13.3436 22.2317 13.3192 22.1155 13.2715C21.9994 13.2239 21.8937 13.1538 21.8047 13.0652C21.7157 12.9767 21.645 12.8715 21.5966 12.7556C21.5483 12.6397 21.5232 12.5154 21.5229 12.3899V7.49854C23.0722 7.50026 24.5575 8.11647 25.653 9.21197C26.7485 10.3075 27.3647 11.7928 27.3665 13.342V13.3431Z" fill="#FFC53E"/>
<path d="M24.6351 15.7688L22.9855 16.5915C22.8317 16.6686 22.6608 16.7052 22.489 16.6977C22.3171 16.6902 22.15 16.639 22.0036 16.5489C21.8571 16.4587 21.736 16.3327 21.6519 16.1826C21.5678 16.0326 21.5234 15.8636 21.5229 15.6916V13.6904L24.6351 15.7688Z" fill="#FF9445"/>
<path d="M14.9408 9.92736C14.3975 10.2072 13.9147 10.5913 13.52 11.0578C13.1253 11.5244 12.8264 12.0641 12.6404 12.6463C12.4545 13.2284 12.3851 13.8415 12.4362 14.4504C12.4874 15.0594 12.6581 15.6523 12.9386 16.1953L20.7245 31.2872C20.7463 31.2796 20.7713 31.2752 20.793 31.2665V6.90332L14.9408 9.92736ZM18.6406 13.0657C18.6393 13.4667 18.5193 13.8583 18.2956 14.1912C18.0719 14.524 17.7546 14.7831 17.3838 14.9358C17.013 15.0884 16.6053 15.1278 16.2121 15.0489C15.8189 14.9701 15.4579 14.7765 15.1746 14.4926C14.8914 14.2088 14.6986 13.8473 14.6205 13.454C14.5425 13.0606 14.5828 12.653 14.7362 12.2825C14.8897 11.912 15.1495 11.5953 15.4828 11.3723C15.8161 11.1493 16.208 11.0301 16.609 11.0297C16.8815 11.0306 17.1511 11.0853 17.4023 11.1907C17.7696 11.3465 18.0828 11.607 18.303 11.9396C18.5233 12.2723 18.6407 12.6624 18.6406 13.0613V13.0657Z" fill="white"/>
<path d="M18.6393 13.0627C18.4477 13.2042 18.2158 13.2805 17.9777 13.2803C17.7317 13.28 17.4925 13.199 17.2969 13.0499C17.1013 12.9007 16.96 12.6916 16.8945 12.4544C16.8291 12.2173 16.8432 11.9652 16.9347 11.7368C17.0261 11.5085 17.1899 11.3164 17.4009 11.1899C17.7687 11.3456 18.0824 11.6064 18.3026 11.9395C18.5229 12.2726 18.64 12.6633 18.6393 13.0627Z" fill="white"/>
<path d="M18.6392 13.067C18.6383 13.5031 18.497 13.9274 18.2362 14.277C17.9754 14.6265 17.609 14.8828 17.1911 15.008C16.7733 15.1331 16.3263 15.1203 15.9163 14.9716C15.5063 14.8229 15.1551 14.5461 14.9146 14.1823C14.6742 13.8184 14.5572 13.3868 14.5812 12.9513C14.6051 12.5158 14.7686 12.0996 15.0475 11.7643C15.3264 11.429 15.7059 11.1924 16.1297 11.0895C16.5536 10.9866 16.9993 11.023 17.4009 11.1931C17.1898 11.3196 17.026 11.5117 16.9346 11.74C16.8431 11.9684 16.829 12.2205 16.8945 12.4576C16.9599 12.6947 17.1012 12.9039 17.2968 13.0531C17.4925 13.2022 17.7316 13.2832 17.9776 13.2835C18.2156 13.284 18.4475 13.2081 18.6392 13.067Z" fill="#7432B9"/>
<path d="M12.9386 16.1954L20.7245 31.2874C19.1949 31.7633 17.6017 32.0036 15.9997 32.0001C13.8085 32.0046 11.64 31.5569 9.62974 30.6849C7.61952 29.813 5.81089 28.5355 4.31702 26.9325L7.40853 23.9302C7.28883 23.9813 5.40193 24.8127 3.38227 25.8389C3.10696 25.4907 2.84798 25.1261 2.60205 24.7507L7.4662 13.1399L7.50428 13.0419C7.75697 12.4545 8.06218 11.8911 8.41618 11.3585C8.75976 10.8457 9.15028 10.3659 9.5827 9.92538C10.5358 8.94142 11.6772 8.15944 12.939 7.62607C14.2007 7.09269 15.5569 6.81883 16.9268 6.82081H20.7909V6.90134L14.9409 9.92755C14.3976 10.2073 13.9148 10.5915 13.52 11.058C13.1253 11.5246 12.8264 12.0643 12.6405 12.6465C12.4545 13.2286 12.3851 13.8417 12.4363 14.4506C12.4875 15.0596 12.6582 15.6525 12.9386 16.1954Z" fill="#7432B9"/>
<path d="M151.686 21.0758C151.514 21.2657 151.303 21.4155 151.067 21.5144C150.831 21.6134 150.576 21.659 150.32 21.6482C149.383 21.6482 148.836 21.0377 148.836 19.9985V15.6817H151.745V13.8123H148.836V11.1821H147.042L146.741 13.7785L146.678 14.9537V20.0791C146.678 22.3403 147.836 23.5612 149.993 23.5612C150.749 23.5612 151.338 23.4383 151.788 23.213V21.0758H151.686Z" fill="#7432B9"/>
<path d="M103.392 9.84033C106.67 9.84033 108.359 11.3257 108.359 14.217C108.359 16.3694 107.408 17.7438 105.551 18.2955C104.48 18.6143 103.34 18.5033 102.234 18.2857L101.095 18.0038C100.432 17.8047 99.9478 18.2334 99.9478 18.9266V23.3544H97.5049V9.84033H103.392ZM103.291 16.3955C105.061 16.3955 105.896 15.6828 105.896 14.2192C105.896 12.7327 105.061 12.0199 103.291 12.0199H99.9522V16.3977L103.291 16.3955Z" fill="#7432B9"/>
<path d="M117.174 23.3542L117.112 21.9907H117.072C116.38 22.97 115.178 23.5588 113.632 23.5588C110.904 23.5588 108.908 21.4814 108.908 18.5912C108.908 15.701 110.904 13.603 113.632 13.603C115.178 13.603 116.359 14.1939 117.051 15.1711H117.092L117.174 13.8076H118.965V23.3542H117.174ZM116.874 18.5934C116.874 16.7816 115.693 15.54 113.982 15.54C112.272 15.54 111.092 16.7816 111.092 18.5934C111.092 20.3639 112.273 21.6262 113.982 21.6262C115.692 21.6262 116.874 20.3639 116.874 18.5934Z" fill="#7432B9"/>
<path d="M127.289 13.9722V16.1094H127.188C126.744 15.8081 126.218 15.6519 125.682 15.6621C123.971 15.6621 123.137 16.8025 123.137 19.1225V23.3544H120.979V13.81H122.791L122.872 15.2758H122.913C123.457 14.1768 124.436 13.6055 125.865 13.6055C126.475 13.6055 126.985 13.7687 127.289 13.9722Z" fill="#7432B9"/>
<path d="M134.577 13.9722V16.1094H134.475C134.031 15.8081 133.505 15.6519 132.969 15.6621C131.259 15.6621 130.423 16.8025 130.423 19.1225V23.3544H128.267V13.81H130.078L130.159 15.2758H130.2C130.744 14.1768 131.724 13.6055 133.151 13.6055C133.763 13.6055 134.271 13.7687 134.577 13.9722Z" fill="#7432B9"/>
<path d="M144.979 18.5937C144.979 21.5045 142.861 23.5612 139.89 23.5612C136.918 23.5612 134.821 21.5045 134.821 18.5937C134.821 15.6621 136.917 13.6055 139.89 13.6055C142.862 13.6055 144.979 15.6621 144.979 18.5937ZM136.998 18.5937C136.998 20.3641 138.179 21.6264 139.89 21.6264C141.62 21.6264 142.8 20.3641 142.8 18.5937C142.8 16.7819 141.62 15.5402 139.89 15.5402C138.179 15.5402 136.998 16.7819 136.998 18.5937Z" fill="#7432B9"/>
<path d="M49.0507 15.4965V17.613H42.9635V21.1779H50.5165V23.3542H40.5205V9.83691H50.5165V12.0133H42.9635V15.4954L49.0507 15.4965Z" fill="#7432B9"/>
<path d="M54.9934 23.3543L51.126 13.8066H53.4471L56.1131 21.0125H56.1534L58.8401 13.8066H61.0589L57.1926 23.3543H54.9934Z" fill="#7432B9"/>
<path d="M80.3837 17.7555V23.3542H78.2259V18.0003C78.2259 16.4323 77.3912 15.5367 76.0071 15.5367C74.4836 15.5367 73.5641 16.5748 73.5641 18.3464V23.352H71.4062V13.8065H73.2181L73.2997 15.2723H73.3465C73.9558 14.1939 75.056 13.603 76.562 13.603C78.9386 13.603 80.3837 15.1504 80.3837 17.7555Z" fill="#7432B9"/>
<path d="M87.0279 21.069C86.8563 21.259 86.645 21.4087 86.409 21.5076C86.1729 21.6066 85.918 21.6522 85.6623 21.6414C84.7242 21.6414 84.178 21.0309 84.178 19.9917V15.6793H87.0867V13.8087H84.178V11.1797H82.3836L82.0832 13.7706L82.019 14.9448V20.0766C82.019 22.3368 83.1769 23.5588 85.3358 23.5588C86.0899 23.5588 86.6797 23.4358 87.1291 23.2117V21.069H87.0279Z" fill="#7432B9"/>
<path d="M95.3483 14.2953V16.5141H95.246C94.5931 15.8427 93.5974 15.4966 92.3558 15.4966C91.3177 15.4966 90.5843 15.9646 90.5843 16.636C90.5843 17.1866 91.0119 17.4303 92.4168 17.5119C94.9609 17.6545 95.9588 18.5903 95.9588 20.524C95.9588 22.3979 94.5137 23.5578 92.1317 23.5578C90.544 23.5578 89.3024 23.2314 88.508 22.6209V20.3619H88.6103C89.4036 21.2172 90.569 21.6677 92.0294 21.6677C93.1491 21.6677 93.8412 21.2204 93.8412 20.5273C93.8412 19.8961 93.4146 19.6121 91.8672 19.4892C89.384 19.2857 88.4678 18.5098 88.4678 16.7013C88.4678 14.8285 89.9912 13.6065 92.2949 13.6065C93.5365 13.6032 94.6562 13.847 95.3483 14.2953Z" fill="#7432B9"/>
<path d="M63.2799 19.4956C63.9759 19.8662 64.7445 20.0802 65.5319 20.1227C66.3193 20.1652 67.1065 20.0351 67.8383 19.7415C69.0723 19.2496 69.7557 18.2398 69.7339 16.9427C69.7132 15.675 68.9722 14.6314 67.724 14.2288C66.2953 13.7663 64.9721 13.7576 63.6978 14.564C62.01 15.6325 61.3647 17.354 61.3647 18.872C61.3647 20.4118 61.8533 21.9548 63.3115 22.858C65.1015 23.9734 67.1288 23.5458 68.8753 23.0702C69.0277 23.0278 69.155 23.0408 69.155 22.8374C69.155 22.2182 69.155 21.599 69.155 20.9418C66.2953 22.3455 63.577 21.476 63.2799 19.4956ZM63.5433 17.452C64.0732 16.2637 65.1668 15.5858 66.4813 15.6369C67.1854 15.6619 67.6566 16.0014 67.7534 16.5477C67.8688 17.1593 67.5761 17.6631 66.9188 17.9438C66.0319 18.3203 65.082 18.3203 64.3398 18.3791C63.1907 18.3758 63.157 18.3203 63.5433 17.452Z" fill="#7432B9"/>
</g>
<defs>
<clipPath id="clip0_1357_1183">
<rect width="151.788" height="32" fill="white"/>
</clipPath>
</defs>
</svg>
