<svg width="153" height="32" viewBox="0 0 153 32" fill="none" xmlns="http://www.w3.org/2000/svg">
<path d="M4.68931 25.1738L4.68567 25.1811V25.1738H4.68931Z" fill="black"/>
<path d="M25.3616 14.8051V18.5387C25.3616 22.2011 22.389 25.1738 18.7265 25.1738H4.6889L16.0971 13.7656L20.2064 9.65308L25.3357 14.7824L25.3616 14.8083V14.8051Z" fill="#7432B9"/>
<path d="M4.68569 25.1803V31.1872L4.48816 31.3847C3.66889 32.2072 2.33799 32.2072 1.51872 31.3847L0 29.866L4.68245 25.1803H4.68569Z" fill="#FFC41B"/>
<path d="M25.3616 4.46875L20.1935 9.63693L15.0253 4.46875H25.3616Z" fill="#B051C6"/>
<path d="M25.3617 4.46875V4.49789L20.2097 9.65312L20.1902 9.6337L25.3617 4.46875Z" fill="white"/>
<path d="M20.1935 9.63693L25.339 14.7825L25.3617 14.8051V14.7825V4.46875L20.1935 9.63693Z" fill="#FF5702"/>
<path d="M18.0142 21.7511L18.5582 21.981C18.3671 21.9227 18.1858 21.845 18.0142 21.7511Z" fill="black"/>
<path d="M21.8158 17.169L21.3625 16.7157C21.5276 16.8485 21.6798 17.0007 21.8158 17.169Z" fill="black"/>
<path d="M26.0061 5.31396V8.61694C26.0061 8.97314 26.2943 9.26134 26.6505 9.26134H29.9535C29.9535 7.08203 28.1854 5.31396 26.0061 5.31396Z" fill="#FFC41B"/>
<path d="M26.0061 11.065C26.0061 11.5734 26.5404 11.9005 26.9938 11.6738L28.1077 11.1168L26.0061 9.71143V11.0618V11.065Z" fill="#FF5702"/>
<path d="M22.4959 19.0795C22.4959 19.6624 22.3307 20.2097 22.0425 20.6727C21.5082 21.5373 20.5497 22.1137 19.4617 22.1137C19.1476 22.1137 18.8464 22.0684 18.5647 21.981C18.5614 21.9777 18.5582 21.9777 18.5582 21.9777L18.0142 21.7478C18.0142 21.7478 18.0109 21.7446 18.0077 21.7446L15.456 20.6727L9.18682 18.0433C9.17063 18.0368 9.15444 18.0304 9.13825 18.0206C6.49587 16.8937 4.65009 14.274 4.65009 11.2236V0L9.09615 4.44606L21.8191 17.169C22.24 17.6936 22.4959 18.3574 22.4959 19.0795Z" fill="#B051C6"/>
<path d="M23.5353 10.0902C24.1326 10.0902 24.6169 9.60602 24.6169 9.00869C24.6169 8.41136 24.1326 7.92712 23.5353 7.92712C22.938 7.92712 22.4537 8.41136 22.4537 9.00869C22.4537 9.60602 22.938 10.0902 23.5353 10.0902Z" fill="white"/>
<path d="M24.1733 9.00865C24.1733 9.36162 23.8883 9.64658 23.5353 9.64658C23.1824 9.64658 22.8974 9.36162 22.8974 9.00865C22.8974 8.65569 23.1824 8.37073 23.5353 8.37073C23.6001 8.37073 23.6616 8.38044 23.7167 8.39663C23.5774 8.45168 23.4803 8.58769 23.4803 8.74636C23.4803 8.95361 23.6487 9.12523 23.8591 9.12523C23.9887 9.12523 24.102 9.06047 24.17 8.96008C24.17 8.97627 24.17 8.99246 24.17 9.00865H24.1733Z" fill="#FF5702"/>
<path d="M38.1947 25.0605V9.76648H41.1059V25.0573H38.1947V25.0605ZM40.6881 12.2826V9.76972H47.456V12.2826H40.6881ZM40.6881 18.5453V16.0324H47.0771V18.5453H40.6881ZM40.6881 25.0605V22.5477H47.6211V25.0605H40.6881Z" fill="#7432B9"/>
<path d="M51.5814 25.0605L48.0194 13.6847H51.0148L54.4278 25.0605H51.5782H51.5814ZM52.4396 25.0605V22.674H55.5191V25.0605H52.4396ZM53.5924 25.0605L56.5262 13.6847H59.3337L56.2542 25.0605H53.5924Z" fill="#7432B9"/>
<path d="M65.3244 25.4589C64.3465 25.4589 63.4916 25.2905 62.7597 24.9569C62.0279 24.6234 61.4191 24.1701 60.9366 23.6066C60.4541 23.0399 60.0915 22.4085 59.8486 21.7123C59.6057 21.0128 59.4827 20.3004 59.4827 19.575V19.1767C59.4827 18.4222 59.6057 17.6936 59.8486 16.9877C60.0915 16.2818 60.4541 15.6536 60.9269 15.1031C61.4029 14.5526 61.9988 14.1122 62.7176 13.7819C63.4365 13.4548 64.2655 13.2897 65.2013 13.2897C66.4286 13.2897 67.4616 13.5584 68.2906 14.096C69.1228 14.6335 69.7478 15.3395 70.1655 16.2105C70.5833 17.0849 70.7937 18.0239 70.7937 19.0278V20.0964H60.7164V18.2959H68.948L68.0672 19.1767C68.0672 18.4514 67.9603 17.8296 67.7433 17.3115C67.5264 16.7934 67.209 16.3984 66.7913 16.1166C66.3736 15.8381 65.8425 15.6989 65.1981 15.6989C64.5537 15.6989 64.0097 15.8479 63.5661 16.149C63.1192 16.4502 62.7792 16.8711 62.5493 17.4152C62.3193 17.9592 62.2028 18.6165 62.2028 19.384C62.2028 20.0964 62.3129 20.7278 62.5395 21.2783C62.763 21.8288 63.1062 22.2628 63.5661 22.5769C64.0259 22.891 64.612 23.0464 65.3244 23.0464C66.0368 23.0464 66.5938 22.9039 67.0407 22.6157C67.4875 22.3308 67.7725 21.9778 67.8988 21.5568H70.5994C70.4311 22.3405 70.1105 23.0237 69.6345 23.6099C69.1584 24.196 68.5561 24.6493 67.8211 24.9731C67.0892 25.2937 66.2538 25.4556 65.3179 25.4556L65.3244 25.4589Z" fill="#7432B9"/>
<path d="M72.1732 25.0605V13.6847H74.4788V18.5647H74.2683C74.2683 17.4054 74.4205 16.4372 74.7282 15.6632C75.0358 14.8893 75.4924 14.3064 76.1012 13.9146C76.71 13.5228 77.4645 13.3285 78.3744 13.3285H78.5007C79.8543 13.3285 80.8808 13.7656 81.5802 14.6367C82.2797 15.511 82.6294 16.8128 82.6294 18.542V25.0573H79.7182V18.2894C79.7182 17.59 79.5142 17.0265 79.1095 16.5926C78.7047 16.1587 78.1607 15.945 77.4742 15.945C76.7877 15.945 76.1854 16.1684 75.745 16.6153C75.3046 17.0621 75.0844 17.6483 75.0844 18.3736V25.0573H72.1732V25.0605Z" fill="#7432B9"/>
<path d="M83.2318 15.8219V13.6847H91.2755V15.8219H83.2318ZM89.6434 25.2063C88.5813 25.2063 87.7134 25.0703 87.0334 24.7983C86.3534 24.5262 85.8547 24.0664 85.5244 23.4155C85.1974 22.7647 85.0322 21.8903 85.0322 20.7861V10.4789H87.775L87.7523 20.9739C87.7523 21.5341 87.9013 21.9616 88.2024 22.2627C88.5036 22.5639 88.931 22.7128 89.4912 22.7128H91.2722V25.2063H89.6402H89.6434Z" fill="#7432B9"/>
<path d="M92.6808 29.2508V13.6848H94.9865V18.5874L94.6302 18.568C94.6853 17.4087 94.9282 16.4372 95.3524 15.6568C95.7798 14.8764 96.3465 14.2903 97.0589 13.9082C97.7713 13.5228 98.5679 13.3318 99.4455 13.3318C100.255 13.3318 100.984 13.4775 101.634 13.7722C102.282 14.0636 102.842 14.4781 103.309 15.0092C103.775 15.5402 104.138 16.1587 104.387 16.8647C104.64 17.5706 104.763 18.3283 104.763 19.1379V19.5783C104.763 20.404 104.64 21.1715 104.397 21.8839C104.151 22.5963 103.798 23.218 103.328 23.7491C102.859 24.2802 102.298 24.6947 101.641 24.9958C100.984 25.297 100.252 25.4459 99.4422 25.4459C98.5906 25.4459 97.8102 25.2678 97.1075 24.9116C96.4015 24.5554 95.8316 24.0049 95.4009 23.2569C94.9703 22.5089 94.7242 21.5504 94.6691 20.3749L95.592 21.7576V29.2573H92.6808V29.2508ZM98.7136 22.9881C99.3289 22.9881 99.8729 22.8359 100.349 22.5283C100.822 22.2207 101.191 21.7932 101.45 21.2395C101.709 20.689 101.839 20.064 101.839 19.3646C101.839 18.6651 101.709 18.0272 101.45 17.4897C101.191 16.9521 100.828 16.5344 100.362 16.2332C99.8923 15.9321 99.3451 15.7831 98.7169 15.7831C98.1437 15.7831 97.6159 15.9126 97.1366 16.1717C96.6541 16.4308 96.2623 16.7999 95.9644 17.2824C95.6632 17.7649 95.5143 18.3478 95.5143 19.031V19.8697C95.5143 20.5271 95.6665 21.0841 95.9741 21.5471C96.2817 22.0102 96.68 22.3632 97.169 22.6157C97.658 22.8683 98.1761 22.9914 98.7201 22.9914L98.7136 22.9881Z" fill="#7432B9"/>
<path d="M109.481 25.352C108.658 25.352 107.939 25.2063 107.324 24.9116C106.709 24.6169 106.23 24.1992 105.886 23.6552C105.543 23.1112 105.371 22.4538 105.371 21.6864C105.371 20.8477 105.575 20.1644 105.98 19.6333C106.385 19.1023 106.965 18.704 107.719 18.4384C108.474 18.1729 109.354 18.0401 110.358 18.0401H112.978V19.7985H110.319C109.649 19.7985 109.134 19.9604 108.778 20.281C108.422 20.6016 108.244 21.0225 108.244 21.5374C108.244 22.0523 108.422 22.4732 108.778 22.7938C109.134 23.1144 109.649 23.2763 110.319 23.2763C110.724 23.2763 111.097 23.2018 111.44 23.0561C111.78 22.9104 112.065 22.6578 112.288 22.3016C112.512 21.9454 112.638 21.4597 112.664 20.8477L113.376 21.6637C113.305 22.4603 113.114 23.1306 112.8 23.6746C112.486 24.2186 112.052 24.6331 111.501 24.9213C110.951 25.2095 110.277 25.352 109.481 25.352ZM113.146 25.0573V21.6864H112.664V17.9365C112.664 17.2953 112.505 16.8096 112.181 16.4793C111.861 16.1523 111.372 15.9871 110.714 15.9871C110.365 15.9871 109.947 15.9936 109.458 16.0065C108.969 16.0195 108.477 16.0389 107.981 16.0584C107.486 16.081 107.042 16.1037 106.65 16.1328V13.6621C106.971 13.6329 107.331 13.607 107.729 13.5779C108.127 13.5487 108.542 13.5325 108.976 13.5261C109.406 13.5196 109.814 13.5164 110.19 13.5164C111.362 13.5164 112.337 13.6686 113.111 13.9762C113.885 14.2838 114.474 14.7695 114.869 15.4334C115.267 16.0972 115.468 16.9586 115.468 18.0207V25.0606H113.14L113.146 25.0573Z" fill="#7432B9"/>
<path d="M117.547 25.0605V13.6847H119.853V18.5031H119.791C119.791 16.884 120.141 15.6503 120.84 14.8051C121.54 13.9599 122.566 13.5389 123.92 13.5389H124.338V16.0745H123.541C122.563 16.0745 121.805 16.34 121.268 16.8711C120.73 17.4021 120.461 18.1631 120.461 19.154V25.0605H117.55H117.547Z" fill="#7432B9"/>
<path d="M125.235 25.0605V13.6847H127.54V18.5031H127.479C127.479 16.884 127.828 15.6503 128.528 14.8051C129.227 13.9599 130.254 13.5389 131.607 13.5389H132.025V16.0745H131.228C130.251 16.0745 129.493 16.34 128.955 16.8711C128.418 17.4021 128.149 18.1631 128.149 19.154V25.0605H125.238H125.235Z" fill="#7432B9"/>
<path d="M138.304 25.4588C137.297 25.4588 136.413 25.2969 135.642 24.9763C134.875 24.6557 134.224 24.2218 133.693 23.6778C133.162 23.1338 132.76 22.512 132.488 21.8126C132.216 21.1131 132.08 20.3813 132.08 19.6138V19.1734C132.08 18.393 132.219 17.6482 132.498 16.9423C132.776 16.2364 133.184 15.6082 133.725 15.0577C134.263 14.5072 134.92 14.0733 135.694 13.7592C136.468 13.4451 137.339 13.2864 138.301 13.2864C139.262 13.2864 140.13 13.4418 140.898 13.7592C141.665 14.0733 142.319 14.5072 142.857 15.0577C143.394 15.6082 143.802 16.2364 144.081 16.9423C144.359 17.6482 144.499 18.3898 144.499 19.1734V19.6138C144.499 20.3813 144.363 21.1164 144.091 21.8126C143.819 22.512 143.417 23.1338 142.886 23.6778C142.355 24.2218 141.707 24.6557 140.937 24.9763C140.169 25.2969 139.288 25.4588 138.298 25.4588H138.304ZM138.304 22.9654C139.003 22.9654 139.596 22.8067 140.085 22.4926C140.574 22.1785 140.946 21.7511 141.205 21.2135C141.464 20.676 141.594 20.064 141.594 19.3807C141.594 18.6974 141.461 18.0822 141.196 17.5381C140.93 16.9941 140.551 16.5634 140.066 16.2493C139.58 15.9352 138.99 15.7798 138.307 15.7798C137.624 15.7798 137.031 15.9352 136.536 16.2493C136.04 16.5634 135.658 16.9941 135.396 17.5381C135.134 18.0822 134.998 18.6974 134.998 19.3807C134.998 20.064 135.127 20.676 135.386 21.2135C135.645 21.7511 136.018 22.1785 136.507 22.4926C136.996 22.8067 137.595 22.9654 138.307 22.9654H138.304Z" fill="#7432B9"/>
<path d="M144.547 15.8219V13.6847H152.591V15.8219H144.547ZM150.959 25.2063C149.897 25.2063 149.029 25.0703 148.352 24.7983C147.675 24.5262 147.17 24.0664 146.843 23.4155C146.516 22.7647 146.351 21.8903 146.351 20.7861V10.4789H149.097L149.074 20.9739C149.074 21.5341 149.223 21.9616 149.524 22.2627C149.826 22.5639 150.253 22.7128 150.813 22.7128H152.594V25.2063H150.962H150.959Z" fill="#7432B9"/>
</svg>
