<svg width="221" height="64" viewBox="0 0 221 64" fill="none" xmlns="http://www.w3.org/2000/svg">
<rect width="221" height="64" fill="white"/>
<g clip-path="url(#clip0_3815_2740)">
<path d="M28.4417 42.0673L24.4872 39.8028C24.4872 39.8028 25.8561 41.4514 27.4536 43.1762C25.6085 45.0702 23.3215 46.4759 20.7983 47.2666V22.8218H16.9287C15.5589 22.8205 14.2028 23.0947 12.9411 23.6283C11.6794 24.1618 10.5379 24.9437 9.58465 25.9275C9.15195 26.3675 8.76174 26.8473 8.41921 27.3606C8.06386 27.8935 7.7579 28.4577 7.50514 29.0462L7.46923 29.143L2.60508 40.7528C0.664744 37.7824 -0.233414 34.2513 0.0518091 30.7148C0.337033 27.1782 1.78946 23.8368 4.18076 21.2157L7.41156 23.0656C7.34736 22.9905 6.32338 21.7598 5.0426 20.3451C7.9936 17.548 11.899 15.9795 15.965 15.9587C20.031 15.9379 23.9523 17.4662 26.9318 20.233C29.9113 22.9998 31.7254 26.7973 32.0052 30.8537C32.2851 34.9101 31.0097 38.9208 28.4384 42.0706L28.4417 42.0673Z" fill="#B051C6"/>
<path d="M21.522 23.4976C23.0714 23.4987 24.5571 24.1147 25.6527 25.2104C26.7483 26.306 27.3643 27.7916 27.3655 29.3411H22.4807C22.2271 29.3414 21.9837 29.241 21.804 29.0621C21.6243 28.8832 21.5228 28.6403 21.522 28.3867V23.4976Z" fill="#B051C6"/>
<path d="M21.522 31.6906V29.6895L24.6342 31.7668L22.9845 32.5894C22.8308 32.6668 22.66 32.7036 22.4881 32.6964C22.3162 32.6891 22.1491 32.638 22.0025 32.5479C21.856 32.4579 21.7349 32.3318 21.6508 32.1818C21.5667 32.0317 21.5223 31.8626 21.522 31.6906Z" fill="#B051C6"/>
<path d="M27.3666 29.3431H22.4818C22.3562 29.3436 22.2318 29.3192 22.1156 29.2715C21.9995 29.2239 21.8939 29.1538 21.8048 29.0652C21.7158 28.9767 21.6451 28.8715 21.5967 28.7556C21.5484 28.6397 21.5234 28.5154 21.5231 28.3899V23.4985C23.0723 23.5003 24.5576 24.1165 25.6531 25.212C26.7486 26.3075 27.3648 27.7928 27.3666 29.342V29.3431Z" fill="#FFC53E"/>
<path d="M24.6353 31.7688L22.9856 32.5915C22.8318 32.6686 22.6609 32.7052 22.4891 32.6977C22.3173 32.6902 22.1502 32.639 22.0037 32.5489C21.8572 32.4587 21.7362 32.3327 21.652 32.1826C21.5679 32.0326 21.5235 31.8636 21.5231 31.6916V29.6904L24.6353 31.7688Z" fill="#FF9445"/>
<path d="M14.9406 25.9274C14.3973 26.2072 13.9145 26.5913 13.5198 27.0578C13.1251 27.5244 12.8262 28.0641 12.6402 28.6463C12.4543 29.2284 12.3849 29.8415 12.4361 30.4504C12.4872 31.0594 12.6579 31.6523 12.9384 32.1953L20.7243 47.2872C20.7461 47.2796 20.7711 47.2752 20.7929 47.2665V22.9033L14.9406 25.9274ZM18.6404 29.0657C18.6392 29.4667 18.5191 29.8583 18.2954 30.1912C18.0717 30.524 17.7544 30.7831 17.3836 30.9358C17.0128 31.0884 16.6051 31.1278 16.2119 31.0489C15.8187 30.9701 15.4577 30.7765 15.1744 30.4926C14.8912 30.2088 14.6984 29.8473 14.6203 29.454C14.5423 29.0606 14.5826 28.653 14.736 28.2825C14.8895 27.912 15.1493 27.5953 15.4826 27.3723C15.8159 27.1493 16.2078 27.0301 16.6088 27.0297C16.8813 27.0306 17.1509 27.0853 17.4021 27.1907C17.7694 27.3465 18.0826 27.607 18.3029 27.9396C18.5231 28.2723 18.6405 28.6624 18.6404 29.0613V29.0657Z" fill="white"/>
<path d="M18.6394 29.0627C18.4478 29.2042 18.2159 29.2805 17.9778 29.2803C17.7318 29.28 17.4927 29.199 17.297 29.0499C17.1014 28.9007 16.9601 28.6916 16.8947 28.4544C16.8292 28.2173 16.8433 27.9652 16.9348 27.7368C17.0262 27.5085 17.19 27.3164 17.401 27.1899C17.7688 27.3456 18.0825 27.6064 18.3028 27.9395C18.5231 28.2726 18.6401 28.6633 18.6394 29.0627Z" fill="white"/>
<path d="M18.6394 29.067C18.6385 29.5031 18.4972 29.9274 18.2364 30.277C17.9756 30.6265 17.6091 30.8828 17.1913 31.008C16.7735 31.1331 16.3265 31.1203 15.9165 30.9716C15.5065 30.8229 15.1553 30.5461 14.9148 30.1823C14.6743 29.8184 14.5574 29.3868 14.5814 28.9513C14.6053 28.5158 14.7688 28.0996 15.0477 27.7643C15.3266 27.429 15.7061 27.1924 16.1299 27.0895C16.5538 26.9866 16.9995 27.023 17.401 27.1931C17.19 27.3196 17.0262 27.5117 16.9348 27.74C16.8433 27.9684 16.8292 28.2205 16.8946 28.4576C16.9601 28.6947 17.1014 28.9039 17.297 29.0531C17.4926 29.2022 17.7318 29.2832 17.9778 29.2835C18.2158 29.284 18.4477 29.2081 18.6394 29.067Z" fill="#7432B9"/>
<path d="M12.9384 32.1954L20.7243 47.2874C19.1946 47.7633 17.6014 48.0036 15.9994 48.0001C13.8082 48.0046 11.6397 47.5569 9.62949 46.6849C7.61928 45.813 5.81065 44.5355 4.31677 42.9325L7.40828 39.9302C7.28858 39.9813 5.40168 40.8127 3.38203 41.8389C3.10672 41.4907 2.84773 41.1261 2.60181 40.7507L7.46595 29.1399L7.50404 29.0419C7.75673 28.4545 8.06193 27.8911 8.41593 27.3585C8.75952 26.8457 9.15004 26.3659 9.58246 25.9254C10.5355 24.9414 11.677 24.1594 12.9387 23.6261C14.2005 23.0927 15.5567 22.8188 16.9266 22.8208H20.7907V22.9013L14.9406 25.9276C14.3973 26.2073 13.9145 26.5915 13.5198 27.058C13.1251 27.5246 12.8262 28.0643 12.6402 28.6465C12.4543 29.2286 12.3849 29.8417 12.4361 30.4506C12.4872 31.0596 12.6579 31.6525 12.9384 32.1954Z" fill="#7432B9"/>
<path d="M151.685 37.0758C151.514 37.2657 151.302 37.4155 151.066 37.5144C150.83 37.6134 150.575 37.659 150.32 37.6482C149.383 37.6482 148.835 37.0377 148.835 35.9985V31.6817H151.745V29.8123H148.835V27.1821H147.042L146.741 29.7785L146.677 30.9537V36.0791C146.677 38.3403 147.835 39.5612 149.993 39.5612C150.748 39.5612 151.338 39.4383 151.788 39.213V37.0758H151.685Z" fill="#7432B9"/>
<path d="M103.392 25.8403C106.67 25.8403 108.36 27.3257 108.36 30.217C108.36 32.3694 107.408 33.7438 105.551 34.2955C104.48 34.6143 103.34 34.5033 102.234 34.2857L101.095 34.0038C100.432 33.8047 99.948 34.2334 99.948 34.9266V39.3544H97.505V25.8403H103.392ZM103.291 32.3955C105.061 32.3955 105.896 31.6828 105.896 30.2192C105.896 28.7327 105.061 28.0199 103.291 28.0199H99.9523V32.3977L103.291 32.3955Z" fill="#7432B9"/>
<path d="M117.174 39.3542L117.112 37.9907H117.071C116.379 38.97 115.178 39.5588 113.632 39.5588C110.904 39.5588 108.908 37.4814 108.908 34.5912C108.908 31.701 110.904 29.603 113.632 29.603C115.178 29.603 116.359 30.1939 117.051 31.1711H117.092L117.174 29.8076H118.965V39.3542H117.174ZM116.873 34.5934C116.873 32.7816 115.693 31.54 113.982 31.54C112.272 31.54 111.092 32.7816 111.092 34.5934C111.092 36.3639 112.273 37.6262 113.982 37.6262C115.692 37.6262 116.873 36.3639 116.873 34.5934Z" fill="#7432B9"/>
<path d="M127.289 29.9722V32.1094H127.188C126.745 31.8081 126.218 31.6519 125.682 31.6621C123.972 31.6621 123.137 32.8025 123.137 35.1225V39.3544H120.979V29.81H122.791L122.873 31.2758H122.913C123.457 30.1768 124.436 29.6055 125.865 29.6055C126.476 29.6055 126.985 29.7687 127.289 29.9722Z" fill="#7432B9"/>
<path d="M134.577 29.9722V32.1094H134.475C134.031 31.8081 133.505 31.6519 132.969 31.6621C131.259 31.6621 130.423 32.8025 130.423 35.1225V39.3544H128.267V29.81H130.078L130.159 31.2758H130.2C130.744 30.1768 131.724 29.6055 133.151 29.6055C133.763 29.6055 134.271 29.7687 134.577 29.9722Z" fill="#7432B9"/>
<path d="M144.979 34.5937C144.979 37.5045 142.861 39.5612 139.889 39.5612C136.918 39.5612 134.821 37.5045 134.821 34.5937C134.821 31.6621 136.917 29.6055 139.889 29.6055C142.862 29.6055 144.979 31.6621 144.979 34.5937ZM136.998 34.5937C136.998 36.3641 138.179 37.6264 139.889 37.6264C141.62 37.6264 142.8 36.3641 142.8 34.5937C142.8 32.7819 141.62 31.5402 139.889 31.5402C138.179 31.5402 136.998 32.7819 136.998 34.5937Z" fill="#7432B9"/>
<path d="M49.0507 31.4965V33.613H42.9634V37.1779H50.5164V39.3542H40.5204V25.8369H50.5164V28.0133H42.9634V31.4954L49.0507 31.4965Z" fill="#7432B9"/>
<path d="M54.9932 39.3543L51.1258 29.8066H53.4469L56.1129 37.0125H56.1532L58.8399 29.8066H61.0587L57.1924 39.3543H54.9932Z" fill="#7432B9"/>
<path d="M80.3836 33.7555V39.3542H78.2257V34.0003C78.2257 32.4323 77.3911 31.5367 76.0069 31.5367C74.4835 31.5367 73.564 32.5748 73.564 34.3464V39.352H71.4061V29.8065H73.2179L73.2996 31.2723H73.3463C73.9557 30.1939 75.0559 29.603 76.5619 29.603C78.9385 29.603 80.3836 31.1504 80.3836 33.7555Z" fill="#7432B9"/>
<path d="M87.028 37.069C86.8565 37.259 86.6451 37.4087 86.4091 37.5076C86.173 37.6066 85.9181 37.6522 85.6624 37.6414C84.7244 37.6414 84.1781 37.0309 84.1781 35.9917V31.6793H87.0868V29.8087H84.1781V27.1797H82.3837L82.0834 29.7706L82.0192 30.9448V36.0766C82.0192 38.3368 83.177 39.5588 85.3359 39.5588C86.09 39.5588 86.6798 39.4358 87.1292 39.2117V37.069H87.028Z" fill="#7432B9"/>
<path d="M95.3482 30.2953V32.5141H95.2459C94.593 31.8427 93.5973 31.4966 92.3557 31.4966C91.3176 31.4966 90.5841 31.9646 90.5841 32.636C90.5841 33.1866 91.0118 33.4303 92.4166 33.5119C94.9608 33.6545 95.9587 34.5903 95.9587 36.524C95.9587 38.3979 94.5136 39.5578 92.1315 39.5578C90.5439 39.5578 89.3023 39.2314 88.5079 38.6209V36.3619H88.6102C89.4035 37.2172 90.5689 37.6677 92.0293 37.6677C93.149 37.6677 93.8411 37.2204 93.8411 36.5273C93.8411 35.8961 93.4145 35.6121 91.8671 35.4892C89.3839 35.2857 88.4677 34.5098 88.4677 32.7013C88.4677 30.8285 89.9911 29.6065 92.2948 29.6065C93.5364 29.6032 94.6561 29.847 95.3482 30.2953Z" fill="#7432B9"/>
<path d="M63.2796 35.4956C63.9756 35.8662 64.7442 36.0802 65.5316 36.1227C66.319 36.1652 67.1062 36.0351 67.838 35.7415C69.072 35.2496 69.7554 34.2398 69.7336 32.9427C69.7129 31.675 68.9719 30.6314 67.7237 30.2288C66.295 29.7663 64.9717 29.7576 63.6975 30.564C62.0097 31.6325 61.3644 33.354 61.3644 34.872C61.3644 36.4118 61.853 37.9548 63.3112 38.858C65.1012 39.9734 67.1285 39.5458 68.875 39.0702C69.0274 39.0278 69.1547 39.0408 69.1547 38.8374C69.1547 38.2182 69.1547 37.599 69.1547 36.9418C66.295 38.3455 63.5767 37.476 63.2796 35.4956ZM63.543 33.452C64.0729 32.2637 65.1665 31.5858 66.481 31.6369C67.1851 31.6619 67.6563 32.0014 67.7531 32.5477C67.8685 33.1593 67.5757 33.6631 66.9185 33.9438C66.0316 34.3203 65.0816 34.3203 64.3395 34.3791C63.1904 34.3758 63.1567 34.3203 63.543 33.452Z" fill="#7432B9"/>
</g>
<path d="M163.931 37H162.301L165.965 26.8182H167.74L171.404 37H169.773L166.894 28.6676H166.815L163.931 37ZM164.205 33.0128H169.494V34.3054H164.205V33.0128ZM175.49 37.1491C174.874 37.1491 174.324 36.9917 173.84 36.6768C173.359 36.3587 172.981 35.9062 172.706 35.3196C172.434 34.7296 172.298 34.022 172.298 33.1967C172.298 32.3714 172.436 31.6655 172.711 31.0788C172.99 30.4922 173.371 30.0431 173.855 29.7315C174.338 29.42 174.887 29.2642 175.5 29.2642C175.974 29.2642 176.355 29.3438 176.644 29.5028C176.935 29.6586 177.161 29.8409 177.32 30.0497C177.482 30.2585 177.608 30.4425 177.698 30.6016H177.787V26.8182H179.274V37H177.822V35.8118H177.698C177.608 35.9742 177.479 36.1598 177.31 36.3686C177.144 36.5774 176.915 36.7597 176.624 36.9155C176.332 37.0713 175.954 37.1491 175.49 37.1491ZM175.818 35.8814C176.246 35.8814 176.607 35.7687 176.902 35.5433C177.2 35.3146 177.426 34.9981 177.578 34.5938C177.734 34.1894 177.812 33.7187 177.812 33.1818C177.812 32.6515 177.736 32.1875 177.583 31.7898C177.431 31.392 177.207 31.0821 176.912 30.8601C176.617 30.638 176.253 30.527 175.818 30.527C175.371 30.527 174.998 30.643 174.7 30.875C174.401 31.107 174.176 31.4235 174.024 31.8246C173.874 32.2256 173.8 32.678 173.8 33.1818C173.8 33.6922 173.876 34.1513 174.029 34.5589C174.181 34.9666 174.406 35.2898 174.705 35.5284C175.006 35.7637 175.378 35.8814 175.818 35.8814ZM181.395 37V29.3636H182.822V30.6065H182.917C183.076 30.1856 183.336 29.8575 183.697 29.6222C184.058 29.3835 184.491 29.2642 184.995 29.2642C185.505 29.2642 185.933 29.3835 186.277 29.6222C186.625 29.8608 186.882 30.1889 187.048 30.6065H187.127C187.31 30.1989 187.6 29.8741 187.997 29.6321C188.395 29.3868 188.869 29.2642 189.419 29.2642C190.112 29.2642 190.677 29.4813 191.115 29.9155C191.555 30.3497 191.776 31.0043 191.776 31.8793V37H190.289V32.0185C190.289 31.5014 190.149 31.1269 189.867 30.8949C189.585 30.6629 189.249 30.5469 188.858 30.5469C188.374 30.5469 187.997 30.696 187.729 30.9943C187.461 31.2893 187.326 31.6688 187.326 32.1328V37H185.845V31.924C185.845 31.5097 185.716 31.1766 185.457 30.9247C185.198 30.6728 184.862 30.5469 184.448 30.5469C184.166 30.5469 183.906 30.6214 183.667 30.7706C183.432 30.9164 183.241 31.1203 183.096 31.3821C182.953 31.6439 182.882 31.9472 182.882 32.2919V37H181.395ZM193.768 37V29.3636H195.255V37H193.768ZM194.519 28.1854C194.26 28.1854 194.038 28.0992 193.853 27.9268C193.67 27.7512 193.579 27.5424 193.579 27.3004C193.579 27.0552 193.67 26.8464 193.853 26.674C194.038 26.4983 194.26 26.4105 194.519 26.4105C194.778 26.4105 194.998 26.4983 195.18 26.674C195.366 26.8464 195.459 27.0552 195.459 27.3004C195.459 27.5424 195.366 27.7512 195.18 27.9268C194.998 28.0992 194.778 28.1854 194.519 28.1854ZM198.741 32.4659V37H197.255V29.3636H198.681V30.6065H198.776C198.952 30.2022 199.227 29.8774 199.601 29.6321C199.979 29.3868 200.455 29.2642 201.028 29.2642C201.548 29.2642 202.004 29.3736 202.395 29.5923C202.786 29.8078 203.09 30.1293 203.305 30.5568C203.52 30.9844 203.628 31.513 203.628 32.1428V37H202.142V32.3217C202.142 31.7682 201.997 31.3357 201.709 31.0241C201.421 30.7093 201.025 30.5518 200.521 30.5518C200.176 30.5518 199.87 30.6264 199.601 30.7756C199.336 30.9247 199.126 31.1435 198.97 31.4318C198.817 31.7169 198.741 32.0616 198.741 32.4659Z" fill="#7431B8"/>
<defs>
<clipPath id="clip0_3815_2740">
<rect width="151.788" height="32" fill="white" transform="translate(0 16)"/>
</clipPath>
</defs>
</svg>
