<svg width="162" height="140" viewBox="0 0 162 140" fill="none" xmlns="http://www.w3.org/2000/svg">
<path d="M87.0551 51.5343L89.3917 44.9232L83.0197 44.9717L81.225 49.2138" fill="#F5EDFC"/>
<path d="M87.3356 51.6095L88.1272 49.3697L89.3823 45.8185L89.6721 44.9983C89.6947 44.9108 89.6755 44.8177 89.6202 44.7462C89.5649 44.6746 89.4797 44.6326 89.3893 44.6324L87.2459 44.6487L83.8064 44.6749L83.0173 44.6809C82.9146 44.6803 82.8195 44.7352 82.7687 44.8245L81.194 48.5465L80.974 49.0667C80.8982 49.2059 80.9435 49.38 81.0775 49.4646C81.2162 49.5447 81.3935 49.4986 81.4755 49.361L83.0501 45.639L83.2702 45.1188L83.0215 45.2624L85.1649 45.2461L88.6044 45.2199L89.3935 45.2139L89.1106 44.848L88.319 47.0877L87.0639 50.639L86.774 51.4591C86.6493 51.8119 87.2115 51.9605 87.3356 51.6095L87.3356 51.6095Z" fill="black"/>
<path d="M89.0598 45.8539C90.4276 43.6996 92.6831 43.0659 93.5412 41.3187C94.0394 40.3041 93.5121 37.4955 93.5121 37.4955L82.6847 33.8576C82.6847 33.8576 73.8533 44.1608 84.8169 46.296" fill="#F5EDFC"/>
<path d="M89.3107 46.0014C89.8044 45.2712 90.414 44.6266 91.1155 44.0929C91.7267 43.603 92.3805 43.1582 92.9396 42.6065C93.4121 42.1403 93.8506 41.5712 93.9704 40.9036C94.0705 40.2132 94.0757 39.5124 93.9858 38.8206C93.9399 38.3519 93.8793 37.8822 93.7926 37.4191C93.7652 37.3196 93.6872 37.242 93.5875 37.2151L89.9197 35.9827L84.0847 34.0222L82.76 33.5771C82.6602 33.5487 82.5529 33.5772 82.4803 33.6513C82.1771 34.0053 81.8985 34.383 81.6291 34.7629C81.0386 35.5868 80.5191 36.4594 80.076 37.3711C79.5586 38.4496 79.1536 39.5999 79.0529 40.7987C78.9534 41.983 79.2256 43.1682 79.9565 44.1191C80.9199 45.3726 82.4758 46.0282 83.967 46.4047C84.2236 46.4695 84.4821 46.5261 84.7417 46.5771C85.1069 46.6488 85.2601 46.0878 84.8922 46.0156C83.9872 45.8552 83.1066 45.579 82.2721 45.194C81.6623 44.9152 81.111 44.5233 80.6473 44.0389C80.4537 43.8386 80.2861 43.6147 80.1482 43.3726C80.0781 43.2536 80.0143 43.1311 79.957 43.0055C79.9432 42.9754 79.9299 42.9452 79.9169 42.9148C79.9401 42.9691 79.9054 42.8857 79.8989 42.8692C79.8721 42.8005 79.8472 42.7312 79.8242 42.6612C79.7822 42.5337 79.7464 42.4043 79.7169 42.273C79.7026 42.2096 79.6897 42.1459 79.6782 42.0819C79.6724 42.0499 79.6672 42.0178 79.662 41.9857C79.6593 41.9696 79.657 41.9535 79.6546 41.9375C79.6495 41.9029 79.6602 41.9828 79.6533 41.9275C79.6201 41.6589 79.6075 41.3882 79.6158 41.1177C79.62 40.9765 79.6292 40.8355 79.6435 40.6948C79.6468 40.6615 79.6507 40.6283 79.6543 40.595C79.6561 40.5784 79.6582 40.5618 79.6602 40.5451C79.6589 40.5561 79.6522 40.6041 79.6599 40.5475C79.6695 40.4766 79.6802 40.4058 79.6918 40.3352C79.7391 40.0538 79.8012 39.7751 79.8778 39.5003C79.9534 39.2266 80.0419 38.9566 80.1403 38.6903C80.191 38.5532 80.2445 38.4171 80.3 38.2819C80.3183 38.2374 80.288 38.3092 80.3197 38.2352C80.3331 38.2037 80.3465 38.1722 80.3601 38.1408C80.389 38.0743 80.4184 38.008 80.4484 37.942C80.8766 37.0127 81.3865 36.1232 81.972 35.284C82.1719 34.9938 82.3794 34.7091 82.5944 34.4299C82.6529 34.3539 82.5668 34.4645 82.6129 34.4061C82.6315 34.3825 82.65 34.3588 82.6687 34.3352C82.6992 34.2966 82.73 34.2582 82.7609 34.2199C82.8012 34.1761 82.8391 34.1301 82.8744 34.0821C82.8789 34.076 82.8838 34.0701 82.8892 34.0647L82.6094 34.1388L86.2772 35.3711L92.1121 37.3316L93.4369 37.7767L93.2317 37.5727C93.3011 37.9437 93.3432 38.2605 93.3837 38.6279C93.4754 39.2848 93.4911 39.9501 93.4307 40.6106C93.3559 41.2199 93.0175 41.7057 92.562 42.1621C92.0318 42.6932 91.4106 43.1232 90.8233 43.5869C90.0382 44.1762 89.3574 44.8929 88.8091 45.7071C88.6066 46.0228 89.109 46.3157 89.3106 46.0015L89.3107 46.0014Z" fill="black"/>
<path d="M89.0002 41.7182C89.0053 41.7114 89.0106 41.7048 89.0157 41.698C89.0226 41.6888 88.9897 41.7308 89.0139 41.7004C89.0231 41.6888 89.0322 41.6773 89.0414 41.6658C89.0951 41.5987 89.1504 41.5328 89.207 41.4681C89.3715 41.2765 89.5503 41.0976 89.7418 40.933C89.8359 40.8515 89.9369 40.7784 90.0438 40.7146C90.136 40.654 90.2387 40.6113 90.3467 40.5886C90.3523 40.5874 90.3862 40.582 90.3709 40.584C90.3556 40.586 90.389 40.5825 90.3945 40.5822C90.4201 40.5811 90.4457 40.5813 90.4713 40.5829C90.4996 40.5846 90.451 40.5775 90.4784 40.5843C90.4896 40.5871 90.501 40.5891 90.5121 40.5922C90.5232 40.5953 90.5341 40.5991 90.545 40.6028C90.5168 40.5932 90.5456 40.603 90.5571 40.6092C90.6176 40.6412 90.6706 40.6856 90.7128 40.7395C90.717 40.7451 90.7456 40.7964 90.7424 40.7885C90.7476 40.8022 90.752 40.8163 90.7554 40.8306C90.761 40.8519 90.758 40.8264 90.7591 40.8556C90.7599 40.9015 90.7503 40.947 90.7311 40.9887C90.7169 41.0162 90.7013 41.0429 90.6842 41.0688C90.6758 41.0812 90.667 41.0935 90.6578 41.1055C90.6744 41.0839 90.6516 41.1123 90.6456 41.1191C90.6138 41.1555 90.5797 41.1899 90.5435 41.2221C90.5319 41.2324 90.5197 41.2418 90.508 41.2519C90.4831 41.2736 90.5228 41.241 90.5201 41.243C90.4526 41.2846 90.4293 41.3717 90.4669 41.4415C90.5074 41.5105 90.5959 41.5342 90.6655 41.4947C90.8413 41.3766 90.9714 41.2018 91.0341 40.9995C91.061 40.8399 91.0229 40.6762 90.9284 40.5447C90.8339 40.4133 90.6908 40.3251 90.5309 40.2998C90.2507 40.2562 89.9784 40.398 89.7566 40.5558C89.5159 40.732 89.2946 40.9333 89.0964 41.1562C88.975 41.2892 88.8579 41.4271 88.7495 41.571C88.7094 41.6403 88.7325 41.729 88.8013 41.77C88.8708 41.8086 88.9584 41.7858 89.0002 41.7182L89.0002 41.7182Z" fill="black"/>
<path d="M93.0261 52.8427L93.7597 50.5388C94.095 49.4857 95.2004 48.8459 96.3785 49.0232L112.028 51.4642L109.993 54.7766L110.317 60.1808L95.2386 54.4984" fill="white"/>
<path d="M93.3073 52.918L93.9624 50.8604C94.0573 50.4884 94.2451 50.1465 94.5082 49.8668C94.9695 49.4343 95.597 49.2254 96.2255 49.2954C96.4538 49.3169 96.6813 49.363 96.9076 49.3983L98.5777 49.6588L103.737 50.4636L109.096 51.2994L110.984 51.5939C111.289 51.6415 111.602 51.7139 111.91 51.7384C111.925 51.7396 111.939 51.7429 111.953 51.745L111.777 51.3171L110.854 52.8201C110.492 53.41 110.107 53.9914 109.765 54.5932C109.707 54.7123 109.689 54.8469 109.715 54.9769L109.766 55.8335L109.922 58.4309L110.027 60.1829L110.393 59.9001L108.897 59.3364L105.288 57.9763L100.937 56.3367L97.1748 54.9188L95.9331 54.4509C95.7369 54.377 95.5404 54.2879 95.3395 54.2272C95.331 54.2247 95.3227 54.2209 95.3143 54.2177C95.1594 54.1774 95.0008 54.2689 94.9583 54.4233C94.9204 54.5778 95.011 54.7348 95.1638 54.7793L96.6595 55.3429L100.269 56.7031L104.62 58.3427L108.382 59.7605L109.624 60.2284C109.82 60.3024 110.017 60.3915 110.217 60.4521C110.226 60.4547 110.234 60.4585 110.243 60.4616C110.33 60.4844 110.423 60.4654 110.495 60.41C110.567 60.3547 110.609 60.2693 110.609 60.1788L110.325 55.4511L110.284 54.7746L110.244 54.9239L112.022 52.0296L112.279 51.6115C112.324 51.5331 112.33 51.4382 112.296 51.3545C112.261 51.2708 112.19 51.2077 112.103 51.1836L109.711 50.8103L104.421 49.9852L99.0612 49.1492C98.1946 49.014 97.3286 48.8723 96.4609 48.7436C95.1981 48.5563 93.9058 49.1912 93.487 50.4405C93.2544 51.1341 93.0426 51.8352 92.8206 52.5323L92.7457 52.7675C92.6321 53.1243 93.1939 53.2739 93.3072 52.918L93.3073 52.918Z" fill="black"/>
<path d="M11.9817 63.3005L115.44 79.0855L101.846 91.381L11.9817 63.3005Z" fill="black"/>
<path d="M11.9068 63.5811L14.6755 64.0035L22.21 65.1531L33.3533 66.8532L46.9482 68.9274L61.7863 71.1913L76.8144 73.4842L90.8266 75.6221L102.631 77.4231L111.175 78.7267L113.812 79.129C114.263 79.1978 114.735 79.3168 115.191 79.3395C115.249 79.3424 115.308 79.3573 115.365 79.366L115.236 78.8785L110.634 83.0402L103.336 89.641L101.641 91.174L101.921 91.0999L99.504 90.3447L92.9906 88.3094L83.289 85.2779L71.4943 81.5923L58.577 77.5559L45.5388 73.4818L33.3812 69.6828L23.106 66.472L15.7148 64.1624C14.5462 63.7973 13.3826 63.3995 12.2046 63.0656C12.1551 63.0516 12.1063 63.0349 12.0572 63.0195C11.6999 62.9079 11.5501 63.4696 11.9068 63.5811L15.314 64.6458L24.3819 67.4793L37.3796 71.5408L52.5268 76.2739L68.1445 81.1541L82.5598 85.6586L93.9924 89.231L100.711 91.3305C101.037 91.4324 101.419 91.6227 101.761 91.6586C102.048 91.6887 102.276 91.3833 102.474 91.2046L104.247 89.6005L114.848 80.0124L115.645 79.2919C115.797 79.1541 115.733 78.8377 115.515 78.8044L112.747 78.382L105.212 77.2324L94.0687 75.5323L80.4738 73.4581L65.6358 71.1942L50.6077 68.9013L36.5955 66.7634L24.7915 64.9624L16.2475 63.6589C14.9087 63.4546 13.5702 63.2465 12.2308 63.046C12.1729 63.0374 12.1151 63.0284 12.0572 63.0195C11.6914 62.9637 11.5368 63.5246 11.9068 63.5811Z" fill="black"/>
<path d="M115.44 79.0854L105.697 63.2057L11.9818 63.3004L115.44 79.0854Z" fill="#FFC41F"/>
<path d="M115.692 78.9399L109.504 68.8546L106.307 63.6443C106.157 63.3996 105.999 62.9716 105.691 62.9148C105.593 62.9064 105.495 62.9065 105.397 62.9151L99.9912 62.9206L89.1372 62.9315L74.7694 62.9461L58.5254 62.9625L42.365 62.9788L28.0508 62.9933L17.369 63.0041L12.2035 63.0094L11.9798 63.0096C11.6631 63.0099 11.5742 63.5304 11.9066 63.5811L14.6753 64.0035L22.2099 65.1531L33.3532 66.8533L46.9481 68.9275L61.7861 71.1914L76.8143 73.4843L90.8265 75.6221L102.63 77.4231L111.174 78.7267C112.513 78.931 113.852 79.1391 115.191 79.3395C115.249 79.3482 115.307 79.3572 115.365 79.366C115.731 79.4218 115.885 78.8609 115.515 78.8045L112.746 78.382L105.212 77.2324L94.0685 75.5323L80.4736 73.4581L65.6356 71.1942L50.6075 68.9013L36.5953 66.7634L24.7914 64.9625L16.2473 63.6589L13.6103 63.2566C13.1585 63.1877 12.6875 63.0703 12.2306 63.0461C12.1731 63.0431 12.1141 63.0283 12.057 63.0196L11.9839 63.5911L14.4894 63.5886L21.3082 63.5818L31.3937 63.5715L43.6992 63.5591L57.1783 63.5454L70.7841 63.5316L83.4703 63.5188L94.1901 63.5079L101.897 63.5002L104.293 63.4977C104.71 63.5202 105.128 63.5198 105.544 63.4965C105.596 63.4936 105.648 63.4935 105.699 63.4963L105.445 63.3509L108.74 68.7204L113.988 77.2739L115.188 79.2305C115.384 79.5494 115.888 79.2596 115.692 78.9399Z" fill="black"/>
<path d="M76.6562 60.3107L57.472 65.4699C52.8271 66.0726 49.3568 62.4185 48.5406 58.1387L44.7572 38.3012L52.8145 36.6707L56.6209 57.1171L72.5365 50.3692C73.9801 49.7571 75.599 49.7002 77.082 50.2095L80.4835 51.3776" fill="#A8542A"/>
<path d="M76.5794 60.03L74.1047 60.6956L68.4267 62.2226L62.1643 63.9068L57.9363 65.0438C57.5725 65.1531 57.1967 65.2178 56.8173 65.2364C55.2158 65.3065 53.6379 64.8301 52.3428 63.8854C50.367 62.4573 49.2284 60.1977 48.7802 57.8476L48.0858 54.2068L46.9081 48.0314L45.7387 41.8997L45.0693 38.3899L45.0377 38.2242L44.834 38.5813L47.5497 38.0318L51.8985 37.1518L52.8913 36.9509L52.5341 36.7472L52.9133 38.7839L53.8237 43.6738L54.9244 49.5869L55.8726 54.6801L56.1859 56.3633C56.235 56.6267 56.2702 56.8977 56.3339 57.1581C56.3367 57.1697 56.3383 57.1818 56.3405 57.1936C56.3784 57.3972 56.6099 57.4349 56.7662 57.3686L59.3783 56.2611L65.0201 53.869L70.5073 51.5425L72.2042 50.8231C72.6686 50.61 73.1512 50.439 73.6462 50.3122C74.5489 50.1019 75.4878 50.102 76.3903 50.3126C76.7631 50.4086 77.1308 50.5235 77.4921 50.6567L80.2006 51.5868L80.4082 51.6581C80.7622 51.7797 80.9112 51.2176 80.5587 51.0966L78.246 50.3024C77.8989 50.1832 77.5518 50.064 77.2047 49.9448C76.4999 49.7012 75.7597 49.5759 75.014 49.5739C74.0382 49.5905 73.0759 49.8049 72.1854 50.2044L70.8022 50.7908L65.5453 53.0197L59.696 55.4997L57.575 56.399C57.2269 56.5465 56.8625 56.6762 56.5238 56.8447C56.5083 56.8525 56.4916 56.8584 56.4756 56.8651L56.9013 57.0401L56.5222 55.0035L55.6118 50.1135L54.511 44.2005L53.5629 39.1073L53.2495 37.4241C53.2005 37.1607 53.1652 36.8898 53.1015 36.6294C53.0987 36.6177 53.0971 36.6056 53.0949 36.5938C53.0502 36.4408 52.8922 36.3507 52.7378 36.3901L50.0221 36.9397L45.6733 37.8197L44.6805 38.0206C44.5277 38.0656 44.4377 38.2233 44.4768 38.3778L44.9579 40.8999L46.0647 46.7033L47.2897 53.1272L48.1356 57.5624C48.1841 57.8169 48.2306 58.0718 48.2818 58.3257C48.6083 59.9578 49.3214 61.4877 50.3615 62.7871C51.3652 64.0542 52.7214 64.996 54.2593 65.4939C55.0694 65.7433 55.9159 65.8537 56.7629 65.8203C57.0564 65.8215 57.3491 65.7902 57.6357 65.7268L60.889 64.8518L66.9215 63.2295L73.0442 61.5829L76.5674 60.6354L76.7329 60.5908C77.094 60.4937 76.9417 59.9326 76.5794 60.03L76.5794 60.03Z" fill="black"/>
<path d="M77.0819 50.2094C75.5989 49.7002 73.98 49.757 72.5364 50.3691L56.6208 57.117L53.981 42.9367C52.833 43.399 51.2009 43.8425 49.3646 44.1549C48.1261 44.3656 43.6048 43.8617 42.5944 43.9026L43.0643 59.1656C43.3331 64.4714 47.4549 68.7856 56.1478 67.3384L75.9155 62.6692L80.4834 51.3775L77.0819 50.2094Z" fill="#A8542A"/>
<path d="M77.1572 49.9288C75.6451 49.4182 74 49.466 72.52 50.0637C72.3114 50.1489 72.1046 50.239 71.8971 50.327L68.4942 51.7698L63.4953 53.8892L58.8504 55.8587L57.27 56.5287C57.0195 56.6349 56.7503 56.7247 56.5092 56.8513C56.4986 56.8569 56.4868 56.8608 56.4757 56.8655L56.9014 57.0405L56.6399 55.6353L56.0079 52.2408L55.2466 48.1513L54.588 44.6136C54.4817 44.0422 54.412 43.4473 54.2661 42.8844C54.264 42.8765 54.2631 42.8682 54.2616 42.8602C54.2189 42.7055 54.0592 42.6145 53.9044 42.6565C52.9822 43.0148 52.0342 43.3027 51.0685 43.5175C50.4792 43.6548 49.885 43.7758 49.288 43.8747C49.2758 43.8767 49.2031 43.8868 49.2743 43.8775C49.2502 43.8807 49.226 43.8836 49.2018 43.886C49.1577 43.8903 49.1137 43.8944 49.0695 43.8976C48.9351 43.9075 48.8002 43.9119 48.6654 43.9143C47.2217 43.9395 45.773 43.7928 44.3343 43.693C43.7555 43.6354 43.1741 43.6084 42.5925 43.612C42.4329 43.6155 42.305 43.7453 42.3039 43.9049L42.3458 45.2654L42.448 48.586L42.5754 52.7249L42.6929 56.5407L42.7653 58.8916C42.7864 59.8596 42.9422 60.8199 43.2282 61.7449C43.6834 63.2081 44.5291 64.5195 45.6742 65.5379C46.9765 66.6759 48.6033 67.3674 50.2947 67.6802C51.3384 67.8676 52.3992 67.9425 53.4589 67.9037C54.3927 67.8876 55.3234 67.7911 56.2406 67.6152C56.6624 67.5272 57.0809 67.4168 57.5002 67.3177L60.3288 66.6496L64.0969 65.7595L68.1754 64.7962L71.935 63.9082L74.7463 63.2441C75.154 63.1478 75.578 63.0755 75.9789 62.953C76.1668 62.8956 76.217 62.6938 76.2838 62.5288L76.6578 61.6043L77.9862 58.3203L79.5263 54.5134L80.6064 51.8433L80.7643 51.453C80.8261 51.3003 80.6922 51.1428 80.5588 51.0969L77.5782 50.0734L77.1572 49.9288C76.8032 49.8072 76.6543 50.3693 77.0068 50.4904L79.9874 51.5139L80.4083 51.6585L80.2028 51.3025L78.6501 55.1407L76.196 61.2073L75.6349 62.5941L75.839 62.389L73.4669 62.9493L67.9484 64.2528L61.6972 65.7293L57.0762 66.8208C56.7563 66.8963 56.4373 66.9769 56.1163 67.0475C55.6516 67.1389 55.182 67.2029 54.7098 67.2394C53.8235 67.3307 52.9314 67.3531 52.0416 67.3064C49.3902 67.1565 46.7324 66.1975 45.0627 64.0448C43.9396 62.5968 43.4048 60.7715 43.3489 58.9562L43.2188 54.7315L43.0218 48.3329L42.8918 44.1132L42.8853 43.9008L42.5966 44.1936C43.1081 44.1892 43.6194 44.2115 44.1286 44.2602C44.8764 44.3108 45.6238 44.3676 46.3718 44.4142C47.0778 44.4583 47.7858 44.4995 48.4934 44.4976C49.2515 44.4728 50.0049 44.3684 50.7412 44.186C51.8721 43.9571 52.9815 43.6331 54.0578 43.2174L53.7007 43.0137L53.9622 44.4189L54.5942 47.8133L55.3555 51.9028L56.0141 55.4406C56.1204 56.0119 56.1901 56.6068 56.3361 57.1697C56.3381 57.1776 56.3391 57.1859 56.3406 57.1939C56.3784 57.3975 56.6099 57.4352 56.7663 57.3689L58.6643 56.5641L63.0851 54.6898L68.1021 52.5627L71.8371 50.9791C72.1035 50.8661 72.3699 50.7532 72.6363 50.6402C73.6579 50.2109 74.776 50.0638 75.8739 50.2144C76.259 50.2722 76.6382 50.3646 77.0068 50.4903C77.3614 50.6102 77.5105 50.0482 77.1572 49.9288Z" fill="black"/>
<path d="M42.5567 43.8687C42.6435 44.3792 43.9958 44.609 45.9452 44.5301L45.4891 42.1385C43.6501 42.7054 42.4706 43.3624 42.5567 43.8687Z" fill="black"/>
<path d="M42.2761 43.9455C42.3739 44.4327 43.0025 44.6055 43.4152 44.6892C44.251 44.8332 45.1009 44.8774 45.9471 44.8209C46.0367 44.8184 46.1203 44.7753 46.1744 44.7039C46.2285 44.6324 46.2473 44.5403 46.2254 44.4534L45.7693 42.0618C45.7259 41.9078 45.5669 41.8171 45.4122 41.8582C44.6171 42.1048 43.7991 42.3831 43.0837 42.8172C42.6802 43.062 42.202 43.416 42.2761 43.9455C42.3193 44.0998 42.4785 44.1906 42.6333 44.1492C42.7854 44.1033 42.8749 43.9463 42.8369 43.792C42.8476 43.8689 42.8423 43.8213 42.8432 43.8026C42.8449 43.7669 42.8281 43.8672 42.8418 43.8145C42.8459 43.7984 42.851 43.7826 42.8559 43.7668C42.8663 43.733 42.8208 43.8286 42.856 43.771C42.867 43.7528 42.9108 43.6841 42.8976 43.7018C42.8748 43.7325 42.9192 43.6766 42.9242 43.6713C42.9403 43.6542 42.9561 43.637 42.9727 43.6204C43.1367 43.4672 43.3213 43.3376 43.5211 43.2355C44.1726 42.8934 44.8578 42.6198 45.5656 42.419L45.2085 42.2154L45.6646 44.6069L45.9429 44.2394C45.1913 44.2891 44.4366 44.2595 43.6911 44.1513C43.5595 44.129 43.4292 44.0999 43.3006 44.0641C43.2452 44.0484 43.1904 44.0305 43.136 44.0114C43.1066 44.0033 43.0784 43.9916 43.0519 43.9765C43.0112 43.9564 42.9723 43.9345 42.9334 43.9112C42.9159 43.9006 42.899 43.8889 42.8828 43.8763C42.9334 43.9155 42.8916 43.8812 42.8816 43.8712C42.869 43.8588 42.857 43.8461 42.8453 43.8328C42.8662 43.8565 42.8761 43.8626 42.8502 43.8356C42.8252 43.8096 42.8368 43.8127 42.8508 43.8451C42.8444 43.8279 42.8397 43.8102 42.8369 43.7921C42.7634 43.4252 42.2028 43.5795 42.2761 43.9455Z" fill="black"/>
<path d="M53.6151 40.9693L52.8148 36.6707L44.9087 36.5055L44.8849 40.7122L44.8428 44.6131C45.8531 44.5722 48.1265 44.3657 49.365 44.155C51.2014 43.8426 52.8334 43.3991 53.9814 42.9368L53.6151 40.9693Z" fill="#F5EDFC"/>
<path d="M53.8953 40.8925L53.1953 37.1324L53.0951 36.5939C53.0594 36.4674 52.944 36.3801 52.8126 36.3799L50.1327 36.3239L45.8835 36.2351L44.9064 36.2147C44.7468 36.2182 44.6188 36.3479 44.6177 36.5076L44.5976 40.057C44.5923 41.0098 44.5805 41.9625 44.5702 42.9153L44.5518 44.6151C44.5546 44.775 44.6848 44.9032 44.8447 44.9038C45.9411 44.8581 47.0382 44.7488 48.1275 44.6188C49.4468 44.464 50.7535 44.2153 52.0375 43.8746C52.7235 43.6959 53.3981 43.4764 54.0579 43.2172C54.209 43.17 54.2979 43.014 54.2616 42.86L53.8953 40.8925C53.8268 40.5249 53.2662 40.6797 53.3344 41.046L53.7007 43.0135L53.9044 42.6563C51.5588 43.5956 49.0202 43.9799 46.5173 44.2036C45.9594 44.2535 45.4003 44.299 44.8405 44.3223L45.1334 44.611L45.1715 41.0797C45.1821 40.0954 45.1845 39.1109 45.1901 38.1266L45.1992 36.5034L44.9106 36.7963L47.5904 36.8523L51.8396 36.941L52.8167 36.9614L52.5342 36.7474L53.2342 40.5076L53.3344 41.046C53.403 41.4137 53.9636 41.2589 53.8953 40.8925Z" fill="black"/>
<path d="M44.8462 41.6048L44.8001 38.2744L47.0512 32.3865C47.0512 32.3865 48.7197 30.4505 46.9121 28.4081C50.1541 25.5041 53.5263 27.4532 53.1107 30.9835C52.9412 32.4237 52.8606 33.6406 52.8245 34.5768C52.778 35.7802 52.8669 36.9849 53.0897 38.1684L53.4171 39.907" fill="#F5EDFC"/>
<path d="M45.137 41.6026L45.1095 39.6157L45.0939 38.4866C45.0972 38.4158 45.0963 38.3449 45.091 38.2742C45.1747 38.2961 45.0523 38.3816 45.0879 38.3313C45.0993 38.3092 45.1083 38.2858 45.1145 38.2617L46.7447 33.998L47.3321 32.4616L47.2558 32.593C47.9512 31.7687 48.2017 30.6574 47.9273 29.6145C47.7644 29.0906 47.4885 28.6088 47.1189 28.2034L47.1167 28.6145C48.0041 27.8258 49.1439 27.1984 50.3668 27.3025C51.2879 27.3908 52.0965 27.9528 52.5004 28.7853C53.0996 29.9728 52.7651 31.3208 52.6586 32.5781C52.5248 34.1563 52.4527 35.7367 52.6614 37.3122C52.7801 38.2082 52.9696 39.0957 53.1367 39.9836C53.206 40.3511 53.7666 40.1964 53.6976 39.8301C53.5596 39.0977 53.4067 38.3664 53.2902 37.6302C53.0294 35.9819 53.0951 34.3222 53.2322 32.6661C53.2692 32.2205 53.3123 31.7754 53.3616 31.3309C53.4099 30.9824 53.4344 30.631 53.4348 30.2792C53.4238 29.6925 53.2914 29.1145 53.0459 28.5815C52.6004 27.6202 51.7112 26.9388 50.6671 26.7587C49.1875 26.5224 47.7866 27.2422 46.7076 28.2012C46.5963 28.3153 46.5953 28.4971 46.7054 28.6124C47.2221 29.2044 47.5333 29.9359 47.4476 30.7296C47.4305 30.8672 47.4031 31.0033 47.3656 31.1367C47.3468 31.205 47.3257 31.2726 47.3022 31.3395C47.2919 31.3691 47.2812 31.3986 47.27 31.4279C47.265 31.4411 47.2319 31.5227 47.2491 31.482C47.1668 31.6759 47.0664 31.8617 46.9494 32.0368C46.9152 32.088 46.8776 32.1366 46.8423 32.187C46.9248 32.0691 46.7896 32.2665 46.7854 32.2752C46.7554 32.3359 46.7351 32.4035 46.711 32.4665L46.2992 33.5437L45.0339 36.8532L44.5979 37.9934C44.5333 38.1542 44.5041 38.3271 44.5124 38.5002L44.5543 41.5248L44.5554 41.6068C44.5606 41.9802 45.1421 41.9779 45.1369 41.6026L45.137 41.6026Z" fill="black"/>
<path d="M50.9384 31.2958C51.371 30.1525 51.1284 27.4494 51.0956 25.4186C51.0629 23.3877 52.5758 22.9014 53.0979 24.9074C53.728 27.4843 53.2164 31.0583 52.9763 32.4338C52.9037 32.8507 52.8615 33.2723 52.8502 33.6953L52.8133 35.0626" fill="#F5EDFC"/>
<path d="M51.2187 31.3712C51.4346 30.786 51.4591 30.1237 51.4762 29.5067C51.4987 28.7011 51.4679 27.8946 51.4383 27.0896C51.4231 26.6775 51.4069 26.2655 51.3957 25.8533C51.3664 25.4774 51.3838 25.0993 51.4477 24.7277C51.4923 24.4683 51.6112 24.2274 51.79 24.0341C51.8869 23.9219 52.0452 23.8852 52.1816 23.9431C52.1456 23.9301 52.2526 23.9812 52.2733 23.9949C52.3092 24.0194 52.3425 24.0476 52.3726 24.079C52.472 24.183 52.5544 24.302 52.6168 24.4316C52.7693 24.7648 52.8724 25.1186 52.9228 25.4816C53.051 26.2325 53.1133 26.9932 53.1091 27.755C53.1091 29.102 53.0026 30.4468 52.7905 31.7769C52.6703 32.4421 52.5922 33.1141 52.5566 33.7891L52.5222 35.0648C52.5121 35.4386 53.0935 35.435 53.1037 35.0606L53.1364 33.8496C53.1621 33.2508 53.2271 32.6543 53.3307 32.0639C53.5608 30.6741 53.6812 29.2684 53.6909 27.8597C53.6968 27.0459 53.6335 26.233 53.5017 25.4299C53.3838 24.7447 53.1972 23.8982 52.5677 23.4934C52.0559 23.1643 51.4841 23.4063 51.17 23.8772C50.7409 24.5204 50.7979 25.347 50.8208 26.0819C50.8509 27.045 50.9023 28.0079 50.9018 28.9717C50.9015 29.7101 50.9166 30.5175 50.6572 31.2207C50.6169 31.3756 50.7085 31.5341 50.8628 31.5767C51.0173 31.6147 51.1744 31.5241 51.2188 31.3712L51.2187 31.3712Z" fill="black"/>
<path d="M51.7775 32.1604C51.7775 32.1604 52.2675 27.2339 51.1218 24.0864C50.3839 22.1493 48.9331 22.7978 49.1873 24.8129C49.4414 26.828 49.7046 30.107 49.3992 31.2906" fill="#F5EDFC"/>
<path d="M52.0679 32.1583C52.1353 31.4778 52.1592 30.7909 52.1689 30.1076C52.2042 28.6813 52.1056 27.2549 51.8746 25.847C51.7675 25.101 51.5617 24.3725 51.2625 23.6807C51.0004 23.1272 50.4536 22.4688 49.76 22.6679C49.0947 22.859 48.8855 23.6701 48.8679 24.2749C48.8743 24.6569 48.9076 25.038 48.9677 25.4153C49.0118 25.8066 49.0514 26.1983 49.0866 26.5905C49.1658 27.4721 49.2261 28.3567 49.242 29.2419C49.2538 29.8995 49.2729 30.5991 49.118 31.2155C49.0269 31.5779 49.5882 31.7295 49.6796 31.3659C49.7937 30.8252 49.8431 30.2727 49.8267 29.7203C49.8312 28.9802 49.7938 28.2397 49.7417 27.5016C49.6891 26.7555 49.6194 26.0108 49.5328 25.2676C49.4649 24.6807 49.2985 23.8581 49.7138 23.3742C49.7318 23.3535 49.7509 23.3339 49.7711 23.3153C49.7773 23.3095 49.8285 23.2675 49.797 23.2908C49.8168 23.2761 49.9139 23.2273 49.8861 23.2377C49.9571 23.2069 50.0372 23.2043 50.1101 23.2303C50.3364 23.3043 50.5367 23.5589 50.6673 23.7926C51.0079 24.4026 51.1553 25.1492 51.2829 25.8298C51.5137 27.1625 51.6165 28.5142 51.59 29.8665C51.5852 30.6313 51.5618 31.4008 51.4864 32.1624C51.4887 32.3225 51.6191 32.4511 51.7792 32.4511C51.9383 32.4464 52.0654 32.3174 52.0679 32.1583L52.0679 32.1583Z" fill="black"/>
<path d="M50.3049 32.1657C50.3049 32.1657 50.5432 27.2206 49.2384 24.1357C48.4027 22.2387 46.9868 22.9603 47.3434 24.9599C47.6999 26.9594 48.1299 30.2207 47.8853 31.4184" fill="#F5EDFC"/>
<path d="M50.5956 32.1636C50.6282 31.4794 50.617 30.7911 50.5918 30.107C50.5552 28.6871 50.3865 27.2738 50.088 25.8852C49.9443 25.1501 49.7065 24.4366 49.3803 23.7623C49.0959 23.2215 48.5369 22.5759 47.8479 22.7752C47.1887 22.9659 46.9947 23.7705 46.996 24.3688C47.0168 24.7778 47.0706 25.1844 47.157 25.5847C47.2182 25.954 47.2754 26.324 47.3285 26.6946C47.4558 27.581 47.5619 28.4719 47.6236 29.3655C47.668 30.0081 47.7199 30.7588 47.6044 31.3432C47.5322 31.7083 48.0932 31.8614 48.166 31.4936C48.2539 30.9481 48.2764 30.3939 48.2329 29.8431C48.1996 29.1036 48.1246 28.366 48.0349 27.6315C47.9432 26.88 47.8349 26.1307 47.71 25.3836C47.6127 24.8003 47.3948 23.9895 47.8115 23.4743C47.8582 23.4226 47.9131 23.3789 47.974 23.345C48.0458 23.3138 48.1268 23.3108 48.2007 23.3367C48.4218 23.4041 48.6248 23.6351 48.762 23.8528C49.1341 24.4434 49.3198 25.1742 49.4822 25.8465C49.7832 27.167 49.9567 28.5134 50.0003 29.8671C50.0346 30.632 50.0506 31.4025 50.0141 32.1678C49.9963 32.5414 50.5778 32.5371 50.5956 32.1636L50.5956 32.1636Z" fill="black"/>
<path d="M49.0285 32.229C48.839 31.0202 48.5485 29.8294 48.1602 28.6691C46.8361 24.4017 40.9532 27.2421 40.9532 27.2421C39.31 28.1389 39.374 29.9364 41.3955 29.4876C43.2537 29.075 46.2088 27.3913 46.0618 31.1266C45.9711 33.4302 43.299 33.761 42.6353 30.5278C42.5432 30.0618 42.1576 29.7106 41.6851 29.6623L41.6599 29.6599C41.1421 29.6101 40.6628 29.9381 40.5218 30.4388C40.1176 31.8616 41.3463 35.6165 44.6825 37.3476L44.8827 42.2162" fill="#F5EDFC"/>
<path d="M49.3193 32.227C49.2659 31.8065 49.1812 31.3894 49.0899 30.9759C48.9868 30.5088 48.87 30.0451 48.7394 29.5847C48.6097 29.0659 48.4426 28.5572 48.2395 28.0626C47.9516 27.3987 47.4536 26.8477 46.8222 26.4942C46.2197 26.1851 45.552 26.0246 44.8748 26.0263C43.7138 26.0031 42.5427 26.2985 41.4652 26.7134C41.2414 26.7942 41.0219 26.8867 40.8078 26.9904C40.1644 27.3195 39.486 28.0095 39.5031 28.7834C39.5205 29.5685 40.2776 29.893 40.9695 29.8433C41.6575 29.7939 42.3233 29.5264 42.9796 29.3327C43.5545 29.1629 44.1318 28.9926 44.7264 29.0535C44.9319 29.077 45.1275 29.1543 45.2935 29.2775C45.4887 29.4598 45.6232 29.6976 45.6786 29.9589C45.7789 30.3831 45.8075 30.8211 45.7633 31.2547C45.7433 31.5551 45.6496 31.8459 45.4905 32.1015C45.4256 32.2061 45.3443 32.2996 45.2497 32.3784C45.2155 32.4114 45.177 32.4395 45.1353 32.4621C45.1113 32.477 45.0868 32.4912 45.0619 32.5046C45.0474 32.5124 44.9645 32.5517 45.0039 32.5351C44.9525 32.5562 44.8997 32.5735 44.8458 32.5867C44.7993 32.6022 44.7506 32.6105 44.7015 32.6112C44.5897 32.6223 44.4767 32.6125 44.3684 32.5821C44.1094 32.5073 43.8765 32.3613 43.6962 32.1609C43.44 31.8785 43.2443 31.5468 43.1209 31.1861C42.9522 30.7237 42.9301 30.2085 42.596 29.8232C42.2782 29.4723 41.8039 29.3069 41.3368 29.3839C40.8657 29.4621 40.4695 29.7803 40.2915 30.2234C40.2014 30.4672 40.1561 30.7252 40.1577 30.9851C40.1594 31.6058 40.2678 32.2216 40.4783 32.8055C41.0187 34.3987 42.0144 35.7986 43.3421 36.832C43.7164 37.1223 44.1157 37.3788 44.5353 37.5985L44.3917 37.3499L44.5669 41.6122L44.5918 42.2184C44.6072 42.591 45.1888 42.5895 45.1733 42.2142L44.9981 37.9519L44.9732 37.3457C44.9722 37.2434 44.9177 37.149 44.8296 37.097C43.3249 36.2972 42.117 35.0351 41.3841 33.4966C41.0942 32.9077 40.8919 32.2795 40.7835 31.6321C40.7461 31.3899 40.7322 31.1448 40.742 30.8999C40.7446 30.8483 40.7489 30.7969 40.7542 30.7455C40.7589 30.7004 40.7471 30.7933 40.7535 30.7494C40.7552 30.7375 40.7568 30.7255 40.7589 30.7137C40.7638 30.6868 40.7682 30.6599 40.7737 30.6331C40.7985 30.4857 40.8597 30.3469 40.9516 30.2291C41.1874 29.9537 41.5772 29.8679 41.9068 30.0188C42.3558 30.2278 42.3614 30.7217 42.4915 31.137C42.7153 31.8514 43.1146 32.5924 43.7907 32.97C44.2874 33.2606 44.9013 33.2646 45.4017 32.9803C45.9426 32.6592 46.2395 32.0565 46.322 31.4497C46.4212 30.7206 46.3916 29.7884 45.9577 29.1591C45.6192 28.6681 45.0766 28.4614 44.494 28.461C43.8733 28.4607 43.2571 28.6409 42.6681 28.8192C42.0588 29.0037 41.3999 29.2847 40.7543 29.267C40.6164 29.2655 40.48 29.2372 40.3528 29.1839C40.3245 29.1697 40.2971 29.1539 40.2705 29.1366C40.2241 29.1065 40.2535 29.1285 40.2239 29.0999C40.187 29.0713 40.1576 29.0343 40.1382 28.992C40.1152 28.9525 40.1247 28.9705 40.1203 28.9589C40.1089 28.9279 40.0996 28.8961 40.0926 28.8638C40.0815 28.8155 40.0901 28.8741 40.0865 28.8238C40.0843 28.7888 40.0839 28.7538 40.0853 28.7188C40.0974 28.6042 40.1281 28.4924 40.1763 28.3877C40.4011 27.9637 40.7654 27.6302 41.2076 27.4438C41.2603 27.4202 41.3135 27.3976 41.3665 27.3748C41.413 27.3549 41.3105 27.3978 41.3596 27.3777C41.3763 27.3709 41.3929 27.3639 41.4096 27.3571C41.4523 27.3398 41.4951 27.3226 41.5381 27.3056C41.7384 27.2267 41.9409 27.1534 42.1454 27.0857C42.684 26.9044 43.2369 26.7687 43.7982 26.68C44.9614 26.5021 46.3032 26.5848 47.1638 27.478C47.7675 28.1046 47.9686 28.985 48.1953 29.7977C48.401 30.52 48.5692 31.2525 48.6995 31.9921C48.7123 32.0668 48.7241 32.1416 48.7355 32.2164C48.751 32.3176 48.7315 32.1819 48.7378 32.2312C48.7438 32.3897 48.8721 32.5161 49.0306 32.5199C49.1908 32.5177 49.3194 32.3872 49.3193 32.227L49.3193 32.227Z" fill="black"/>
<path d="M87.16 79.9359C84.0307 85.7179 62.5004 74.6317 62.5004 74.6317L75.7215 52.5266C76.3285 51.2094 78.5531 50.7135 79.8268 51.1509L88.326 54.0696C89.71 54.5448 90.2365 55.3655 90.133 57.6005C90.1331 57.6005 88.8498 72.9789 87.16 79.9359Z" fill="#A8542A"/>
<path d="M77.4651 50.6465L79.1631 51.2296L82.8919 52.5101L86.5909 53.7804C87.1627 53.9768 87.7373 54.1667 88.3068 54.3701C88.9234 54.5902 89.4259 54.9526 89.6476 55.5712C89.8789 56.2165 89.8888 56.9548 89.8398 57.6308C89.7964 58.2307 89.7348 58.8299 89.6794 59.4287C89.5577 60.7445 89.4283 62.0597 89.2914 63.3741C89.1124 65.0934 88.9194 66.8113 88.7123 68.5275C88.4906 70.3503 88.2498 72.1709 87.974 73.9862C87.7257 75.6208 87.4533 77.2536 87.1051 78.8702C87.0338 79.2013 86.9585 79.5315 86.8791 79.8607L87.0831 79.6555C85.3197 79.9186 83.4994 79.8436 81.729 79.6647C79.7342 79.4486 77.7543 79.1116 75.8003 78.6555C73.9399 78.2353 72.0967 77.7399 70.2698 77.1925C68.8677 76.7725 67.4752 76.3215 66.0925 75.8396C65.6626 75.6897 65.2339 75.5364 64.8065 75.3797C64.611 75.3079 64.4126 75.2112 64.2114 75.1571C64.2029 75.1543 64.1947 75.1511 64.1866 75.1475L64.3921 75.5035L65.7532 71.2214L66.662 68.3621L66.9541 67.4429C66.9795 67.3631 67.0062 67.2837 67.0302 67.2035C67.0623 67.0964 67.0439 67.2066 67.0212 67.213C67.0698 67.1992 67.1601 66.9918 67.1856 66.9512L67.5782 66.3262L68.8895 64.2385L72.3103 58.7923C73.0196 57.663 73.7536 56.5454 74.4399 55.4018C74.4507 55.3836 74.4624 55.3659 74.4737 55.348C74.6731 55.0304 74.1709 54.7372 73.9722 55.0536L72.1853 57.8986L68.7513 63.3659L66.5636 66.8488C66.4088 67.0952 66.3527 67.4179 66.2657 67.6917L65.4295 70.3227L63.8608 75.2583L63.8306 75.3531C63.7929 75.5077 63.8835 75.6645 64.0362 75.7092C64.5476 75.9072 65.0644 76.092 65.5814 76.2747C66.9022 76.7415 68.2328 77.1796 69.5732 77.5888C71.3809 78.1419 73.2046 78.6449 75.045 79.0777C77.029 79.5548 79.0382 79.9203 81.0632 80.1723C82.8955 80.3909 84.7644 80.5011 86.6036 80.2992C86.8152 80.2759 87.0262 80.2478 87.2366 80.2164C87.3371 80.1905 87.4153 80.1118 87.4407 80.0112C87.812 78.4792 88.0895 76.9247 88.3421 75.3693C88.6394 73.5387 88.8931 71.7012 89.1273 69.8616C89.3561 68.0649 89.5661 66.2658 89.7572 64.4646C89.9117 63.0261 90.0571 61.5867 90.1934 60.1463C90.2681 59.3578 90.3397 58.569 90.4083 57.7799C90.5047 56.6576 90.4746 55.2347 89.5649 54.4257C88.9931 53.9172 88.2029 53.7208 87.4923 53.4768L84.1062 52.314L80.1537 50.9567L77.7347 50.1258L77.6155 50.0849C77.2615 49.9634 77.1126 50.5255 77.465 50.6465L77.4651 50.6465Z" fill="black"/>
<path d="M64.8094 67.0921L59.436 65.9841C55.7966 65.2338 52.0285 66.7366 49.9959 69.8474C49.284 70.9369 48.8809 72.0984 49.1742 73.1984C54.2828 75.9226 62.5479 75.4265 62.5479 75.4265" fill="#F5EDFC"/>
<path d="M64.8847 66.8114L60.4519 65.8975C59.7459 65.732 59.0304 65.6102 58.3094 65.5329C56.8957 65.4203 55.4748 65.6283 54.1527 66.1414C52.8281 66.6531 51.6382 67.4613 50.6742 68.5038C49.591 69.6859 48.5668 71.314 48.8324 72.9845C48.8679 73.208 48.9023 73.3846 49.1159 73.4962C49.2805 73.5823 49.4471 73.6645 49.6156 73.7429C49.9504 73.8993 50.2918 74.0422 50.6369 74.1742C51.3276 74.4355 52.033 74.6561 52.7496 74.8348C54.167 75.1832 55.6084 75.4258 57.0618 75.5606C58.8552 75.7471 60.6599 75.8011 62.4612 75.7221C62.4908 75.7206 62.5204 75.7192 62.55 75.7174C62.9216 75.6952 62.9207 75.1135 62.5458 75.1359C61.5302 75.1965 60.5061 75.1808 59.4902 75.1433C57.2957 75.0854 55.1131 74.8003 52.9774 74.2926C51.7086 73.9944 50.4809 73.5428 49.3214 72.9478L49.4546 73.1218C49.2073 72.1532 49.5461 71.1772 50.0325 70.341C50.4604 69.611 50.9958 68.9496 51.6207 68.379C52.8012 67.3043 54.2519 66.571 55.8174 66.2577C57.048 66.0201 58.3142 66.0351 59.5389 66.3018L62.276 66.8662L64.7342 67.373C65.099 67.4482 65.252 66.8872 64.8847 66.8114L64.8847 66.8114Z" fill="black"/>
<path d="M115.883 92.0703L89.8457 115.365L11.9819 63.3003L107.213 89.9152L115.883 92.0703Z" fill="#FFC41F"/>
<path d="M115.678 91.8637L106.881 99.7343L92.8594 112.279L89.6409 115.159L89.9926 115.115L87.905 113.719L82.2245 109.92L73.8616 104.328L63.6635 97.5092L52.4488 90.0102L41.1279 82.4403L30.613 75.4094L21.6918 69.444L15.3004 65.1702L13.3085 63.8383C12.9721 63.6134 12.6255 63.31 12.2588 63.1364C12.2135 63.1106 12.1701 63.0816 12.1289 63.0496L11.9064 63.5811L14.9348 64.4275L23.0213 66.6875L34.8914 70.0049L49.0106 73.9509L64.1868 78.1923L78.8408 82.2877L91.7877 85.9061L101.479 88.6145L106.661 90.0627C109.109 90.7471 111.597 91.3045 114.064 91.9178L115.807 92.3511C116.17 92.4413 116.322 91.88 115.958 91.7896C113.045 91.0655 110.114 90.3947 107.216 89.6142C105.933 89.2687 104.656 88.8987 103.376 88.5411L94.6007 86.0887L82.3828 82.674L67.94 78.6376L52.8418 74.418L38.2668 70.3446L25.7861 66.8566L16.6143 64.2933C15.1598 63.8868 13.7096 63.4576 12.249 63.0733C12.1847 63.0564 12.1209 63.0375 12.0569 63.0196C11.7307 62.9285 11.5684 63.3732 11.8345 63.5511L13.9221 64.9471L19.6026 68.7454L27.9655 74.3375L38.1636 81.1566L49.3783 88.6555L60.6992 96.2254L71.2141 103.256L80.1353 109.222L86.5267 113.495C87.5387 114.172 88.5352 114.885 89.5683 115.529C89.6124 115.557 89.655 115.587 89.6982 115.616C89.8122 115.681 89.9555 115.663 90.0499 115.572L98.8471 107.701L112.869 95.1566L116.087 92.2771C116.367 92.0268 115.956 91.615 115.678 91.8637Z" fill="black"/>
<path d="M94.0382 111.799C94.1497 108.989 92.7119 106.403 90.3382 105.145L16.8076 66.167L108.724 98.4829L94.0382 111.799Z" fill="black" stroke="black" stroke-width="1.3457"/>
<path d="M11.982 63.3005C13.0329 63.1509 121.437 87.4046 121.437 87.4046L137.466 123.541L11.982 63.3005Z" fill="#FFC41F"/>
<path d="M11.9839 63.5909C12.0883 63.579 12.0352 63.5923 12.0612 63.5955C12.1675 63.609 12.2732 63.63 12.3787 63.6486C12.7569 63.7157 13.1336 63.7917 13.5102 63.8672C14.8552 64.137 16.1972 64.4217 17.5388 64.7068C22.1782 65.6929 26.8119 66.7057 31.4451 67.7199C37.8163 69.1146 44.1857 70.5169 50.5535 71.9269C57.6743 73.5011 64.7942 75.0794 71.9132 76.6618C78.7899 78.1895 85.666 79.7196 92.5418 81.252C98.1804 82.5084 103.819 83.7661 109.457 85.0249C112.863 85.7855 116.269 86.5465 119.675 87.308L120.85 87.5707C120.965 87.5964 121.226 87.711 121.344 87.6811C121.178 87.7233 121.224 87.4395 121.221 87.631C121.219 87.76 121.382 87.9947 121.433 88.11L122.377 90.2381L130.14 107.737L136.849 122.863L137.214 123.686L137.613 123.29L134.262 121.681L125.142 117.303L111.599 110.801L95.1282 102.894L77.0895 94.2346L58.8818 85.4938L41.9041 77.3434L27.5132 70.4348L17.2082 65.4878C15.5839 64.708 13.9639 63.9182 12.3349 63.1483C12.2661 63.1158 12.1975 63.0823 12.1289 63.0494C11.7935 62.8884 11.4972 63.3889 11.8346 63.5509L15.1857 65.1597L24.3064 69.5382L37.849 76.0395L54.3197 83.9465L72.3584 92.6062L90.5661 101.347L107.544 109.497L121.935 116.406L132.24 121.353C133.864 122.133 135.484 122.923 137.113 123.693C137.182 123.725 137.25 123.758 137.319 123.791C137.433 123.853 137.574 123.833 137.666 123.742C137.758 123.651 137.779 123.51 137.718 123.395L132.685 112.049L124.256 93.0464L121.893 87.7214C121.661 87.198 121.545 87.1309 121.011 87.0113C118.328 86.4114 115.646 85.8119 112.963 85.2129C107.762 84.0509 102.56 82.8901 97.3573 81.7302C90.6523 80.2353 83.9469 78.7422 77.2411 77.251C70.0677 75.6559 62.8937 74.0639 55.719 72.4748C49.0619 71.001 42.4038 69.5321 35.7445 68.0681C30.5952 66.9374 25.4439 65.8152 20.2907 64.7016C17.6885 64.1424 15.0856 63.5268 12.4617 63.0751C12.3046 63.0322 12.1425 63.0101 11.9797 63.0095C11.6122 63.0512 11.6114 63.6333 11.9839 63.5909Z" fill="black"/>
<path d="M87.5601 53.8067L92.9506 55.6214C94.8262 56.2528 96.0396 58.0702 95.9036 60.0446L95.6867 75.3176C95.6646 76.8763 94.9413 78.3421 93.7178 79.3079C92.4942 80.2738 90.9006 80.6369 89.3793 80.2965L59.3835 73.5842L61.3033 66.4194L85.7874 69.6277L86.8095 59.199" fill="#A8542A"/>
<path d="M87.4853 54.0873L90.2146 55.0061C91.1332 55.3153 92.061 55.6052 92.9722 55.9356C93.8786 56.272 94.6356 56.9202 95.1075 57.764C95.4863 58.4674 95.6614 59.2625 95.6131 60.06C95.5959 60.6084 95.5975 61.1582 95.5897 61.7069L95.5393 65.2574L95.479 69.5015L95.4261 73.2292L95.3976 75.2336C95.3898 76.7256 94.7115 78.135 93.5503 79.0718C92.3844 79.9928 90.8642 80.3365 89.4155 80.0067C89.0661 79.9289 88.7168 79.8508 88.3677 79.7722L86.1119 79.2674L82.9256 78.5544L79.1285 77.7047L75.0013 76.7811L70.8362 75.849L66.9254 74.9739L63.5486 74.2182L61.0272 73.654L59.638 73.3431L59.4591 73.303L59.6646 73.6591L61.5844 66.4944L61.2284 66.6999L61.8834 66.7857L63.666 67.0193L66.3025 67.3648L69.5192 67.7863L73.0244 68.2456L76.5806 68.7116L79.8972 69.1462L82.7003 69.5135L84.7163 69.7777C85.0347 69.8194 85.3531 69.8611 85.6715 69.9029L85.7125 69.9082C85.7998 69.9289 85.8919 69.909 85.9629 69.8541C86.0339 69.7992 86.0764 69.7151 86.0784 69.6254L86.4255 66.0846L86.9743 60.4854L87.1006 59.1967C87.0982 59.0366 86.9678 58.908 86.8078 58.908C86.6487 58.9127 86.5215 59.0417 86.5191 59.2008L86.172 62.7416L85.6232 68.3408L85.4969 69.6295L85.8629 69.3467L85.2079 69.2608L83.4253 69.0273L80.7888 68.6818L77.5721 68.2603L74.0669 67.8009L70.5107 67.3349L67.1941 66.9003L64.391 66.533L62.375 66.2689C62.0566 66.2271 61.7382 66.1854 61.4198 66.1437L61.3788 66.1383C61.2244 66.1011 61.0678 66.1915 61.0228 66.3439L59.103 73.5087C59.0632 73.6635 59.1546 73.8217 59.3085 73.8647L60.0609 74.0331L62.1049 74.4904L65.1552 75.173L68.8859 76.0079L73.0258 76.9343L77.2572 77.8812L81.261 78.7771L84.7551 79.559L87.4489 80.1618L89.0232 80.5141C89.8937 80.7341 90.802 80.759 91.6832 80.5872C93.6241 80.1494 95.1796 78.7017 95.7555 76.7972C95.9822 76.0317 95.9787 75.2559 95.9898 74.4692L96.0339 71.3662L96.0934 67.1756L96.1511 63.1143L96.1888 60.4609C96.1908 60.3216 96.1901 60.1821 96.1947 60.043C96.2472 59.0665 96.0001 58.0973 95.4865 57.2651C94.9335 56.3985 94.1114 55.7373 93.1465 55.3829C92.8394 55.2695 92.5259 55.1719 92.2157 55.0675L88.4589 53.8028L87.6357 53.5257C87.2809 53.4063 87.1318 53.9683 87.4852 54.0873L87.4853 54.0873Z" fill="black"/>
<path d="M51.7266 71.967C51.9169 71.6118 52.1332 71.271 52.3737 70.9476C52.8292 70.2891 53.4021 69.7202 54.0637 69.2692C54.4455 69.0108 54.8816 68.8436 55.3384 68.7804C55.497 68.7748 55.6237 68.6463 55.627 68.4876C55.6248 68.3275 55.4943 68.1989 55.3342 68.1989C53.6141 68.3886 52.3194 69.878 51.4609 71.266C51.3786 71.3991 51.2974 71.5338 51.2251 71.6727C51.0527 72.0039 51.5537 72.2993 51.7266 71.9671L51.7266 71.967Z" fill="black"/>
<path d="M54.4092 72.5015C54.4209 72.4426 54.4358 72.3844 54.4536 72.3271C54.4732 72.2611 54.4954 72.1959 54.5198 72.1315C54.5267 72.1131 54.5342 72.0948 54.5412 72.0764C54.5651 72.013 54.5198 72.1222 54.5421 72.0739C54.5609 72.033 54.5786 71.9916 54.5982 71.9511C54.6435 71.8574 54.6937 71.7662 54.7485 71.6778C54.7774 71.6314 54.8075 71.5858 54.839 71.541C54.8553 71.5179 54.872 71.4951 54.8889 71.4724C54.8916 71.4688 54.9168 71.4364 54.8959 71.463C54.8719 71.4936 54.915 71.4398 54.9197 71.4343C54.998 71.3402 55.0826 71.2517 55.173 71.1693C55.1968 71.1478 55.2209 71.1268 55.2455 71.1063C55.2548 71.0986 55.32 71.0468 55.2852 71.0732C55.3428 71.0295 55.4032 70.9892 55.4647 70.9513C55.7506 70.7749 56.0725 70.6652 56.4066 70.6304C56.5652 70.6247 56.6919 70.4963 56.6953 70.3376C56.6931 70.1775 56.5626 70.0488 56.4025 70.0489C55.7224 70.1106 55.0871 70.4145 54.6124 70.9053C54.2978 71.2476 54.0607 71.6537 53.9175 72.096C53.8884 72.1793 53.8651 72.2645 53.8477 72.351C53.8104 72.5055 53.9008 72.6621 54.0533 72.707C54.2081 72.7472 54.3666 72.6557 54.4093 72.5015L54.4092 72.5015Z" fill="black"/>
<path d="M79.4429 51.0735L78.7278 52.6669C78.0998 54.066 77.8168 55.5953 77.9024 57.1264L78.0976 60.6176L81.9953 58.5746C83.4108 57.8326 84.6182 56.7485 85.5078 55.4209L86.7582 53.5549L79.4429 51.0735Z" fill="white"/>
<path d="M79.1923 50.9265L78.5703 52.3124C78.157 53.1988 77.868 54.138 77.7115 55.1034C77.5082 56.4676 77.6518 57.8443 77.7283 59.2131L77.807 60.6199C77.8099 60.7225 77.8659 60.8161 77.955 60.8671C78.044 60.9181 78.1531 60.919 78.243 60.8696L81.5902 59.1152C82.2573 58.7846 82.8956 58.399 83.4986 57.9622C84.4155 57.2585 85.2083 56.4063 85.844 55.441L87.0091 53.7023C87.0537 53.6238 87.0597 53.5292 87.0255 53.4456C86.9912 53.3621 86.9205 53.299 86.8336 53.2744L84.3661 52.4373L80.4283 51.1017L79.5182 50.7929C79.1637 50.6727 79.0147 51.2347 79.3677 51.3545L81.8352 52.1916L85.7728 53.5272L86.683 53.836L86.5075 53.408L85.4677 54.9598C84.9169 55.8134 84.2455 56.5829 83.4744 57.2444C82.8474 57.7444 82.169 58.1761 81.4507 58.5325L79.4597 59.576L77.9523 60.3662L78.3884 60.6159L78.2215 57.6302C78.1731 56.9912 78.1721 56.3494 78.2187 55.7102C78.3193 54.6778 78.5896 53.6691 79.0188 52.7247L79.6937 51.2209C79.77 51.0817 79.7246 50.9072 79.5902 50.8229C79.4515 50.743 79.2743 50.7891 79.1923 50.9265Z" fill="black"/>
<path d="M77.992 60.5895L74.0867 67.997L77.992 60.5895Z" fill="#458DC9"/>
<path d="M77.7415 60.4423L76.4246 62.9402L74.3226 66.9272L73.8362 67.8498C73.662 68.1803 74.163 68.4756 74.3377 68.1442L75.6546 65.6463L77.7566 61.6593L78.243 60.7367C78.4172 60.4062 77.9162 60.1109 77.7415 60.4423Z" fill="black"/>
<path d="M79.101 51.8351L80.861 48.3259L101.595 53.0474L100.637 56.2254C100.395 57.031 99.8321 57.7017 99.0811 58.0809C98.3301 58.46 97.4564 58.5145 96.6641 58.2314L82.1982 53.0631" fill="white"/>
<path d="M101.314 52.9724L100.668 55.1166C100.569 55.4456 100.47 55.7745 100.371 56.1034C100.221 56.6146 99.931 57.0736 99.5337 57.4285C98.7524 58.1035 97.665 58.2982 96.6981 57.9361C96.3597 57.8159 96.0215 57.695 95.6835 57.5736L90.97 55.8896L85.3896 53.8959L83.3482 53.1665C83.0063 53.0444 82.6659 52.9067 82.3191 52.7988C82.3037 52.7941 82.2887 52.788 82.2735 52.7826C81.9211 52.6567 81.7726 53.2189 82.1231 53.3441L84.7421 54.2798L90.2846 56.26L95.2578 58.0369L96.4779 58.4728C97.3587 58.8036 98.3363 58.7606 99.1847 58.3536C99.8154 58.044 100.333 57.5436 100.663 56.9233C100.821 56.5943 100.948 56.2506 101.04 55.8972L101.816 53.3186L101.875 53.1229C101.983 52.7644 101.422 52.6143 101.314 52.9724L101.314 52.9724Z" fill="black"/>
<path d="M79.3516 51.9825L80.8944 48.9063L81.1116 48.4732L80.7856 48.6068L82.2953 48.9489L85.9024 49.7664L90.2825 50.759L94.055 51.6139C94.668 51.7528 95.2799 51.9103 95.8967 52.0314C95.9053 52.033 95.9138 52.0352 95.9223 52.0372C96.2863 52.1197 96.4386 51.5585 96.0728 51.4756L94.5632 51.1335L90.956 50.3161L86.5759 49.3234L82.8034 48.4685C82.1905 48.3296 81.5785 48.1721 80.9617 48.0511C80.9532 48.0495 80.9446 48.0473 80.9361 48.0453C80.8099 48.0133 80.6776 48.0676 80.6101 48.1789L79.0673 51.2551L78.8501 51.6882C78.6829 52.0215 79.1837 52.3172 79.3516 51.9826L79.3516 51.9825Z" fill="black"/>
<path d="M104.929 58.1113L100.53 56.5257L101.595 53.0474C101.595 53.0474 104.166 57.5954 104.929 58.1113Z" fill="black" stroke="black" stroke-width="1.3457"/>
<circle cx="78.7994" cy="63.4126" r="0.503539" transform="rotate(15 78.7994 63.4126)" fill="black" stroke="black" stroke-width="1.3457"/>
<circle cx="76.8102" cy="66.9453" r="0.503539" transform="rotate(15 76.8102 66.9453)" fill="black" stroke="black" stroke-width="1.3457"/>
<path d="M42.9623 47.1262C43.7444 47.3056 44.5399 47.4201 45.3408 47.4685C47.1868 47.6178 49.0447 47.4999 50.857 47.1184C52.125 46.8479 53.3558 46.4256 54.5227 45.8605C54.8598 45.6969 54.5672 45.1943 54.232 45.357C52.3116 46.2676 50.232 46.795 48.1098 46.9098C47.2718 46.9616 46.4313 46.9601 45.5934 46.9054C45.0205 46.8706 44.4496 46.8069 43.8831 46.7147C43.6254 46.6725 43.3663 46.6278 43.1127 46.5646C42.7501 46.4743 42.5985 47.0355 42.9623 47.1262L42.9623 47.1262Z" fill="black"/>
<path d="M64.5826 67.0051L63.9236 69.5147L62.8676 73.5356L62.6259 74.4559C62.5309 74.8176 63.0922 74.9689 63.1874 74.6064L63.8465 72.0968L64.9024 68.0759L65.1442 67.1556C65.2392 66.7938 64.6778 66.6426 64.5826 67.0051Z" fill="black"/>
<path d="M117.185 42.7165C117.116 42.1382 117.14 41.5525 117.256 40.9817C117.476 39.8259 118.082 38.7727 119.126 38.1803C119.458 37.9943 119.814 37.8532 120.184 37.7606C120.394 37.7068 120.606 37.6653 120.82 37.6362C120.933 37.6208 121.046 37.6089 121.159 37.5996C121.264 37.591 121.374 37.6078 121.444 37.5164C121.568 37.3527 121.648 37.1402 121.761 36.9663C121.87 36.7994 121.987 36.6385 122.113 36.4844C122.356 36.1876 122.63 35.9168 122.929 35.6765C124.002 34.816 125.452 34.3791 126.818 34.6288C128.152 34.8573 129.254 35.7994 129.686 37.0823C129.745 37.2608 129.794 37.4426 129.832 37.6268C129.854 37.7035 129.933 37.7487 130.011 37.7287C131.462 37.3713 133.031 37.4184 134.307 38.2687C135.33 38.9503 136.015 40.0479 136.337 41.2206C136.509 41.8455 136.577 42.4946 136.538 43.1417C136.54 43.2214 136.605 43.2853 136.685 43.286C137.719 43.3263 138.842 43.601 139.44 44.5228C139.938 45.292 139.987 46.2647 139.942 47.1535C139.913 47.7071 139.841 48.257 139.757 48.8047L139.935 48.7019C138.667 48.2959 137.379 47.9502 136.096 47.597C134.135 47.0571 132.169 46.5313 130.203 46.0091C126.596 45.0509 122.985 44.1047 119.371 43.1705C118.607 42.9723 117.842 42.7745 117.078 42.5772C117.001 42.5598 116.925 42.6058 116.905 42.6814C116.885 42.7569 116.928 42.835 117.002 42.858C119.16 43.4138 121.316 43.9737 123.471 44.5376C127.449 45.5767 131.425 46.6204 135.391 47.7051C136.884 48.1135 138.385 48.5104 139.86 48.9827C139.938 49.0032 140.017 48.9573 140.038 48.8799C140.313 47.0694 140.632 44.5129 138.706 43.4707C138.088 43.1362 137.378 43.0223 136.683 42.9953L136.829 43.1396C136.904 41.8822 136.59 40.6323 135.931 39.5591C135.225 38.3992 134.066 37.5871 132.735 37.3189C131.803 37.1592 130.847 37.2033 129.934 37.4482L130.113 37.5501C129.802 36.0662 128.776 34.8694 127.306 34.445C125.87 34.0306 124.279 34.377 123.062 35.2177C122.272 35.7703 121.63 36.5093 121.193 37.3693L121.317 37.2975C119.848 37.3911 118.424 37.9511 117.612 39.2361C117.082 40.0752 116.867 41.0913 116.862 42.0747C116.858 42.2899 116.869 42.5051 116.895 42.7186C116.92 42.9011 117.211 42.9018 117.185 42.7165Z" fill="black"/>
<path d="M75.4055 20.1L60.0483 15.9851C59.8457 15.9115 59.637 15.8555 59.4247 15.818C59.415 15.8162 59.4054 15.8137 59.3961 15.8103L59.5039 15.9496C59.5076 15.9139 59.4968 15.9746 59.5028 15.9573C59.5086 15.9322 59.5126 15.9067 59.5147 15.881C59.5306 15.7887 59.5513 15.6971 59.5749 15.6064C59.6523 15.3086 59.765 15.0211 59.9107 14.7501C60.3801 13.8848 61.1875 13.2531 62.1403 13.0057C62.9996 12.7729 63.9119 12.804 64.784 12.9433C64.847 12.9577 64.9122 12.931 64.947 12.8765C65.614 11.884 66.6757 11.1721 67.8952 11.1489C68.9907 11.1309 70.0213 11.6672 70.6353 12.5747C71.022 13.1716 71.2424 13.8611 71.2735 14.5717C71.2749 14.6165 71.2964 14.6582 71.3321 14.6853C71.3678 14.7123 71.4138 14.7217 71.4573 14.7109C72.2441 14.5623 73.0691 14.7149 73.5418 15.4133C73.8468 15.8571 73.9863 16.3939 73.936 16.9301C73.9167 17.0074 73.9622 17.0861 74.0388 17.1081C74.6631 17.2142 75.1576 17.6939 75.2825 18.3148C75.3921 18.8244 75.3974 19.3509 75.2979 19.8626C75.2786 19.9765 75.2573 20.091 75.2276 20.2028C75.2102 20.279 75.2562 20.3554 75.3317 20.3756C75.4073 20.3959 75.4853 20.3527 75.5084 20.278C75.7494 19.3727 75.7885 18.1628 75.1571 17.4065C74.8867 17.0988 74.5182 16.8941 74.1141 16.8274L74.2168 17.0054C74.29 16.3705 74.125 15.7311 73.7536 15.211C73.1935 14.4384 72.2801 14.2605 71.3805 14.4304L71.5643 14.5696C71.4854 13.2738 70.8929 12.0249 69.7502 11.3468C68.7175 10.7485 67.4552 10.7016 66.381 11.2216C65.6948 11.5646 65.1131 12.0853 64.6963 12.7293L64.8593 12.6625C63.4546 12.438 61.8927 12.4852 60.7113 13.3742C60.0422 13.889 59.5564 14.6054 59.3256 15.4176C59.272 15.5918 59.2344 15.7706 59.2131 15.9517C59.2138 16.017 59.2579 16.0739 59.3209 16.091L74.6781 20.206C74.8844 20.2612 75.0922 20.3311 75.3017 20.3731C75.3113 20.375 75.3208 20.3782 75.3303 20.3807C75.4064 20.3977 75.4823 20.3517 75.5025 20.2764C75.5226 20.2011 75.4799 20.1233 75.4055 20.1Z" fill="black"/>
<path d="M18.1837 93.6746L5.36909 90.241C5.19858 90.1769 5.02221 90.1296 4.8425 90.0999C4.83458 90.0986 4.8268 90.0965 4.81929 90.0936L4.92206 90.2716C5.05885 89.8134 5.27966 89.3847 5.5732 89.0072C6.1916 88.1712 7.13638 87.6376 8.17166 87.5397C9.10793 87.4502 10.042 87.6607 10.918 87.9785C10.9812 87.9949 11.0476 87.9677 11.081 87.9117C11.6855 86.9548 12.68 86.2769 13.8412 86.3214C14.8785 86.3781 15.8152 86.96 16.3257 87.8647C16.6578 88.4678 16.8199 89.1498 16.7946 89.8378C16.7957 89.8826 16.8172 89.9245 16.853 89.9516C16.8887 89.9787 16.9349 89.988 16.9783 89.9769C17.6642 89.8499 18.0564 90.6833 18.2067 91.2141C18.4537 92.0512 18.3876 92.9495 18.0207 93.7414C17.9379 93.9083 18.1882 94.0563 18.2714 93.8886C18.697 92.9859 18.7599 91.9544 18.4473 91.0068C18.2271 90.3323 17.7179 89.5452 16.9015 89.6965L17.0853 89.8357C17.1083 88.5762 16.6064 87.3306 15.5492 86.6002C14.6235 85.9628 13.4316 85.8567 12.408 86.3207C11.7533 86.639 11.2052 87.1406 10.8302 87.7645L10.9932 87.6977C9.59657 87.191 7.98106 86.97 6.62278 87.7087C5.84206 88.1512 5.22238 88.8307 4.85345 89.6487C4.7672 89.8249 4.69622 90.0081 4.64126 90.1964C4.62169 90.2737 4.66724 90.3526 4.74403 90.3744L17.5586 93.808C17.7325 93.8546 17.9083 93.9152 18.0852 93.9491C18.093 93.9506 18.1007 93.9533 18.1084 93.9554C18.1846 93.9726 18.2607 93.9266 18.2809 93.8511C18.3011 93.7757 18.2582 93.6978 18.1837 93.6746Z" fill="black"/>
<path d="M36.3155 23.9649L37.8969 25.8467L38.1208 26.1131C38.2343 26.2259 38.4173 26.2268 38.532 26.1153C38.643 26.0011 38.6439 25.8196 38.5342 25.7041L36.9528 23.8224L36.7288 23.556C36.6153 23.4432 36.4324 23.4422 36.3177 23.5538C36.2067 23.668 36.2057 23.8495 36.3155 23.9649L36.3155 23.9649Z" fill="black"/>
<path d="M39.8049 21.8551L40.0046 24.1183L40.0333 24.4442C40.0385 24.6031 40.1672 24.73 40.3261 24.7329C40.4862 24.7304 40.6147 24.6001 40.6148 24.44L40.4152 22.1768L40.3864 21.8509C40.3813 21.6921 40.2525 21.5651 40.0936 21.5622C39.9336 21.5647 39.8051 21.695 39.8049 21.8551L39.8049 21.8551Z" fill="black"/>
<path d="M34.6692 28.3947L36.762 28.3616L37.0613 28.3568C37.4348 28.3509 37.4325 27.7694 37.0571 27.7754L34.9643 27.8084L34.665 27.8132C34.2915 27.8191 34.2938 28.4006 34.6692 28.3947Z" fill="black"/>
<path d="M53.0523 96.8888L54.6412 97.8941L58.9282 100.606L65.2836 104.628L73.0378 109.534L81.5312 114.907L90.1039 120.331L98.0722 125.373L104.849 129.661L109.691 132.724C110.459 133.21 111.218 133.715 111.997 134.183C112.03 134.203 112.062 134.224 112.094 134.244C112.411 134.445 112.704 133.942 112.388 133.743L110.799 132.738L106.512 130.025L100.157 126.004L92.4029 121.098L83.9096 115.724L75.3368 110.3L67.3685 105.259L60.5912 100.971L55.7497 97.9077C54.9816 97.4218 54.2222 96.917 53.4433 96.4485C53.4107 96.4288 53.3789 96.4077 53.3467 96.3874C53.0298 96.1869 52.7367 96.6891 53.0523 96.8888L53.0523 96.8888Z" fill="black"/>
<path d="M95.9223 116.624L97.4904 117.62L101.255 120.011L105.808 122.902L109.73 125.392C110.364 125.795 110.987 126.231 111.639 126.605C111.649 126.61 111.658 126.616 111.667 126.622C111.983 126.823 112.276 126.321 111.961 126.121L110.393 125.125L106.628 122.734L102.075 119.843L98.1537 117.353C97.5197 116.95 96.8965 116.513 96.2444 116.14C96.2349 116.135 96.2259 116.129 96.2166 116.123C95.9001 115.922 95.607 116.424 95.9223 116.624L95.9223 116.624Z" fill="black"/>
<path d="M88.8671 41.6636C88.8671 41.6636 86.8058 48.2334 82.1262 46.9795C77.1842 45.9562 79.4945 39.9547 79.4945 39.9547C79.4945 39.9547 79.6181 40.991 81.5786 40.4129C83.7195 40.2844 84.6402 42.8382 85.414 42.9452C86.0888 43.0787 86.7267 42.5983 87.2122 42.054C87.7257 41.471 88.1044 40.7818 88.3213 40.0357L89.1282 37.3199" fill="black"/>
<path d="M88.586 41.5882C88.521 41.7947 88.4416 41.9974 88.3602 42.1978C88.3509 42.2208 88.3414 42.2438 88.332 42.2667C88.3038 42.3354 88.3543 42.2147 88.3243 42.2849C88.3011 42.3393 88.2779 42.3937 88.2542 42.4478C88.2032 42.564 88.1504 42.6795 88.0959 42.7942C87.9701 43.0593 87.835 43.3197 87.6908 43.5755C87.0169 44.7673 86.1274 45.8997 84.8684 46.495C84.2013 46.8059 83.4578 46.9152 82.7294 46.8093C81.9381 46.6922 81.079 46.4356 80.4757 45.9442C79.9749 45.5344 79.6124 44.9803 79.4374 44.3573C79.2685 43.7584 79.2074 43.1343 79.257 42.5141C79.2657 42.3591 79.279 42.2046 79.2967 42.0504C79.3094 41.9397 79.3216 41.8494 79.3479 41.6896C79.3897 41.4355 79.4416 41.1833 79.5035 40.9331C79.5754 40.6409 79.6797 40.36 79.7597 40.071C79.7635 40.0572 79.7697 40.0434 79.7749 40.0299L79.2034 39.9567C79.3108 40.8023 80.3041 40.9401 80.9893 40.8413C81.1798 40.8128 81.3685 40.7729 81.5542 40.7218C81.7132 40.6888 81.8771 40.6874 82.0365 40.7178C82.3281 40.7622 82.6084 40.8619 82.8626 41.0115C83.3343 41.3113 83.7522 41.6886 84.0985 42.1274C84.3873 42.4631 84.6619 42.8606 85.0405 43.1031C85.5685 43.4414 86.2881 43.1946 86.7528 42.862C87.7974 42.1144 88.3518 40.9516 88.7074 39.7549L89.4086 37.395C89.5152 37.0362 88.9536 36.8859 88.847 37.2446L88.2661 39.1999C88.1913 39.4517 88.1174 39.7038 88.0416 39.9553C87.8281 40.6892 87.4489 41.3642 86.9334 41.9284C86.5519 42.3371 86.0148 42.7908 85.4147 42.647C85.3515 42.6319 85.4588 42.6699 85.4209 42.6503C85.405 42.6421 85.3883 42.635 85.3733 42.6253C85.3441 42.6063 85.3146 42.5884 85.2862 42.568C85.2704 42.553 85.2537 42.5387 85.2365 42.5253C85.1975 42.4908 85.1602 42.4545 85.1235 42.4176C84.9687 42.2613 84.8281 42.0912 84.6861 41.9235C83.9543 41.0587 83.1172 40.2152 81.9218 40.1246C81.5023 40.0929 81.1237 40.2627 80.7088 40.2913C80.5774 40.3022 80.4453 40.2997 80.3144 40.2841C80.2552 40.2748 80.1968 40.2612 80.1397 40.2434C80.1209 40.2376 80.1022 40.2313 80.0836 40.2246C80.0148 40.1996 80.1108 40.2406 80.0547 40.2115C80.0113 40.1893 79.9694 40.1643 79.9293 40.1367C79.9853 40.1756 79.9086 40.1177 79.8914 40.1006C79.88 40.0892 79.8699 40.0765 79.8584 40.0653C79.8125 40.0207 79.8707 40.0861 79.8587 40.0682C79.8423 40.0437 79.8271 40.0191 79.8119 39.9939C79.7889 39.9557 79.786 39.9252 79.8064 39.9899C79.8004 39.9707 79.7937 39.9501 79.7864 39.9313C79.7742 39.9 79.7665 39.8081 79.7848 39.9526C79.7787 39.8104 79.671 39.6933 79.5299 39.6753C79.3887 39.6572 79.255 39.7434 79.2133 39.8795C78.9456 40.6103 78.7748 41.373 78.705 42.1481C78.5655 43.5042 78.7632 44.9839 79.716 46.026C80.294 46.6583 81.0959 47.0414 81.9214 47.2319C82.789 47.432 83.638 47.512 84.5045 47.2526C85.9789 46.8113 87.0924 45.6278 87.8963 44.3634C88.2216 43.8487 88.5074 43.3101 88.7512 42.7521C88.899 42.4377 89.0265 42.1141 89.1329 41.7833C89.1373 41.7683 89.1428 41.7536 89.1475 41.7387C89.2598 41.3815 88.698 41.2318 88.5859 41.5882L88.586 41.5882Z" fill="black"/>
<path d="M81.7458 42.3531C82.0717 42.5196 82.4505 42.5497 82.7987 42.4368C82.9652 42.376 83.1147 42.276 83.2344 42.1452C83.3486 42.0323 83.3496 41.8482 83.2367 41.7341C83.1237 41.6199 82.9397 41.619 82.8255 41.7319C82.8067 41.7529 82.7874 41.7733 82.7667 41.7926C82.7552 41.8033 82.7433 41.8134 82.7313 41.8238C82.6877 41.8618 82.7787 41.7914 82.7438 41.8146C82.7227 41.8286 82.702 41.8428 82.6801 41.8554C82.6653 41.8638 82.612 41.8795 82.604 41.8934C82.6032 41.8948 82.6678 41.8687 82.6452 41.8759C82.6396 41.8777 82.6341 41.8802 82.6286 41.8822C82.6176 41.8861 82.6065 41.8898 82.5954 41.8933C82.57 41.9013 82.5441 41.908 82.518 41.9135C82.5069 41.9158 82.4959 41.9176 82.4849 41.9198C82.4416 41.9284 82.5592 41.9114 82.5156 41.9158C82.4903 41.9183 82.4651 41.9207 82.4397 41.9218C82.3962 41.9234 82.3527 41.9224 82.3094 41.9189C82.2977 41.9179 82.2862 41.9164 82.2745 41.9155C82.2316 41.9122 82.355 41.9274 82.3132 41.9205C82.2932 41.9172 82.2731 41.9142 82.2532 41.9104C82.1876 41.8978 82.123 41.8803 82.0599 41.8582C82.0471 41.8538 82.0344 41.8491 82.0217 41.8442C82.0169 41.8423 82.012 41.8403 82.0071 41.8384C82.0255 41.8472 82.0443 41.8551 82.0634 41.862C82.0558 41.8581 82.0477 41.8552 82.04 41.8515C81.9716 41.814 81.8918 41.8034 81.816 41.8219C81.7032 41.8527 81.6198 41.9481 81.6044 42.0641C81.5891 42.18 81.6447 42.2939 81.7456 42.3531L81.7458 42.3531Z" fill="white"/>
<path d="M91.8252 48.6389C90.6469 48.6181 89.4785 48.4188 88.36 48.0478C88.3513 48.0447 88.7673 48.1951 88.7649 48.1862L88.36 48.0478C87.6077 45.2896 87.8915 42.5359 88.4105 39.7245L88.8859 37.1498L80.9477 33.6622C80.5005 33.4599 80.5132 32.8605 80.9674 32.7311L81.6377 32.7045C82.358 32.4994 82.4995 31.8136 82.9314 31.2456C85.7194 27.579 88.5002 27.5826 91.3515 28.8652C91.3515 28.8652 96.838 31.4179 96.5978 35.1424C96.4533 37.3828 94.8539 41.5445 93.6022 44.5053C93.3216 45.1957 93.2559 45.9547 93.4138 46.683C93.5131 47.1614 93.392 47.659 93.0839 48.0382C92.7759 48.4174 92.3137 48.638 91.8252 48.6389Z" fill="#EA2F2F"/>
<path d="M91.8231 48.3484C90.6698 48.3393 89.5256 48.1431 88.4352 47.7673C88.08 47.6435 87.9373 48.2008 88.2847 48.3288C88.4353 48.4065 88.5986 48.4568 88.7669 48.4772C88.9095 48.4717 89.0272 48.364 89.0454 48.2224C89.0635 48.0809 88.9767 47.947 88.8401 47.9057L88.4352 47.7673L88.6403 47.9713C88.1229 46.0547 88.1081 44.0637 88.3346 42.102C88.4765 40.873 88.7174 39.6582 88.9419 38.4425L89.1666 37.2254C89.1984 37.0992 89.1443 36.967 89.033 36.8994L86.9653 35.9909L83.1334 34.3074C82.4501 34.0071 81.7419 33.7367 81.0746 33.4016C80.9482 33.3382 80.8761 33.2078 80.9222 33.1111C80.9338 33.0867 81.0224 33.0032 80.9719 33.022C81.025 33.0128 81.079 33.0106 81.1327 33.0156C81.2891 33.0094 81.4463 33.0072 81.6026 32.997C81.8179 32.972 82.0218 32.8871 82.1912 32.7519C82.6132 32.4391 82.8036 31.945 83.0894 31.5226C83.4225 31.0486 83.8009 30.6081 84.2191 30.2072C84.854 29.5488 85.6209 29.0321 86.4695 28.691C87.1908 28.4259 87.9628 28.3278 88.7274 28.4041C89.7781 28.5246 90.7937 28.8561 91.7131 29.3787C92.8104 29.9595 93.8153 30.7001 94.695 31.5762C95.2205 32.095 95.6519 32.701 95.9701 33.3673C96.2665 34.0306 96.3723 34.7632 96.2759 35.4832C96.1436 36.4217 95.928 37.3466 95.6316 38.2469C95.294 39.3598 94.9017 40.456 94.4868 41.5421C94.2774 42.0901 94.062 42.6357 93.8405 43.179C93.6307 43.6948 93.3739 44.2078 93.2081 44.7394C93.0351 45.3253 92.9969 45.9427 93.0963 46.5454C93.1489 46.7733 93.1622 47.0086 93.1359 47.241C93.0979 47.4523 93.0117 47.6519 92.8839 47.8243C92.6319 48.1556 92.2392 48.3496 91.823 48.3484C91.4494 48.3524 91.4519 48.9339 91.8272 48.9299C92.3407 48.9233 92.8304 48.7128 93.1885 48.3447C93.5466 47.9767 93.7435 47.4813 93.7359 46.9679C93.7296 46.696 93.6536 46.4308 93.6336 46.1597C93.6084 45.8588 93.6229 45.5558 93.677 45.2586C93.7892 44.6773 94.073 44.1327 94.2965 43.588C95.1855 41.4204 96.0555 39.207 96.5957 36.9225C96.7957 36.0765 96.9751 35.1877 96.8504 34.3176C96.7236 33.5457 96.4172 32.8144 95.9559 32.1826C95.1087 30.9775 93.9202 30.0328 92.6748 29.2653C91.8428 28.7376 90.94 28.331 89.9936 28.0575C89.2029 27.8254 88.3745 27.75 87.5549 27.8358C86.6799 27.9459 85.8418 28.2551 85.105 28.7397C84.175 29.3738 83.3613 30.1633 82.6995 31.0738C82.5436 31.2926 82.4006 31.5203 82.2713 31.7558C82.1645 31.9701 82.0109 32.1576 81.8219 32.3044C81.7088 32.3931 81.5663 32.4353 81.4232 32.4225C81.2743 32.4284 81.1236 32.428 80.9749 32.4402C80.469 32.4819 80.2088 33.0576 80.3964 33.494C80.4884 33.6964 80.6545 33.8559 80.8605 33.9396C81.1778 34.0813 81.4967 34.2191 81.8149 34.3589L85.6028 36.0231L88.5791 37.3308L88.7387 37.4009L88.6051 37.0749C88.4478 37.9268 88.2905 38.7788 88.1332 39.6307C87.7574 41.6689 87.4812 43.7526 87.6717 45.8269C87.7261 46.4339 87.821 47.0365 87.9557 47.6309C87.991 47.785 88.0236 47.943 88.0712 48.094C88.103 48.2132 88.1957 48.3065 88.3147 48.3391C88.4388 48.3842 88.5647 48.4246 88.6896 48.4673L88.7627 47.8958C88.8466 47.8924 88.8234 47.9029 88.7571 47.8809C88.7109 47.8655 88.665 47.8492 88.6191 47.833C88.5577 47.8114 88.4963 47.7898 88.4352 47.7673L88.2847 48.3289C89.4254 48.7192 90.6217 48.9222 91.8272 48.9299C92.2011 48.9329 92.1981 48.3514 91.8231 48.3484Z" fill="black"/>
<path d="M87.2263 31.3323C86.79 30.1328 85.2677 30.1579 85.2677 30.1579L84.5065 30.1705L84.0735 31.7865C84.0735 31.7865 85.8553 32.0049 86.5372 33.0962C87.2968 33.4932 87.5146 32.1247 87.2263 31.3323Z" fill="white"/>
<path d="M87.5065 31.2559C87.1411 30.2881 86.1392 29.8531 85.1567 29.8693L84.5041 29.8801C84.374 29.8831 84.2611 29.9704 84.2255 30.0956L83.7924 31.7116C83.7711 31.7991 83.7907 31.8915 83.8457 31.9627C83.9008 32.0339 83.9853 32.0762 84.0753 32.0776C83.9317 32.0597 84.013 32.069 84.0466 32.0745C84.0917 32.082 84.1368 32.0893 84.1818 32.0977C84.324 32.1245 84.4651 32.1577 84.6046 32.1961C85.0056 32.2977 85.3868 32.4655 85.7326 32.6925C85.9097 32.8088 86.0674 32.9522 86.2001 33.1174C86.2657 33.2323 86.3627 33.3261 86.4797 33.3879C86.5773 33.4323 86.6829 33.4562 86.7901 33.4579C87.2207 33.4534 87.4694 33.0696 87.5671 32.6928C87.686 32.218 87.665 31.7189 87.5065 31.2558C87.4608 31.1035 87.3037 31.0139 87.1494 31.0521C86.9954 31.0957 86.9048 31.2546 86.9457 31.4093C87.0701 31.7638 87.0933 32.146 87.0128 32.513C87.0025 32.5561 86.9905 32.5988 86.9764 32.6408C86.9704 32.6587 86.9641 32.6765 86.9573 32.6941C86.9445 32.7267 86.9755 32.6606 86.9494 32.7094C86.9314 32.7432 86.9127 32.776 86.8924 32.8086C86.8702 32.8442 86.9374 32.7636 86.888 32.8151C86.8776 32.826 86.8663 32.8367 86.8564 32.848C86.8115 32.8992 86.8855 32.8286 86.8558 32.851C86.8412 32.8611 86.8258 32.8701 86.8098 32.8778C86.8659 32.8479 86.7695 32.8874 86.8194 32.8751C86.8045 32.8775 86.7894 32.8778 86.7744 32.876C86.7418 32.8739 86.8233 32.8909 86.7684 32.875C86.7517 32.8702 86.7348 32.8662 86.7182 32.8611C86.6388 32.8363 86.7652 32.8862 86.6841 32.8457L86.7887 32.9511C86.2192 32.0607 85.0847 31.6221 84.0712 31.496L84.354 31.862L84.787 30.2461L84.5083 30.4616C84.8482 30.4425 85.189 30.4438 85.5288 30.4655C85.5762 30.4704 85.4716 30.4553 85.5571 30.4696C85.5883 30.4749 85.6195 30.4797 85.6506 30.4854C85.7197 30.4983 85.7883 30.5137 85.8562 30.5316C85.9974 30.5663 86.1341 30.6171 86.2638 30.6829C86.5752 30.8295 86.8191 31.0894 86.9457 31.4095C86.9918 31.5615 87.1486 31.6509 87.3029 31.6131C87.4569 31.5697 87.5476 31.4106 87.5065 31.2559Z" fill="black"/>
<circle cx="92.7957" cy="40.9401" r="2.39381" transform="rotate(15 92.7957 40.9401)" fill="#EA2F2F"/>
<path d="M94.8275 41.4848C94.5975 42.3409 93.8553 42.9609 92.9719 43.0348C92.0885 43.1087 91.2536 42.6206 90.8846 41.8146C90.5156 41.0085 90.6917 40.0576 91.3249 39.4372C91.9581 38.8167 92.9124 38.66 93.7108 39.0454C94.6149 39.4904 95.0815 40.5097 94.8275 41.4848C94.7345 41.8469 95.2958 41.9983 95.3891 41.6352C95.6829 40.5398 95.2566 39.3779 94.3242 38.7323C93.3917 38.0867 92.1542 38.0967 91.2322 38.7573C90.3103 39.4178 89.9029 40.5864 90.2143 41.6769C90.5257 42.7675 91.4888 43.5447 92.6205 43.6188C93.8943 43.6884 95.0453 42.8637 95.3891 41.6353C95.4897 41.2748 94.9283 41.124 94.8275 41.4848Z" fill="black"/>
<circle cx="93.4386" cy="41.3606" r="1.3792" transform="rotate(15 93.4386 41.3606)" fill="#EA2F2F"/>
<path d="M94.4902 41.6421C94.3713 42.0834 93.9892 42.4034 93.5338 42.443C93.0784 42.4826 92.6468 42.2334 92.4535 41.8192C92.2601 41.4049 92.3463 40.9141 92.6691 40.5904C92.9919 40.2668 93.4825 40.1794 93.8972 40.3717C94.3747 40.5975 94.6237 41.1311 94.4902 41.6421C94.3984 42.0044 94.9597 42.1559 95.0518 41.7925C95.2254 41.1152 94.9653 40.4008 94.3969 39.9937C93.8188 39.5891 93.0489 39.5914 92.4733 39.9995C91.8977 40.4076 91.6406 41.1334 91.8311 41.8128C92.0354 42.5361 92.6976 43.0339 93.4492 43.0292C94.2008 43.0244 94.8566 42.5183 95.0518 41.7925C95.1536 41.4324 94.5921 41.2817 94.4902 41.6421Z" fill="black"/>
<path d="M89.5484 31.5532L97.274 36.3826C97.6367 36.6446 97.7678 37.1239 97.589 37.534C97.3949 38.0177 96.8862 38.2576 96.4528 38.0698L88.0919 34.1607" fill="white"/>
<path d="M89.4013 31.8041L92.2975 33.6145L96.5434 36.2687C96.9081 36.4967 97.4116 36.6895 97.3716 37.2072C97.3644 37.2759 97.3494 37.3435 97.327 37.4089C97.2792 37.5622 97.3471 37.3774 97.3067 37.4574C97.2886 37.4952 97.2679 37.5318 97.2449 37.5669C97.1732 37.675 97.0705 37.7589 96.9503 37.8077C96.8283 37.8539 96.6935 37.8535 96.5718 37.8065C96.593 37.8139 96.6106 37.8231 96.5835 37.8114C96.4612 37.7587 96.3417 37.6983 96.221 37.6419L91.932 35.6367C90.7219 35.0709 89.5146 34.4984 88.3014 33.9392C88.2806 33.9296 88.2599 33.9198 88.2391 33.9101C88.1 33.8334 87.9253 33.8789 87.8412 34.0137C87.7613 34.1523 87.8074 34.3295 87.9448 34.4116L91.1718 35.9204L95.7769 38.0735C95.9345 38.1471 96.0917 38.2216 96.2497 38.2945C96.6083 38.4775 97.0372 38.4558 97.3755 38.2375C97.6775 38.0328 97.88 37.7112 97.9341 37.3504C97.9882 36.9896 97.8888 36.6227 97.6601 36.3385C97.5378 36.2114 97.3968 36.104 97.2418 36.0198L93.3451 33.584L89.7576 31.3414L89.6957 31.3027C89.3777 31.1039 89.0845 31.6061 89.4013 31.8041L89.4013 31.8041Z" fill="black"/>
<circle cx="88.6781" cy="32.5904" r="2.24541" transform="rotate(15 88.6781 32.5904)" fill="#458DC9"/>
<path d="M90.5662 33.0961C90.3524 33.8916 89.6628 34.4677 88.8419 34.5365C88.0211 34.6053 87.2451 34.1521 86.9019 33.4033C86.5587 32.6544 86.7218 31.7708 87.3097 31.1938C87.8977 30.6168 88.7843 30.4705 89.5265 30.8278C90.3677 31.2411 90.8022 32.189 90.5662 33.0961C90.4734 33.4583 91.0347 33.6097 91.1278 33.2465C91.4054 32.2117 91.0029 31.1139 90.122 30.5039C89.2411 29.8938 88.0719 29.9031 87.2008 30.527C86.3297 31.151 85.9447 32.255 86.2387 33.2853C86.5328 34.3157 87.4425 35.0501 88.5117 35.1203C89.7151 35.1861 90.8027 34.4071 91.1278 33.2465C91.2286 32.8862 90.6671 32.7354 90.5662 33.0961Z" fill="black"/>
<path d="M90.5662 33.0961C90.3524 33.8916 89.6628 34.4677 88.8419 34.5365C88.0211 34.6053 87.2451 34.1521 86.9019 33.4033C86.5587 32.6544 86.7218 31.7708 87.3097 31.1938C87.8977 30.6168 88.7843 30.4705 89.5265 30.8278C90.3677 31.2411 90.8022 32.189 90.5662 33.0961C90.4734 33.4583 91.0347 33.6097 91.1278 33.2465C91.4054 32.2117 91.0029 31.1139 90.122 30.5039C89.2411 29.8938 88.0719 29.9031 87.2008 30.527C86.3297 31.151 85.9447 32.255 86.2387 33.2853C86.5328 34.3157 87.4425 35.0501 88.5117 35.1203C89.7151 35.1861 90.8027 34.4071 91.1278 33.2465C91.2286 32.8862 90.6671 32.7354 90.5662 33.0961Z" fill="black"/>
<circle cx="83.1792" cy="29.8608" r="2.19313" transform="rotate(15 83.1792 29.8608)" fill="#458DC9"/>
<circle cx="82.6542" cy="29.3952" r="0.577858" transform="rotate(15 82.6542 29.3952)" fill="white"/>
<circle cx="87.9858" cy="32.1228" r="0.577858" transform="rotate(15 87.9858 32.1228)" fill="white"/>
<path d="M85.0166 30.3531C84.8083 31.1284 84.1358 31.6894 83.3357 31.7553C82.5357 31.8212 81.7803 31.3778 81.448 30.647C81.1156 29.9163 81.2778 29.0556 81.8533 28.4959C82.4287 27.9362 83.2936 27.798 84.0149 28.1505C84.8277 28.5553 85.2458 29.4743 85.0166 30.3531C84.9239 30.7153 85.4853 30.8667 85.5782 30.5036C85.8503 29.489 85.455 28.413 84.5907 27.816C83.7265 27.219 82.5801 27.2302 81.7276 27.8438C80.8751 28.4575 80.5007 29.541 80.7925 30.55C81.0843 31.5591 81.9792 32.2755 83.0277 32.3395C84.2022 32.3979 85.2608 31.6359 85.5782 30.5036C85.6791 30.1432 85.1176 29.9925 85.0166 30.3531Z" fill="black"/>
<path d="M93.3344 45.7408C93.3344 45.7408 92.7386 45.9085 91.4995 45.6848L93.3344 45.7408Z" fill="white"/>
<path d="M93.2575 45.46C93.2212 45.4695 93.1843 45.4769 93.1472 45.4824C93.0983 45.4904 93.0917 45.4886 93.1517 45.4824C93.1267 45.485 93.1018 45.4885 93.0769 45.4911C93.0112 45.4979 92.9453 45.5026 92.8794 45.5056C92.6949 45.5133 92.51 45.5108 92.3257 45.4981C92.0736 45.4826 91.8228 45.4511 91.5747 45.4036C91.4744 45.3768 91.3673 45.4054 91.2939 45.4789C91.2205 45.5523 91.1918 45.6593 91.2187 45.7597C91.2455 45.86 91.3239 45.9383 91.4242 45.9652C91.9047 46.0597 92.3941 46.1006 92.8836 46.0871C93.0614 46.0846 93.2383 46.0624 93.4111 46.0209C93.566 45.9785 93.6572 45.8186 93.6148 45.6637C93.5724 45.5088 93.4125 45.4177 93.2576 45.4601L93.2575 45.46Z" fill="black"/>
<path d="M86.8257 36.2451L90.4816 37.8834L86.8257 36.2451Z" fill="#EA2F2F"/>
<path d="M86.6786 36.4956L89.8756 37.9283L90.3345 38.1339C90.4736 38.2102 90.6481 38.1647 90.7324 38.0303C90.8124 37.8916 90.7663 37.7144 90.6288 37.6324L87.4318 36.1997L86.973 35.9941C86.8338 35.9178 86.6593 35.9632 86.575 36.0977C86.495 36.2363 86.5411 36.4135 86.6786 36.4956L86.6786 36.4956Z" fill="black"/>
<path d="M85.0777 37.9071C85.0824 37.9062 85.087 37.9054 85.0917 37.9046C85.149 37.8947 85.0137 37.9127 85.062 37.9086C85.1107 37.9044 85.159 37.8988 85.2078 37.8967C85.28 37.8935 85.3524 37.894 85.4245 37.8979C85.4658 37.9001 85.5069 37.9042 85.5481 37.9078C85.6271 37.9149 85.4864 37.8964 85.5674 37.9104C85.5926 37.9147 85.6179 37.9184 85.643 37.9232C85.7432 37.9417 85.842 37.9672 85.9388 37.9994C86.0434 38.0328 86.1439 38.0782 86.2381 38.1347C86.4765 38.2739 86.6838 38.4606 86.8472 38.6831C86.9605 38.7964 87.1439 38.7974 87.2584 38.6853C87.3686 38.5708 87.3696 38.3899 87.2606 38.2742C86.7124 37.5578 85.8144 37.2012 84.9241 37.3463C84.7702 37.3899 84.6796 37.5488 84.7204 37.7035C84.7656 37.8562 84.9232 37.946 85.0776 37.9071L85.0777 37.9071Z" fill="black"/>
<path d="M81.3864 36.3197C82.1439 36.2922 83.1791 36.754 83.0541 37.6592C82.9963 38.0778 82.6575 38.4341 82.3497 38.6968C82.129 38.8802 81.8877 39.0374 81.6308 39.1653C81.4904 39.2374 81.3474 39.2796 81.2597 39.4189C81.2057 39.504 81.167 39.598 81.1454 39.6965C81.0269 40.2669 81.6343 40.5296 82.0772 40.6557C82.4372 40.7582 82.5878 40.1967 82.2276 40.0942C82.0417 40.0556 81.8675 39.9736 81.7193 39.8548C81.7136 39.8499 81.71 39.843 81.7093 39.8355C81.7228 39.78 81.7473 39.7277 81.7814 39.6819L81.676 39.7864C82.4418 39.4379 83.2847 38.8472 83.5655 38.0104C83.6961 37.5981 83.6563 37.1507 83.4552 36.7678C83.2361 36.343 82.85 36.1005 82.4153 35.9361C82.087 35.804 81.7361 35.7368 81.3822 35.7383C81.0094 35.7518 81.011 36.3334 81.3863 36.3198L81.3864 36.3197Z" fill="black"/>
<circle cx="81.7055" cy="37.7185" r="0.399686" transform="rotate(15 81.7055 37.7185)" fill="black"/>
<path d="M81.9489 37.7986C81.9417 37.8156 81.9335 37.8321 81.9243 37.848C81.9188 37.8574 81.9126 37.8663 81.9067 37.8754C81.8913 37.899 81.9095 37.8736 81.9103 37.8712C81.9008 37.8863 81.8884 37.8993 81.8739 37.9096C81.8665 37.9171 81.8585 37.924 81.8498 37.93C81.8697 37.9181 81.8594 37.9226 81.8452 37.9315C81.8355 37.9376 81.8113 37.956 81.7995 37.9562C81.8242 37.9558 81.8146 37.951 81.8 37.9555C81.7917 37.9581 81.7836 37.9611 81.7752 37.9634C81.7669 37.9658 81.7583 37.9674 81.7499 37.9697C81.7406 37.9722 81.7192 37.9812 81.7512 37.9706C81.7304 37.9747 81.7091 37.9755 81.6881 37.973C81.681 37.9734 81.6739 37.973 81.6669 37.9716L81.6843 37.974C81.6772 37.973 81.6701 37.9717 81.6631 37.9703C81.6451 37.9666 81.6279 37.9609 81.6103 37.9557C81.601 37.953 81.5863 37.953 81.6152 37.9583C81.6047 37.9548 81.5947 37.9498 81.5855 37.9435C81.5792 37.94 81.5729 37.9363 81.5667 37.9325C81.5628 37.9301 81.5296 37.9049 81.5464 37.9192C81.5645 37.9345 81.5382 37.9113 81.5369 37.9101C81.5304 37.9042 81.5242 37.8979 81.5181 37.8915C81.5121 37.8851 81.5065 37.8784 81.5007 37.8719C81.4792 37.8478 81.5081 37.8901 81.5012 37.8722C81.4939 37.8584 81.4858 37.8449 81.477 37.832C81.4731 37.8246 81.4543 37.7977 81.474 37.8285C81.4694 37.8191 81.4659 37.8092 81.4636 37.7991C81.4604 37.7887 81.4478 37.7598 81.4514 37.7484L81.4535 37.765C81.4527 37.7581 81.452 37.7511 81.4516 37.7441C81.4511 37.7371 81.4509 37.7301 81.4507 37.7231C81.4506 37.7124 81.4515 37.7019 81.4516 37.6913C81.4516 37.6812 81.4474 37.6678 81.45 37.6981C81.4514 37.6763 81.4564 37.6548 81.4648 37.6347C81.4654 37.6329 81.478 37.5988 81.469 37.6214C81.46 37.644 81.4745 37.6108 81.4754 37.6091C81.4837 37.5928 81.4936 37.5778 81.5035 37.5625C81.5189 37.5389 81.5007 37.5643 81.4999 37.5667C81.5057 37.5577 81.5129 37.5497 81.5212 37.543C81.5261 37.538 81.5312 37.5331 81.5364 37.5283C81.5416 37.5235 81.5468 37.5189 81.5522 37.5145C81.5646 37.5045 81.5631 37.5057 81.5476 37.518C81.5532 37.507 81.5816 37.4963 81.5921 37.4909C81.5962 37.4887 81.6072 37.4816 81.6108 37.4817L81.5957 37.4878C81.6021 37.4852 81.6086 37.4828 81.6152 37.4806C81.63 37.4756 81.6453 37.4723 81.6603 37.4682C81.6697 37.4656 81.6911 37.4567 81.6591 37.4673C81.6694 37.4651 81.68 37.4643 81.6905 37.4648C81.7019 37.4644 81.7337 37.4593 81.7434 37.4662L81.726 37.4638C81.7331 37.4649 81.7402 37.4661 81.7472 37.4676C81.7543 37.469 81.7614 37.4707 81.7684 37.4725C81.779 37.4754 81.7894 37.4789 81.7999 37.4822C81.8269 37.4904 81.7984 37.4801 81.795 37.4796C81.816 37.4865 81.8356 37.4973 81.8527 37.5112C81.8544 37.5124 81.8818 37.5339 81.8638 37.5187C81.8467 37.5042 81.8782 37.5323 81.881 37.5351C81.8861 37.54 81.891 37.545 81.8958 37.5502C81.9005 37.5554 81.9051 37.5607 81.9096 37.5661C81.9195 37.5785 81.9184 37.5769 81.9061 37.5615C81.9188 37.568 81.9287 37.5987 81.9356 37.6106C81.9401 37.6183 81.9539 37.6384 81.9363 37.6094C81.9409 37.6188 81.9444 37.6287 81.9467 37.6389C81.9498 37.6488 81.9525 37.6589 81.9548 37.669C81.9568 37.6778 81.9681 37.7068 81.9567 37.6729C81.9609 37.6936 81.9617 37.7149 81.9592 37.736C81.9596 37.7431 81.9591 37.7502 81.9578 37.7572C81.9608 37.7362 81.9611 37.734 81.9585 37.7504C81.9572 37.7575 81.9558 37.7646 81.9542 37.7716C81.949 37.793 81.9422 37.8141 81.9339 37.8345C81.9133 37.912 81.9592 37.9916 82.0367 38.0125C82.1139 38.0309 82.192 37.9858 82.2147 37.9098C82.2923 37.7032 82.2376 37.4702 82.0761 37.3198C81.904 37.1635 81.6527 37.1313 81.4468 37.2391C81.2376 37.3513 81.1253 37.5861 81.169 37.8194C81.2127 38.0527 81.4025 38.2308 81.6381 38.2597C81.8737 38.2885 82.1009 38.1615 82.1996 37.9457C82.238 37.8761 82.2153 37.7887 82.1479 37.7467C82.0785 37.707 81.9901 37.73 81.9489 37.7986Z" fill="black"/>
<path d="M84.7153 39.0054C84.768 38.9949 84.6601 39.012 84.6723 39.011C84.6958 39.009 84.7192 39.0063 84.7429 39.0053C84.7809 39.0037 84.8189 39.0041 84.8569 39.0066C84.8726 39.0076 84.9478 39.0162 84.887 39.0083C84.8278 39.0006 84.8783 39.0074 84.8913 39.0095C84.9043 39.0117 84.9169 39.014 84.9296 39.0166C84.9832 39.0275 85.0358 39.0423 85.0871 39.061C85.1102 39.0694 85.1504 39.096 85.0728 39.0539C85.0868 39.0615 85.1022 39.067 85.1166 39.074C85.1443 39.0874 85.1713 39.102 85.1978 39.1178C85.2258 39.1345 85.2522 39.1532 85.2792 39.1713C85.3296 39.2051 85.2352 39.1334 85.2787 39.1708C85.2934 39.1834 85.3082 39.1959 85.3225 39.209C85.3526 39.2366 85.3813 39.2658 85.4085 39.2962C85.4205 39.3096 85.4321 39.3232 85.4435 39.3371C85.4505 39.3456 85.4574 39.3542 85.4641 39.3629C85.4419 39.3335 85.4404 39.332 85.4597 39.3585C85.4999 39.4237 85.5627 39.4719 85.6362 39.4939C85.7497 39.5243 85.8704 39.4834 85.942 39.3901C86.0136 39.2968 86.0219 39.1696 85.9632 39.0678C85.7598 38.7627 85.4493 38.5451 85.0932 38.4578C84.9188 38.4171 84.7379 38.4126 84.5617 38.4446C84.4075 38.4878 84.3167 38.647 84.3581 38.8018C84.4037 38.9541 84.5609 39.0437 84.7152 39.0054L84.7153 39.0054Z" fill="black"/>
</svg>
