<svg width="85" height="74" viewBox="0 0 85 74" fill="none" xmlns="http://www.w3.org/2000/svg">
<path fill-rule="evenodd" clip-rule="evenodd" d="M43.4193 1.62338C50.95 1.61577 58.5716 -1.13557 65.5535 1.52606C73.1401 4.41819 80.1193 9.72148 83.3077 16.8294C86.4693 23.8777 84.6136 31.9214 82.5026 39.311C80.5749 46.0587 76.7333 51.9924 71.7783 57.1881C66.8962 62.3073 61.0051 66.2208 54.2815 68.9028C46.8845 71.8534 39.0773 74.6621 31.1599 73.3904C22.799 72.0475 15.1023 67.7384 9.52297 61.7136C3.93188 55.6762 0.859678 47.8681 0.128442 39.8816C-0.578431 32.1612 1.69106 24.5443 5.49072 17.6736C9.15353 11.0504 14.0894 4.6286 21.3154 1.57075C28.1768 -1.33277 35.899 1.63098 43.4193 1.62338Z" fill="#FBFAFC"/>
<path d="M67.6875 22.1712C67.5866 21.7508 67.403 21.3545 67.1475 21.0057C66.892 20.6568 66.5696 20.3623 66.1992 20.1392C58.8997 15.7235 50.5311 13.3892 42 13.3892C33.4688 13.3892 25.1002 15.7235 17.8008 20.1392C17.059 20.5908 16.5266 21.3181 16.3201 22.1616C16.1136 23.0051 16.25 23.896 16.6992 24.6392L39.1992 61.4994C39.4909 61.9847 39.9032 62.3863 40.396 62.6651C40.8888 62.944 41.4454 63.0905 42.0117 63.0905C42.5779 63.0905 43.1345 62.944 43.6274 62.6651C44.1202 62.3863 44.5325 61.9847 44.8242 61.4994L67.3125 24.6392C67.5352 24.2731 67.6831 23.8665 67.7475 23.4428C67.8118 23.0192 67.7915 22.5869 67.6875 22.1712ZM26.3133 34.9986C26.9558 34.3147 27.7476 33.7884 28.627 33.4608C29.5063 33.1332 30.4494 33.0131 31.3828 33.1098C32.3162 33.2066 33.2147 33.5176 34.0081 34.0187C34.8015 34.5197 35.4685 35.1973 35.9571 35.9984C36.4457 36.7996 36.7426 37.7028 36.8248 38.6376C36.9069 39.5724 36.7721 40.5135 36.4307 41.3876C36.0894 42.2618 35.5508 43.0452 34.8569 43.677C34.1631 44.3088 33.3326 44.7717 32.4304 45.0298L26.3133 34.9986ZM47.6414 51.4798C46.4613 50.5602 45.6608 49.2387 45.3923 47.767C45.1237 46.2952 45.406 44.7761 46.1853 43.4991C46.9645 42.222 48.1864 41.2762 49.618 40.8419C51.0496 40.4076 52.5909 40.5151 53.9484 41.1439L47.6414 51.4798ZM55.4226 38.7298C54.1697 38.0899 52.7819 37.7588 51.375 37.7642C49.4923 37.7645 47.6582 38.3614 46.136 39.4692C44.6138 40.577 43.4817 42.1386 42.9024 43.9299C42.3231 45.7212 42.3263 47.65 42.9116 49.4393C43.4969 51.2287 44.6342 52.7865 46.1601 53.8892L42.4101 60.0392C42.3689 60.1102 42.3098 60.1692 42.2386 60.2102C42.1675 60.2512 42.0868 60.2727 42.0047 60.2727C41.9225 60.2727 41.8419 60.2512 41.7707 60.2102C41.6995 60.1692 41.6404 60.1102 41.5992 60.0392L33.9351 47.4884C35.1559 47.022 36.2592 46.2926 37.1665 45.352C38.0738 44.4114 38.763 43.2827 39.1852 42.0459C39.6074 40.8091 39.7523 39.4945 39.6094 38.1954C39.4666 36.8964 39.0397 35.6447 38.3589 34.5291C37.6781 33.4136 36.7601 32.4615 35.6701 31.7405C34.5801 31.0195 33.3448 30.5472 32.0518 30.3571C30.7588 30.1671 29.4398 30.2639 28.1884 30.6407C26.9371 31.0176 25.7839 31.6652 24.8109 32.5376L22.7929 29.2306C28.5479 25.618 35.2051 23.7017 42 23.7017C48.7949 23.7017 55.452 25.618 61.207 29.2306L55.4226 38.7298ZM64.9125 23.179L62.6718 26.8306C56.4759 22.9482 49.3118 20.8891 42 20.8891C34.6881 20.8891 27.5241 22.9482 21.3281 26.8306L19.0992 23.179C19.0672 23.1283 19.046 23.0716 19.0367 23.0123C19.0274 22.9531 19.0304 22.8926 19.0453 22.8345C19.0607 22.7738 19.0882 22.7168 19.126 22.6669C19.1639 22.617 19.2113 22.5752 19.2656 22.5439C26.1237 18.3969 33.9855 16.2047 42 16.2047C50.0144 16.2047 57.8762 18.3969 64.7343 22.5439C64.7878 22.5756 64.8343 22.6177 64.8713 22.6676C64.9084 22.7175 64.9351 22.7742 64.95 22.8345C64.9656 22.8923 64.9693 22.9526 64.9608 23.0118C64.9524 23.0711 64.9319 23.128 64.9008 23.179H64.9125Z" fill="#7431B8"/>
</svg>
