<svg width="86" height="74" viewBox="0 0 86 74" fill="none" xmlns="http://www.w3.org/2000/svg">
<path fill-rule="evenodd" clip-rule="evenodd" d="M44.1336 1.62338C51.6643 1.61577 59.2859 -1.13557 66.2679 1.52606C73.8545 4.41819 80.8336 9.72148 84.022 16.8294C87.1836 23.8777 85.3279 31.9214 83.2169 39.311C81.2893 46.0587 77.4476 51.9924 72.4926 57.1881C67.6106 62.3073 61.7195 66.2208 54.9959 68.9028C47.5989 71.8534 39.7917 74.6621 31.8743 73.3904C23.5134 72.0475 15.8167 67.7384 10.2373 61.7136C4.64624 55.6762 1.57403 47.8681 0.842798 39.8816C0.135925 32.1612 2.40542 24.5443 6.20508 17.6736C9.86789 11.0504 14.8037 4.6286 22.0298 1.57075C28.8911 -1.33277 36.6133 1.63098 44.1336 1.62338Z" fill="#FBFAFC"/>
<path d="M61.9331 42.9205C61.9331 43.384 61.7956 43.8371 61.5381 44.2226C61.2806 44.608 60.9145 44.9084 60.4863 45.0858C60.058 45.2632 59.5868 45.3096 59.1321 45.2192C58.6775 45.1287 58.2599 44.9055 57.9321 44.5777C57.6043 44.25 57.3811 43.8323 57.2906 43.3777C57.2002 42.9231 57.2466 42.4518 57.424 42.0235C57.6014 41.5953 57.9018 41.2292 58.2872 40.9717C58.6727 40.7142 59.1258 40.5767 59.5894 40.5767C60.211 40.5767 60.8071 40.8236 61.2466 41.2632C61.6862 41.7027 61.9331 42.2989 61.9331 42.9205ZM60.9136 51.7283C60.5918 54.3403 59.3268 56.7447 57.3564 58.4894C55.386 60.234 52.8461 61.1986 50.2144 61.2017H44.5894C41.7311 61.198 38.991 60.0609 36.97 58.0398C34.9489 56.0188 33.8118 53.2787 33.8081 50.4205V40.5087C30.2145 40.1593 26.8797 38.4846 24.4534 35.8109C22.0271 33.1372 20.683 29.656 20.6831 26.0455V16.6705C20.6831 15.8002 21.0288 14.9656 21.6442 14.3503C22.2595 13.7349 23.0941 13.3892 23.9644 13.3892H27.7144C28.0873 13.3892 28.445 13.5374 28.7087 13.8011C28.9724 14.0648 29.1206 14.4225 29.1206 14.7955C29.1206 15.1684 28.9724 15.5261 28.7087 15.7898C28.445 16.0535 28.0873 16.2017 27.7144 16.2017H23.9644C23.84 16.2017 23.7208 16.2511 23.6329 16.339C23.545 16.4269 23.4956 16.5461 23.4956 16.6705V26.0455C23.4956 29.1535 24.7303 32.1342 26.9279 34.3319C29.1256 36.5296 32.1063 37.7642 35.2144 37.7642H35.3714C41.7464 37.6798 46.9331 32.3361 46.9331 25.8509V16.6705C46.9331 16.5461 46.8837 16.4269 46.7958 16.339C46.7079 16.2511 46.5887 16.2017 46.4644 16.2017H42.7144C42.3414 16.2017 41.9837 16.0535 41.72 15.7898C41.4563 15.5261 41.3081 15.1684 41.3081 14.7955C41.3081 14.4225 41.4563 14.0648 41.72 13.8011C41.9837 13.5374 42.3414 13.3892 42.7144 13.3892H46.4644C47.3346 13.3892 48.1692 13.7349 48.7845 14.3503C49.3999 14.9656 49.7456 15.8002 49.7456 16.6705V25.8509C49.7456 33.4517 43.9612 39.7822 36.6206 40.5041V50.4205C36.6206 52.5339 37.4602 54.5608 38.9546 56.0552C40.449 57.5496 42.4759 58.3892 44.5894 58.3892H50.2144C52.1061 58.3867 53.9354 57.7123 55.376 56.4863C56.8167 55.2603 57.775 53.5624 58.08 51.6955C55.8737 51.3137 53.8922 50.1149 52.53 48.3378C51.1679 46.5608 50.5251 44.3359 50.7296 42.1062C50.9341 39.8765 51.9709 37.8056 53.6336 36.306C55.2963 34.8064 57.4628 33.9881 59.7017 34.014C61.9406 34.0399 64.0876 34.9082 65.7151 36.4459C67.3426 37.9836 68.3313 40.0779 68.4841 42.3118C68.6369 44.5456 67.9427 46.755 66.5398 48.5001C65.1368 50.2451 63.1281 51.3977 60.9136 51.7283ZM65.6831 42.9205C65.6831 41.7152 65.3257 40.5371 64.6561 39.535C63.9865 38.5328 63.0348 37.7518 61.9213 37.2906C60.8078 36.8293 59.5826 36.7087 58.4005 36.9438C57.2185 37.1789 56.1326 37.7593 55.2804 38.6115C54.4282 39.4637 53.8478 40.5496 53.6127 41.7316C53.3776 42.9137 53.4982 44.1389 53.9595 45.2524C54.4207 46.3659 55.2017 47.3176 56.2038 47.9872C57.206 48.6568 58.3841 49.0142 59.5894 49.0142C60.3896 49.0142 61.182 48.8566 61.9213 48.5503C62.6607 48.2441 63.3324 47.7952 63.8983 47.2294C64.4641 46.6635 64.913 45.9918 65.2192 45.2524C65.5255 44.5131 65.6831 43.7207 65.6831 42.9205Z" fill="#7431B8"/>
</svg>
