<svg width="86" height="74" viewBox="0 0 86 74" fill="none" xmlns="http://www.w3.org/2000/svg">
<path fill-rule="evenodd" clip-rule="evenodd" d="M43.5621 1.62338C51.0928 1.61577 58.7144 -1.13557 65.6964 1.52606C73.283 4.41819 80.2622 9.72148 83.4506 16.8294C86.6122 23.8777 84.7564 31.9214 82.6454 39.311C80.7178 46.0587 76.8761 51.9924 71.9212 57.1881C67.0391 62.3073 61.148 66.2208 54.4244 68.9028C47.0274 71.8534 39.2202 74.6621 31.3028 73.3904C22.9419 72.0475 15.2452 67.7384 9.66586 61.7136C4.07477 55.6762 1.00256 47.8681 0.271326 39.8816C-0.435548 32.1612 1.83394 24.5443 5.6336 17.6736C9.29642 11.0504 14.2323 4.6286 21.4583 1.57075C28.3197 -1.33277 36.0419 1.63098 43.5621 1.62338Z" fill="#FBFAFC"/>
<path d="M53.3929 33.0767H47.7679C47.3949 33.0767 47.0372 32.9285 46.7735 32.6648C46.5098 32.4011 46.3616 32.0434 46.3616 31.6705C46.3616 31.2975 46.5098 30.9398 46.7735 30.6761C47.0372 30.4124 47.3949 30.2642 47.7679 30.2642H53.3929C53.7658 30.2642 54.1235 30.4124 54.3872 30.6761C54.651 30.9398 54.7991 31.2975 54.7991 31.6705C54.7991 32.0434 54.651 32.4011 54.3872 32.6648C54.1235 32.9285 53.7658 33.0767 53.3929 33.0767ZM36.5179 30.2642H34.1741V27.9205C34.1741 27.5475 34.026 27.1898 33.7622 26.9261C33.4985 26.6624 33.1408 26.5142 32.7679 26.5142C32.3949 26.5142 32.0372 26.6624 31.7735 26.9261C31.5098 27.1898 31.3616 27.5475 31.3616 27.9205V30.2642H29.0179C28.6449 30.2642 28.2872 30.4124 28.0235 30.6761C27.7598 30.9398 27.6116 31.2975 27.6116 31.6705C27.6116 32.0434 27.7598 32.4011 28.0235 32.6648C28.2872 32.9285 28.6449 33.0767 29.0179 33.0767H31.3616V35.4205C31.3616 35.7934 31.5098 36.1511 31.7735 36.4148C32.0372 36.6785 32.3949 36.8267 32.7679 36.8267C33.1408 36.8267 33.4985 36.6785 33.7622 36.4148C34.026 36.1511 34.1741 35.7934 34.1741 35.4205V33.0767H36.5179C36.8908 33.0767 37.2485 32.9285 37.5122 32.6648C37.776 32.4011 37.9241 32.0434 37.9241 31.6705C37.9241 31.2975 37.776 30.9398 37.5122 30.6761C37.2485 30.4124 36.8908 30.2642 36.5179 30.2642ZM68.3554 54.0533C67.6209 55.1024 66.6444 55.959 65.5085 56.5506C64.3727 57.1421 63.111 57.4512 61.8304 57.4517C59.7212 57.4468 57.6993 56.6086 56.2054 55.1197L56.1444 55.0541L46.6851 44.3267H37.6007L28.153 55.0517L28.0804 55.108C26.5899 56.6036 24.5668 57.4465 22.4554 57.4517C21.2921 57.4509 20.143 57.1955 19.089 56.7033C18.035 56.2111 17.1015 55.4941 16.3541 54.6026C15.6067 53.7112 15.0635 52.6669 14.7628 51.5431C14.462 50.4194 14.411 49.2434 14.6132 48.0978C14.6132 48.0978 14.6132 48.0837 14.6132 48.0744L18.4476 28.3611C18.9992 25.2187 20.6407 22.3712 23.0835 20.3189C25.5262 18.2666 28.6141 17.1407 31.8046 17.1392H52.4554C55.6376 17.1433 58.7178 18.2622 61.1606 20.3017C63.6034 22.3411 65.2544 25.1721 65.8265 28.3025C65.8265 28.3189 65.8265 28.3306 65.8265 28.347L69.6726 48.0767C69.6726 48.0767 69.6726 48.0931 69.6726 48.1025C69.8574 49.1322 69.8362 50.1884 69.6101 51.2098C69.384 52.2313 68.9575 53.1978 68.3554 54.0533ZM52.4554 41.5142C55.3147 41.5142 58.057 40.3783 60.0789 38.3565C62.1007 36.3346 63.2366 33.5923 63.2366 30.733C63.2366 27.8736 62.1007 25.1313 60.0789 23.1095C58.057 21.0876 55.3147 19.9517 52.4554 19.9517H31.8046C29.2739 19.9536 26.825 20.8477 24.8883 22.4766C22.9516 24.1055 21.6511 26.3651 21.2155 28.858C21.2144 28.8657 21.2144 28.8736 21.2155 28.8814L17.3765 48.5994C17.1891 49.6754 17.3482 50.7832 17.831 51.763C18.3138 52.7428 19.0952 53.5439 20.0626 54.051C21.0301 54.558 22.1335 54.7448 23.2139 54.5843C24.2943 54.4238 25.2959 53.9243 26.0741 53.158L35.9179 41.99C36.0505 41.8417 36.2131 41.7232 36.3949 41.6424C36.5767 41.5616 36.7736 41.5203 36.9726 41.5212L52.4554 41.5142ZM66.9093 48.5994L64.6148 36.7986C63.4863 39.0582 61.7512 40.9592 59.6037 42.2888C57.4563 43.6183 54.9811 44.324 52.4554 44.3267H50.4327L58.2116 53.158C58.9899 53.9243 59.9914 54.4238 61.0718 54.5843C62.1522 54.7448 63.2557 54.558 64.2231 54.051C65.1906 53.5439 65.972 52.7428 66.4548 51.763C66.9375 50.7832 67.0967 49.6754 66.9093 48.5994Z" fill="#7431B8"/>
</svg>
