<svg width="86" height="74" viewBox="0 0 86 74" fill="none" xmlns="http://www.w3.org/2000/svg">
<path fill-rule="evenodd" clip-rule="evenodd" d="M43.7049 1.62338C51.2356 1.61577 58.8572 -1.13557 65.8392 1.52606C73.4258 4.41819 80.4049 9.72148 83.5933 16.8294C86.7549 23.8777 84.8992 31.9214 82.7882 39.311C80.8606 46.0587 77.0189 51.9924 72.0639 57.1881C67.1819 62.3073 61.2908 66.2208 54.5672 68.9028C47.1701 71.8534 39.3629 74.6621 31.4456 73.3904C23.0847 72.0475 15.388 67.7384 9.80862 61.7136C4.21753 55.6762 1.14532 47.8681 0.414087 39.8816C-0.292786 32.1612 1.9767 24.5443 5.77636 17.6736C9.43918 11.0504 14.375 4.6286 21.6011 1.57075C28.4624 -1.33277 36.1846 1.63098 43.7049 1.62338Z" fill="#FBFAFC"/>
<path d="M67.6802 20.0947C66.2576 18.5704 64.5368 17.3551 62.6247 16.5241C60.7125 15.6931 58.6499 15.2643 56.5649 15.2643C54.48 15.2643 52.4174 15.6931 50.5052 16.5241C48.5931 17.3551 46.8722 18.5704 45.4497 20.0947C44.1228 21.4897 43.0518 23.1073 42.2856 24.8736C41.519 23.109 40.448 21.4929 39.1216 20.0994C37.6991 18.5751 35.9782 17.3598 34.0661 16.5288C32.1539 15.6978 30.0913 15.269 28.0063 15.269C25.9214 15.269 23.8588 15.6978 21.9466 16.5288C20.0345 17.3598 18.3136 18.5751 16.8911 20.0994C16.7354 20.264 16.6218 20.4638 16.5599 20.6818C16.498 20.8998 16.4898 21.1295 16.5358 21.3514C16.5818 21.5733 16.6808 21.7807 16.8243 21.9561C16.9678 22.1315 17.1515 22.2697 17.3599 22.3587L31.8513 28.6634C31.4177 28.7431 30.9841 28.8369 30.5528 28.9517C28.4733 29.4963 26.5224 30.4476 24.8127 31.7506C23.103 33.0536 21.6684 34.6825 20.5919 36.5431C19.5081 38.3922 18.8048 40.4392 18.523 42.5639C18.2413 44.6886 18.3869 46.8481 18.9513 48.9158C19.0113 49.1386 19.1252 49.3432 19.2829 49.5116C19.4407 49.68 19.6375 49.807 19.856 49.8814C20.0017 49.9306 20.1545 49.9559 20.3083 49.9564C20.6166 49.9564 20.9163 49.8551 21.1614 49.6681L40.8794 34.633V59.7955C40.8794 60.1684 41.0275 60.5261 41.2913 60.7898C41.555 61.0536 41.9127 61.2017 42.2856 61.2017C42.6586 61.2017 43.0163 61.0536 43.28 60.7898C43.5437 60.5261 43.6919 60.1684 43.6919 59.7955V34.633L63.4192 49.6634C63.6643 49.8504 63.9641 49.9517 64.2724 49.9517C64.4262 49.9512 64.5789 49.9259 64.7247 49.8767C64.9432 49.8023 65.1399 49.6754 65.2977 49.507C65.4555 49.3386 65.5694 49.1339 65.6294 48.9111C66.1938 46.8434 66.3394 44.6839 66.0576 42.5592C65.7759 40.4345 65.0725 38.3875 63.9888 36.5384C62.9122 34.6778 61.4777 33.0489 59.768 31.7459C58.0583 30.4429 56.1073 29.4916 54.0278 28.947C53.5966 28.8322 53.163 28.7384 52.7294 28.6587L67.2208 22.3541C67.4292 22.265 67.6129 22.1268 67.7564 21.9515C67.8999 21.7761 67.9988 21.5686 68.0449 21.3467C68.0909 21.1248 68.0826 20.8951 68.0208 20.6771C67.9589 20.4591 67.8453 20.2593 67.6895 20.0947H67.6802ZM28.0075 18.0767C29.7106 18.0807 31.3948 18.4339 32.9561 19.1143C34.5174 19.7948 35.9225 20.7881 37.0849 22.033C39.0235 24.0767 40.289 26.6657 40.7106 29.4509L20.4724 20.6548C22.6296 18.9853 25.2797 18.0786 28.0075 18.0767ZM21.2599 46.0447C20.9685 43.2292 21.5827 40.3942 23.013 37.9517C23.9069 36.4118 25.0967 35.064 26.5138 33.9859C27.9309 32.9079 29.5474 32.121 31.27 31.6705C32.4259 31.361 33.6172 31.2034 34.8138 31.2017C36.4496 31.201 38.072 31.4972 39.602 32.0759L21.2599 46.0447ZM61.5583 37.9517C62.9886 40.3942 63.6027 43.2292 63.3114 46.0447L44.9739 32.0736C47.9875 30.9401 51.3048 30.9083 54.3396 31.9839C57.3744 33.0596 59.9312 35.1733 61.5583 37.9517ZM43.8606 29.4509C44.2823 26.6657 45.5477 24.0767 47.4864 22.033C48.6487 20.7881 50.0539 19.7948 51.6152 19.1143C53.1765 18.4339 54.8607 18.0807 56.5638 18.0767C59.2916 18.0786 61.9417 18.9853 64.0989 20.6548L43.8606 29.4509Z" fill="#7431B8"/>
</svg>
