<svg width="152" height="32" viewBox="0 0 152 32" fill="none" xmlns="http://www.w3.org/2000/svg">
<g clip-path="url(#clip0_1972_6711)">
<path d="M28.4417 26.0673L24.4872 23.8028C24.4872 23.8028 25.8561 25.4514 27.4536 27.1762C25.6085 29.0702 23.3215 30.4758 20.7983 31.2666V6.82183H16.9287C15.5589 6.82048 14.2028 7.09473 12.9411 7.62827C11.6794 8.16181 10.5379 8.94373 9.58465 9.92748C9.15195 10.3675 8.76174 10.8473 8.41921 11.3606C8.06386 11.8935 7.7579 12.4577 7.50514 13.0462L7.46923 13.143L2.60508 24.7528C0.664744 21.7824 -0.233414 18.2513 0.0518091 14.7148C0.337033 11.1782 1.78946 7.83677 4.18076 5.21568L7.41156 7.06558C7.34736 6.99049 6.32338 5.75977 5.0426 4.34514C7.9936 1.54796 11.899 -0.0204594 15.965 -0.0412937C20.031 -0.0621279 23.9523 1.46619 26.9318 4.23298C29.9113 6.99976 31.7254 10.7973 32.0052 14.8537C32.2851 18.9101 31.0097 22.9208 28.4384 26.0706L28.4417 26.0673Z" fill="#B051C6"/>
<path d="M21.522 7.49756C23.0714 7.49871 24.5571 8.11474 25.6527 9.21036C26.7483 10.306 27.3643 11.7916 27.3655 13.3411H22.4807C22.2271 13.3414 21.9837 13.241 21.804 13.0621C21.6243 12.8832 21.5228 12.6403 21.522 12.3867V7.49756Z" fill="#B051C6"/>
<path d="M21.522 15.6904V13.6892L24.6342 15.7665L22.9845 16.5892C22.8308 16.6666 22.66 16.7034 22.4881 16.6961C22.3162 16.6889 22.1491 16.6378 22.0025 16.5477C21.856 16.4576 21.7349 16.3316 21.6508 16.1815C21.5667 16.0315 21.5223 15.8624 21.522 15.6904Z" fill="#B051C6"/>
<path d="M27.3666 13.3433H22.4818C22.3562 13.3437 22.2318 13.3194 22.1156 13.2717C21.9995 13.224 21.8939 13.1539 21.8048 13.0653C21.7158 12.9768 21.6451 12.8716 21.5967 12.7557C21.5484 12.6398 21.5234 12.5156 21.5231 12.39V7.49866C23.0723 7.50039 24.5576 8.11659 25.6531 9.21209C26.7486 10.3076 27.3648 11.7929 27.3666 13.3422V13.3433Z" fill="#FFC53E"/>
<path d="M24.6353 15.7687L22.9856 16.5914C22.8318 16.6685 22.6609 16.705 22.4891 16.6976C22.3173 16.6901 22.1502 16.6389 22.0037 16.5488C21.8572 16.4586 21.7362 16.3326 21.652 16.1825C21.5679 16.0325 21.5235 15.8635 21.5231 15.6915V13.6903L24.6353 15.7687Z" fill="#FF9445"/>
<path d="M14.9407 9.92748C14.3974 10.2073 13.9146 10.5914 13.5199 11.058C13.1252 11.5245 12.8263 12.0643 12.6403 12.6464C12.4543 13.2285 12.385 13.8416 12.4361 14.4506C12.4873 15.0595 12.658 15.6524 12.9385 16.1954L20.7244 31.2873C20.7461 31.2797 20.7712 31.2753 20.7929 31.2666V6.90344L14.9407 9.92748ZM18.6405 13.0658C18.6392 13.4668 18.5192 13.8584 18.2955 14.1913C18.0718 14.5241 17.7545 14.7832 17.3837 14.9359C17.0129 15.0885 16.6051 15.1279 16.2119 15.0491C15.8188 14.9702 15.4578 14.7766 15.1745 14.4928C14.8912 14.2089 14.6984 13.8475 14.6204 13.4541C14.5424 13.0608 14.5826 12.6531 14.7361 12.2826C14.8896 11.9121 15.1493 11.5954 15.4827 11.3724C15.816 11.1495 16.2079 11.0302 16.6089 11.0298C16.8813 11.0307 17.1509 11.0854 17.4022 11.1909C17.7694 11.3466 18.0827 11.6071 18.3029 11.9397C18.5231 12.2724 18.6406 12.6625 18.6405 13.0614V13.0658Z" fill="white"/>
<path d="M18.6394 13.0624C18.4478 13.204 18.2159 13.2802 17.9778 13.2801C17.7318 13.2798 17.4927 13.1988 17.297 13.0496C17.1014 12.9005 16.9601 12.6913 16.8947 12.4542C16.8292 12.217 16.8433 11.965 16.9348 11.7366C17.0262 11.5082 17.19 11.3161 17.401 11.1897C17.7688 11.3454 18.0825 11.6061 18.3028 11.9392C18.5231 12.2724 18.6401 12.6631 18.6394 13.0624Z" fill="white"/>
<path d="M18.6393 13.0669C18.6384 13.503 18.4971 13.9273 18.2363 14.2768C17.9755 14.6264 17.6091 14.8827 17.1913 15.0078C16.7735 15.133 16.3265 15.1202 15.9165 14.9715C15.5064 14.8228 15.1552 14.546 14.9147 14.1822C14.6743 13.8183 14.5574 13.3867 14.5813 12.9512C14.6052 12.5157 14.7688 12.0995 15.0477 11.7642C15.3266 11.4289 15.706 11.1923 16.1299 11.0894C16.5537 10.9865 16.9994 11.0229 17.401 11.193C17.1899 11.3194 17.0262 11.5115 16.9347 11.7399C16.8432 11.9683 16.8292 12.2203 16.8946 12.4575C16.96 12.6946 17.1013 12.9038 17.297 13.053C17.4926 13.2021 17.7317 13.2831 17.9777 13.2834C18.2157 13.2839 18.4476 13.208 18.6393 13.0669Z" fill="#7432B9"/>
<path d="M12.9384 16.1953L20.7243 31.2872C19.1946 31.7631 17.6014 32.0035 15.9994 32C13.8082 32.0045 11.6397 31.5568 9.62949 30.6848C7.61928 29.8128 5.81065 28.5354 4.31677 26.9324L7.40828 23.9301C7.28858 23.9812 5.40168 24.8126 3.38203 25.8387C3.10672 25.4905 2.84773 25.126 2.60181 24.7506L7.46595 13.1397L7.50404 13.0418C7.75673 12.4544 8.06193 11.8909 8.41593 11.3584C8.75952 10.8456 9.15004 10.3658 9.58246 9.92526C10.5355 8.9413 11.677 8.15932 12.9387 7.62594C14.2005 7.09256 15.5567 6.8187 16.9266 6.82069H20.7907V6.90121L14.9406 9.92743C14.3973 10.2072 13.9145 10.5914 13.5198 11.0579C13.1251 11.5244 12.8262 12.0642 12.6402 12.6463C12.4543 13.2285 12.3849 13.8415 12.4361 14.4505C12.4872 15.0595 12.6579 15.6524 12.9384 16.1953Z" fill="#7432B9"/>
<path d="M151.685 21.0758C151.514 21.2657 151.302 21.4155 151.066 21.5144C150.83 21.6134 150.575 21.659 150.32 21.6482C149.383 21.6482 148.835 21.0377 148.835 19.9985V15.6817H151.745V13.8123H148.835V11.1821H147.042L146.741 13.7785L146.677 14.9537V20.0791C146.677 22.3403 147.835 23.5612 149.993 23.5612C150.748 23.5612 151.338 23.4383 151.788 23.213V21.0758H151.685Z" fill="white"/>
<path d="M103.392 9.84045C106.67 9.84045 108.359 11.3258 108.359 14.2171C108.359 16.3695 107.408 17.7439 105.551 18.2956C104.48 18.6144 103.34 18.5034 102.234 18.2858L101.095 18.004C100.432 17.8048 99.9478 18.2336 99.9478 18.9267V23.3545H97.5049V9.84045H103.392ZM103.291 16.3956C105.061 16.3956 105.896 15.6829 105.896 14.2193C105.896 12.7328 105.061 12.0201 103.291 12.0201H99.9522V16.3978L103.291 16.3956Z" fill="white"/>
<path d="M117.174 23.3545L117.112 21.9911H117.071C116.379 22.9704 115.178 23.5591 113.632 23.5591C110.904 23.5591 108.908 21.4818 108.908 18.5916C108.908 15.7014 110.904 13.6034 113.632 13.6034C115.178 13.6034 116.359 14.1943 117.051 15.1715H117.092L117.174 13.808H118.965V23.3545H117.174ZM116.873 18.5938C116.873 16.782 115.693 15.5403 113.982 15.5403C112.272 15.5403 111.092 16.782 111.092 18.5938C111.092 20.3642 112.273 21.6265 113.982 21.6265C115.692 21.6265 116.873 20.3642 116.873 18.5938Z" fill="white"/>
<path d="M127.289 13.9722V16.1094H127.188C126.744 15.8081 126.218 15.6519 125.682 15.6621C123.971 15.6621 123.137 16.8025 123.137 19.1225V23.3544H120.979V13.81H122.791L122.872 15.2758H122.913C123.457 14.1768 124.436 13.6055 125.865 13.6055C126.475 13.6055 126.985 13.7687 127.289 13.9722Z" fill="white"/>
<path d="M134.577 13.9722V16.1094H134.475C134.031 15.8081 133.505 15.6519 132.969 15.6621C131.259 15.6621 130.423 16.8025 130.423 19.1225V23.3544H128.267V13.81H130.078L130.159 15.2758H130.2C130.744 14.1768 131.724 13.6055 133.151 13.6055C133.763 13.6055 134.271 13.7687 134.577 13.9722Z" fill="white"/>
<path d="M144.979 18.5937C144.979 21.5045 142.861 23.5612 139.889 23.5612C136.918 23.5612 134.821 21.5045 134.821 18.5937C134.821 15.6621 136.917 13.6055 139.889 13.6055C142.862 13.6055 144.979 15.6621 144.979 18.5937ZM136.998 18.5937C136.998 20.3641 138.179 21.6264 139.889 21.6264C141.62 21.6264 142.8 20.3641 142.8 18.5937C142.8 16.7819 141.62 15.5402 139.889 15.5402C138.179 15.5402 136.998 16.7819 136.998 18.5937Z" fill="white"/>
<path d="M49.0506 15.4968V17.6133H42.9633V21.1781H50.5164V23.3545H40.5204V9.83716H50.5164V12.0135H42.9633V15.4957L49.0506 15.4968Z" fill="white"/>
<path d="M54.9931 23.3545L51.1257 13.8069H53.4468L56.1128 21.0128H56.1531L58.8398 13.8069H61.0586L57.1923 23.3545H54.9931Z" fill="white"/>
<path d="M80.3836 17.7559V23.3545H78.2257V18.0007C78.2257 16.4327 77.3911 15.5371 76.0069 15.5371C74.4835 15.5371 73.564 16.5752 73.564 18.3468V23.3524H71.4061V13.8069H73.2179L73.2996 15.2727H73.3463C73.9557 14.1943 75.0559 13.6034 76.5619 13.6034C78.9385 13.6034 80.3836 15.1508 80.3836 17.7559Z" fill="white"/>
<path d="M87.0279 21.0693C86.8563 21.2592 86.645 21.409 86.409 21.5079C86.1729 21.6068 85.918 21.6525 85.6623 21.6417C84.7242 21.6417 84.178 21.0312 84.178 19.992V15.6795H87.0867V13.809H84.178V11.1799H82.3836L82.0832 13.7709L82.019 14.945V20.0769C82.019 22.337 83.1769 23.559 85.3358 23.559C86.0899 23.559 86.6797 23.4361 87.1291 23.2119V21.0693H87.0279Z" fill="white"/>
<path d="M95.3482 14.2954V16.5142H95.2459C94.593 15.8428 93.5973 15.4968 92.3557 15.4968C91.3176 15.4968 90.5841 15.9647 90.5841 16.6361C90.5841 17.1867 91.0118 17.4305 92.4166 17.5121C94.9608 17.6546 95.9587 18.5904 95.9587 20.5241C95.9587 22.398 94.5136 23.558 92.1315 23.558C90.5439 23.558 89.3023 23.2315 88.5079 22.6211V20.362H88.6102C89.4035 21.2173 90.5689 21.6678 92.0293 21.6678C93.149 21.6678 93.8411 21.2206 93.8411 20.5274C93.8411 19.8963 93.4145 19.6122 91.8671 19.4893C89.3839 19.2858 88.4677 18.5099 88.4677 16.7014C88.4677 14.8286 89.9911 13.6066 92.2948 13.6066C93.5364 13.6033 94.6561 13.8471 95.3482 14.2954Z" fill="white"/>
<path d="M63.2796 19.4958C63.9756 19.8664 64.7442 20.0805 65.5316 20.123C66.3189 20.1654 67.1061 20.0353 67.8379 19.7417C69.0719 19.2499 69.7553 18.2401 69.7335 16.943C69.7129 15.6752 68.9718 14.6317 67.7237 14.229C66.2949 13.7666 64.9717 13.7579 63.6974 14.5642C62.0097 15.6328 61.3644 17.3543 61.3644 18.8723C61.3644 20.4121 61.853 21.9551 63.3111 22.8583C65.1012 23.9737 67.1284 23.546 68.875 23.0705C69.0273 23.028 69.1546 23.0411 69.1546 22.8376C69.1546 22.2184 69.1546 21.5993 69.1546 20.942C66.2949 22.3457 63.5766 21.4763 63.2796 19.4958ZM63.5429 17.4522C64.0728 16.2639 65.1665 15.586 66.481 15.6371C67.185 15.6622 67.6562 16.0017 67.7531 16.5479C67.8684 17.1595 67.5757 17.6633 66.9184 17.9441C66.0316 18.3206 65.0816 18.3206 64.3395 18.3793C63.1903 18.3761 63.1566 18.3206 63.5429 17.4522Z" fill="white"/>
</g>
<defs>
<clipPath id="clip0_1972_6711">
<rect width="151.788" height="32" fill="white"/>
</clipPath>
</defs>
</svg>
