<svg width="64" height="64" viewBox="0 0 64 64" fill="none" xmlns="http://www.w3.org/2000/svg">
<mask id="mask0_3785_9534" style="mask-type:alpha" maskUnits="userSpaceOnUse" x="0" y="0" width="64" height="64">
<rect width="64" height="64" fill="#D9D9D9"/>
</mask>
<g mask="url(#mask0_3785_9534)">
<path d="M32 18.821C33.9386 16.185 36.1488 14.167 38.6306 12.767C41.1129 11.367 43.7026 10.667 46.4 10.667C50.548 10.667 54.074 12.1188 56.978 15.0223C59.8815 17.9263 61.3333 21.4523 61.3333 25.6003C61.3333 27.0132 61.1411 28.4074 60.7566 29.783C60.3717 31.1585 59.8631 32.4857 59.2306 33.7643C59.0769 34.1439 58.8255 34.4192 58.4766 34.5903C58.1282 34.761 57.77 34.7828 57.402 34.6557C57.0553 34.5539 56.7957 34.3457 56.6233 34.031C56.4504 33.7163 56.4408 33.3917 56.5946 33.057C57.2169 31.8877 57.7177 30.6817 58.0973 29.439C58.4769 28.1963 58.6666 26.9168 58.6666 25.6003C58.6666 22.1781 57.4777 19.2781 55.1 16.9003C52.7222 14.5225 49.8222 13.3337 46.4 13.3337C43.852 13.3337 41.5355 14.0628 39.4506 15.521C37.3657 16.9792 35.4891 18.6928 33.8206 20.6617C33.3348 21.2465 32.728 21.539 32 21.539C31.272 21.539 30.6651 21.2465 30.1793 20.6617C28.5211 18.6928 26.6437 16.9792 24.5473 15.521C22.4504 14.0628 20.1346 13.3337 17.6 13.3337C14.1777 13.3337 11.2777 14.5225 8.89996 16.9003C6.52218 19.2781 5.33329 22.1781 5.33329 25.6003C5.33329 26.9079 5.5144 28.1939 5.87663 29.4583C6.23929 30.7223 6.73174 31.939 7.35396 33.1083C7.46329 33.4328 7.44863 33.7497 7.30996 34.059C7.17174 34.3688 6.93752 34.5821 6.60729 34.699C6.23307 34.8452 5.88018 34.8294 5.54863 34.6517C5.21707 34.4739 4.95729 34.1952 4.76929 33.8157C4.13685 32.537 3.62818 31.2043 3.24329 29.8177C2.85885 28.4305 2.66663 27.0248 2.66663 25.6003C2.66663 21.4523 4.1184 17.9263 7.02196 15.0223C9.92596 12.1188 13.452 10.667 17.6 10.667C20.2973 10.667 22.8871 11.367 25.3693 12.767C27.8511 14.167 30.0613 16.185 32 18.821ZM4.61529 56.103C4.06329 56.103 3.6004 55.9161 3.22663 55.5423C2.85329 55.169 2.66663 54.7063 2.66663 54.1543V53.8003C2.66663 52.6279 3.11796 51.5903 4.02063 50.6877C4.92329 49.785 6.14374 49.1063 7.68196 48.6517C8.73485 48.3303 9.68529 48.1559 10.5333 48.1283C11.3813 48.1012 12.3044 48.1321 13.3026 48.221C13.6751 48.2557 13.9451 48.4217 14.1126 48.719C14.2802 49.0159 14.3093 49.3301 14.2 49.6617C14.0257 50.1679 13.8891 50.6937 13.79 51.239C13.6908 51.7843 13.6413 52.3372 13.6413 52.8977V53.949C13.6413 54.5592 13.4348 55.0708 13.022 55.4837C12.6091 55.8965 12.0975 56.103 11.4873 56.103H4.61529ZM18.6666 53.949V53.103C18.6666 50.8977 19.8995 49.1454 22.3653 47.8463C24.8306 46.5472 28.0468 45.8977 32.014 45.8977C36.0184 45.8977 39.2393 46.5472 41.6766 47.8463C44.1144 49.1454 45.3333 50.8977 45.3333 53.103V53.949C45.3333 54.5592 45.1269 55.0708 44.714 55.4837C44.3011 55.8965 43.7895 56.103 43.1793 56.103H20.8413C20.2084 56.103 19.6877 55.8965 19.2793 55.4837C18.8708 55.0708 18.6666 54.5592 18.6666 53.949ZM52.5126 56.103C51.9024 56.103 51.3909 55.8965 50.978 55.4837C50.5651 55.0708 50.3586 54.5592 50.3586 53.949V52.8977C50.3586 52.3372 50.3091 51.7843 50.21 51.239C50.1109 50.6937 49.9742 50.1679 49.8 49.6617C49.6906 49.3301 49.7197 49.0159 49.8873 48.719C50.0549 48.4217 50.3249 48.2557 50.6973 48.221C51.6955 48.1321 52.6186 48.1012 53.4666 48.1283C54.3146 48.1559 55.2651 48.3303 56.318 48.6517C57.8562 49.1063 59.0766 49.785 59.9793 50.6877C60.882 51.5903 61.3333 52.6279 61.3333 53.8003V54.1543C61.3333 54.7063 61.1466 55.169 60.7733 55.5423C60.3995 55.9161 59.9366 56.103 59.3846 56.103H52.5126ZM31.994 48.5643C28.986 48.5643 26.4906 48.9661 24.508 49.7697C22.5248 50.5732 21.4922 51.6074 21.41 52.8723V53.4363H42.6053V52.8723C42.5129 51.6074 41.4862 50.5732 39.5253 49.7697C37.5648 48.9661 35.0544 48.5643 31.994 48.5643ZM12.0513 45.5903C11.0077 45.5903 10.1144 45.2186 9.37129 44.475C8.62818 43.7319 8.25663 42.8386 8.25663 41.795C8.25663 40.7626 8.62818 39.8806 9.37129 39.149C10.1144 38.4174 11.0077 38.0517 12.0513 38.0517C13.0837 38.0517 13.9744 38.4174 14.7233 39.149C15.4717 39.8806 15.846 40.7626 15.846 41.795C15.846 42.8386 15.4717 43.7319 14.7233 44.475C13.9744 45.2186 13.0837 45.5903 12.0513 45.5903ZM52 45.5903C50.9777 45.5903 50.0897 45.2186 49.336 44.475C48.5822 43.7319 48.2053 42.8386 48.2053 41.795C48.2053 40.7626 48.5822 39.8806 49.336 39.149C50.0897 38.4174 50.9811 38.0517 52.01 38.0517C53.07 38.0517 53.9657 38.4174 54.6973 39.149C55.4289 39.8806 55.7946 40.7626 55.7946 41.795C55.7946 42.8386 55.4311 43.7319 54.704 44.475C53.9764 45.2186 53.0751 45.5903 52 45.5903ZM32.018 43.8977C30.3993 43.8977 29.0173 43.3292 27.872 42.1923C26.7266 41.0559 26.154 39.6757 26.154 38.0517C26.154 36.3952 26.7222 35.0068 27.8586 33.8863C28.9955 32.7659 30.376 32.2057 32 32.2057C33.6564 32.2057 35.0448 32.7641 36.1653 33.881C37.2857 34.9979 37.846 36.3821 37.846 38.0337C37.846 39.6523 37.2875 41.0343 36.1706 42.1797C35.0537 43.325 33.6695 43.8977 32.018 43.8977ZM32 34.8723C31.1417 34.8723 30.3973 35.177 29.7666 35.7863C29.136 36.3957 28.8206 37.1508 28.8206 38.0517C28.8206 38.9099 29.136 39.6543 29.7666 40.285C30.3973 40.9157 31.1502 41.231 32.0253 41.231C32.9009 41.231 33.6453 40.9157 34.2586 40.285C34.8724 39.6543 35.1793 38.9012 35.1793 38.0257C35.1793 37.1505 34.8746 36.4061 34.2653 35.7923C33.656 35.179 32.9008 34.8723 32 34.8723Z" fill="#312F33"/>
</g>
</svg>
