<svg width="85" height="74" viewBox="0 0 85 74" fill="none" xmlns="http://www.w3.org/2000/svg">
<path fill-rule="evenodd" clip-rule="evenodd" d="M43.4193 1.62338C50.95 1.61577 58.5716 -1.13557 65.5535 1.52606C73.1401 4.41819 80.1193 9.72148 83.3077 16.8294C86.4693 23.8777 84.6136 31.9214 82.5026 39.311C80.5749 46.0587 76.7333 51.9924 71.7783 57.1881C66.8962 62.3073 61.0051 66.2208 54.2815 68.9028C46.8845 71.8534 39.0773 74.6621 31.1599 73.3904C22.799 72.0475 15.1023 67.7384 9.52297 61.7136C3.93188 55.6762 0.859678 47.8681 0.128442 39.8816C-0.578431 32.1612 1.69106 24.5443 5.49072 17.6736C9.15353 11.0504 14.0894 4.6286 21.3154 1.57075C28.1768 -1.33277 35.899 1.63098 43.4193 1.62338Z" fill="#FBFAFC"/>
<path d="M48.375 11.5142C46.0221 11.5126 43.6965 12.0176 41.5562 12.9947C39.4158 13.9718 37.5109 15.3983 35.9709 17.1771C34.4309 18.956 33.2918 21.0455 32.6312 23.3037C31.9705 25.5619 31.8037 27.9358 32.1422 30.2642L15.7359 52.6376C15.2692 53.2681 15.0453 54.0456 15.1051 54.8277C15.1649 55.6098 15.5045 56.3441 16.0617 56.8962L19.4133 60.2478C19.9656 60.8045 20.6999 61.1438 21.4819 61.2037C22.2639 61.2635 23.0412 61.0398 23.6718 60.5736L46.0453 44.1673C48.2722 44.4799 50.5396 44.3314 52.7067 43.731C54.8738 43.1305 56.8943 42.091 58.6428 40.6769C60.3913 39.2628 61.8304 37.5044 62.8708 35.5108C63.9112 33.5172 64.5306 31.331 64.6907 29.0879C64.8507 26.8449 64.5479 24.5929 63.8011 22.4718C63.0543 20.3507 61.8794 18.4058 60.3494 16.7578C58.8193 15.1098 56.9669 13.7939 54.907 12.8919C52.8471 11.9898 50.6237 11.5209 48.375 11.5142ZM61.9687 27.9205C61.9715 31.0397 60.895 34.0639 58.9218 36.4798L39.8179 17.3736C41.8107 15.7532 44.222 14.7311 46.7721 14.4258C49.3222 14.1205 51.9067 14.5445 54.2256 15.6486C56.5445 16.7527 58.5028 18.4917 59.8733 20.6638C61.2438 22.8359 61.9704 25.3521 61.9687 27.9205ZM22.0078 58.2931C21.9174 58.3595 21.8062 58.3912 21.6944 58.3826C21.5826 58.374 21.4776 58.3256 21.3984 58.2462L18.0492 54.897C17.9698 54.8178 17.9214 54.7128 17.9128 54.601C17.9042 54.4892 17.936 54.378 18.0023 54.2876L33.0539 33.7658C33.8819 35.921 35.1535 37.8782 36.7863 39.5106C38.419 41.143 40.3766 42.4141 42.532 43.2416L22.0078 58.2931ZM34.7812 27.9205C34.7799 24.8014 35.8563 21.7777 37.8281 19.3611L56.9367 38.4673C54.9426 40.0842 52.5315 41.1034 49.9823 41.407C47.4331 41.7105 44.85 41.286 42.5321 40.1826C40.2141 39.0791 38.256 37.3419 36.8843 35.1718C35.5126 33.0018 34.7835 30.4877 34.7812 27.9205ZM34.3711 41.9244C34.5018 42.055 34.6055 42.2101 34.6763 42.3808C34.7471 42.5515 34.7835 42.7345 34.7835 42.9193C34.7835 43.1041 34.7471 43.2871 34.6763 43.4578C34.6055 43.6285 34.5018 43.7836 34.3711 43.9142L32.4961 45.7892C32.3654 45.9199 32.2103 46.0235 32.0396 46.0942C31.8689 46.1649 31.6859 46.2013 31.5011 46.2013C31.3164 46.2013 31.1334 46.1649 30.9627 46.0942C30.792 46.0235 30.6369 45.9199 30.5062 45.7892C30.3756 45.6586 30.2719 45.5034 30.2012 45.3327C30.1305 45.162 30.0941 44.9791 30.0941 44.7943C30.0941 44.6095 30.1305 44.4265 30.2012 44.2558C30.2719 44.0851 30.3756 43.93 30.5062 43.7994L32.3812 41.9244C32.5117 41.7931 32.6668 41.6889 32.8377 41.6177C33.0085 41.5466 33.1918 41.5098 33.3768 41.5096C33.5619 41.5094 33.7452 41.5457 33.9162 41.6165C34.0872 41.6872 34.2426 41.7911 34.3734 41.922L34.3711 41.9244Z" fill="#7431B8"/>
</svg>
