<svg width="86" height="76" viewBox="0 0 86 76" fill="none" xmlns="http://www.w3.org/2000/svg">
<path fill-rule="evenodd" clip-rule="evenodd" d="M43.8478 1.82792C51.3785 1.82032 59.0001 -0.931029 65.9821 1.73061C73.5687 4.62273 80.5479 9.92603 83.7363 17.034C86.8979 24.0823 85.0422 32.126 82.9311 39.5156C81.0035 46.2632 77.1618 52.197 72.2069 57.3926C67.3248 62.5118 61.4337 66.4253 54.7101 69.1073C47.3131 72.0579 39.5059 74.8666 31.5885 73.5949C23.2276 72.252 15.5309 67.9429 9.95156 61.9181C4.36047 55.8807 1.28827 48.0727 0.557031 40.0862C-0.149842 32.3657 2.11965 24.7488 5.91931 17.8782C9.58212 11.255 14.518 4.83315 21.744 1.77529C28.6054 -1.12823 36.3276 1.83552 43.8478 1.82792Z" fill="#FBFAFC"/>
<path d="M38.2286 28.1562C37.8438 27.7715 37.3683 27.4901 36.8459 27.3379C36.3235 27.1858 35.7712 27.1679 35.24 27.2859C34.7089 27.4039 34.2161 27.654 33.8073 28.013C33.3985 28.3721 33.0868 28.8284 32.9012 29.3398L20.5965 63.1883C20.4197 63.676 20.3626 64.199 20.4301 64.7133C20.4975 65.2276 20.6875 65.7182 20.984 66.1439C21.2805 66.5695 21.675 66.9176 22.1341 67.1591C22.5932 67.4005 23.1036 67.5282 23.6223 67.5312C24.0037 67.5303 24.382 67.4629 24.7403 67.332L58.5793 55.0273C59.0899 54.8404 59.5451 54.5278 59.9028 54.1184C60.2606 53.709 60.5093 53.216 60.6261 52.685C60.7429 52.154 60.724 51.6022 60.5711 51.0804C60.4182 50.5587 60.1362 50.0839 59.7512 49.7L38.2286 28.1562ZM23.7793 64.6883C23.7041 64.7161 23.6224 64.7218 23.544 64.7047C23.4656 64.6875 23.3938 64.6482 23.3371 64.5915C23.2803 64.5347 23.2411 64.4629 23.2239 64.3845C23.2067 64.3061 23.2124 64.2245 23.2403 64.1492L26.7981 54.3594L33.5692 61.1281L23.7793 64.6883ZM36.4848 60.0688L27.8598 51.4414L31.2981 41.9844L45.9442 56.6305L36.4848 60.0688ZM57.8973 52.0789C57.8832 52.1486 57.8511 52.2133 57.8042 52.2668C57.7574 52.3202 57.6973 52.3605 57.6301 52.3836L48.8598 55.5781L32.3504 39.0664L35.545 30.3102C35.5676 30.2427 35.6078 30.1824 35.6613 30.1355C35.7148 30.0886 35.7798 30.0566 35.8496 30.043C35.8815 30.0388 35.9138 30.0388 35.9457 30.043C36.0004 30.0427 36.0546 30.0536 36.105 30.0749C36.1554 30.0963 36.2009 30.1277 36.2387 30.1672L57.7731 51.7016C57.8244 51.7485 57.8628 51.8079 57.8846 51.874C57.9063 51.9401 57.9107 52.0106 57.8973 52.0789ZM50.3973 32.375C50.4306 31.1804 50.7208 30.0069 51.2481 28.9344C52.4059 26.6187 54.5997 25.3438 57.4286 25.3438C59.1793 25.3438 60.3653 24.7016 61.0567 23.3797C61.4076 22.6772 61.6088 21.9094 61.6473 21.125C61.6473 20.752 61.7955 20.3944 62.0592 20.1306C62.3229 19.8669 62.6806 19.7188 63.0536 19.7188C63.4265 19.7188 63.7842 19.8669 64.0479 20.1306C64.3116 20.3944 64.4598 20.752 64.4598 21.125C64.4598 23.5578 62.9903 28.1562 57.4286 28.1562C55.6778 28.1562 54.4918 28.7984 53.8004 30.1203C53.4483 30.8224 53.2471 31.5904 53.2098 32.375C53.2098 32.748 53.0616 33.1056 52.7979 33.3694C52.5342 33.6331 52.1765 33.7812 51.8036 33.7812C51.4306 33.7812 51.0729 33.6331 50.8092 33.3694C50.5455 33.1056 50.3973 32.748 50.3973 32.375ZM44.7723 24.875V19.25C44.7723 18.877 44.9205 18.5194 45.1842 18.2556C45.4479 17.9919 45.8056 17.8438 46.1786 17.8438C46.5515 17.8438 46.9092 17.9919 47.1729 18.2556C47.4366 18.5194 47.5848 18.877 47.5848 19.25V24.875C47.5848 25.248 47.4366 25.6056 47.1729 25.8694C46.9092 26.1331 46.5515 26.2812 46.1786 26.2812C45.8056 26.2812 45.4479 26.1331 45.1842 25.8694C44.9205 25.6056 44.7723 25.248 44.7723 24.875ZM67.7973 44.5063C67.9355 44.635 68.0463 44.7902 68.1231 44.9627C68.2 45.1352 68.2413 45.3215 68.2447 45.5103C68.248 45.6991 68.2133 45.8866 68.1425 46.0617C68.0718 46.2368 67.9665 46.3959 67.833 46.5294C67.6995 46.663 67.5404 46.7683 67.3653 46.839C67.1902 46.9097 67.0026 46.9444 66.8138 46.9411C66.625 46.9378 66.4388 46.8965 66.2663 46.8196C66.0938 46.7427 65.9385 46.6319 65.8098 46.4938L62.0598 42.7437C61.8114 42.4772 61.6762 42.1246 61.6826 41.7603C61.689 41.396 61.8366 41.0484 62.0943 40.7907C62.3519 40.5331 62.6995 40.3855 63.0638 40.379C63.4281 40.3726 63.7807 40.5079 64.0473 40.7563L67.7973 44.5063ZM69.1239 33.7086L63.4989 35.5836C63.3227 35.6463 63.1358 35.6732 62.9491 35.6628C62.7624 35.6524 62.5796 35.6049 62.4115 35.523C62.2434 35.4411 62.0933 35.3265 61.97 35.1859C61.8467 35.0453 61.7527 34.8815 61.6935 34.7041C61.6343 34.5268 61.611 34.3394 61.6251 34.1529C61.6392 33.9664 61.6903 33.7847 61.7755 33.6182C61.8606 33.4517 61.9782 33.3039 62.1212 33.1834C62.2642 33.0629 62.4297 32.9721 62.6082 32.9164L68.2332 31.0414C68.5847 30.9317 68.9651 30.9642 69.2929 31.1319C69.6207 31.2996 69.8696 31.5891 69.9862 31.9384C70.1028 32.2876 70.0778 32.6686 69.9166 32.9996C69.7553 33.3306 69.4707 33.5851 69.1239 33.7086Z" fill="#7431B8"/>
</svg>
