<svg width="137" height="136" viewBox="0 0 137 136" fill="none" xmlns="http://www.w3.org/2000/svg">
<mask id="mask0_1192_6698" style="mask-type:luminance" maskUnits="userSpaceOnUse" x="0" y="0" width="137" height="136">
<path d="M136.5 0H0.5V136H136.5V0Z" fill="white"/>
</mask>
<g mask="url(#mask0_1192_6698)">
<path d="M79.769 26.2975L85.7122 31.518C86.1766 31.926 86.7369 32.2098 87.341 32.3431L95.0742 34.047C96.2737 34.3113 97.2606 35.1583 97.6997 36.3014L100.532 43.6701C100.753 44.2456 101.118 44.7563 101.591 45.1536L107.65 50.24C108.59 51.0291 109.069 52.2354 108.926 53.4496L107.997 61.2778C107.925 61.8893 108.01 62.5095 108.244 63.08L111.242 70.3839C111.706 71.5168 111.568 72.8056 110.874 73.8129L106.398 80.308C106.049 80.8155 105.835 81.4031 105.776 82.016L105.025 89.8636C104.909 91.0813 104.185 92.1573 103.1 92.7269L96.1019 96.4005C95.5552 96.6874 95.091 97.1081 94.7528 97.6233L90.4255 104.217C89.7543 105.24 88.6105 105.857 87.3825 105.859L79.4657 105.869C78.8473 105.87 78.2396 106.027 77.6995 106.326L70.7868 110.156C69.7147 110.75 68.4132 110.766 67.3238 110.199L60.3017 106.544C59.7532 106.259 59.1409 106.117 58.5228 106.132L50.6085 106.32C49.3809 106.349 48.2197 105.761 47.5186 104.755L42.9998 98.272C42.6469 97.7659 42.1704 97.3568 41.6155 97.0836L34.5129 93.5869C33.4111 93.0444 32.6561 91.987 32.5042 90.773L31.5236 82.9473C31.447 82.336 31.2158 81.7533 30.8516 81.2551L26.1875 74.8746C25.4639 73.8848 25.2883 72.6 25.7198 71.456L28.5026 64.0798C28.72 63.5037 28.7866 62.8815 28.6962 62.2719L27.5393 54.4696C27.3598 53.2595 27.8036 52.0418 28.72 51.2297L34.6283 45.993C35.0898 45.5838 35.4393 45.0648 35.6435 44.4836L38.2588 37.0467C38.6643 35.8929 39.6258 35.0214 40.8174 34.7272L48.4978 32.8298C49.0978 32.6817 49.6497 32.3839 50.1019 31.9646L55.8901 26.5969C56.7879 25.7641 58.047 25.4382 59.2404 25.7292L66.9335 27.606C67.5344 27.7524 68.1627 27.7449 68.7593 27.5833L76.3943 25.5141C77.5789 25.1931 78.8471 25.4876 79.769 26.2975Z" fill="#00D9A5"/>
<path d="M49.261 68.1514L61.9861 80.8764C61.9861 80.8764 79.1098 63.7524 85.4309 57.4312" stroke="white" stroke-width="4.76" stroke-miterlimit="10"/>
</g>
</svg>
