<svg width="165" height="132" viewBox="0 0 165 132" fill="none" xmlns="http://www.w3.org/2000/svg">
<path d="M152.603 73.5951H140.232C133.618 73.5951 128.255 68.2328 128.255 61.618V28.2148H164.58V61.618C164.58 68.2328 159.218 73.5951 152.603 73.5951Z" fill="#A8542A"/>
<path d="M152.603 73.3114H140.822C139.897 73.3316 138.972 73.2645 138.06 73.111C132.606 72.0801 128.629 67.3579 128.539 61.8085C128.526 60.9956 128.538 60.1817 128.538 59.3687V28.2136L128.255 28.4961H163.1C163.568 28.4961 164.053 28.5332 164.52 28.4961C164.539 28.4945 164.56 28.4961 164.58 28.4961L164.298 28.2136V60.1037C164.298 60.6075 164.299 61.1113 164.298 61.6151C164.303 64.7186 163.073 67.6965 160.879 69.8912C158.684 72.0858 155.706 73.3165 152.603 73.3114C152.451 73.3166 152.33 73.4415 152.33 73.5939C152.33 73.7462 152.451 73.8711 152.603 73.8763C158.443 73.8745 163.472 69.7555 164.624 64.0302C164.808 62.9791 164.888 61.9124 164.862 60.8457V28.2136C164.86 28.0585 164.735 27.9334 164.58 27.9312H129.735C129.263 27.9312 128.788 27.9191 128.316 27.9312C128.296 27.9317 128.275 27.9312 128.255 27.9312C128.1 27.9334 127.975 28.0585 127.973 28.2136V58.414C127.973 59.4524 127.973 60.4908 127.973 61.5292C127.95 64.7981 129.233 67.9408 131.538 70.2592C133.842 72.5777 136.977 73.8798 140.246 73.8763C142.039 73.8798 143.833 73.8763 145.626 73.8763H152.603C152.755 73.8711 152.876 73.7462 152.876 73.5939C152.876 73.4415 152.755 73.3166 152.603 73.3114Z" fill="black"/>
<path d="M141.145 73.5951H128.774C122.159 73.5951 116.797 68.2328 116.797 61.618V28.2148H153.122V61.618C153.122 68.2328 147.759 73.5951 141.145 73.5951Z" fill="#FC7F3A"/>
<path d="M141.145 73.3114H129.364C128.439 73.3316 127.514 73.2645 126.602 73.111C121.148 72.0801 117.17 67.3579 117.081 61.8085C117.068 60.9956 117.079 60.1817 117.079 59.3687V28.2136L116.797 28.4961H151.642C152.109 28.4961 152.595 28.5332 153.061 28.4961C153.081 28.4945 153.102 28.4961 153.122 28.4961L152.839 28.2136V60.1037C152.839 60.6075 152.84 61.1113 152.839 61.6151C152.845 64.7186 151.614 67.6965 149.42 69.8912C147.226 72.0858 144.248 73.3165 141.145 73.3114C140.992 73.3166 140.872 73.4415 140.872 73.5939C140.872 73.7462 140.992 73.8711 141.145 73.8763C146.985 73.8745 152.014 69.7555 153.166 64.0302C153.35 62.9791 153.429 61.9124 153.404 60.8457V28.2136C153.402 28.0585 153.277 27.9334 153.122 27.9312H118.277C117.804 27.9312 117.33 27.9191 116.857 27.9312C116.837 27.9317 116.817 27.9312 116.797 27.9312C116.642 27.9334 116.517 28.0585 116.514 28.2136V58.414C116.514 59.4524 116.514 60.4908 116.514 61.5292C116.491 64.7981 117.775 67.9408 120.079 70.2592C122.384 72.5777 125.519 73.8798 128.788 73.8763C130.581 73.8798 132.374 73.8763 134.167 73.8763H141.145C141.297 73.8711 141.418 73.7462 141.418 73.5939C141.418 73.4415 141.297 73.3166 141.145 73.3114Z" fill="black"/>
<path d="M116.42 126.741C116.414 125.836 116.108 124.905 115.166 124.615C114.508 124.411 113.768 124.54 113.125 124.741C112.957 124.793 112.792 124.854 112.63 124.924L112.838 125.084C113.014 124.409 112.622 123.678 112.126 123.247C111.102 122.325 109.605 122.155 108.401 122.826C108.107 122.988 107.841 123.195 107.612 123.44L107.848 123.577C107.993 123.186 108.058 122.77 108.04 122.354C108.019 121.504 107.595 120.714 106.897 120.228C106.266 119.78 105.491 119.568 104.736 119.449V119.722C105.741 119.432 106.775 119.057 107.603 118.399C108.081 118.018 108.503 117.489 108.527 116.853C108.581 115.437 106.866 114.628 105.748 114.272C104.584 113.922 103.372 113.761 102.157 113.795L102.257 114.036C103.668 112.888 105.087 111.652 106.152 110.164C106.6 109.539 107.18 108.641 106.973 107.826C106.811 107.19 106.147 106.972 105.557 106.955C104.591 106.926 103.616 107.277 102.751 107.673C101.318 108.353 100.003 109.258 98.8557 110.353L99.0917 110.491C99.8284 108.19 100.477 105.789 100.597 103.364C100.646 102.654 100.606 101.94 100.477 101.239C100.404 100.778 100.214 100.344 99.9264 99.9763C99.3777 99.3465 98.5782 99.556 97.9977 100.019C97.002 100.813 96.4012 102.095 95.9523 103.253C95.1838 105.236 94.8111 107.369 94.6406 109.482C94.6145 109.805 94.5935 110.129 94.5776 110.453L94.855 110.416C94.6353 109.003 94.3409 107.599 94.0114 106.209C93.7235 104.994 93.3987 103.787 93.0067 102.601C92.6569 101.472 92.196 100.38 91.6307 99.3414C91.2255 98.6308 90.6938 97.8381 89.9154 97.4993C89.2138 97.206 88.4027 97.4204 87.9378 98.0221C87.3404 98.7742 87.2812 99.8587 87.3059 100.778C87.3638 102.03 87.5494 103.273 87.8596 104.487C88.2999 106.338 88.8669 108.155 89.5567 109.928C89.5686 109.958 89.5805 109.989 89.5927 110.02L89.8001 109.86C89.3533 109.551 88.8825 109.279 88.3923 109.045C87.6449 108.682 86.7476 108.313 85.9004 108.464C84.889 108.644 84.6127 109.706 84.6485 110.603C84.7115 111.631 85.2074 112.585 86.0131 113.227C86.4877 113.634 87.0321 113.953 87.62 114.167V113.895C86.6011 114.025 85.6198 114.363 84.7374 114.889C84.1923 115.234 83.6888 115.732 83.5844 116.396C83.4715 117.113 83.6983 117.963 84.3185 118.388C84.6642 118.619 85.0779 118.726 85.4921 118.691C85.6712 118.673 85.6731 118.391 85.4921 118.409C85.1992 118.434 84.9049 118.379 84.641 118.25C84.0096 117.937 83.7798 117.175 83.8523 116.51C83.9886 115.258 85.5973 114.689 86.6243 114.403C86.9758 114.301 87.3335 114.223 87.6951 114.167C87.8452 114.146 87.8123 113.935 87.6951 113.895C86.4539 113.467 85.2462 112.397 84.984 111.063C84.8271 110.265 84.908 109.002 85.865 108.76C86.6174 108.57 87.477 108.925 88.1466 109.239C88.674 109.484 89.1795 109.774 89.6576 110.104C89.7073 110.132 89.7687 110.128 89.8137 110.093C89.8588 110.058 89.879 110 89.8651 109.945C89.2989 108.5 88.8146 107.024 88.4143 105.524C88.0705 104.314 87.8198 103.08 87.6643 101.831C87.5522 100.829 87.4812 99.7133 87.8485 98.7517C88.1008 98.0912 88.7158 97.5346 89.4662 97.6559C90.2167 97.7773 90.7629 98.4921 91.147 99.088C91.7233 100.032 92.1886 101.04 92.5337 102.09C92.9472 103.256 93.285 104.449 93.5843 105.648C93.978 107.226 94.2617 108.818 94.5701 110.413C94.5751 110.439 94.5785 110.465 94.5825 110.491C94.6081 110.655 94.8524 110.604 94.86 110.453C94.9685 108.297 95.2778 106.128 95.958 104.072C96.3731 102.818 96.9303 101.482 97.8666 100.52C98.1232 100.227 98.4531 100.008 98.8224 99.8846C99.0821 99.8068 99.3634 99.8606 99.5761 100.029C99.8599 100.295 100.055 100.643 100.134 101.024C100.288 101.639 100.353 102.273 100.329 102.907C100.301 105.089 99.7634 107.269 99.148 109.35C99.0426 109.707 98.9331 110.062 98.8193 110.416C98.8042 110.477 98.8313 110.541 98.8859 110.573C98.9405 110.604 99.0095 110.596 99.0553 110.553C100.053 109.609 101.174 108.805 102.388 108.163C103.252 107.716 104.212 107.322 105.192 107.247C105.691 107.208 106.418 107.24 106.656 107.771C106.946 108.416 106.419 109.26 106.079 109.774C105.639 110.417 105.139 111.016 104.586 111.563C103.787 112.369 102.942 113.128 102.057 113.837C101.959 113.916 102.042 114.079 102.157 114.078C103.186 114.053 104.215 114.166 105.215 114.413C105.98 114.589 106.704 114.91 107.347 115.36C107.762 115.669 108.164 116.103 108.236 116.636C108.31 117.188 107.986 117.676 107.597 118.033C106.796 118.77 105.686 119.154 104.661 119.449C104.537 119.485 104.516 119.699 104.661 119.722C105.734 119.89 106.948 120.275 107.492 121.302C107.765 121.862 107.835 122.5 107.688 123.107C107.662 123.241 107.624 123.374 107.575 123.502C107.523 123.634 107.721 123.741 107.811 123.64C108.316 123.091 109.008 122.751 109.751 122.687C110.833 122.611 112.272 123.273 112.547 124.414C112.598 124.608 112.604 124.811 112.565 125.009C112.552 125.064 112.572 125.121 112.617 125.156C112.662 125.19 112.723 125.195 112.773 125.168C112.779 125.165 112.786 125.162 112.793 125.159C112.748 125.175 112.822 125.147 112.84 125.14C112.921 125.109 113.003 125.079 113.085 125.051C113.347 124.961 113.616 124.893 113.89 124.847C114.513 124.743 115.255 124.77 115.707 125.274C116.059 125.668 116.135 126.233 116.138 126.741C116.14 126.817 116.203 126.878 116.279 126.878C116.355 126.878 116.418 126.817 116.42 126.741L116.42 126.741Z" fill="black"/>
<path d="M92.6895 119.624C92.7938 119.293 92.9206 118.969 93.0692 118.654C93.3276 118.098 93.648 117.504 94.1364 117.116C94.5727 116.769 95.2634 116.713 95.5914 117.246C95.9132 117.77 95.736 118.513 95.5776 119.06C95.4495 119.51 95.2787 119.946 95.0675 120.363C95.0176 120.46 95.1036 120.621 95.2269 120.57C95.9132 120.29 96.8035 120.141 97.506 120.428C97.8255 120.558 98.0805 120.767 97.8878 121.115C97.7072 121.396 97.4702 121.636 97.1918 121.821C97.0106 121.957 96.8211 122.082 96.6245 122.195C96.582 122.221 96.556 122.267 96.556 122.317C96.556 122.367 96.582 122.413 96.6245 122.439C96.8142 122.565 96.9801 122.724 97.1144 122.907C97.4051 123.259 97.4152 123.765 97.1388 124.129C97.0347 124.278 97.2794 124.42 97.3826 124.271C97.911 123.512 97.4709 122.652 96.7671 122.195V122.439C97.2711 122.153 97.875 121.756 98.1473 121.229C98.3254 120.936 98.2449 120.555 97.9633 120.359C97.5005 120.014 96.8615 119.961 96.3062 120.021C95.9104 120.06 95.522 120.153 95.1518 120.298L95.3113 120.505C95.5146 120.104 95.6828 119.686 95.8139 119.256C96.0077 118.63 96.1857 117.853 95.9003 117.228C95.6105 116.642 94.9048 116.396 94.3141 116.676C93.7005 116.955 93.2915 117.603 92.9901 118.178C92.7574 118.616 92.5655 119.075 92.4171 119.549C92.3636 119.723 92.6362 119.798 92.6894 119.624L92.6895 119.624Z" fill="black"/>
<path d="M47.8694 26.4157C51.1356 25.6033 54.5974 26.5789 56.8276 28.2849L72.224 40.0627L87.1802 45.8111C86.3661 46.9406 85.4547 48.6798 84.669 50.7038C84.1666 51.998 83.8608 57.1021 83.6056 58.1919L68.3357 53.6747C66.7333 53.2055 65.2097 52.5001 63.8152 51.5819L49.5696 38.1316L41.4796 28.2651L47.8694 26.4157Z" fill="white"/>
<path d="M47.9445 26.6873C50.9871 25.9804 54.1866 26.6543 56.6855 28.5285C57.2212 28.9355 57.7543 29.346 58.2886 29.7548L62.042 32.626L66.5503 36.0747L70.3721 38.9983L71.5716 39.9158C71.7323 40.0544 71.9009 40.1834 72.0767 40.3022C72.2471 40.3853 72.4239 40.4547 72.6053 40.5097L74.0693 41.0724L78.8181 42.8976L83.9211 44.8589L86.9601 46.027L87.1052 46.0828L86.9364 45.6679C86.2933 46.5912 85.7347 47.5707 85.2676 48.5943C84.8628 49.4515 84.419 50.3396 84.2182 51.2719C83.8723 52.8782 83.7609 54.5411 83.5881 56.1722C83.542 56.8247 83.4569 57.4738 83.3333 58.1161L83.6808 57.9188L80.2305 56.8982L73.4642 54.8965L68.6776 53.4806C67.5606 53.1618 66.477 52.7359 65.4419 52.209C64.9469 51.9752 64.4732 51.6986 64.0265 51.3822C64.0109 51.3702 63.9902 51.356 63.9725 51.3414C63.8637 51.2506 63.7644 51.1448 63.6614 51.0476L60.1335 47.7167L54.9243 42.7984L50.7283 38.8365C50.4244 38.5497 50.1141 38.268 49.816 37.9752C49.645 37.7919 49.4839 37.5997 49.3333 37.3994L45.4494 32.6626L41.8766 28.3052L41.6794 28.0647L41.5548 28.5368L47.1582 26.9149L47.9444 26.6873C48.293 26.5864 48.1447 26.0412 47.7943 26.1426L42.1909 27.7645L41.4046 27.9921C41.3092 28.0207 41.2356 28.0969 41.2102 28.1932C41.1848 28.2895 41.2112 28.3921 41.28 28.4641L43.9454 31.7149L48.27 36.9891C48.7309 37.5916 49.2299 38.164 49.764 38.7027L53.3715 42.1088L58.5884 47.0343L62.7434 50.9573C63.0245 51.2228 63.2992 51.4976 63.588 51.7548C63.6795 51.8305 63.777 51.8988 63.8794 51.9589C64.3402 52.2527 64.8146 52.5236 65.3025 52.7716C66.2509 53.2522 67.2411 53.6454 68.2608 53.9464C69.4231 54.291 70.5856 54.6349 71.7483 54.978L78.5393 56.987L83.2885 58.3918L83.5306 58.4635C83.6808 58.5032 83.8352 58.4156 83.878 58.2662C83.9885 57.7047 84.0662 57.1373 84.1107 56.5668C84.2021 55.7277 84.2848 54.8876 84.3797 54.0489C84.4685 53.2637 84.5606 52.4765 84.7072 51.6995C84.8698 50.8379 85.2204 50.0491 85.5824 49.2528C86.0876 48.0956 86.7045 46.9904 87.4241 45.9529C87.467 45.8769 87.4729 45.7855 87.44 45.7046C87.4071 45.6238 87.3391 45.5624 87.2553 45.538L85.0919 44.7064L80.2248 42.8358L75.1678 40.8921C74.2359 40.5339 73.3058 40.1708 72.3721 39.8176C72.3494 39.809 72.3262 39.8011 72.304 39.7914C72.3047 39.7917 72.3757 39.8472 72.353 39.8076C72.3231 39.7556 72.2168 39.7034 72.1701 39.6676L71.2395 38.9557L67.7274 36.2692L63.2437 32.8394L59.2083 29.7523L57.0509 28.1021C55.0771 26.616 52.6686 25.8217 50.198 25.8422C49.3878 25.8493 48.5813 25.9501 47.7943 26.1426C47.4414 26.2289 47.5909 26.7738 47.9445 26.6873Z" fill="black"/>
<path d="M83.6128 58.191C83.0279 57.9639 83.0336 56.4322 83.5257 54.3301L86.4067 55.1738C85.3088 57.192 84.2207 58.427 83.6128 58.191Z" fill="black"/>
<path d="M83.6878 57.9173C83.7643 57.9494 83.6215 57.8594 83.6799 57.9077C83.6644 57.8956 83.6505 57.8815 83.6384 57.8658C83.6124 57.8293 83.6749 57.9218 83.6294 57.854C83.5806 57.786 83.5463 57.7086 83.5286 57.6268C83.4656 57.3782 83.4383 57.1219 83.4474 56.8656C83.4718 56.0345 83.5895 55.2087 83.7982 54.4039L83.4507 54.6012L86.3317 55.4449L86.1629 55.03C85.753 55.8311 85.2539 56.5834 84.6751 57.2725C84.4994 57.4855 84.2935 57.6717 84.0641 57.8253C83.9932 57.8743 83.9138 57.9097 83.8299 57.9296C83.8217 57.9319 83.7549 57.9407 83.7953 57.9369C83.8358 57.9331 83.7712 57.9362 83.7633 57.9359C83.688 57.9335 83.8231 57.9473 83.7504 57.9361C83.7291 57.9318 83.7082 57.9255 83.688 57.9173C83.3452 57.7945 83.1976 58.3401 83.5379 58.4621C84.0832 58.6574 84.6407 58.1372 84.9776 57.7783C85.6561 57.0554 86.1778 56.1807 86.6507 55.3151C86.6935 55.2391 86.6993 55.1477 86.6665 55.0669C86.6336 54.9861 86.5657 54.9247 86.482 54.9002L83.6007 54.0564C83.4505 54.0167 83.2961 54.1044 83.2533 54.2537C83.0422 55.163 82.8516 56.1174 82.8852 57.0559C82.9041 57.5811 82.9925 58.2334 83.5376 58.4621C83.6879 58.5024 83.8428 58.4145 83.8851 58.2648C83.9226 58.1149 83.8358 57.9619 83.6878 57.9173Z" fill="black"/>
<path d="M84.669 50.7032C85.4547 48.6792 86.3661 46.94 87.1802 45.8105L89.3333 46.6381L92.875 47.9994L89.6108 56.112L86.4068 55.1737L83.5258 54.33C83.823 53.0962 84.205 51.8844 84.669 50.7032Z" fill="#F5EDFC"/>
<path d="M84.9413 50.7789C85.5952 49.1006 86.3707 47.4228 87.424 45.9537L87.105 46.0835L91.7726 47.8775L92.7999 48.2723L92.6026 47.9249L91.5013 50.6619L89.7441 55.029L89.3383 56.0375L89.6858 55.8403L84.8975 54.4379L83.6008 54.0582L83.7981 54.4056C84.0958 53.172 84.4777 51.9602 84.9413 50.7789C85.0725 50.4396 84.5266 50.2927 84.3966 50.6287C83.933 51.8101 83.551 53.0218 83.2534 54.2555C83.2151 54.4055 83.3022 54.5589 83.4506 54.6029L88.3036 56.0241L89.5356 56.385C89.6855 56.4221 89.8382 56.3354 89.8831 56.1877L90.9844 53.4506L92.7416 49.0835L93.1473 48.075C93.1859 47.925 93.0987 47.7714 92.9501 47.7276L88.5888 46.0513L87.2552 45.5388C87.1319 45.5063 87.0019 45.5592 86.9363 45.6686C85.8543 47.1778 85.0682 48.9051 84.3966 50.6287C84.2645 50.9676 84.8105 51.1145 84.9413 50.7789Z" fill="black"/>
<path d="M37.223 60.2962L37.4157 62.1416C37.5257 63.1953 38.3054 64.0564 39.343 64.2703L44.2721 65.2864L62.7142 58.8418C63.9714 58.4025 64.6871 57.078 64.3657 55.7856L64.2628 55.3719L62.3669 53.6758" fill="black"/>
<path d="M36.9406 60.2956L37.1242 62.0544C37.2281 63.0494 37.7787 63.9436 38.7142 64.3587C39.1621 64.5574 39.6664 64.6243 40.1436 64.7226L42.4009 65.1879L44.0877 65.5357C44.2332 65.5684 44.3853 65.5548 44.5227 65.4968L46.6918 64.7388L50.543 63.3931L55.0898 61.8042L59.2817 60.3393L62.1316 59.3434C62.3344 59.2726 62.5373 59.2022 62.7399 59.1309C63.4548 58.8937 64.0506 58.3897 64.403 57.7239C64.6632 57.2205 64.7683 56.6512 64.7047 56.0881C64.6763 55.8838 64.6352 55.6815 64.5814 55.4824C64.5674 55.3631 64.5202 55.2501 64.4452 55.1561C63.9969 54.6961 63.4766 54.2896 62.9979 53.8613L62.5666 53.4755C62.2964 53.2337 61.8956 53.6319 62.1672 53.8749L63.4444 55.0176C63.6253 55.2101 63.8226 55.3866 64.034 55.5451C64.1219 55.5984 63.9733 55.4999 63.9917 55.4517C63.9759 55.4931 64.0359 55.6293 64.047 55.6739C64.1023 55.8685 64.1388 56.0679 64.1562 56.2694C64.2094 57.2863 63.5934 58.2191 62.6372 58.5695C62.5071 58.6163 62.3761 58.6608 62.2456 58.7064L59.7804 59.5678L55.8765 60.932L51.4356 62.4839L47.4138 63.8893L44.7521 64.8194C44.5719 64.8667 44.3958 64.9282 44.2254 65.0035C44.1418 65.0497 44.4537 65.0415 44.2696 64.9975C44.0739 64.9506 43.8743 64.916 43.6772 64.8754L39.6911 64.0537C39.5508 64.0247 39.4086 63.9995 39.2703 63.9619C38.7586 63.8228 38.3162 63.4995 38.0283 63.0542C37.6395 62.4468 37.6501 61.6812 37.5775 60.9863L37.5054 60.2956C37.4681 59.9377 36.9027 59.9339 36.9405 60.2956L36.9406 60.2956Z" fill="black"/>
<path d="M59.6831 115.832L60.7342 129.243L79.1455 127.86C79.1455 127.86 79.0668 122.619 72.173 122.573C70.8749 122.569 69.8014 121.561 69.7145 120.266C69.6083 118.634 69.5128 117.055 69.5128 117.055" fill="#F5EDFC"/>
<path d="M59.4007 115.832L59.7571 120.38L60.3215 127.58L60.4518 129.243C60.4539 129.398 60.5791 129.523 60.7343 129.525L62.5699 129.387L66.956 129.058L72.2827 128.657L76.8714 128.313C77.6184 128.256 78.3678 128.214 79.1138 128.144C79.1243 128.143 79.1349 128.143 79.1455 128.142C79.3003 128.139 79.4251 128.014 79.428 127.859C79.4096 126.745 78.9016 125.595 78.2267 124.733C77.5301 123.872 76.6099 123.22 75.5672 122.848C74.8676 122.595 74.1391 122.431 73.3987 122.359C72.5793 122.27 71.7155 122.402 70.9892 121.937C70.6285 121.704 70.3441 121.37 70.1712 120.977C69.9524 120.478 69.9739 119.912 69.9399 119.379C69.8906 118.604 69.8423 117.83 69.7953 117.055C69.7734 116.694 69.2084 116.691 69.2304 117.055C69.2691 117.696 69.3088 118.336 69.3495 118.977C69.4083 119.907 69.3604 120.889 69.9267 121.683C70.4086 122.358 71.165 122.784 71.992 122.848C72.4197 122.882 72.8491 122.869 73.2772 122.911C73.6716 122.949 74.0631 123.013 74.4491 123.102C75.5803 123.365 76.6583 123.874 77.4702 124.719C78.0099 125.287 78.4118 125.971 78.645 126.719C78.733 127.002 78.7985 127.291 78.8409 127.584C78.8274 127.492 78.845 127.62 78.8494 127.663C78.8528 127.698 78.8561 127.733 78.8585 127.768C78.8606 127.799 78.8626 127.829 78.8631 127.859L79.1456 127.577L77.31 127.715L72.9238 128.044L67.5971 128.444L63.0084 128.789L61.4835 128.904C61.2434 128.906 61.0037 128.924 60.766 128.958C60.7555 128.959 60.7449 128.96 60.7343 128.96L61.0167 129.243L60.6603 124.695L60.0959 117.495L59.9656 115.832C59.9374 115.472 59.3722 115.469 59.4007 115.832V115.832Z" fill="black"/>
<path d="M70.0918 121.4C70.5568 121.943 71.7397 122.641 72.506 122.646C72.8853 122.649 73.2432 122.667 73.5833 122.699L69.9099 127.93L60.6672 128.86L60.5304 127.544C60.5088 127.337 60.5723 127.129 60.7063 126.97C60.8403 126.81 61.0334 126.711 61.2414 126.696L65.2694 126.408C66.227 126.339 67.1 125.834 67.6371 125.038L70.0918 121.4Z" fill="white"/>
<path d="M69.892 121.6C70.3347 122.071 70.8758 122.438 71.4766 122.676C71.7639 122.805 72.0697 122.888 72.3829 122.922C72.7813 122.957 73.1838 122.946 73.5833 122.982L73.3394 122.556L70.1239 127.135L69.6659 127.788L69.9098 127.648L66.7877 127.962L61.8107 128.463L60.6672 128.578L60.9497 128.86C60.9062 128.442 60.8595 128.024 60.8192 127.606C60.7956 127.361 60.8575 127.117 61.1084 127.013C61.2035 126.982 61.303 126.967 61.403 126.967L64.3004 126.76C64.6163 126.737 64.9323 126.716 65.2481 126.692C65.9854 126.641 66.6879 126.359 67.2547 125.884C67.5658 125.603 67.8356 125.278 68.0561 124.921L68.8101 123.804L70.3356 121.543C70.5395 121.241 70.0503 120.958 69.8478 121.258L68.5363 123.202L67.6947 124.449C67.5336 124.711 67.3537 124.96 67.1565 125.196C66.6623 125.738 65.9797 126.071 65.2481 126.127C64.9198 126.152 64.5913 126.174 64.263 126.198L61.3769 126.404C61.1862 126.407 60.998 126.448 60.8234 126.525C60.4443 126.719 60.2179 127.121 60.2482 127.546C60.2796 127.985 60.3393 128.423 60.3848 128.86C60.3994 129 60.5029 129.159 60.6673 129.143L63.0381 128.904L67.4818 128.457C68.2867 128.376 69.1096 128.337 69.9093 128.213C70.0877 128.185 70.1537 128.073 70.2462 127.941L70.5947 127.445L71.7553 125.792C72.4314 124.829 73.1465 123.884 73.7881 122.897C73.8004 122.878 73.8142 122.86 73.8272 122.842C73.9616 122.65 73.7765 122.434 73.5833 122.417C73.2078 122.383 72.8335 122.381 72.4576 122.363C72.1933 122.339 71.935 122.271 71.6942 122.159C71.162 121.947 70.6831 121.619 70.2915 121.201C70.0509 120.927 69.6527 121.328 69.892 121.6Z" fill="black"/>
<path d="M76.4608 123.44C78.2925 124.285 79.5192 126.059 79.6623 128.071L70.5695 127.939L72.3097 127.604L75.0377 123.8C75.3621 123.35 75.9621 123.199 76.4608 123.44Z" fill="white"/>
<path d="M76.3183 123.684C77.3043 124.143 78.1288 124.889 78.6839 125.824C79.021 126.414 79.2465 127.062 79.3492 127.734C79.3515 127.748 79.3534 127.763 79.3555 127.778C79.3614 127.819 79.3469 127.707 79.3549 127.774C79.3578 127.798 79.3608 127.823 79.3633 127.847C79.3675 127.886 79.3713 127.925 79.3741 127.964C79.3767 128 79.3793 128.035 79.3799 128.071L79.6623 127.788L76.5813 127.744L71.6956 127.673L70.5695 127.656L70.6445 128.211L72.1874 127.914C72.3386 127.911 72.4802 127.839 72.5727 127.719C72.6591 127.602 72.7428 127.482 72.8278 127.364L74.9751 124.369C75.0722 124.234 75.1653 124.094 75.2669 123.962C75.51 123.636 75.9458 123.521 76.3183 123.684C76.6475 123.831 76.9352 123.344 76.6034 123.196C75.9629 122.889 75.1939 123.089 74.7847 123.67C74.6255 123.886 74.4713 124.107 74.3147 124.325L72.5353 126.806L72.0659 127.461L72.2347 127.331L70.4945 127.666C70.1748 127.728 70.2592 128.217 70.5695 128.221L73.6506 128.266L78.5363 128.337L79.6624 128.353C79.8176 128.352 79.943 128.226 79.9448 128.071C79.9218 126.735 79.2359 125.355 78.3202 124.416C77.8228 123.913 77.242 123.5 76.6035 123.196C76.2776 123.038 75.9907 123.525 76.3183 123.684Z" fill="black"/>
<path d="M69.9099 127.929L70.5695 127.939L69.799 128.087L69.9099 127.929Z" fill="white"/>
<path d="M69.9099 128.211L70.487 128.22L70.5694 128.221L70.4943 127.666L69.8211 127.796L69.7239 127.815L70.0428 128.23L70.1538 128.072C70.2118 127.972 70.2039 127.848 70.1339 127.757C70.0638 127.666 69.9456 127.626 69.8348 127.657C69.7653 127.679 69.7057 127.725 69.666 127.786L69.555 127.944C69.5294 127.988 69.516 128.037 69.5165 128.087C69.5171 128.149 69.5385 128.209 69.5771 128.258C69.6476 128.347 69.7638 128.387 69.874 128.359L70.5473 128.23L70.6445 128.211C70.7156 128.191 70.7762 128.145 70.8133 128.081C70.8436 128.026 70.8553 127.963 70.8468 127.901C70.8281 127.762 70.7099 127.657 70.5694 127.656L69.9923 127.648L69.9099 127.646C69.7548 127.648 69.6296 127.774 69.6296 127.929C69.6296 128.084 69.7548 128.21 69.9099 128.211V128.211Z" fill="black"/>
<path d="M65.0341 129.265C65.4211 129.249 65.7477 129.55 65.7636 129.937L65.7908 130.601L79.9464 129.517C79.9464 129.517 79.9243 127.902 79.4148 126.826L60.6398 128.153L60.7478 130.997L64.3911 130.711L64.3618 129.994C64.346 129.607 64.647 129.281 65.0341 129.265Z" fill="white"/>
<path d="M65.0342 129.547C65.5902 129.546 65.4929 130.221 65.5084 130.6C65.51 130.755 65.6356 130.881 65.7909 130.883L70.6006 130.515L78.2061 129.933L79.9465 129.799C80.1013 129.796 80.2261 129.672 80.229 129.517C80.235 128.543 80.0409 127.579 79.6587 126.683C79.6094 126.595 79.5157 126.541 79.4148 126.543L77.5388 126.676L73.0572 126.992L67.6395 127.375L62.955 127.707C62.1948 127.76 61.432 127.8 60.673 127.868C60.662 127.869 60.6509 127.869 60.6399 127.87C60.4849 127.873 60.3599 127.998 60.3574 128.153L60.4655 130.996C60.467 131.152 60.5926 131.277 60.7479 131.279L64.3912 130.993C64.5462 130.99 64.6712 130.865 64.6737 130.71C64.6589 130.348 64.4864 129.591 65.0342 129.547C65.394 129.517 65.3971 128.952 65.0342 128.982C64.5066 129.007 64.0889 129.437 64.0795 129.965C64.0751 130.213 64.0987 130.463 64.1088 130.71L64.3913 130.428L60.7479 130.714L61.0304 130.996L60.9223 128.153L60.6399 128.435L62.5159 128.303L66.9975 127.986L72.4152 127.603L77.0999 127.272L78.6501 127.162C78.8949 127.162 79.1394 127.144 79.3818 127.11C79.3928 127.109 79.4039 127.108 79.4149 127.108L79.1711 126.968C79.5292 127.743 79.651 128.668 79.6641 129.517L79.9466 129.234L75.1368 129.603L67.5313 130.185L65.791 130.318L66.0734 130.6C66.0636 130.361 66.0661 130.118 66.0416 129.879C65.9895 129.364 65.552 128.974 65.0343 128.982C64.8822 128.987 64.7618 129.112 64.7617 129.264C64.7617 129.416 64.8821 129.541 65.0342 129.547Z" fill="black"/>
<path d="M73.9841 126.928C72.9555 126.968 71.976 127.642 71.4371 128.488C71.141 128.972 70.9414 129.508 70.8493 130.067C70.8122 130.217 70.8988 130.369 71.0465 130.414C71.1968 130.454 71.3514 130.367 71.394 130.217C71.5418 129.398 71.8744 128.645 72.5039 128.115C72.6099 128.027 72.723 127.947 72.842 127.878C72.9591 127.808 73.0805 127.746 73.2054 127.691C73.1376 127.721 73.2272 127.683 73.2434 127.676C73.2711 127.666 73.299 127.655 73.3271 127.645C73.3795 127.626 73.4323 127.609 73.4857 127.593C73.5755 127.566 73.6665 127.543 73.7587 127.524C73.7984 127.516 73.8385 127.51 73.8785 127.503C73.968 127.488 73.8136 127.508 73.9033 127.5C73.9303 127.497 73.9571 127.494 73.9842 127.493C74.3465 127.479 74.3483 126.914 73.9842 126.928L73.9841 126.928Z" fill="black"/>
<path d="M36.1787 106.254L28.3483 117.192L43.3261 127.988C43.3261 127.988 46.6399 123.928 41.3948 119.454C40.4046 118.614 40.2319 117.152 40.9993 116.105C41.9686 114.788 42.9124 113.519 42.9124 113.519" fill="#F5EDFC"/>
<path d="M35.9348 106.11L33.2793 109.819L29.0753 115.692L28.1044 117.048C28.0287 117.183 28.0735 117.354 28.2057 117.435L29.699 118.511L33.2671 121.083L37.6005 124.206L41.3335 126.897L42.574 127.791C42.7668 127.93 42.9555 128.087 43.1578 128.212C43.1667 128.217 43.175 128.224 43.1836 128.23C43.2944 128.295 43.4351 128.277 43.5258 128.186C44.3015 127.232 44.674 125.885 44.6389 124.674C44.5768 123.41 44.1409 122.192 43.3863 121.176C42.865 120.468 42.2638 119.823 41.5945 119.253C41.0674 118.804 40.7764 118.137 40.8055 117.445C40.8259 117.064 40.9464 116.695 41.1549 116.375C41.4357 115.939 41.7708 115.531 42.0793 115.113C42.4378 114.628 42.7968 114.144 43.1563 113.66C43.3733 113.368 42.8832 113.086 42.6685 113.375C42.3831 113.759 42.0981 114.143 41.8136 114.528C41.5368 114.902 41.2603 115.276 40.9842 115.651C40.7335 115.96 40.5316 116.305 40.3855 116.675C40.1586 117.35 40.1992 118.085 40.4987 118.73C40.8437 119.488 41.577 119.951 42.1336 120.54C43.0642 121.526 43.8094 122.723 44.0217 124.079C44.1501 124.952 44.0495 125.842 43.7298 126.664C43.6156 126.96 43.4746 127.245 43.3084 127.515C43.2584 127.596 43.2062 127.676 43.1505 127.753C43.1331 127.774 43.117 127.796 43.1021 127.819C43.0889 127.843 43.1594 127.746 43.1266 127.787L43.4688 127.743L41.9755 126.666L38.4074 124.095L34.074 120.971L30.341 118.28L29.1005 117.386C28.9141 117.235 28.7192 117.094 28.5167 116.966C28.5078 116.96 28.4992 116.954 28.4909 116.947L28.5923 117.333L31.2476 113.624L35.4516 107.751L36.4225 106.395C36.6345 106.099 36.1447 105.817 35.9347 106.11H35.9348Z" fill="black"/>
<path d="M40.5574 117.215C40.5637 117.93 41.0195 119.225 41.6026 119.723C41.8912 119.969 42.153 120.213 42.3929 120.457L36.2142 122.094L28.5432 116.855L29.2858 115.76C29.4029 115.587 29.5849 115.469 29.7904 115.433C29.9958 115.397 30.207 115.446 30.3758 115.569L33.6436 117.941C34.4205 118.505 35.4136 118.681 36.337 118.418L40.5574 117.215Z" fill="white"/>
<path d="M40.275 117.215C40.3088 117.857 40.4812 118.485 40.7802 119.055C40.9129 119.336 41.088 119.596 41.2994 119.824C41.5813 120.116 41.9066 120.367 42.1933 120.656L42.3179 120.184L36.9093 121.617L36.1391 121.821L36.3567 121.85L33.7655 120.08L29.6348 117.259L28.6858 116.61L28.7871 116.997C29.0191 116.655 29.2466 116.309 29.4833 115.97C29.604 115.754 29.8624 115.654 30.097 115.735C30.1878 115.778 30.2727 115.833 30.3499 115.897L32.6538 117.57C32.9261 117.767 33.1977 117.966 33.4707 118.163C34.0785 118.604 34.8142 118.835 35.5653 118.819C35.9675 118.794 36.3649 118.719 36.7481 118.594L38.0703 118.217L40.6325 117.487C40.7778 117.441 40.8609 117.289 40.8204 117.142C40.7799 116.995 40.6304 116.907 40.4823 116.942L38.2687 117.573L36.7944 117.993C36.5055 118.088 36.2111 118.165 35.9129 118.223C35.1496 118.333 34.3738 118.136 33.7557 117.675C33.4828 117.478 33.2112 117.28 32.9389 117.082L30.6214 115.399C30.0998 115.021 29.4302 115.071 29.0409 115.618C28.7857 115.977 28.5463 116.348 28.2993 116.712C28.2235 116.847 28.2683 117.018 28.4006 117.098L30.3683 118.442L34.0405 120.95L35.47 121.926C35.6613 122.076 35.862 122.213 36.0708 122.337C36.1947 122.383 36.3318 122.378 36.452 122.323L37.0452 122.165L39.0038 121.646C40.1355 121.347 41.2778 121.072 42.4022 120.746C42.424 120.74 42.4461 120.734 42.4681 120.728C42.564 120.7 42.6381 120.624 42.6636 120.528C42.6891 120.431 42.6622 120.328 42.5927 120.256C42.3275 119.989 42.0431 119.747 41.7675 119.492C41.5721 119.298 41.4122 119.072 41.295 118.823C41.0268 118.327 40.8714 117.778 40.8399 117.215C40.8322 116.852 40.2673 116.85 40.275 117.215Z" fill="black"/>
<path d="M44.1169 122.877C44.9747 124.702 44.7708 126.85 43.5849 128.481L36.7126 122.526L38.2601 123.39L42.7966 122.236C43.334 122.101 43.8907 122.371 44.1169 122.877Z" fill="white"/>
<path d="M43.873 123.021C44.5962 124.591 44.5058 126.415 43.6308 127.906C43.5677 128.013 43.5009 128.119 43.429 128.221C43.4092 128.249 43.3847 128.277 43.3672 128.306C43.3472 128.34 43.4209 128.239 43.3852 128.283H43.7846L41.4561 126.265L37.7635 123.065L36.9124 122.327L36.5701 122.771L37.942 123.537C38.0616 123.632 38.215 123.675 38.3669 123.655C38.5181 123.623 38.6678 123.579 38.8177 123.54L42.3892 122.632C42.544 122.592 42.6983 122.55 42.8538 122.514C43.2717 122.411 43.7025 122.626 43.873 123.021C44.0316 123.348 44.5189 123.062 44.3608 122.735C44.0598 122.12 43.3679 121.799 42.7036 121.969C42.4375 122.032 42.1733 122.104 41.9084 122.171L38.9656 122.92L38.185 123.119L38.4027 123.147L36.8553 122.283C36.585 122.132 36.2626 122.51 36.513 122.727L38.8415 124.745L42.5341 127.945L43.3852 128.682C43.4962 128.791 43.6736 128.791 43.7846 128.682C44.6373 127.632 45.0179 126.128 44.9089 124.799C44.8446 124.085 44.6593 123.387 44.3608 122.735C44.213 122.404 43.7261 122.691 43.873 123.021Z" fill="black"/>
<path d="M36.2142 122.094L36.7127 122.526L36.0276 122.143L36.2142 122.094Z" fill="white"/>
<path d="M36.0145 122.295L36.4508 122.673L36.5129 122.727L36.8552 122.283L36.2556 121.948L36.17 121.901L36.1026 122.417L36.2893 122.367C36.3599 122.347 36.4202 122.301 36.458 122.238C36.5161 122.138 36.5082 122.014 36.4381 121.923C36.3681 121.832 36.2499 121.792 36.1391 121.823L35.9524 121.872C35.8441 121.904 35.7646 121.996 35.75 122.108C35.7353 122.22 35.7883 122.33 35.885 122.388L36.4846 122.723L36.5701 122.771C36.6928 122.841 36.848 122.81 36.9345 122.698C37.0219 122.587 37.0124 122.428 36.9124 122.327L36.4761 121.949L36.414 121.895C36.36 121.844 36.2888 121.814 36.2143 121.813C36.1395 121.813 36.0678 121.843 36.0145 121.895C35.9617 121.948 35.932 122.02 35.9318 122.095C35.9315 122.17 35.9613 122.242 36.0145 122.295Z" fill="black"/>
<path d="M31.6243 119.977C31.9306 120.214 31.9868 120.654 31.7497 120.961L31.3432 121.486L42.8717 129.771C42.8717 129.771 43.8951 128.521 44.1978 127.37L28.9777 116.297L27.2295 118.542L30.2014 120.669L30.6402 120.102C30.8773 119.796 31.3179 119.74 31.6243 119.977Z" fill="white"/>
<path d="M31.4244 120.176C31.8655 120.548 31.3937 120.962 31.1433 121.286C31.0839 121.349 31.0559 121.435 31.0669 121.521C31.078 121.607 31.127 121.684 31.2005 121.729L35.1176 124.545L41.3117 128.996L42.729 130.015C42.8399 130.08 42.9806 130.062 43.0713 129.971C43.6725 129.233 44.2177 128.367 44.47 127.444C44.5006 127.321 44.4481 127.192 44.3402 127.125L42.8194 126.019L39.1863 123.376L34.7944 120.181L30.997 117.418L29.7403 116.504C29.5444 116.361 29.3527 116.201 29.1471 116.072C29.1378 116.066 29.1291 116.059 29.1202 116.052C29.0094 115.987 28.8686 116.006 28.7779 116.097L27.0297 118.342C26.9703 118.405 26.9422 118.491 26.9533 118.577C26.9644 118.663 27.0134 118.74 27.0869 118.786L30.0587 120.912C30.1695 120.977 30.3103 120.959 30.4009 120.868C30.6563 120.538 30.9904 119.872 31.4815 120.22C31.7787 120.431 32.0613 119.941 31.7667 119.732C31.3467 119.437 30.7707 119.511 30.4392 119.903C30.2865 120.086 30.1471 120.281 30.0015 120.469L30.3438 120.425L27.3718 118.298L27.429 118.741L29.1772 116.496L28.8349 116.54L30.3558 117.647L33.9888 120.29L38.3807 123.485L42.1783 126.248L43.435 127.162C43.6247 127.317 43.8227 127.461 44.0281 127.594C44.0374 127.6 44.0464 127.606 44.055 127.613L43.9252 127.294C43.7568 127.851 43.5046 128.379 43.1772 128.859C43.0601 129.041 42.9372 129.219 42.8085 129.393C42.7883 129.42 42.7679 129.448 42.7474 129.475C42.7359 129.49 42.7243 129.505 42.7127 129.52C42.7317 129.496 42.7324 129.495 42.7149 129.517C42.7019 129.536 42.6875 129.554 42.6718 129.571L43.0141 129.527L39.0969 126.712L32.903 122.26L31.4856 121.242L31.5427 121.685C31.6856 121.501 31.8312 121.318 31.9713 121.131C32.2896 120.712 32.2248 120.117 31.8238 119.776C31.5477 119.543 31.1462 119.941 31.4244 120.176Z" fill="black"/>
<path d="M39.9947 123.967C39.5901 123.666 39.1181 123.468 38.6197 123.392C37.4676 123.203 36.3994 123.64 35.5175 124.367C35.2367 124.598 35.6384 124.996 35.9169 124.766C36.6517 124.16 37.5906 123.767 38.5528 123.951C38.8242 124.001 39.0868 124.09 39.3325 124.215C39.4105 124.255 39.4865 124.299 39.5601 124.346C39.5922 124.367 39.717 124.461 39.5952 124.366C39.7076 124.471 39.8823 124.471 39.9947 124.366C40.1041 124.256 40.1041 124.077 39.9947 123.967Z" fill="black"/>
<path d="M60.9711 54.4522L65.585 69.6342C67.9102 77.2849 66.2423 85.5918 61.1442 91.752L42.7318 114.061L32.248 105.073C32.248 105.073 48.8136 79.9636 53.5518 75.1408L43.4862 55.8526L45.9616 46.3105" fill="#458DC9"/>
<path d="M60.6988 54.5257L61.9066 58.5001L64.131 65.8194C64.5357 67.1508 64.9465 68.4805 65.3448 69.8139C67.607 77.3802 65.9264 85.5766 60.869 91.642C60.1241 92.5447 59.3792 93.4474 58.6341 94.3499L54.3348 99.5591L49.3292 105.624L44.9779 110.897L42.6418 113.727L42.5322 113.86H42.9316L39.3838 110.818L33.7532 105.991L32.4478 104.872L32.4919 105.214C33.0485 104.371 33.6077 103.529 34.1696 102.689C35.5589 100.606 36.9562 98.5288 38.3615 96.4569C40.1603 93.8053 41.9754 91.1648 43.8066 88.5353C45.5888 85.9826 47.3889 83.4414 49.2435 80.9406C50.5639 79.16 51.8905 77.3563 53.3906 75.7204C53.5089 75.5914 53.6292 75.4642 53.7516 75.339C53.8398 75.2469 53.8577 75.1081 53.7957 74.9967L50.3964 68.4826L44.9765 58.0966L43.7302 55.7084L43.7587 55.9261L45.9295 47.5583L46.2341 46.3841C46.3254 46.0319 45.7807 45.8817 45.6894 46.2339L43.9873 52.795C43.7381 53.7555 43.4662 54.7131 43.2391 55.679C43.1599 56.0158 43.4288 56.3506 43.5807 56.6419L46.7015 62.6221L50.8684 70.6069L52.461 73.6588L52.9938 74.6797C53.0746 74.8628 53.1673 75.0405 53.2713 75.2115C53.2851 75.2341 53.2973 75.2576 53.308 75.2818L53.3522 74.9395C51.9031 76.4182 50.6598 78.1164 49.4184 79.7677C47.5837 82.2085 45.8114 84.6962 44.0573 87.1953C42.1975 89.845 40.3589 92.5095 38.5416 95.1887C37.0521 97.3782 35.5718 99.574 34.1008 101.776C33.6283 102.483 33.1568 103.191 32.6863 103.899C32.4714 104.223 32.2164 104.544 32.0324 104.886C32.0245 104.901 32.0135 104.915 32.0042 104.929C31.9399 105.04 31.958 105.18 32.0484 105.271L35.5962 108.313L41.2268 113.14L42.5322 114.259C42.6433 114.368 42.8205 114.368 42.9316 114.259L44.5868 112.254L48.6214 107.365L53.6185 101.311L58.2292 95.724L61.0376 92.3212C62.7614 90.278 64.1568 87.979 65.1739 85.5068C66.7557 81.5369 67.258 77.2189 66.6297 72.9918C66.3394 71.0343 65.7388 69.1671 65.1658 67.2816L62.995 60.1388L61.3323 54.6677L61.2435 54.3756C61.1381 54.0287 60.5926 54.1766 60.6988 54.5258V54.5257Z" fill="black"/>
<path d="M39.6879 48.9941L37.4269 54.6015C36.4001 58.412 37.0651 64.55 40.3444 69.9442L54.2957 88.7973C54.0552 95.554 57.4842 117.547 57.4842 117.547L72.818 117.07L71.8752 90.0033C71.6707 84.1316 69.4674 78.5057 65.63 74.0567L55.3411 62.1279C53.8383 60.3857 53.0983 58.1128 53.2872 55.8197L53.8179 49.3791" fill="#458DC9"/>
<path d="M39.4156 48.9187L38.3743 51.5013C37.9748 52.4918 37.5324 53.4754 37.1727 54.4811C36.9693 55.1409 36.8424 55.8219 36.7944 56.5107C36.6915 57.4938 36.6719 58.4838 36.7358 59.4702C36.8821 61.749 37.3687 63.9931 38.1794 66.1278C38.6167 67.2918 39.1441 68.42 39.757 69.502C39.8912 69.7522 40.0405 69.9941 40.2039 70.2263L41.2104 71.5864L45.3813 77.2228L50.3743 83.97L53.7232 88.4955C53.81 88.6356 53.9082 88.7684 54.0168 88.8923C54.102 88.9731 53.9796 88.9079 54.0111 88.8598C53.9739 88.9165 54.0046 89.1185 54.0036 89.1862C54.0018 89.3098 54.001 89.4334 54.0011 89.557C54.0021 90.7673 54.0729 91.9776 54.1595 93.1844C54.3877 96.3641 54.7484 99.5346 55.1363 102.698C55.5185 105.814 55.9342 108.925 56.3834 112.032C56.6376 113.811 56.9005 115.589 57.1721 117.365C57.1853 117.451 57.1985 117.536 57.2118 117.622C57.2457 117.744 57.3571 117.829 57.4842 117.829L62.6593 117.668L70.9144 117.411L72.8181 117.352C72.9732 117.35 73.0985 117.225 73.1005 117.07L72.9901 113.9L72.7321 106.493L72.4375 98.0338L72.2132 91.5971C72.1441 89.6145 72.0445 87.6496 71.6479 85.6958C70.7465 81.3101 68.738 77.228 65.8134 73.8377C64.6698 72.5095 63.525 71.1822 62.379 69.8559L57.0902 63.7242L55.6506 62.0552C54.5303 60.7845 53.816 59.2076 53.5996 57.5275C53.4642 56.3917 53.6172 55.2429 53.7106 54.1092L54.0355 50.1656L54.1003 49.3788C54.1302 49.0165 53.5651 49.0184 53.5354 49.3788L53.0224 55.6058C52.8473 57.4504 53.2385 59.3046 54.1438 60.9212C54.5899 61.6477 55.1055 62.3291 55.6835 62.9559L60.353 68.3695L64.9609 73.7119C65.5863 74.4369 66.2031 75.1665 66.7645 75.9437C68.1663 77.8821 69.2892 80.0075 70.1003 82.2579C71.0816 84.9897 71.5167 87.8155 71.6173 90.7052L71.8068 96.1451L72.0952 104.426L72.3723 112.383L72.5281 116.856L72.5356 117.07L72.8181 116.787L67.643 116.948L59.3879 117.205L57.4842 117.264L57.7566 117.472C57.5629 116.229 57.3789 114.985 57.1969 113.741C56.7752 110.857 56.3765 107.97 56.001 105.079C55.58 101.813 55.1879 98.5421 54.8936 95.2621C54.7713 93.8999 54.665 92.5354 54.6057 91.1688C54.5817 90.616 54.5655 90.0627 54.5661 89.5094C54.5664 89.2412 54.6481 88.8545 54.5133 88.6189C54.2679 88.2442 54.0013 87.8839 53.7148 87.5398L52.0306 85.2639L47.279 78.8428L42.6324 72.5636L41.1397 70.5465C40.9199 70.2494 40.6823 69.9601 40.4927 69.6424C38.1895 65.7836 36.8766 61.0623 37.3547 56.5543C37.4001 55.8965 37.5237 55.2464 37.7229 54.6179C37.862 54.2365 38.0274 53.8627 38.1792 53.4862L39.6581 49.8185L39.9603 49.0689C40.0962 48.7319 39.5501 48.5853 39.4156 48.9188L39.4156 48.9187Z" fill="black"/>
<path d="M72.6718 112.588L71.1016 112.621L67.3532 112.699L62.82 112.794L58.8803 112.876C58.245 112.889 57.6042 112.879 56.9696 112.916C56.9602 112.916 56.9507 112.916 56.9413 112.916C56.5783 112.924 56.577 113.489 56.9413 113.481L58.5116 113.448L62.2599 113.37L66.7931 113.276L70.7328 113.193C71.3681 113.18 72.009 113.19 72.6435 113.153C72.6529 113.153 72.6624 113.153 72.6718 113.153C73.0348 113.145 73.0361 112.58 72.6718 112.588V112.588Z" fill="black"/>
<path d="M45.5963 110.633L41.8835 107.57L35.9754 102.696L34.6325 101.589C34.3541 101.359 33.9523 101.756 34.233 101.988L37.9459 105.051L43.8539 109.924L45.1969 111.032C45.4752 111.262 45.8771 110.864 45.5963 110.633L45.5963 110.633Z" fill="black"/>
<path d="M47.5459 27.0156L38.2692 29.3231C36.7586 29.6988 36.1247 30.5197 36.0278 32.8979C36.0278 32.8979 34.9851 53.2454 37.6079 63.2844C52.1663 56.6285 64.2628 55.3722 64.2628 55.3722L54.3395 36.0616" fill="white"/>
<path d="M47.4708 26.7438L45.0159 27.3544L40.482 28.4821C39.6534 28.6882 38.8111 28.8656 37.9915 29.1059C37.2178 29.3328 36.5524 29.7805 36.2032 30.5269C35.8549 31.2711 35.7822 32.1099 35.7442 32.9201C35.7174 33.4918 35.6939 34.0636 35.6736 34.6356C35.6271 35.9433 35.5932 37.2514 35.5719 38.5599C35.5414 40.3669 35.5336 42.1741 35.5484 43.9815C35.5667 46.051 35.617 48.1204 35.7128 50.1877C35.8104 52.2929 35.9535 54.3969 36.1774 56.4926C36.3657 58.3941 36.6564 60.284 37.0481 62.1543C37.1359 62.5581 37.2317 62.96 37.3355 63.3601C37.3602 63.4436 37.4217 63.5114 37.5024 63.5442C37.5831 63.577 37.6743 63.5714 37.7504 63.5289C40.4137 62.3127 43.1264 61.2145 45.8887 60.2342C48.2411 59.3984 50.6219 58.6488 53.031 57.9854C54.935 57.4617 56.8538 56.996 58.7873 56.5882C60.0784 56.3178 61.3757 56.0748 62.6793 55.8725C62.8913 55.8396 63.1036 55.8079 63.316 55.7775C63.4038 55.7649 63.4916 55.7526 63.5794 55.7405C63.6032 55.7373 63.7072 55.7233 63.6635 55.7291C63.621 55.7348 63.7216 55.7214 63.7451 55.7183C63.9104 55.6967 64.076 55.6776 64.2415 55.6576C64.2486 55.6568 64.2557 55.6561 64.2628 55.6554C64.3629 55.6529 64.4545 55.5983 64.5043 55.5114C64.5541 55.4246 64.555 55.318 64.5066 55.2303L63.5222 53.3144L61.1477 48.6937L58.2841 43.1213L55.8009 38.2892C55.4026 37.5141 55.0387 36.7056 54.6 35.9522C54.5939 35.9417 54.5888 35.9305 54.5833 35.9197C54.4171 35.5962 53.9295 35.8817 54.0955 36.2048L55.08 38.1205L57.4545 42.7413L60.3181 48.3138L62.8012 53.1459L63.6117 54.7231C63.7279 54.9833 63.8583 55.2369 64.0022 55.4829C64.0083 55.4934 64.0139 55.5043 64.0189 55.5154L64.2628 55.0904C63.8035 55.1382 63.3457 55.2052 62.889 55.273C61.6646 55.455 60.4459 55.6757 59.2326 55.9209C57.3699 56.2974 55.5201 56.7316 53.6832 57.2235C51.305 57.8565 48.9518 58.5752 46.6235 59.3795C43.8794 60.3265 41.1785 61.3886 38.5211 62.5658C38.1682 62.7222 37.8162 62.8806 37.4652 63.0411L37.8801 63.2099C37.4426 61.4659 37.1176 59.6956 36.9072 57.9099C36.6491 55.8738 36.4809 53.8268 36.3608 51.7783C36.2391 49.7015 36.1689 47.6219 36.1333 45.5419C36.1011 43.6598 36.0961 41.7774 36.1181 39.8948C36.1339 38.44 36.1641 36.9853 36.2087 35.531C36.2332 34.7353 36.2617 33.9396 36.2983 33.1444C36.3465 32.0973 36.362 30.7333 37.292 30.0469C37.6661 29.802 38.085 29.6335 38.5245 29.5512L39.7936 29.2355L44.1449 28.1532L47.4467 27.332L47.6208 27.2887C47.9734 27.201 47.824 26.656 47.4706 26.7439L47.4708 26.7438Z" fill="black"/>
<path d="M36.743 58.79L62.0653 51.0955L58.0969 43.373L35.991 50.0902C36.1271 53.0733 36.3608 56.0836 36.743 58.79Z" fill="#389B48"/>
<path d="M36.818 59.0632L39.3518 58.2933L45.3916 56.458L52.6921 54.2397L59.0361 52.3119C60.0554 52.0022 61.0863 51.7173 62.0974 51.3817C62.1116 51.377 62.126 51.3731 62.1403 51.3687C62.2239 51.344 62.2917 51.2826 62.3245 51.2018C62.3573 51.1211 62.3517 51.0298 62.3091 50.9538L60.965 48.3382L58.8334 44.1898L58.3409 43.2314C58.2757 43.1215 58.1453 43.0685 58.0219 43.1015L55.8172 43.7715L50.525 45.3796L44.1676 47.3112L38.6362 48.992C37.743 49.2634 36.8373 49.5099 35.9524 49.8075C35.9403 49.8116 35.928 49.8149 35.9159 49.8186C35.7944 49.8539 35.7102 49.9645 35.7085 50.091C35.8433 53.0243 36.0618 55.957 36.4705 58.8659C36.5129 59.0156 36.6677 59.1035 36.818 59.0632C36.9659 59.0185 37.0527 58.8656 37.0153 58.7157C36.6136 55.8576 36.4058 52.973 36.2734 50.091L36.066 50.3634L38.2707 49.6934L43.563 48.0854L49.9202 46.1537L55.4517 44.4729L57.2646 43.922C57.5598 43.8508 57.8506 43.7624 58.1355 43.6574C58.1475 43.653 58.1597 43.6493 58.172 43.6463L57.8531 43.5165L59.1972 46.1321L61.3289 50.2805L61.8214 51.2389L61.9902 50.824L59.4564 51.5939L53.4166 53.4292L46.1161 55.6475L39.772 57.5753C38.7527 57.885 37.7218 58.1699 36.7107 58.5055C36.6965 58.5102 36.6821 58.5141 36.6678 58.5185C36.321 58.6239 36.4688 59.1693 36.818 59.0632Z" fill="black"/>
<path d="M87.3453 55.4478L88.8606 55.9376C89.8069 56.2435 90.8418 56.0896 91.6581 55.5216L91.6813 55.5055C92.5716 55.0711 93.635 55.208 94.3862 55.8537L94.8354 56.2398C95.7014 57.3216 96.7534 57.348 97.3694 56.458C97.9172 56.9598 99.6739 56.5259 100.107 55.5447C102.343 56.0918 102.548 54.4261 102.548 54.4261C105.606 54.9274 104.771 52.5093 104.771 52.5093L101.327 47.428C100.253 46.4075 98.6978 46.074 97.2999 46.5646L92.8624 47.9978L90.7331 47.1753" fill="#F5EDFC"/>
<path d="M87.2704 55.7211L88.6067 56.1531C89.3684 56.4257 90.1991 56.4373 90.9681 56.1861C91.3995 56.0349 91.7531 55.7343 92.1926 55.6146C92.6393 55.4949 93.1121 55.5172 93.5456 55.6784C93.8603 55.8101 94.1482 55.9983 94.3951 56.2337C94.6747 56.474 94.9014 56.7651 95.1988 56.9852C95.5654 57.2754 96.0321 57.4087 96.4967 57.356C96.9572 57.2697 97.3615 56.9966 97.6134 56.6015L97.1698 56.6587C97.6181 57.0464 98.2995 56.9923 98.8323 56.8378C99.4431 56.6607 100.074 56.2846 100.351 55.6882L100.032 55.818C100.818 56.0041 101.75 56.0254 102.356 55.402C102.614 55.1362 102.781 54.7945 102.831 54.4271L102.473 54.6994C103.322 54.8338 104.518 54.8767 104.978 53.9753C105.19 53.5103 105.22 52.9828 105.062 52.4968C104.97 52.187 104.699 51.9021 104.521 51.6395L103.064 49.4896L101.778 47.5933C101.703 47.4822 101.634 47.3617 101.548 47.2578C101.294 46.9836 100.992 46.7574 100.657 46.59C99.6893 46.0546 98.5508 45.9189 97.4846 46.2119C97.271 46.2709 97.0601 46.3464 96.8492 46.4145L94.4765 47.1808L93.3193 47.5546L92.9561 47.6719C92.8985 47.6808 92.8426 47.6989 92.7906 47.7255C92.824 47.6932 92.9815 47.7696 92.9034 47.7134C92.8518 47.6864 92.7973 47.6654 92.741 47.6506L92.226 47.4517L91.0295 46.9895L90.8081 46.904C90.4687 46.7729 90.3218 47.3188 90.6579 47.4487L92.5397 48.1756C92.6829 48.2578 92.8517 48.2832 93.0127 48.247C93.2574 48.1748 93.499 48.0899 93.7417 48.0115L96.1878 47.2215C96.7475 47.0145 97.3181 46.8385 97.8971 46.6941C98.5662 46.5629 99.2587 46.62 99.8973 46.8589C100.314 47.0124 100.833 47.2858 101.109 47.6106C101.224 47.762 101.331 47.9193 101.429 48.0821L102.034 48.9743C102.848 50.1763 103.631 51.4094 104.482 52.5861C104.53 52.6523 104.513 52.676 104.499 52.5871C104.505 52.6246 104.522 52.6633 104.532 52.7002C104.553 52.7844 104.57 52.8696 104.582 52.9555C104.57 52.8743 104.586 53.0156 104.588 53.0451C104.593 53.109 104.594 53.1733 104.592 53.2374C104.591 53.4543 104.523 53.6654 104.396 53.8414C104.159 54.0804 103.835 54.2127 103.498 54.2078C103.206 54.2218 102.912 54.2041 102.624 54.1549C102.539 54.1343 102.449 54.153 102.38 54.2058C102.311 54.2587 102.269 54.3401 102.266 54.4273C102.279 54.3256 102.277 54.3685 102.262 54.427C102.248 54.4823 102.232 54.5362 102.214 54.5904C102.209 54.6059 102.203 54.6212 102.197 54.6365C102.175 54.6946 102.217 54.5936 102.192 54.648C102.172 54.691 102.15 54.7335 102.127 54.7747C102.086 54.85 102.036 54.9194 101.977 54.9812C101.532 55.4593 100.79 55.4173 100.182 55.2735C100.059 55.2411 99.9292 55.294 99.8635 55.4033C99.6525 55.8576 99.195 56.1351 98.7303 56.2788C98.4016 56.3805 97.8362 56.4903 97.5693 56.2594C97.5064 56.1996 97.4199 56.1713 97.3339 56.1824C97.2478 56.1935 97.1713 56.2428 97.1257 56.3166C96.9392 56.611 96.6203 56.7953 96.2721 56.8098C95.8653 56.8075 95.5055 56.5498 95.2342 56.2682C94.779 55.7957 94.2992 55.3458 93.6652 55.1227C93.226 54.9729 92.7563 54.9357 92.299 55.0146C92.0793 55.0522 91.8652 55.1168 91.6614 55.207C91.4786 55.2865 91.3222 55.4107 91.1443 55.5015C90.4221 55.8541 89.5884 55.9013 88.831 55.6325L87.4206 55.1766C87.0739 55.0645 86.9254 55.6098 87.2704 55.7213L87.2704 55.7211Z" fill="black"/>
<path fill-rule="evenodd" clip-rule="evenodd" d="M40.8753 75.6597C41.0218 75.7505 41.167 75.8429 41.309 75.9387C43.4311 77.3691 45.3088 79.1452 46.557 81.4112C48.6217 85.1597 49.3488 89.715 48.0444 93.8511C46.8075 97.7734 44.2298 101.336 40.5453 103.298C36.7783 105.304 32.2586 106.019 28.1365 104.675C25.9784 104.002 23.9761 102.905 22.2468 101.449C21.6269 100.921 21.0505 100.343 20.5233 99.7221C19.4979 100.003 18.4474 100.183 17.3869 100.26C16.2896 100.314 15.1897 100.263 14.1022 100.107C13.3655 100.02 12.6386 99.8641 11.9308 99.6421C8.38006 98.5211 5.35197 96.398 3.21063 93.3296C1.28294 90.5674 0.194527 86.912 0.459429 83.5409C0.514866 82.5356 0.652868 81.5364 0.872041 80.5536C1.123 79.5885 1.45127 78.6452 1.85367 77.7328C2.52235 76.2184 3.43208 74.8223 4.54748 73.5989C5.66769 72.3414 6.98961 71.2792 8.45893 70.4562C9.08155 70.115 9.72411 69.8114 10.3831 69.5473C10.2777 66.2849 11.1539 62.9687 12.9923 60.2962C14.3098 58.3808 15.8614 56.7166 17.8573 55.4786C19.9439 54.1843 22.1885 53.4844 24.6017 53.1492C28.8808 52.5546 33.2815 54.0832 36.5932 56.7621C40.0539 59.5616 42.1465 64.0041 42.3164 68.4273C42.3993 70.9169 41.9061 73.392 40.8753 75.6597ZM37.5774 95.1219C38.0469 94.6817 38.4808 94.205 38.875 93.6963C39.2183 93.1504 39.5179 92.5782 39.771 91.985C39.9645 91.3713 40.1092 90.7431 40.2035 90.1065C40.2343 89.4432 40.2105 88.7784 40.1323 88.119C39.9847 87.4623 39.7835 86.8187 39.5309 86.1947C39.2206 85.6099 38.863 85.0514 38.4615 84.5249C38.0193 84.0527 37.5402 83.6163 37.0288 83.2201C36.483 82.8773 35.9111 82.578 35.3183 82.3249C34.8669 82.1824 34.4076 82.0661 33.9428 81.9765C33.6773 81.9626 33.4141 81.919 33.1582 81.8467C32.5217 81.7124 31.9352 81.4033 31.4646 80.9542C31.4286 80.9255 31.3924 80.8971 31.3573 80.8678C31.0767 80.6271 30.8365 80.343 30.6457 80.0264C30.3143 79.5443 30.104 78.9893 30.0328 78.4086C30.0016 78.2337 29.9824 78.0569 29.9754 77.8793C29.9685 77.5933 29.991 77.3073 30.0425 77.0258C30.0538 76.9454 30.0664 76.8652 30.081 76.7859C30.1353 76.5076 30.225 76.2374 30.348 75.9819C30.5107 75.5676 30.7596 75.1926 31.0782 74.8816C31.0992 74.8625 31.1198 74.8429 31.1404 74.8234C31.1532 74.8113 31.166 74.7992 31.1789 74.7871C31.2656 74.6969 31.3549 74.6103 31.4467 74.5293C31.8256 74.1536 32.1796 73.7536 32.5065 73.3319C32.8495 72.7862 33.1491 72.2144 33.4024 71.6218C33.597 71.0047 33.7422 70.3731 33.8366 69.733C33.8666 69.0717 33.8425 68.4089 33.7644 67.7515C33.6166 67.0947 33.4153 66.4512 33.1625 65.8273C32.8512 65.2407 32.4921 64.6809 32.0889 64.1533C31.6487 63.6838 31.172 63.2499 30.6633 62.8557C30.1174 62.5124 29.5452 62.2128 28.9521 61.9596C28.3383 61.7661 27.7102 61.6215 27.0736 61.5271C26.4102 61.4963 25.7455 61.5201 25.086 61.5984C24.4285 61.7461 23.7841 61.9476 23.1595 62.2007C22.573 62.512 22.0131 62.8711 21.4854 63.2743C21.0159 63.7145 20.582 64.1912 20.1878 64.6999C19.8445 65.2458 19.545 65.818 19.2918 66.4111C19.0983 67.0249 18.9536 67.653 18.8593 68.2897C18.8283 68.9561 18.8525 69.6241 18.9316 70.2865C19.013 70.6523 19.1089 71.0144 19.2254 71.3711C19.6201 72.6216 19.3971 73.9852 18.6247 75.0448C17.8149 76.2036 16.7112 76.7141 15.3259 76.8708C15.2927 76.8746 15.2596 76.8788 15.2265 76.8831C15.2074 76.8855 15.1883 76.888 15.1693 76.8903C14.501 77.0387 13.8461 77.2422 13.2114 77.4988C12.6255 77.81 12.0661 78.1688 11.5389 78.5716C11.0694 79.0118 10.6356 79.4885 10.2413 79.9972C9.89806 80.5431 9.59845 81.1153 9.34529 81.7085C9.15176 82.3222 9.00715 82.9504 8.91282 83.587C8.88197 84.2503 8.90579 84.9151 8.98405 85.5745C9.13174 86.2321 9.33315 86.8764 9.58626 87.501C9.89758 88.0876 10.2567 88.6475 10.6599 89.1751C11.1001 89.6446 11.5768 90.0785 12.0855 90.4727C12.6314 90.816 13.2036 91.1156 13.7967 91.3688C14.4105 91.5623 15.0386 91.7069 15.6752 91.8013C16.338 91.8321 17.0023 91.8083 17.6612 91.7302C18.3248 91.5806 18.975 91.3765 19.605 91.12L19.6315 91.1061C19.7127 91.0634 19.7939 91.0207 19.8744 90.9762C20.8508 90.3995 22.0038 90.1981 23.1179 90.4096C24.028 90.578 25.3095 91.3914 25.7318 92.2452C26.0787 92.9463 26.4922 93.6125 26.9668 94.2344C27.4087 94.7069 27.8876 95.1435 28.3989 95.54C28.9429 95.8822 29.513 96.1811 30.1038 96.4339C30.7204 96.6288 31.3516 96.7744 31.9912 96.8692C32.6525 96.8998 33.3152 96.8761 33.9727 96.7985C34.6317 96.6508 35.2775 96.4491 35.9035 96.1954C36.49 95.8841 37.0499 95.5251 37.5774 95.1219Z" fill="#FFC41F"/>
<path d="M41.4515 75.6947C41.3086 75.5992 41.1638 75.5066 41.0178 75.4157L41.1191 75.8021C42.7607 72.1916 43.0385 68.1086 41.901 64.3091C40.8522 60.8121 38.6441 57.7763 35.6402 55.7013C32.5356 53.5718 28.6734 52.3918 24.9014 52.8285C22.9368 53.0429 21.0205 53.5771 19.2283 54.4099C17.5041 55.2314 15.9503 56.3707 14.6486 57.7683C13.3256 59.151 12.2448 60.7465 11.4514 62.4879C10.6763 64.2611 10.225 66.1588 10.1188 68.091C10.0911 68.576 10.0863 69.0616 10.1007 69.5471L10.308 69.2748C8.76153 69.8829 7.31904 70.728 6.03233 71.7796C2.14599 75.003 -0.0290971 79.844 0.141679 84.8903C0.23435 88.0057 1.2414 91.0251 3.03743 93.5724C4.70812 95.9228 6.95899 97.8006 9.57088 99.0228C10.9847 99.7086 12.4976 100.168 14.0542 100.383C14.9436 100.506 15.8405 100.568 16.7385 100.569C17.6118 100.551 18.4819 100.456 19.3388 100.286C19.7624 100.206 20.182 100.107 20.5983 99.9943L20.3235 99.9217C21.5698 101.373 23.0651 102.591 24.7392 103.518C26.3669 104.438 28.136 105.081 29.9744 105.422C33.6978 106.07 37.6115 105.253 40.8978 103.427C43.8325 101.798 46.0956 99.1199 47.4835 96.0864C49.0756 92.7474 49.4154 88.9476 48.441 85.379C47.9883 83.5841 47.2406 81.8769 46.2285 80.3269C45.2199 78.8523 43.9759 77.5533 42.5461 76.482C42.1894 76.2082 41.8246 75.9458 41.4515 75.6946C41.1497 75.4903 40.8667 75.9795 41.1664 76.1824C42.6093 77.1345 43.9046 78.2933 45.0111 79.6215C46.1202 81.0216 46.9728 82.6069 47.5294 84.3042C48.1158 86.0052 48.4151 87.7919 48.415 89.5912C48.4 91.366 48.064 93.1236 47.4233 94.7788C46.2777 97.789 44.284 100.535 41.5932 102.34C38.5776 104.342 34.9839 105.289 31.3732 105.034C29.5548 104.867 27.7805 104.379 26.1327 103.593C24.4896 102.84 22.9865 101.814 21.688 100.557C21.3504 100.227 21.0297 99.8808 20.7229 99.5222C20.6514 99.4498 20.5461 99.422 20.4482 99.4496C17.2418 100.324 13.8387 100.139 10.7464 98.921C8.17253 97.9019 5.90069 96.2439 4.14518 94.1035C2.27252 91.7947 1.10489 88.9952 0.782059 86.0401C0.634121 84.4886 0.702273 82.924 0.984563 81.3912C1.87757 76.6109 4.95275 72.5222 9.29783 70.3383C9.67817 70.151 10.065 69.9781 10.4582 69.8195C10.5787 69.7828 10.6622 69.6731 10.6656 69.5472C10.6048 67.6715 10.8745 65.7998 11.4623 64.0176C12.066 62.2606 12.9798 60.6261 14.1605 59.1917C15.2834 57.7667 16.6497 56.5517 18.196 55.6028C19.8394 54.6359 21.639 53.9631 23.5137 53.6147C25.3395 53.2405 27.2198 53.2163 29.0546 53.5434C30.8354 53.8809 32.5473 54.5136 34.1197 55.4152C40.6619 59.1287 43.6333 66.9739 41.1928 74.0897C41.0285 74.5743 40.8414 75.05 40.6314 75.517C40.5573 75.6523 40.6018 75.8219 40.7328 75.9035C40.8787 75.9944 41.0234 76.0869 41.1665 76.1824C41.4696 76.3849 41.7527 75.8958 41.4515 75.6947Z" fill="black"/>
<path d="M38.6752 93.4968C38.3909 93.8624 38.0866 94.212 37.7637 94.544C37.4382 94.8709 37.0769 95.1601 36.6867 95.4062C36.3008 95.673 35.886 95.8955 35.4502 96.0693C34.9945 96.2382 34.5287 96.3787 34.0555 96.4898C33.5933 96.5767 33.123 96.6134 32.6528 96.5995C32.1613 96.6015 31.6713 96.5462 31.1926 96.4348C30.7284 96.3432 30.2759 96.2004 29.8433 96.009C29.4173 95.8139 29.0051 95.59 28.6096 95.3389C28.2265 95.0687 27.8704 94.7621 27.5463 94.4233C27.2231 94.1011 26.9367 93.744 26.6925 93.3584C26.2535 92.6858 25.9716 91.8981 25.3844 91.3349C24.8398 90.8095 24.1783 90.4207 23.4543 90.2004C22.6596 89.9853 21.8221 89.9856 21.0276 90.2013C20.6005 90.318 20.1885 90.4839 19.7997 90.6955C19.3942 90.9055 18.9696 91.0762 18.5316 91.2053C18.0621 91.3607 17.576 91.4605 17.0832 91.5025C16.6005 91.5524 16.1141 91.5552 15.6309 91.5108C15.1665 91.444 14.7075 91.3439 14.2574 91.2113C13.7927 91.0697 13.3454 90.8765 12.9238 90.6353C12.5141 90.4192 12.1297 90.1583 11.7775 89.8574C11.4235 89.5731 11.0986 89.2542 10.8078 88.9054C10.5198 88.5241 10.2575 88.1239 10.0228 87.7076C9.80384 87.3045 9.6305 86.8782 9.50598 86.4367C9.35233 85.9697 9.25361 85.4863 9.21184 84.9964C9.16183 84.5133 9.15902 84.0266 9.20346 83.543C9.27032 83.0786 9.37041 82.6195 9.50296 82.1694C9.64448 81.7048 9.83769 81.2574 10.079 80.8358C10.2951 80.4261 10.5559 80.0417 10.8568 79.6895C11.1411 79.3355 11.46 79.0107 11.8086 78.7199C12.1791 78.4402 12.5674 78.1848 12.971 77.9555C13.3892 77.7253 13.8324 77.5438 14.2919 77.4146C14.7401 77.2786 15.1979 77.1766 15.6614 77.1093C16.0222 77.0575 16.3769 76.9698 16.7203 76.8477C18.2042 76.2947 19.2982 75.0158 19.6147 73.4642C19.7004 73.0501 19.7237 72.6255 19.684 72.2045C19.6217 71.7655 19.5202 71.333 19.3805 70.9121C19.1301 69.9654 19.0655 68.979 19.1902 68.0077C19.2721 67.5459 19.3811 67.0893 19.5168 66.6404C19.6773 66.1813 19.8871 65.741 20.1425 65.3272C20.3652 64.9397 20.6295 64.5776 20.9306 64.2474C21.2331 63.8888 21.5745 63.5649 21.9486 63.2818C22.3267 63.012 22.7201 62.7643 23.1268 62.5399C23.5506 62.3285 23.9964 62.1647 24.4563 62.0514C24.9306 61.9146 25.4195 61.8342 25.9127 61.8117C26.394 61.7729 26.8781 61.7885 27.3558 61.8583C27.8176 61.9403 28.2742 62.0493 28.7231 62.1849C29.1695 62.3408 29.598 62.544 30.0012 62.7909C30.4016 63.0183 30.7755 63.2893 31.1162 63.599C31.4748 63.9015 31.7986 64.2429 32.0818 64.6169C32.3515 64.995 32.5992 65.3884 32.8237 65.7951C33.0348 66.2184 33.1984 66.6637 33.3116 67.123C33.5605 68.0531 33.6288 69.0222 33.5128 69.9779C33.4299 70.4557 33.318 70.9281 33.1777 71.3923C33.0217 71.8387 32.8185 72.2671 32.5714 72.6704C32.3386 73.0793 32.0608 73.4609 31.7432 73.8081C31.4391 74.1471 31.1012 74.4478 30.7843 74.7736C30.18 75.395 29.866 76.2719 29.7443 77.1131C29.6173 77.9805 29.7439 78.8661 30.1088 79.6632C30.4919 80.4435 31.0789 81.1057 31.8077 81.5796C32.1524 81.8174 32.5374 81.9907 32.9441 82.0908C33.413 82.1995 33.8898 82.2437 34.3576 82.3539C34.8166 82.4538 35.2631 82.6042 35.6891 82.8023C36.1328 82.997 36.5556 83.2362 36.9512 83.516C37.3077 83.795 37.6461 84.0964 37.9643 84.4184C38.2855 84.751 38.5684 85.1186 38.8078 85.5143C39.0734 85.916 39.2917 86.3471 39.4586 86.7989C39.6247 87.2411 39.7558 87.6958 39.8506 88.1587C39.9223 88.6385 39.9502 89.1239 39.9339 89.6089C39.9231 90.0979 39.856 90.5841 39.7337 91.0577C39.6387 91.4925 39.497 91.9157 39.3111 92.32C39.1076 92.7437 38.8805 93.1556 38.631 93.5539C38.438 93.8632 38.9265 94.1471 39.1188 93.8391C39.3826 93.418 39.6212 92.9817 39.8334 92.5324C40.224 91.6332 40.4492 90.671 40.4981 89.6918C40.5045 89.1941 40.4799 88.6965 40.4242 88.2018C40.3507 87.7234 40.2273 87.254 40.056 86.8013C39.906 86.3469 39.707 85.9103 39.4623 85.4992C39.2234 85.0742 38.9463 84.6719 38.6345 84.2972C38.3113 83.9439 37.9626 83.615 37.5912 83.3129C37.2243 83.0117 36.8267 82.7502 36.4048 82.5327C35.9824 82.2944 35.536 82.1013 35.0732 81.9565C34.8324 81.8876 34.5897 81.8261 34.345 81.7719C34.1032 81.7185 33.8647 81.7004 33.6216 81.6613C33.1722 81.6001 32.7373 81.4589 32.3378 81.2443C31.5566 80.8053 30.936 80.1283 30.5666 79.3119C30.2183 78.464 30.161 77.5245 30.4036 76.6404C30.5208 76.2073 30.7124 75.7977 30.9699 75.4301C31.2263 75.069 31.5945 74.7914 31.8984 74.4717C32.2494 74.1273 32.5634 73.7472 32.8353 73.3375C33.087 72.9251 33.3142 72.4983 33.5157 72.0592C33.7079 71.6169 33.8526 71.1554 33.9473 70.6826C34.0611 70.2088 34.1228 69.724 34.1315 69.2369C34.1404 68.7404 34.1121 68.244 34.0468 67.7518C33.9588 67.2629 33.8254 66.7833 33.6484 66.3193C33.4853 65.8553 33.2712 65.4109 33.01 64.9942C32.7749 64.5823 32.4975 64.196 32.1822 63.8416C31.8612 63.5078 31.5215 63.1926 31.1646 62.8975C30.7938 62.6004 30.3927 62.3432 29.968 62.1301C29.5346 61.8924 29.077 61.702 28.6029 61.5621C28.138 61.433 27.6657 61.3325 27.1885 61.261C26.6819 61.2071 26.171 61.2073 25.6644 61.2615C25.1774 61.2976 24.6959 61.3874 24.2286 61.5291C23.7614 61.6488 23.3082 61.8176 22.8766 62.0327C22.4576 62.2623 22.0526 62.5165 21.6636 62.7939C21.2783 63.0778 20.9246 63.4023 20.6088 63.7619C20.2782 64.1102 19.9853 64.4924 19.7351 64.9022C19.4914 65.3197 19.2726 65.7513 19.0799 66.1946C18.9052 66.6423 18.7772 67.1069 18.698 67.581C18.6005 68.061 18.556 68.5502 18.5653 69.0399C18.5569 69.5492 18.6036 70.058 18.7044 70.5573C18.813 71.0139 18.9851 71.4564 19.0754 71.9165C19.1602 72.3545 19.163 72.8044 19.0835 73.2433C18.9291 74.0746 18.5271 74.8399 17.9303 75.4389C17.4075 75.9476 16.7538 76.3015 16.0419 76.4611C15.6227 76.5628 15.1923 76.5891 14.7741 76.6937C14.2963 76.8131 13.826 76.961 13.3658 77.1364C12.9239 77.3191 12.503 77.5491 12.1104 77.8222C11.7127 78.0732 11.3428 78.366 11.0072 78.6955C10.6727 79.0342 10.3582 79.392 10.0653 79.7673C9.78538 80.158 9.54646 80.5766 9.35233 81.0163C8.94192 81.905 8.69434 82.8601 8.62139 83.8362C8.60845 84.3338 8.6263 84.8317 8.67483 85.3271C8.73559 85.809 8.84798 86.283 9.01007 86.7409C9.1546 87.2128 9.35082 87.6672 9.59515 88.096C9.8385 88.5229 10.1129 88.9313 10.4161 89.3179C10.717 89.6683 11.0488 89.9911 11.4074 90.2822C11.7649 90.5899 12.1539 90.8589 12.5681 91.0846C12.9819 91.3306 13.4201 91.5331 13.8756 91.6888C14.3375 91.8278 14.8073 91.9392 15.2825 92.0225C15.7825 92.0986 16.2894 92.1193 16.7939 92.0842C17.2995 92.0675 17.8016 91.9938 18.2907 91.8645C18.7643 91.7396 19.2285 91.582 19.6802 91.3927C20.0954 91.2134 20.4691 90.9702 20.9027 90.8277C21.7044 90.5518 22.572 90.5318 23.3855 90.7703C24.1148 91.0031 24.7631 91.4381 25.2551 92.0246C25.5073 92.3387 25.6568 92.731 25.8574 93.0783C26.0918 93.4842 26.3494 93.8762 26.6289 94.2523C27.2341 94.9832 27.9595 95.6054 28.774 96.0923C29.197 96.3465 29.6429 96.5602 30.106 96.7308C30.5678 96.8787 31.0394 96.9941 31.5173 97.076C32.4902 97.2179 33.4807 97.1841 34.4417 96.9761C34.9253 96.8508 35.4008 96.6962 35.8656 96.5132C36.3025 96.3221 36.7178 96.0852 37.1047 95.8064C37.4869 95.5569 37.8417 95.2677 38.1632 94.9436C38.4861 94.6117 38.7904 94.2621 39.0747 93.8965C39.2957 93.613 38.8987 93.2105 38.6752 93.4968Z" fill="black"/>
<path d="M33.137 73.9145C33.2892 73.9093 33.41 73.7844 33.41 73.6321C33.41 73.4797 33.2892 73.3548 33.137 73.3496C32.9848 73.3548 32.864 73.4797 32.864 73.6321C32.864 73.7844 32.9848 73.9093 33.137 73.9145Z" fill="black"/>
<path d="M39.7889 78.2171L43.3831 77.0933L52.5266 74.2344L63.7239 70.7335L75.9908 66.8981L88.3275 63.0409L98.108 59.9829L100.389 67.2768L100.889 68.879C101.238 69.9445 101.982 70.8355 102.968 71.368C103.889 71.8501 105.204 72.0184 106.197 71.6583C107.229 71.2845 108.206 70.6018 108.687 69.5799C109.191 68.5795 109.294 67.4246 108.977 66.3503L106.195 57.4541L109.587 56.3938L110.788 56.0183L112.398 61.1683L112.81 62.4882C113.159 63.5537 113.903 64.4448 114.889 64.9773C115.81 65.4594 117.125 65.6277 118.119 65.2676C119.15 64.8938 120.127 64.2111 120.608 63.1892C121.112 62.1888 121.216 61.0338 120.898 59.9596L118.876 53.4936C119.215 53.3876 119.552 53.2805 119.89 53.1723C119.938 53.1569 119.986 53.1423 120.034 53.1274C121.099 52.7794 121.99 52.0353 122.523 51.049C123.005 50.1284 123.173 48.8126 122.813 47.8194C122.439 46.7882 121.757 45.811 120.735 45.3304C119.734 44.8262 118.579 44.7224 117.505 45.0401L115.221 45.7542L112.525 46.5971C112.45 46.6178 112.375 46.6404 112.303 46.6667L109.035 47.6887L99.891 50.5475L99.8457 50.5616C99.7702 50.5824 99.6956 50.605 99.6231 50.6312L88.6937 54.0485L76.4269 57.8838L64.0901 61.7411L52.5865 65.3378L42.831 68.388L35.8424 70.5731" fill="#FFC41F"/>
<path d="M39.8641 78.4892L60.9175 71.9066L84.784 64.4444L98.1833 60.255L97.8358 60.0577L100.039 67.103C100.351 68.1031 100.572 69.2084 101.164 70.0901C101.643 70.8201 102.323 71.3964 103.121 71.7497C104.787 72.459 106.713 72.125 108.043 70.8967C108.734 70.2467 109.194 69.3898 109.355 68.4552C109.571 67.3303 109.274 66.3525 108.94 65.2866L106.468 57.3789L106.271 57.7264L110.863 56.2906L110.516 56.0933L112.384 62.0682C112.628 62.8507 112.913 63.5542 113.454 64.1833C113.96 64.7735 114.612 65.2199 115.346 65.4776C116.816 65.9897 118.447 65.715 119.668 64.7492C121.005 63.7246 121.61 61.9164 121.271 60.2763C121.036 59.1367 120.585 58.0105 120.237 56.9L119.149 53.4183L118.952 53.7658C120.279 53.3496 121.486 52.9475 122.37 51.8032C123.136 50.786 123.443 49.4959 123.219 48.2427C122.976 47.0248 122.255 45.9549 121.218 45.2718C120.611 44.9062 119.931 44.6779 119.227 44.6031C118.424 44.5119 117.701 44.6827 116.941 44.9204L97.6438 50.954L77.7609 57.1706L57.9346 63.3695L38.2053 69.5382L35.7674 70.3004C35.4216 70.4085 35.5692 70.954 35.9176 70.8451L54.8802 64.9162L73.8702 58.9788L92.9917 53.0003L111.724 47.1433L116.275 45.7204C117.058 45.4758 117.852 45.1459 118.682 45.1383C119.475 45.1321 120.255 45.3473 120.933 45.7597C123.396 47.3015 123.199 51.0111 120.791 52.473C120.183 52.842 119.475 53.0101 118.801 53.2212C118.652 53.2645 118.565 53.4185 118.604 53.5687L120.263 58.8741C120.536 59.7471 120.865 60.5946 120.786 61.5258C120.71 62.705 120.105 63.7866 119.139 64.4676C118.173 65.1486 116.951 65.3558 115.815 65.0313C115.093 64.8374 114.443 64.4392 113.943 63.8845C113.375 63.2646 113.123 62.5401 112.877 61.7531L111.06 55.9431C111.017 55.7941 110.863 55.7066 110.713 55.7458L106.12 57.1816C105.972 57.225 105.884 57.379 105.923 57.5291L107.881 63.7893C108.192 64.7849 108.597 65.795 108.805 66.8172C108.997 67.8378 108.802 68.8932 108.257 69.7775C107.303 71.3083 105.306 71.8991 103.637 71.3453C102.781 71.0478 102.054 70.4641 101.579 69.6927C101.067 68.8777 100.868 67.8631 100.583 66.9528L98.3805 59.9076C98.3372 59.7586 98.1832 59.6711 98.0331 59.7103L74.1753 67.1697L50.3291 74.6255L39.714 77.9445C39.3681 78.0526 39.5158 78.5981 39.8641 78.4892L39.8641 78.4892Z" fill="black"/>
<path d="M97.1825 49.3906L100.327 51.0522C100.543 51.1664 100.703 51.3638 100.771 51.5987C100.838 51.8337 100.807 52.086 100.684 52.2974C100.477 52.6538 100.054 52.8238 99.6584 52.7098L96.2932 51.741C96.2932 51.741 93.9185 54.387 90.8115 52.7864" fill="#F5EDFC"/>
<path d="M97.04 49.6344L100.073 51.2372C100.316 51.3658 100.52 51.5379 100.523 51.8405C100.521 52.0373 100.427 52.2219 100.268 52.3384C100.11 52.455 99.9053 52.4899 99.717 52.4326C99.1725 52.2889 98.6334 52.1206 98.0923 51.9648L96.3683 51.4685C96.2703 51.441 96.1651 51.4688 96.0935 51.5411C95.247 52.4616 94.0604 52.9953 92.8101 53.018C92.1629 53.0055 91.5276 52.8427 90.9542 52.5424C90.6306 52.3785 90.3443 52.8657 90.6691 53.0302C91.6987 53.5761 92.8957 53.7157 94.0233 53.4213C94.8038 53.1975 95.5261 52.8059 96.1395 52.2737C96.2645 52.1706 96.3827 52.0593 96.493 51.9405L96.2183 52.0131C97.3361 52.3349 98.4494 52.6868 99.5752 52.9796C100.133 53.1433 100.728 52.8758 100.976 52.3493C101.223 51.8229 101.05 51.1945 100.568 50.8687C100.409 50.7693 100.244 50.6793 100.074 50.5991L99.0871 50.0776L97.3251 49.1467C97.0039 48.9769 96.7181 49.4644 97.04 49.6345L97.04 49.6344Z" fill="black"/>
<path d="M54.9004 57.1992L55.6799 59.8577C55.7518 60.103 55.8318 60.3456 55.92 60.5857L57.3354 64.4411" fill="#458DC9"/>
<path d="M54.628 57.2743C54.895 58.185 55.1562 59.0975 55.4293 60.0063C55.7587 61.102 56.2019 62.1706 56.596 63.244L57.0631 64.5162C57.1874 64.8547 57.7336 64.7084 57.6078 64.366L56.5246 61.4157C56.1975 60.5246 55.9075 59.63 55.6404 58.719L55.1728 57.1242C55.0707 56.776 54.5254 56.9242 54.628 57.2743Z" fill="black"/>
<path d="M40.768 43.1817L23.6978 51.2427L29.3882 62.8466C27.9957 63.0343 26.0074 63.6389 23.8912 64.5735C22.7218 65.09 18.7439 68.6277 17.8398 69.1738L10.5742 52.5127C8.21289 47.5509 11.9653 43.0973 15.7132 40.3707L18.26 38.7749L33.0909 30.8125C34.7533 29.92 36.5204 29.2382 38.3515 28.7827L45.3381 27.0449" fill="white"/>
<path d="M40.6255 42.9364L38.9294 43.7373L34.8555 45.6611L29.9257 47.989L25.6617 50.0026L24.2549 50.6669C24.0334 50.7715 23.7992 50.8641 23.5851 50.9832C23.5755 50.9885 23.5651 50.9926 23.5552 50.9973C23.4228 51.0778 23.378 51.2487 23.4538 51.3838L25.3733 55.2979L28.4429 61.5573L29.1443 62.9877L29.3131 62.5728C28.1892 62.7473 27.0855 63.0334 26.0183 63.4267C25.3569 63.6581 24.7051 63.9159 24.0611 64.1921C23.769 64.313 23.4882 64.4597 23.2222 64.6304C21.8343 65.5399 20.5741 66.657 19.289 67.7024C18.7864 68.1461 18.2546 68.5558 17.6972 68.9284L18.0837 69.0298L16.6374 65.7129L13.6635 58.8931L11.2099 53.2668C11.0692 52.9444 10.9331 52.6196 10.7859 52.3001C9.93665 50.4535 9.92143 48.3311 10.7441 46.4725C11.5315 44.6414 12.8887 43.0972 14.3744 41.7957C14.8896 41.3232 15.4415 40.8924 16.0248 40.5073L17.4712 39.6011C17.8694 39.3515 18.2606 39.0937 18.6745 38.8714L20.4892 37.8971L26.8043 34.5068L32.3663 31.5207C32.7723 31.3027 33.1765 31.0805 33.5863 30.8696C35.1872 30.0554 36.8772 29.4297 38.6223 29.0051L44.8402 27.4585L45.4133 27.316C45.7658 27.2283 45.6165 26.6834 45.2631 26.7713L39.513 28.2015C38.4819 28.458 37.4504 28.7052 36.4432 29.0479C35.159 29.492 33.9137 30.0412 32.7198 30.6901L28.0543 33.1947L21.4012 36.7667L18.9944 38.0588C18.6971 38.2184 18.3914 38.3684 18.1008 38.5401C17.2639 39.0346 16.4395 39.5638 15.6236 40.0922C14.9513 40.5498 14.3165 41.0602 13.7253 41.6185C12.9584 42.3082 12.2566 43.067 11.6289 43.8854C10.4411 45.4458 9.57473 47.3162 9.55604 49.3064C9.55463 50.3526 9.77101 51.3877 10.1914 52.3458C10.2646 52.5164 10.3439 52.6847 10.4181 52.8551L12.4058 57.413L15.4652 64.4289L17.4952 69.0839L17.5959 69.3149C17.6754 69.4486 17.8475 69.4937 17.9824 69.4162C18.4594 69.1003 18.9154 68.7536 19.3475 68.3784C20.0243 67.8318 20.6948 67.2774 21.3726 66.732C21.9924 66.2333 22.6148 65.734 23.2684 65.2799C24.0091 64.7653 24.8475 64.4562 25.6901 64.1439C26.907 63.666 28.1722 63.3219 29.4634 63.1174C29.658 63.0906 29.7023 62.8456 29.6322 62.7025L27.7127 58.7884L24.6432 52.529L23.9418 51.0987L23.8404 51.4851L25.5365 50.6842L29.6103 48.7604L34.5401 46.4325L38.8041 44.4189L40.211 43.7546C40.4324 43.65 40.6666 43.5575 40.8807 43.4384C40.8903 43.433 40.9007 43.4289 40.9106 43.4242C41.2392 43.2691 40.9528 42.7819 40.6255 42.9364L40.6255 42.9364Z" fill="black"/>
<path d="M17.8533 69.1256C17.5894 68.5281 18.7773 67.3822 20.7489 66.1914L22.3305 68.8521C19.9439 69.6033 18.1312 69.7549 17.8533 69.1256Z" fill="black"/>
<path d="M18.1255 69.0504C18.1174 69.0304 18.0901 68.9257 18.1005 68.982C18.098 68.9648 18.0977 68.9475 18.0993 68.9303C18.1033 68.8774 18.0943 68.9441 18.0999 68.9103C18.1141 68.828 18.1433 68.749 18.1861 68.6772C18.3306 68.4335 18.511 68.2129 18.7211 68.0229C19.3828 67.4141 20.1108 66.8815 20.8914 66.4351L20.5049 66.3338L22.0865 68.9945L22.2553 68.5796C21.3245 68.8978 20.3613 69.1118 19.3833 69.2179C19.0856 69.2531 18.7845 69.2469 18.4885 69.1994C18.3906 69.1829 18.2959 69.151 18.2079 69.1049C18.1517 69.0732 18.1689 69.0842 18.1406 69.0537C18.1245 69.0362 18.1061 69.0136 18.1313 69.0452C18.1176 69.0258 18.1061 69.0049 18.0971 68.9829C17.9408 68.6549 17.4536 68.9412 17.6093 69.268C17.8733 69.8221 18.7073 69.8211 19.2207 69.7938C20.3032 69.736 21.3759 69.4464 22.4055 69.1243C22.4892 69.0998 22.5572 69.0385 22.5901 68.9576C22.623 68.8768 22.6172 68.7854 22.5743 68.7094L20.9927 66.0487C20.9126 65.9159 20.7413 65.871 20.6063 65.9474C19.7596 66.461 18.9001 67.0235 18.2069 67.7382C17.8695 68.086 17.3646 68.6688 17.5808 69.2005C17.6264 69.3477 17.7786 69.4341 17.9283 69.3978C18.0781 69.3556 18.1661 69.2007 18.1255 69.0504Z" fill="black"/>
<path d="M23.8912 64.5726C26.0073 63.638 27.9956 63.0334 29.3882 62.8457L30.33 64.7732L31.7177 67.6138L27.1832 69.7319L23.7947 71.3148L22.3304 68.8514L20.7489 66.1907C21.7614 65.586 22.8109 65.0456 23.8912 64.5726Z" fill="#F5EDFC"/>
<path d="M24.0337 64.8165C25.7568 64.0582 27.5889 63.3762 29.4633 63.1181L29.1443 62.9883L31.0391 66.8666L31.4738 67.7564L31.5751 67.3699L28.1303 68.979L25.4245 70.2429L23.6521 71.0708L24.0385 71.1722L21.609 67.085L20.9926 66.0482L20.8913 66.4346C21.9042 65.8306 22.9536 65.2902 24.0337 64.8165C24.3653 64.6695 24.0783 64.1826 23.7485 64.3288C22.6685 64.8024 21.619 65.3428 20.6062 65.9468C20.4735 66.0271 20.4286 66.1983 20.5049 66.3333C21.3053 67.68 22.1058 69.0266 22.9062 70.3732L23.5508 71.4574C23.6321 71.5886 23.802 71.6331 23.9372 71.5587L27.2507 70.0109L30.361 68.5581L31.8602 67.8578C31.9926 67.7773 32.0374 67.6064 31.9615 67.4713C31.3639 66.248 30.7663 65.0248 30.1687 63.8015L29.6321 62.7032C29.5657 62.5947 29.4364 62.5421 29.3131 62.5734C27.3889 62.8384 25.5167 63.5507 23.7486 64.3288C23.4166 64.4748 23.7037 64.9617 24.0337 64.8165Z" fill="black"/>
<path d="M24.6561 53.1963L21.7841 47.3828L24.6561 53.1963Z" fill="white"/>
<path d="M24.8999 53.053L22.3874 47.9672L22.0279 47.2395C21.8669 46.9136 21.3795 47.1994 21.5401 47.5246L24.0526 52.6104L24.4121 53.3381C24.5732 53.664 25.0606 53.3781 24.8999 53.053Z" fill="black"/>
<path d="M28.8195 68.6975L33.1757 66.9854C34.5593 66.456 36.1228 66.7457 37.2249 67.7358L39.7075 69.9661C40.8471 70.99 41.2425 72.6079 40.7034 74.0419C40.7034 74.0419 40.369 75.2189 39.0372 74.9369C37.9655 75.7889 37.83 75.8384 37.0715 75.6543C36.6594 76.4192 35.4576 76.7042 35.0446 76.6246C34.7681 77.34 34.1197 77.8213 33.3217 77.4525L32.3742 76.1718C31.6515 75.1948 30.3078 74.9212 29.2605 75.5377C27.8973 76.2098 26.2464 75.6996 25.5001 74.3755L23.424 70.6923" fill="#F5EDFC"/>
<path d="M28.8946 68.9698L31.8015 67.8273L33.1598 67.2933C33.9293 66.9782 34.7814 66.9261 35.5835 67.1452C36.2678 67.3382 36.8038 67.7365 37.3214 68.2015L38.767 69.5003C39.16 69.8219 39.5299 70.1709 39.8738 70.5446C40.5427 71.3579 40.8032 72.4323 40.5812 73.4617C40.5374 73.643 40.484 73.8218 40.421 73.9974C40.3915 74.0849 40.4349 73.9801 40.4007 74.0489C40.375 74.1009 40.349 74.1523 40.3186 74.2019C40.1547 74.4752 39.8729 74.6567 39.5561 74.6929C39.4292 74.7033 39.3015 74.6979 39.176 74.6769C38.9575 74.6444 38.8773 74.7061 38.7083 74.8393C38.4966 75.0152 38.273 75.1763 38.039 75.3213C37.729 75.5024 37.4938 75.4651 37.1467 75.3818C37.0234 75.3502 36.8939 75.4029 36.8277 75.5116C36.6254 75.8321 36.3186 76.0728 35.9592 76.1928C35.7932 76.2571 35.6211 76.3046 35.4456 76.3345C35.3843 76.3448 35.3223 76.3512 35.2601 76.3537C35.221 76.3552 35.0883 76.3468 35.1197 76.3521C34.9701 76.317 34.8187 76.403 34.7722 76.5494C34.6659 76.851 34.4456 77.0989 34.1585 77.2397C34.0209 77.2947 33.871 77.311 33.7249 77.287C33.6785 77.2717 33.6311 77.26 33.583 77.2518L33.5523 77.2415C33.4985 77.2159 33.5027 77.2383 33.5648 77.3086C33.5636 77.3092 33.5373 77.2711 33.5354 77.2689C33.2598 76.9498 33.0268 76.5814 32.776 76.2424C32.4896 75.8058 32.0988 75.4478 31.6389 75.2007C30.9761 74.8771 30.2091 74.8415 29.5191 75.1023C29.2102 75.2543 28.8905 75.3832 28.5625 75.4877C28.2424 75.5615 27.9111 75.5722 27.587 75.5193C26.9138 75.4098 26.3106 75.0401 25.9074 74.4899C25.7614 74.2709 25.6274 74.044 25.506 73.8105L24.8538 72.6535L23.6678 70.5496C23.4893 70.2329 23.0011 70.5173 23.18 70.8347L24.2499 72.7327C24.609 73.3698 24.9425 74.0316 25.335 74.6492C26.1693 75.9459 27.8147 76.4555 29.2359 75.8574C29.5698 75.7144 29.8636 75.541 30.2347 75.5027C30.5902 75.4652 30.9494 75.5174 31.2794 75.6547C31.772 75.8621 32.0776 76.2428 32.3836 76.6564L32.8901 77.341C33.0354 77.5374 33.1271 77.6895 33.3715 77.776C34.2539 78.0881 34.998 77.4898 35.317 76.6995L34.9696 76.8968C35.8133 77.0392 36.8959 76.5378 37.3155 75.7967L36.9965 75.9265C37.3249 76.0355 37.6779 76.0458 38.0121 75.9563C38.4721 75.7943 38.8618 75.4343 39.237 75.1365L38.9622 75.209C39.7117 75.3564 40.4462 75.128 40.8342 74.4401C41.1665 73.7864 41.2943 73.0479 41.2008 72.3206C41.0945 71.3392 40.6338 70.4302 39.905 69.7644C39.5792 69.4673 39.249 69.1751 38.9211 68.8804C37.9571 68.0144 37.0185 66.9641 35.7337 66.6006C34.8556 66.3546 33.9215 66.3982 33.0701 66.725C32.683 66.8746 32.2976 67.0286 31.9114 67.1804L28.7445 68.4251C28.4099 68.5566 28.5556 69.1031 28.8946 68.9699V68.9698Z" fill="black"/>
<path d="M50.1864 25.8379C50.7772 28.2016 50.0611 30.7008 48.3082 32.3929C46.5553 34.085 44.0323 34.7126 41.691 34.0388C39.3496 33.3651 37.5461 31.4925 36.9607 29.1275L50.1864 25.8379Z" fill="#F5EDFC"/>
<path d="M49.9139 25.9136C50.4748 28.1789 49.7845 30.5713 48.1031 32.1896C46.4218 33.8079 44.0048 34.4062 41.7626 33.7593C39.5204 33.1124 37.7937 31.3184 37.2329 29.0531L37.0356 29.4006L41.5071 28.2884L48.6307 26.5165L50.2614 26.1109C50.6139 26.0232 50.4646 25.4783 50.1112 25.5662L45.6398 26.6784L38.5162 28.4503L36.8855 28.8559C36.7366 28.8994 36.6493 29.0533 36.6882 29.2033C37.6431 33.0001 41.4923 35.3063 45.2906 34.3575C49.0888 33.4087 51.4013 29.5633 50.4586 25.7635C50.3725 25.4105 49.8277 25.56 49.9139 25.9136Z" fill="black"/>
<path d="M40.4594 29.2654L39.2135 22.1367L45.6904 23.2774L46.7904 27.9024" fill="#F5EDFC"/>
<path d="M40.7317 29.1899L39.638 22.9316L39.4859 22.0611L39.1385 22.4086L44.8239 23.4098L45.6153 23.5492L45.4181 23.352L46.3819 27.4044L46.5181 27.977C46.6022 28.3305 47.1471 28.1809 47.0628 27.8268L46.099 23.7743L45.9628 23.2018C45.9375 23.1052 45.8621 23.0298 45.7655 23.0045L40.0801 22.0032L39.2887 21.8638C39.1911 21.8398 39.088 21.8685 39.017 21.9396C38.9459 22.0106 38.9172 22.1137 38.9412 22.2113L40.0349 28.4696L40.1869 29.3401C40.2494 29.6975 40.7939 29.546 40.7316 29.1899H40.7317Z" fill="black"/>
<path d="M39.6412 24.5987C35.6478 22.5966 36.1815 19.683 35.6075 17.7577C35.2741 16.6397 36.2919 13.8715 36.2919 13.8715L47.9348 12.0234C47.9348 12.0234 55.1585 24.0224 43.6342 24.3177" fill="#F5EDFC"/>
<path d="M39.7839 24.3543C38.8205 23.8668 37.9045 23.2297 37.2735 22.3383C36.8183 21.6699 36.5029 20.9163 36.3463 20.1229C36.1971 19.4411 36.1299 18.7442 35.9779 18.063C35.8882 17.7607 35.8364 17.4484 35.8236 17.1332C35.8405 16.7058 35.9003 16.2811 36.0021 15.8656C36.1473 15.2141 36.3351 14.5729 36.5643 13.9461L36.3671 14.1433L40.3025 13.5187L46.5733 12.5233L48.0101 12.2952L47.6911 12.1654C47.9164 12.5401 48.1153 12.9323 48.3064 13.3251C48.749 14.2209 49.1152 15.1525 49.4013 16.1098C49.7349 17.2333 49.9466 18.346 49.8747 19.5156C49.8078 20.6059 49.4235 21.6799 48.6147 22.4568C47.525 23.5034 45.9143 23.8752 44.4391 23.993C44.1713 24.0144 43.903 24.0273 43.6344 24.0347C43.2716 24.0447 43.2701 24.6096 43.6344 24.5996C45.3267 24.5531 47.1788 24.2831 48.5668 23.2332C49.5485 22.4836 50.196 21.3781 50.3696 20.1552C50.5565 18.9415 50.4003 17.7011 50.1 16.5183C49.8185 15.4458 49.4384 14.4016 48.9646 13.3991C48.7421 12.8823 48.4837 12.3818 48.1912 11.9011C48.1868 11.8944 48.183 11.8873 48.1789 11.8804C48.1117 11.7728 47.9831 11.7205 47.8599 11.7506L43.9244 12.3753L37.6537 13.3706L36.2169 13.5987C36.121 13.6252 36.0461 13.7001 36.0196 13.7959C35.8207 14.343 35.6525 14.9007 35.5157 15.4665C35.3152 16.2866 35.152 17.1387 35.3735 17.9682C35.5588 18.6619 35.6213 19.3827 35.7623 20.0857C35.91 20.9099 36.2093 21.6995 36.6451 22.4144C37.3333 23.4916 38.37 24.271 39.4988 24.8421C39.8224 25.0059 40.1087 24.5187 39.7839 24.3543V24.3543Z" fill="black"/>
<path d="M45.0071 15.1894C44.7393 15.0988 44.4568 15.0593 44.1744 15.073C43.5476 15.0936 42.9504 15.3444 42.4968 15.7775C42.2303 16.026 42.6304 16.4248 42.8962 16.1769C43.0926 15.9916 43.3236 15.8468 43.576 15.7509C43.6971 15.7099 43.8213 15.6783 43.9472 15.6563C44.0344 15.6399 43.8944 15.66 43.9807 15.6514C44.0071 15.6487 44.0334 15.6459 44.0598 15.6438C44.1143 15.6396 44.1689 15.6373 44.2236 15.6369C44.3169 15.6368 44.4101 15.6417 44.5029 15.6517C44.5196 15.6534 44.5863 15.6668 44.5054 15.6516C44.5233 15.655 44.5415 15.657 44.5594 15.6601C44.594 15.666 44.6285 15.6727 44.6628 15.6802C44.7287 15.6935 44.7936 15.7115 44.8569 15.734C45.0071 15.7741 45.1618 15.6863 45.2043 15.5368C45.2424 15.3868 45.1553 15.2335 45.0071 15.1893V15.1894Z" fill="black"/>
<path d="M48.9616 14.183C48.0836 14.0031 46.9223 14.2607 46.5025 15.1258C46.0147 16.1312 46.691 17.1742 47.4469 17.8272C47.5773 17.9647 47.728 18.0814 47.8937 18.1733C47.9604 18.1976 47.9127 18.196 47.8978 18.1569C47.9088 18.1819 47.9161 18.2083 47.9195 18.2354C47.9206 18.2627 47.9232 18.2596 47.9185 18.2758C47.9095 18.3073 47.8568 18.3423 47.792 18.3707C47.6534 18.4227 47.508 18.4543 47.3603 18.4645C47.0031 18.5048 46.999 19.0701 47.3603 19.0294C47.7735 18.9828 48.3475 18.8904 48.4674 18.4103C48.5169 18.1971 48.469 17.9729 48.3367 17.7986C48.2167 17.6979 48.0902 17.6053 47.9581 17.5212C47.8312 17.4192 47.7105 17.3098 47.5965 17.1936C47.2937 16.8848 46.9795 16.4737 46.9054 16.0353C46.8337 15.5732 47.0646 15.1167 47.4794 14.9007C47.7705 14.7693 48.0867 14.703 48.406 14.7064C48.5122 14.7042 48.6185 14.7074 48.7245 14.7159C48.7539 14.7144 48.7834 14.7184 48.8114 14.7277C49.1663 14.8004 49.318 14.256 48.9616 14.183V14.183Z" fill="black"/>
<circle cx="48.7487" cy="16.3754" r="0.412508" fill="black"/>
<path d="M49.2869 16.245C49.2322 16.0172 49.0401 15.8484 48.8072 15.8235C48.5742 15.7986 48.3508 15.9229 48.2491 16.1339C48.1474 16.345 48.1895 16.5972 48.3542 16.7638C48.519 16.9304 48.7707 16.9754 48.9829 16.8762C49.2202 16.7635 49.3468 16.5007 49.2869 16.245C49.2657 16.1701 49.1883 16.1262 49.1132 16.1463C49.0391 16.1685 48.9957 16.2451 49.0145 16.32C49.0159 16.3264 49.0211 16.3641 49.0173 16.3276C49.0181 16.3351 49.0189 16.3425 49.0193 16.35C49.0205 16.3687 49.0197 16.387 49.019 16.4055C49.0177 16.4418 49.0266 16.3762 49.0185 16.4114C49.0169 16.4185 49.0158 16.4256 49.0141 16.4327C49.0116 16.4432 49.0087 16.4536 49.0053 16.4639C49.0028 16.4717 48.9899 16.5021 49.0042 16.4705C48.9969 16.4868 48.9886 16.5027 48.9794 16.518C48.9757 16.5241 48.9714 16.53 48.9678 16.5361C48.9499 16.5663 48.9872 16.5154 48.9639 16.5417C48.9521 16.5553 48.9397 16.5683 48.9265 16.5805C48.9212 16.5854 48.9156 16.59 48.9101 16.5947C48.9363 16.5723 48.9057 16.5971 48.899 16.6014C48.8833 16.6113 48.8669 16.6193 48.8506 16.6278C48.8316 16.6376 48.882 16.6188 48.8479 16.6283C48.8388 16.6308 48.8299 16.6342 48.8207 16.6367C48.8115 16.6392 48.8019 16.6409 48.7927 16.6434C48.7578 16.6529 48.8126 16.643 48.7908 16.6443C48.7704 16.646 48.7499 16.6466 48.7295 16.6461C48.7222 16.6457 48.6863 16.6404 48.7234 16.6467C48.7162 16.6455 48.7091 16.6443 48.7019 16.6428C48.6842 16.6391 48.6671 16.6336 48.6499 16.6283C48.6168 16.618 48.6678 16.6381 48.6487 16.6284C48.6407 16.6243 48.6325 16.6207 48.6246 16.6164C48.6167 16.6122 48.6091 16.6077 48.6014 16.6029C48.5948 16.5988 48.5635 16.5747 48.5906 16.5971C48.5767 16.5858 48.5634 16.5736 48.5508 16.5608C48.5459 16.5556 48.5413 16.55 48.5363 16.5448C48.512 16.5196 48.5503 16.5689 48.5317 16.5391C48.522 16.5235 48.5119 16.5084 48.5035 16.4919C48.5 16.4853 48.497 16.4786 48.4939 16.4719C48.5084 16.5034 48.4927 16.4653 48.4905 16.458C48.4854 16.4414 48.4821 16.4246 48.4785 16.4077C48.4859 16.4425 48.4787 16.4078 48.4782 16.4003C48.4778 16.3928 48.4775 16.3854 48.4774 16.378C48.4773 16.3661 48.4833 16.3142 48.4772 16.3497C48.4807 16.3283 48.4857 16.3071 48.4922 16.2864C48.4926 16.2852 48.5039 16.2516 48.4963 16.273C48.4889 16.2939 48.5017 16.2621 48.5025 16.2605C48.5107 16.2443 48.5206 16.2297 48.5298 16.2142C48.5472 16.185 48.5162 16.2284 48.5303 16.2128C48.5362 16.2061 48.5418 16.1991 48.548 16.1925C48.5529 16.1873 48.558 16.1822 48.5631 16.1772C48.5683 16.1722 48.6052 16.1437 48.576 16.1644C48.5908 16.1537 48.6063 16.1439 48.6222 16.135C48.6287 16.1316 48.6354 16.1283 48.642 16.1249C48.6733 16.109 48.6234 16.1297 48.6444 16.124C48.6628 16.119 48.6805 16.1122 48.6993 16.1081C48.7076 16.1064 48.7339 16.103 48.7012 16.1066C48.7124 16.1053 48.7237 16.1044 48.7348 16.104C48.746 16.1036 48.757 16.1037 48.7681 16.1042C48.7755 16.1046 48.8101 16.1104 48.7743 16.1035C48.7956 16.1072 48.8168 16.1122 48.8375 16.1186C48.8444 16.1208 48.8511 16.1234 48.8579 16.1257C48.8232 16.114 48.8657 16.1299 48.873 16.1338C48.8888 16.1424 48.9036 16.1523 48.9185 16.1623C48.8898 16.1432 48.9182 16.1623 48.9235 16.1671C48.9315 16.1743 48.9393 16.1817 48.9468 16.1896C48.9543 16.1974 48.9612 16.2056 48.9683 16.2138C48.9529 16.1959 48.9644 16.2087 48.972 16.2204C48.9841 16.2389 48.9947 16.2583 49.0037 16.2785C49.0014 16.2734 48.9945 16.2516 49.002 16.2761C49.0064 16.2908 49.011 16.3052 49.0147 16.3201C49.036 16.3948 49.1133 16.4387 49.1884 16.4187C49.2626 16.3966 49.306 16.3199 49.2869 16.245Z" fill="black"/>
<circle cx="44.9244" cy="17.0961" r="0.412508" fill="black"/>
<path d="M45.4624 16.9657C45.4077 16.7379 45.2156 16.5691 44.9827 16.5442C44.7497 16.5193 44.5263 16.6436 44.4246 16.8546C44.323 17.0657 44.3651 17.3179 44.5298 17.4845C44.6945 17.6511 44.9462 17.6961 45.1584 17.5969C45.3957 17.4843 45.5223 17.2214 45.4624 16.9657C45.4412 16.8908 45.3639 16.8469 45.2887 16.867C45.2147 16.8892 45.1712 16.9658 45.1901 17.0407C45.1915 17.0471 45.1967 17.0848 45.1929 17.0483C45.1937 17.0558 45.1944 17.0632 45.1949 17.0708C45.196 17.0893 45.1953 17.1077 45.1946 17.1262C45.1933 17.1625 45.2022 17.0968 45.1941 17.1321C45.1925 17.1392 45.1913 17.1463 45.1896 17.1534C45.1871 17.1639 45.1843 17.1743 45.181 17.1846C45.1785 17.1924 45.1655 17.2228 45.1799 17.1912C45.1726 17.2075 45.1643 17.2234 45.155 17.2387C45.1513 17.2448 45.147 17.2507 45.1434 17.2568C45.1255 17.287 45.1628 17.2362 45.1395 17.2624C45.1278 17.276 45.1153 17.289 45.1022 17.3012C45.0968 17.3061 45.0912 17.3107 45.0858 17.3154C45.112 17.2929 45.0813 17.3178 45.0746 17.322C45.059 17.332 45.0426 17.34 45.0262 17.3485C45.0072 17.3583 45.0576 17.3394 45.0236 17.349C45.0144 17.3515 45.0055 17.3549 44.9963 17.3574C44.9872 17.3599 44.9776 17.3616 44.9683 17.3641C44.9334 17.3736 44.9883 17.3637 44.9664 17.365C44.946 17.3667 44.9256 17.3673 44.9051 17.3668C44.8978 17.3664 44.8619 17.3611 44.899 17.3674C44.8918 17.3662 44.8847 17.365 44.8776 17.3635C44.8598 17.3598 44.8428 17.3543 44.8255 17.349C44.7924 17.3387 44.8434 17.3588 44.8243 17.3491C44.8163 17.345 44.8081 17.3414 44.8002 17.3371C44.7923 17.3329 44.7847 17.3284 44.777 17.3236C44.7704 17.3195 44.7392 17.2954 44.7662 17.3178C44.7523 17.3065 44.739 17.2943 44.7265 17.2815C44.7215 17.2763 44.7169 17.2707 44.7119 17.2655C44.6876 17.2403 44.7259 17.2896 44.7073 17.2598C44.6976 17.2442 44.6875 17.2291 44.6791 17.2126C44.6757 17.206 44.6726 17.1993 44.6695 17.1926C44.6841 17.2241 44.6683 17.186 44.6661 17.1787C44.661 17.1621 44.6577 17.1453 44.654 17.1284C44.6614 17.1632 44.6542 17.1284 44.6537 17.121C44.6533 17.1136 44.653 17.1061 44.653 17.0987C44.6529 17.0868 44.6588 17.0349 44.6527 17.0704C44.6562 17.049 44.6612 17.0278 44.6677 17.0071C44.6681 17.0059 44.6794 16.9723 44.6719 16.9937C44.6645 17.0146 44.6772 16.9827 44.6781 16.9812C44.6862 16.965 44.6961 16.9504 44.7053 16.9349C44.7227 16.9057 44.6918 16.9491 44.7058 16.9335C44.7118 16.9268 44.7174 16.9198 44.7235 16.9132C44.7284 16.908 44.7335 16.9029 44.7387 16.8979C44.7439 16.8929 44.7808 16.8644 44.7515 16.8851C44.7664 16.8744 44.7818 16.8646 44.7978 16.8557C44.8042 16.8523 44.8109 16.849 44.8175 16.8456C44.8489 16.8297 44.7989 16.8504 44.8199 16.8447C44.8384 16.8398 44.8561 16.8329 44.8748 16.8289C44.8831 16.8271 44.9094 16.8237 44.8767 16.8273C44.8879 16.826 44.8992 16.8251 44.9104 16.8248C44.9215 16.8244 44.9326 16.8244 44.9437 16.8249C44.951 16.8253 44.9856 16.8311 44.9498 16.8243C44.9712 16.8279 44.9923 16.8329 45.0131 16.8393C45.02 16.8415 45.0266 16.8441 45.0334 16.8464C44.9987 16.8347 45.0412 16.8506 45.0486 16.8546C45.0644 16.8631 45.0791 16.873 45.094 16.883C45.0654 16.8639 45.0937 16.883 45.099 16.8878C45.1071 16.895 45.1148 16.9025 45.1223 16.9103C45.1298 16.9181 45.1368 16.9263 45.1438 16.9344C45.1283 16.9165 45.1399 16.9293 45.1475 16.941C45.1596 16.9595 45.1702 16.9789 45.1792 16.9991C45.1769 16.994 45.17 16.9722 45.1774 16.9967C45.1818 17.0114 45.1865 17.0258 45.1901 17.0407C45.2115 17.1154 45.2887 17.1593 45.3638 17.1393C45.438 17.1173 45.4815 17.0406 45.4624 16.9657Z" fill="black"/>
<path d="M35.1019 11.9363C35.1019 11.9363 32.3788 12.1053 32.6998 16.0912C32.7775 17.0572 33.287 18.1681 33.9318 19.22C35.3297 21.4816 37.298 23.3356 39.639 24.596L39.6413 24.5972L39.2193 20.7165C38.5927 20.3926 37.5011 18.9098 37.3248 17.9743C37.0583 16.5609 37.7543 16.0853 38.7415 15.8992C39.1009 15.8314 39.5209 16.0091 39.922 16.328C40.8693 17.1399 40.9142 19.0194 40.9142 19.0194C40.9142 19.0194 42.0565 28.2744 47.7256 27.2917C53.3115 26.3247 50.2272 18.6411 50.2272 18.6411C50.2272 18.6411 49.7487 19.6503 47.8183 18.7994C45.6438 18.3849 44.364 20.8774 43.5577 20.8847C41.5332 21.7359 41.4294 14.4454 41.4294 14.4454C43.3267 14.2673 45.2007 13.8949 47.0219 13.3341C49.2457 12.6081 49.4976 9.56206 47.4368 8.45511C44.6361 6.95073 40.1017 6.18101 35.1019 11.9363Z" fill="black"/>
<path d="M35.1019 11.6539C33.9498 11.7288 33.0308 12.6701 32.6599 13.7062C32.21 14.9633 32.3212 16.4419 32.8164 17.6633C33.4518 19.1598 34.3494 20.5308 35.4668 21.7117C36.6286 22.9706 37.991 24.0281 39.4988 24.8412C39.6693 24.9329 39.9483 24.8225 39.9238 24.5973L39.5626 21.2756C39.5433 21.0979 39.5255 20.92 39.5046 20.7425C39.4927 20.6067 39.4096 20.4875 39.2864 20.4293C39.1313 20.3258 38.9899 20.2032 38.8654 20.0644C38.2253 19.3974 37.5921 18.469 37.5523 17.5169C37.5363 17.1336 37.6199 16.7467 37.9394 16.5028C38.2497 16.2679 38.6342 16.1524 39.0226 16.1776C40.0098 16.3467 40.3963 17.4481 40.5513 18.3001C40.6041 18.5902 40.6113 18.8828 40.6526 19.1736C40.6911 19.4446 40.7393 19.7143 40.7927 19.9828C41.003 21.0705 41.3179 22.1354 41.7331 23.1625C42.2369 24.3888 42.9091 25.6069 43.921 26.4885C44.9797 27.4251 46.4108 27.8218 47.8007 27.5641C48.5653 27.4456 49.2862 27.1312 49.8934 26.6515C50.3973 26.2252 50.7815 25.675 51.0082 25.055C51.4726 23.8478 51.4142 22.4834 51.2114 21.2283C51.0727 20.3652 50.851 19.5176 50.5493 18.6972C50.5331 18.6533 50.5169 18.6095 50.4995 18.5661C50.4188 18.3647 50.1003 18.2568 49.9832 18.4987C49.9736 18.5178 49.9626 18.536 49.9502 18.5534C49.9134 18.6074 49.9982 18.5051 49.9447 18.5609C49.9195 18.5872 49.895 18.6137 49.869 18.6393C49.8535 18.654 49.8373 18.6679 49.8204 18.681C49.8291 18.6741 49.866 18.6485 49.8215 18.6788C49.7855 18.7032 49.7484 18.7258 49.7101 18.7464C49.6039 18.7982 49.49 18.8326 49.3728 18.8481C49.0162 18.8766 48.6577 18.8244 48.3239 18.6953C48.0899 18.5968 47.8452 18.5259 47.5947 18.4842C47.4009 18.4649 47.2055 18.4673 47.0122 18.4913C46.2748 18.5807 45.6375 18.9532 45.0665 19.41C44.6281 19.7608 44.2347 20.231 43.7681 20.5156C43.7092 20.5598 43.6409 20.5897 43.5685 20.6029C43.4981 20.6204 43.612 20.594 43.5683 20.602C43.5316 20.6087 43.4954 20.6122 43.4596 20.6218C43.4146 20.6339 43.3704 20.6512 43.325 20.6634C43.2466 20.6846 43.3506 20.6708 43.2714 20.6708C43.2513 20.6708 43.1486 20.6646 43.186 20.67C43.136 20.6603 43.0878 20.6427 43.0433 20.6179C42.9933 20.5926 42.9483 20.5585 42.9105 20.5172C42.8551 20.4681 42.8068 20.4116 42.7668 20.3492C42.657 20.1828 42.5637 20.0059 42.4882 19.8213C42.0915 18.8274 41.9524 17.7231 41.8472 16.6652C41.7739 15.9284 41.7227 15.1862 41.7118 14.4456L41.4294 14.728C42.281 14.6559 43.1281 14.5382 43.967 14.3755C44.5348 14.2714 45.0999 14.1523 45.6603 14.014C46.2332 13.8905 46.7958 13.7233 47.343 13.5136C48.0763 13.1924 48.649 12.5889 48.9315 11.8399C49.214 11.0908 49.1824 10.2594 48.8437 9.53401C48.5077 8.8064 47.8911 8.35116 47.1883 8.01209C46.6027 7.72623 45.9893 7.50145 45.3576 7.34128C43.8785 6.9744 42.3273 7.01932 40.8719 7.47116C38.4903 8.21074 36.5159 9.88645 34.9022 11.7367C34.6642 12.0096 35.0621 12.4108 35.3016 12.1362C37.6139 9.48499 40.8508 7.14242 44.5542 7.75118C45.1677 7.85368 45.7683 8.02205 46.3457 8.25337C46.9346 8.48762 47.5622 8.76356 47.9888 9.24604C48.9216 10.3008 48.6781 12.0618 47.4828 12.8099C47.0225 13.0979 46.4643 13.2187 45.9454 13.3574C45.332 13.5214 44.7116 13.6598 44.0881 13.7798C43.21 13.9589 42.3223 14.0869 41.4293 14.1631C41.2746 14.166 41.1498 14.2908 41.1469 14.4456C41.1565 15.1059 41.1999 15.7673 41.2594 16.4248C41.3622 17.5603 41.4957 18.74 41.8853 19.8183C42.0343 20.2303 42.2278 20.6785 42.5696 20.9694C42.7119 21.0968 42.8859 21.1834 43.0732 21.22C43.1847 21.2394 43.2987 21.2393 43.4101 21.2198C43.4469 21.2142 43.4834 21.2066 43.5194 21.197C43.5423 21.1907 43.5643 21.1822 43.587 21.1752C43.62 21.1658 43.6173 21.1629 43.5789 21.1666C43.6111 21.1641 43.6433 21.1601 43.6753 21.1546C44.1764 21.0709 44.5897 20.5814 44.9467 20.2575C45.4595 19.7923 46.0152 19.3257 46.6927 19.129C46.8977 19.0684 47.1102 19.037 47.324 19.0357C47.5814 19.044 47.8348 19.1011 48.0709 19.204C48.5187 19.3846 49.0044 19.4514 49.4844 19.3985C49.8546 19.3434 50.2972 19.1426 50.471 18.784L49.9548 18.7165C50.1383 19.1898 50.291 19.6744 50.4119 20.1674C50.6877 21.1665 50.8142 22.2009 50.7873 23.237C50.7421 24.3026 50.4395 25.4002 49.6231 26.1411C48.7315 26.9501 47.3093 27.248 46.145 27.01C43.8781 26.5465 42.65 24.1783 41.9655 22.1804C41.6782 21.3376 41.4532 20.4747 41.2925 19.5989C41.2552 19.3976 41.2235 19.1956 41.193 18.9932C41.2023 19.0549 41.1983 19.0457 41.1948 18.9718C41.1816 18.7318 41.1547 18.4929 41.1143 18.256C40.9944 17.523 40.7454 16.7255 40.1966 16.1967C39.8414 15.8545 39.3056 15.5622 38.7988 15.6084C38.4361 15.644 38.0853 15.7572 37.7701 15.9401C37.0149 16.388 36.8947 17.2482 37.0524 18.0497C37.2146 18.874 37.7597 19.6611 38.3013 20.2837C38.5176 20.5535 38.7802 20.7828 39.0767 20.9607L38.9368 20.7168L39.3063 24.1144L39.3588 24.5976L39.7839 24.3534C37.1871 22.9662 35.066 20.8323 33.6944 18.2273C33.3585 17.5761 33.053 16.8607 32.9852 16.1235C32.9187 15.5157 32.949 14.9012 33.0747 14.3029C33.238 13.5944 33.618 12.9313 34.1979 12.5605C34.398 12.4226 34.622 12.3233 34.8586 12.2678C34.9322 12.2483 35.0067 12.2367 35.0808 12.2204C35.153 12.2046 35.0012 12.2293 35.0793 12.2208C35.0868 12.22 35.0944 12.2193 35.1019 12.2188C35.4629 12.1954 35.4655 11.6303 35.1019 11.6539Z" fill="black"/>
<path d="M46.7101 20.3618L47.3189 20.3975L47.4065 20.4027C47.5625 20.4027 47.689 20.2762 47.689 20.1203C47.6856 19.9657 47.5611 19.8412 47.4065 19.8378L46.7977 19.8021L46.7101 19.7969C46.5541 19.7969 46.4276 19.9233 46.4276 20.0793C46.431 20.2339 46.5555 20.3584 46.7101 20.3618Z" fill="white"/>
<path d="M38.3214 17.5406C38.3293 17.5354 38.3376 17.531 38.346 17.5266C38.355 17.5219 38.3649 17.5183 38.3736 17.5132C38.4077 17.4935 38.3034 17.5386 38.3284 17.5322C38.3362 17.5302 38.3438 17.5259 38.3515 17.5233C38.3869 17.511 38.4231 17.5009 38.4597 17.4931C38.4701 17.491 38.481 17.4902 38.4912 17.4875C38.5199 17.48 38.4034 17.4944 38.4581 17.4922C38.4857 17.491 38.513 17.488 38.5408 17.4881C38.5678 17.4881 38.5944 17.4904 38.6213 17.4924C38.6821 17.4967 38.5656 17.4803 38.5997 17.4895C38.616 17.4939 38.6334 17.4956 38.6499 17.4994C38.6793 17.5061 38.7084 17.5143 38.7372 17.5239C38.7534 17.5293 38.7693 17.536 38.7855 17.5415C38.8253 17.5551 38.7564 17.5302 38.7551 17.5285C38.767 17.5357 38.7797 17.5415 38.7928 17.5459C38.8283 17.5632 38.8628 17.5823 38.8963 17.603C38.9143 17.6142 38.932 17.6257 38.9495 17.6378C38.9612 17.6458 39.0211 17.6944 38.9886 17.6654C38.9529 17.6335 39.0148 17.6879 39.022 17.6941C39.041 17.7105 39.0597 17.7272 39.0779 17.7445C39.12 17.7841 39.1602 17.8257 39.1988 17.8688C39.2235 17.8964 39.2476 17.9247 39.271 17.9536C39.2808 17.9656 39.2905 17.9778 39.3001 17.99C39.2751 17.9581 39.2929 17.981 39.307 18.0003C39.3564 18.0674 39.4028 18.1366 39.447 18.2073C39.5519 18.3778 39.6461 18.5546 39.7291 18.7368C39.8082 18.871 39.9807 18.9162 40.1155 18.8381C40.2467 18.7567 40.2912 18.587 40.2169 18.4517C39.9762 17.9327 39.6434 17.3639 39.1227 17.0812C38.8524 16.9251 38.5307 16.8846 38.2302 16.9687C38.1621 16.988 38.0968 17.0163 38.0361 17.0529C37.9014 17.1316 37.856 17.3046 37.9348 17.4393C38.0135 17.574 38.1865 17.6194 38.3212 17.5406L38.3214 17.5406Z" fill="black"/>
<circle cx="31.3148" cy="11.3543" r="4.88943" fill="black" stroke="black" stroke-width="1.0897"/>
<path d="M52.0318 26.4064C52.4431 27.9958 52.3105 29.6771 51.6551 31.1824C50.9785 32.635 49.8768 33.8481 48.4958 34.6611C47.0123 35.5662 45.3005 36.0276 43.563 35.9907C39.8693 35.8632 36.7085 33.3001 35.8208 29.7123C35.7318 29.3601 35.1869 29.5093 35.2761 29.8625C36.1747 33.4612 39.225 36.1158 42.9133 36.5092C46.4017 36.8918 50.2045 35.0692 51.899 31.957C52.8288 30.208 53.0705 28.1743 52.5764 26.2561C52.49 25.9032 51.9451 26.0527 52.0317 26.4063L52.0318 26.4064Z" fill="black"/>
<path d="M137.738 44.2322C137.738 42.1535 136.266 40.3658 134.226 39.9676C132.185 39.5694 130.149 40.6723 129.368 42.5986C128.587 44.5249 129.279 46.7347 131.021 47.8702L130.035 56.1206C129.962 56.732 130.155 57.3454 130.563 57.8058C130.972 58.2663 131.558 58.5298 132.174 58.5298H134.613C135.229 58.5298 135.815 58.2663 136.224 57.8058C136.633 57.3454 136.825 56.732 136.752 56.1206L135.767 47.8702C136.997 47.069 137.738 45.7002 137.738 44.2322Z" fill="black"/>
<path d="M138.02 44.2333C138.021 42.0178 136.45 40.113 134.275 39.6907C132.101 39.2685 129.932 40.4473 129.103 42.502C128.274 44.5567 129.019 46.9104 130.878 48.1151L130.738 47.8713L130.182 52.5304L129.843 55.3652C129.816 55.5973 129.787 55.8293 129.76 56.0614C129.696 56.5711 129.792 57.0881 130.034 57.5411C130.398 58.2075 131.052 58.6665 131.802 58.7831C132.197 58.8221 132.595 58.8322 132.991 58.8133H134.459C135.022 58.8349 135.577 58.6724 136.04 58.3504C136.667 57.8927 137.041 57.1658 137.049 56.3894C137.043 56.188 137.025 55.9872 136.994 55.788L136.7 53.3241L136.061 47.9736L136.049 47.8713L135.909 48.1152C137.216 47.254 138.007 45.7982 138.02 44.2333C138.015 44.0811 137.89 43.9603 137.738 43.9603C137.585 43.9603 137.46 44.0811 137.455 44.2333C137.447 45.5988 136.761 46.8709 135.624 47.6274C135.537 47.6777 135.484 47.7708 135.484 47.8713L136.015 52.3175L136.356 55.1743C136.425 55.7532 136.575 56.3965 136.391 56.9639C136.167 57.6325 135.589 58.1206 134.893 58.2297C134.528 58.2629 134.161 58.2692 133.796 58.2486H132.351C131.848 58.2781 131.352 58.119 130.96 57.8024C130.479 57.3823 130.238 56.7506 130.318 56.1171C130.335 55.9612 130.356 55.8055 130.374 55.6497L130.676 53.1187L131.291 47.9737L131.303 47.8714C131.303 47.7709 131.25 47.6778 131.163 47.6275C129.54 46.5613 128.898 44.4952 129.632 42.697C130.366 40.8989 132.27 39.8718 134.176 40.2461C136.082 40.6203 137.456 42.2913 137.455 44.2334C137.459 44.3866 137.584 44.5087 137.738 44.5086C137.891 44.5086 138.016 44.3865 138.02 44.2333Z" fill="black"/>
<path d="M125.697 28.214V17.7315C125.697 16.0303 125.661 14.3447 126.027 12.669C127.573 5.56465 134.149 0.709493 141.394 1.32379C148.638 1.93809 154.303 7.83119 154.63 15.0943C154.653 15.6064 154.645 16.1201 154.645 16.6326V28.214C154.65 28.3663 154.775 28.487 154.928 28.487C155.08 28.487 155.205 28.3663 155.21 28.214V15.8588C155.214 14.6383 155.074 13.4215 154.794 12.2337C153.055 5.01412 146.307 0.144275 138.907 0.768652C131.508 1.39303 125.671 7.32471 125.167 14.7336C125.126 15.3283 125.132 15.9234 125.132 16.519V28.214C125.137 28.3662 125.262 28.4869 125.414 28.4869C125.566 28.4869 125.691 28.3662 125.697 28.214V28.214Z" fill="black"/>
</svg>
